M48
;Layer_Color=9474304
;FILE_FORMAT=4:4
METRIC,LZ
;TYPE=PLATED
T1F00S00C0.3000
T2F00S00C0.6000
T3F00S00C0.7000
T4F00S00C2.4000
%
T01
X00237835Y00008665
X002371Y00016422
X00246501Y00020001
X00250001Y00013001
X002644Y00023835
X00291Y000174
X00306001Y00013001
X00341002
X00351Y0001675
X003695Y0001725
X00399001Y00012001
X0021375Y0002685
X00167031Y000241
X0013975Y000292
X0012775Y00018
X0010625Y000205
X0011108Y0000758
X00108Y000317
X0010585Y00039464
X001152Y000525
X00129699Y00057756
X00135913Y00062874
X00143756Y00061961
X00149141Y00067625
X00160341Y00066641
X00154956Y00061136
X00167233Y00061244
X00174044Y00065275
X00177714Y00072044
X00187828Y000685
X0019489Y0007157
X002019Y00077003
Y00085803
X0019476Y00091504
X00192509Y00102755
X002019Y00100625
X00216898Y00102491
X00221835Y001084
X0022223Y0015027
X00196855Y00149355
X00200377Y00141953
X002125Y0017
X00186328Y00179144
X00152758Y00182759
X00147Y002081
X001671Y0020785
X0016953Y002201
X00188001Y00230001
X0020063Y0023862
X00205072Y002011
X0015485Y001489
X0015725Y0012575
X0016825
Y0011475
X0015725
Y0010375
X0016825
Y0009275
X0015725
X0014625
Y0010375
Y0011475
Y0012575
X0013525
Y0011475
Y0010375
Y0009275
X0010973Y0009085
X00103166Y00080177
X00107Y000735
X0008675Y00077
X0008625Y0006475
X000865Y0004675
X0008815Y000908
X00083572Y00115714
X0007735Y0012025
X00077401Y0012795
X00069701Y00128022
X0008635Y00135
X00117373Y00136973
X00113446Y00143597
X001221Y00152742
X00122014Y0017885
X000955Y001805
X0008325Y001824
X00073Y0018625
Y0017725
Y0016825
X00063
Y0017725
Y0018625
X0007225Y0021405
X00053533Y0022115
X000462Y002188
X0004625Y00232
X0003025Y002275
X000294Y001981
X0000925Y002151
X000314Y001528
X000291Y00145059
X00055Y001516
X000474Y001599
X000936Y00197787
X00090686Y00225235
X00089001Y00237002
X00082001
X0012481Y00066227
X001854Y000369
X00204501Y00034001
X00243001Y00055001
X002543Y000615
X002655Y00062
X002611Y00055019
X0027075Y0004883
X00279233Y00037133
X00276763Y00064753
X00291559Y00064812
X002866Y00078401
X00297813Y00079358
X00311441Y00072196
X0032898Y0007823
X0033548Y0007173
X00337497Y000641
X00352706Y000788
X00366152Y00068875
X0037023Y000866
X00379426Y00093243
X00378Y00108515
X00385719Y00112751
X003995Y00113869
X00423001Y00108001
X00442412Y00104678
X004455Y000885
X0044525Y0007625
X00451001Y00052001
X0039027Y00057311
X0038625Y0003075
X00358502Y00048001
X00361682Y00103778
X00363201Y00111327
X00361399Y00118813
X003438Y001246
Y00113
X003322
X003206
X00309
Y001246
X003206
X003322
Y001478
X003206
X00309
X0029075Y0014575
X002739Y00139
X0025025Y00138
X00230101Y00158238
X00230521Y00199095
X00228Y00215749
X00227814Y00223447
X00235001Y00228001
X00231001Y00236001
X00251542Y00186292
X002595Y0018625
X00278647Y00179102
X00302Y001855
X00308523Y00181409
X00314296Y00186768
X00318Y00197968
X00325645Y00183
X00326449Y00166247
X00334194Y00166034
X00341888Y00165718
X00349517Y00166758
X003573Y0016515
X00362784Y00159744
X0036289Y00150556
X0036225Y001426
X003438Y001478
X0031825Y00166
X003041Y0016525
X003075Y00212001
X00318015Y00233839
X00345911Y00220616
X0035275Y0021475
X00353654Y0018335
X0038575Y001815
X003875Y0017275
X0039675Y001815
X00411605Y00175395
X0041925Y001725
X004346Y00173
X0043525Y00156
X00438411Y00143
Y00125
X0044525Y0016225
X00451001Y00196001
X00447661Y00204569
X00451001Y00212001
Y00228001
X00439001Y00236001
X00414095Y00220025
X0040663Y0021638
X0040675Y002095
X00416Y00208
X00394607Y0020685
X00383915Y002199
X0038952Y0014985
X00333266Y000954
X003095Y000958
X0029Y00098392
X00272945Y00075992
X00243332Y00077449
X002315Y00112
T02
X00075Y000085
X00099
X0021925Y002365
X0024325
T03
X0011225Y0015475
Y0016745
Y0018015
X0015255Y0022975
X0016525
X0017795
T04
X001175Y0021525
X00275Y00212
X00425Y00032
M30
