G04*
G04 #@! TF.GenerationSoftware,Altium Limited,Altium Designer,23.3.1 (30)*
G04*
G04 Layer_Physical_Order=2*
G04 Layer_Color=16711680*
%FSLAX43Y43*%
%MOMM*%
G71*
G04*
G04 #@! TF.SameCoordinates,B6646961-0515-45C1-A97A-8BA6F2ED6920*
G04*
G04*
G04 #@! TF.FilePolarity,Positive*
G04*
G01*
G75*
%ADD20C,1.500*%
%ADD21R,1.500X1.500*%
G36*
X26388Y282D02*
X282D01*
Y14450D01*
X26388D01*
Y282D01*
D02*
G37*
%LPC*%
G36*
X24648Y13087D02*
X24413Y13056D01*
X24194Y12965D01*
X24006Y12821D01*
X23862Y12633D01*
X23771Y12414D01*
X23740Y12179D01*
X23771Y11944D01*
X23862Y11725D01*
X24006Y11537D01*
X24194Y11393D01*
X24413Y11302D01*
X24648Y11271D01*
X24883Y11302D01*
X25102Y11393D01*
X25290Y11537D01*
X25434Y11725D01*
X25525Y11944D01*
X25556Y12179D01*
X25525Y12414D01*
X25434Y12633D01*
X25290Y12821D01*
X25102Y12965D01*
X24883Y13056D01*
X24648Y13087D01*
D02*
G37*
G36*
X22108D02*
X21873Y13056D01*
X21654Y12965D01*
X21466Y12821D01*
X21322Y12633D01*
X21231Y12414D01*
X21200Y12179D01*
X21231Y11944D01*
X21322Y11725D01*
X21466Y11537D01*
X21654Y11393D01*
X21873Y11302D01*
X22108Y11271D01*
X22343Y11302D01*
X22562Y11393D01*
X22750Y11537D01*
X22894Y11725D01*
X22985Y11944D01*
X23016Y12179D01*
X22985Y12414D01*
X22894Y12633D01*
X22750Y12821D01*
X22562Y12965D01*
X22343Y13056D01*
X22108Y13087D01*
D02*
G37*
G36*
X19568D02*
X19333Y13056D01*
X19114Y12965D01*
X18926Y12821D01*
X18782Y12633D01*
X18691Y12414D01*
X18660Y12179D01*
X18691Y11944D01*
X18782Y11725D01*
X18926Y11537D01*
X19114Y11393D01*
X19333Y11302D01*
X19568Y11271D01*
X19803Y11302D01*
X20022Y11393D01*
X20210Y11537D01*
X20354Y11725D01*
X20445Y11944D01*
X20476Y12179D01*
X20445Y12414D01*
X20354Y12633D01*
X20210Y12821D01*
X20022Y12965D01*
X19803Y13056D01*
X19568Y13087D01*
D02*
G37*
G36*
X17028D02*
X16793Y13056D01*
X16574Y12965D01*
X16386Y12821D01*
X16242Y12633D01*
X16151Y12414D01*
X16120Y12179D01*
X16151Y11944D01*
X16242Y11725D01*
X16386Y11537D01*
X16574Y11393D01*
X16793Y11302D01*
X17028Y11271D01*
X17263Y11302D01*
X17482Y11393D01*
X17670Y11537D01*
X17814Y11725D01*
X17905Y11944D01*
X17936Y12179D01*
X17905Y12414D01*
X17814Y12633D01*
X17670Y12821D01*
X17482Y12965D01*
X17263Y13056D01*
X17028Y13087D01*
D02*
G37*
G36*
X14488D02*
X14253Y13056D01*
X14034Y12965D01*
X13846Y12821D01*
X13702Y12633D01*
X13611Y12414D01*
X13580Y12179D01*
X13611Y11944D01*
X13702Y11725D01*
X13846Y11537D01*
X14034Y11393D01*
X14253Y11302D01*
X14488Y11271D01*
X14723Y11302D01*
X14942Y11393D01*
X15130Y11537D01*
X15274Y11725D01*
X15365Y11944D01*
X15396Y12179D01*
X15365Y12414D01*
X15274Y12633D01*
X15130Y12821D01*
X14942Y12965D01*
X14723Y13056D01*
X14488Y13087D01*
D02*
G37*
G36*
X11948D02*
X11713Y13056D01*
X11494Y12965D01*
X11306Y12821D01*
X11162Y12633D01*
X11071Y12414D01*
X11040Y12179D01*
X11071Y11944D01*
X11162Y11725D01*
X11306Y11537D01*
X11494Y11393D01*
X11713Y11302D01*
X11948Y11271D01*
X12183Y11302D01*
X12402Y11393D01*
X12590Y11537D01*
X12734Y11725D01*
X12825Y11944D01*
X12856Y12179D01*
X12825Y12414D01*
X12734Y12633D01*
X12590Y12821D01*
X12402Y12965D01*
X12183Y13056D01*
X11948Y13087D01*
D02*
G37*
G36*
X9408D02*
X9173Y13056D01*
X8954Y12965D01*
X8766Y12821D01*
X8622Y12633D01*
X8531Y12414D01*
X8500Y12179D01*
X8531Y11944D01*
X8622Y11725D01*
X8766Y11537D01*
X8954Y11393D01*
X9173Y11302D01*
X9408Y11271D01*
X9643Y11302D01*
X9862Y11393D01*
X10050Y11537D01*
X10194Y11725D01*
X10285Y11944D01*
X10316Y12179D01*
X10285Y12414D01*
X10194Y12633D01*
X10050Y12821D01*
X9862Y12965D01*
X9643Y13056D01*
X9408Y13087D01*
D02*
G37*
G36*
X6868D02*
X6633Y13056D01*
X6414Y12965D01*
X6226Y12821D01*
X6082Y12633D01*
X5991Y12414D01*
X5960Y12179D01*
X5991Y11944D01*
X6082Y11725D01*
X6226Y11537D01*
X6414Y11393D01*
X6633Y11302D01*
X6868Y11271D01*
X7103Y11302D01*
X7322Y11393D01*
X7510Y11537D01*
X7654Y11725D01*
X7745Y11944D01*
X7776Y12179D01*
X7745Y12414D01*
X7654Y12633D01*
X7510Y12821D01*
X7322Y12965D01*
X7103Y13056D01*
X6868Y13087D01*
D02*
G37*
G36*
X4328D02*
X4093Y13056D01*
X3874Y12965D01*
X3686Y12821D01*
X3542Y12633D01*
X3451Y12414D01*
X3420Y12179D01*
X3451Y11944D01*
X3542Y11725D01*
X3686Y11537D01*
X3874Y11393D01*
X4093Y11302D01*
X4328Y11271D01*
X4563Y11302D01*
X4782Y11393D01*
X4970Y11537D01*
X5114Y11725D01*
X5205Y11944D01*
X5236Y12179D01*
X5205Y12414D01*
X5114Y12633D01*
X4970Y12821D01*
X4782Y12965D01*
X4563Y13056D01*
X4328Y13087D01*
D02*
G37*
G36*
X1788D02*
X1553Y13056D01*
X1334Y12965D01*
X1146Y12821D01*
X1002Y12633D01*
X911Y12414D01*
X880Y12179D01*
X911Y11944D01*
X1002Y11725D01*
X1146Y11537D01*
X1334Y11393D01*
X1553Y11302D01*
X1788Y11271D01*
X2023Y11302D01*
X2242Y11393D01*
X2430Y11537D01*
X2574Y11725D01*
X2665Y11944D01*
X2696Y12179D01*
X2665Y12414D01*
X2574Y12633D01*
X2430Y12821D01*
X2242Y12965D01*
X2023Y13056D01*
X1788Y13087D01*
D02*
G37*
G36*
X2688Y10539D02*
X888D01*
Y8739D01*
X2688D01*
Y10539D01*
D02*
G37*
G36*
X24648Y10547D02*
X24413Y10516D01*
X24194Y10425D01*
X24006Y10281D01*
X23862Y10093D01*
X23771Y9874D01*
X23740Y9639D01*
X23771Y9404D01*
X23862Y9185D01*
X24006Y8997D01*
X24194Y8853D01*
X24413Y8762D01*
X24648Y8731D01*
X24883Y8762D01*
X25102Y8853D01*
X25290Y8997D01*
X25434Y9185D01*
X25525Y9404D01*
X25556Y9639D01*
X25525Y9874D01*
X25434Y10093D01*
X25290Y10281D01*
X25102Y10425D01*
X24883Y10516D01*
X24648Y10547D01*
D02*
G37*
G36*
X22108D02*
X21873Y10516D01*
X21654Y10425D01*
X21466Y10281D01*
X21322Y10093D01*
X21231Y9874D01*
X21200Y9639D01*
X21231Y9404D01*
X21322Y9185D01*
X21466Y8997D01*
X21654Y8853D01*
X21873Y8762D01*
X22108Y8731D01*
X22343Y8762D01*
X22562Y8853D01*
X22750Y8997D01*
X22894Y9185D01*
X22985Y9404D01*
X23016Y9639D01*
X22985Y9874D01*
X22894Y10093D01*
X22750Y10281D01*
X22562Y10425D01*
X22343Y10516D01*
X22108Y10547D01*
D02*
G37*
G36*
X19568D02*
X19333Y10516D01*
X19114Y10425D01*
X18926Y10281D01*
X18782Y10093D01*
X18691Y9874D01*
X18660Y9639D01*
X18691Y9404D01*
X18782Y9185D01*
X18926Y8997D01*
X19114Y8853D01*
X19333Y8762D01*
X19568Y8731D01*
X19803Y8762D01*
X20022Y8853D01*
X20210Y8997D01*
X20354Y9185D01*
X20445Y9404D01*
X20476Y9639D01*
X20445Y9874D01*
X20354Y10093D01*
X20210Y10281D01*
X20022Y10425D01*
X19803Y10516D01*
X19568Y10547D01*
D02*
G37*
G36*
X17028D02*
X16793Y10516D01*
X16574Y10425D01*
X16386Y10281D01*
X16242Y10093D01*
X16151Y9874D01*
X16120Y9639D01*
X16151Y9404D01*
X16242Y9185D01*
X16386Y8997D01*
X16574Y8853D01*
X16793Y8762D01*
X17028Y8731D01*
X17263Y8762D01*
X17482Y8853D01*
X17670Y8997D01*
X17814Y9185D01*
X17905Y9404D01*
X17936Y9639D01*
X17905Y9874D01*
X17814Y10093D01*
X17670Y10281D01*
X17482Y10425D01*
X17263Y10516D01*
X17028Y10547D01*
D02*
G37*
G36*
X14488D02*
X14253Y10516D01*
X14034Y10425D01*
X13846Y10281D01*
X13702Y10093D01*
X13611Y9874D01*
X13580Y9639D01*
X13611Y9404D01*
X13702Y9185D01*
X13846Y8997D01*
X14034Y8853D01*
X14253Y8762D01*
X14488Y8731D01*
X14723Y8762D01*
X14942Y8853D01*
X15130Y8997D01*
X15274Y9185D01*
X15365Y9404D01*
X15396Y9639D01*
X15365Y9874D01*
X15274Y10093D01*
X15130Y10281D01*
X14942Y10425D01*
X14723Y10516D01*
X14488Y10547D01*
D02*
G37*
G36*
X11948D02*
X11713Y10516D01*
X11494Y10425D01*
X11306Y10281D01*
X11162Y10093D01*
X11071Y9874D01*
X11040Y9639D01*
X11071Y9404D01*
X11162Y9185D01*
X11306Y8997D01*
X11494Y8853D01*
X11713Y8762D01*
X11948Y8731D01*
X12183Y8762D01*
X12402Y8853D01*
X12590Y8997D01*
X12734Y9185D01*
X12825Y9404D01*
X12856Y9639D01*
X12825Y9874D01*
X12734Y10093D01*
X12590Y10281D01*
X12402Y10425D01*
X12183Y10516D01*
X11948Y10547D01*
D02*
G37*
G36*
X9408D02*
X9173Y10516D01*
X8954Y10425D01*
X8766Y10281D01*
X8622Y10093D01*
X8531Y9874D01*
X8500Y9639D01*
X8531Y9404D01*
X8622Y9185D01*
X8766Y8997D01*
X8954Y8853D01*
X9173Y8762D01*
X9408Y8731D01*
X9643Y8762D01*
X9862Y8853D01*
X10050Y8997D01*
X10194Y9185D01*
X10285Y9404D01*
X10316Y9639D01*
X10285Y9874D01*
X10194Y10093D01*
X10050Y10281D01*
X9862Y10425D01*
X9643Y10516D01*
X9408Y10547D01*
D02*
G37*
G36*
X6868D02*
X6633Y10516D01*
X6414Y10425D01*
X6226Y10281D01*
X6082Y10093D01*
X5991Y9874D01*
X5960Y9639D01*
X5991Y9404D01*
X6082Y9185D01*
X6226Y8997D01*
X6414Y8853D01*
X6633Y8762D01*
X6868Y8731D01*
X7103Y8762D01*
X7322Y8853D01*
X7510Y8997D01*
X7654Y9185D01*
X7745Y9404D01*
X7776Y9639D01*
X7745Y9874D01*
X7654Y10093D01*
X7510Y10281D01*
X7322Y10425D01*
X7103Y10516D01*
X6868Y10547D01*
D02*
G37*
G36*
X4328D02*
X4093Y10516D01*
X3874Y10425D01*
X3686Y10281D01*
X3542Y10093D01*
X3451Y9874D01*
X3420Y9639D01*
X3451Y9404D01*
X3542Y9185D01*
X3686Y8997D01*
X3874Y8853D01*
X4093Y8762D01*
X4328Y8731D01*
X4563Y8762D01*
X4782Y8853D01*
X4970Y8997D01*
X5114Y9185D01*
X5205Y9404D01*
X5236Y9639D01*
X5205Y9874D01*
X5114Y10093D01*
X4970Y10281D01*
X4782Y10425D01*
X4563Y10516D01*
X4328Y10547D01*
D02*
G37*
%LPD*%
D20*
X24648Y12179D02*
D03*
Y9639D02*
D03*
X22108Y12179D02*
D03*
Y9639D02*
D03*
X19568Y12179D02*
D03*
Y9639D02*
D03*
X17028Y12179D02*
D03*
Y9639D02*
D03*
X14488Y12179D02*
D03*
Y9639D02*
D03*
X11948Y12179D02*
D03*
Y9639D02*
D03*
X9408Y12179D02*
D03*
Y9639D02*
D03*
X6868Y12179D02*
D03*
Y9639D02*
D03*
X4328Y12179D02*
D03*
Y9639D02*
D03*
X1788Y12179D02*
D03*
D21*
Y9639D02*
D03*
M02*
