G04*
G04 #@! TF.GenerationSoftware,Altium Limited,Altium Designer,23.3.1 (30)*
G04*
G04 Layer_Physical_Order=4*
G04 Layer_Color=16711680*
%FSLAX44Y44*%
%MOMM*%
G71*
G04*
G04 #@! TF.SameCoordinates,09AA13D2-A833-43CB-9613-60E66F18C171*
G04*
G04*
G04 #@! TF.FilePolarity,Positive*
G04*
G01*
G75*
%ADD22R,0.9000X0.8000*%
%ADD23R,0.8500X0.4500*%
%ADD24R,0.6000X0.5500*%
%ADD34C,0.2000*%
%ADD35C,0.2800*%
%ADD36C,0.2200*%
%ADD37C,0.4000*%
%ADD38C,0.3000*%
%ADD39C,0.5000*%
%ADD40C,0.6000*%
%ADD41C,0.8000*%
%ADD42C,0.6200*%
%ADD43C,1.4500*%
%ADD44C,5.0000*%
%ADD45R,0.2000X0.5500*%
%ADD47C,0.7000*%
%ADD48R,0.5500X0.6000*%
%ADD49R,1.3000X0.7000*%
%ADD50R,0.8000X2.7000*%
%ADD51R,1.0121X1.2084*%
G04:AMPARAMS|DCode=52|XSize=0.4mm|YSize=0.65mm|CornerRadius=0.05mm|HoleSize=0mm|Usage=FLASHONLY|Rotation=180.000|XOffset=0mm|YOffset=0mm|HoleType=Round|Shape=RoundedRectangle|*
%AMROUNDEDRECTD52*
21,1,0.4000,0.5500,0,0,180.0*
21,1,0.3000,0.6500,0,0,180.0*
1,1,0.1000,-0.1500,0.2750*
1,1,0.1000,0.1500,0.2750*
1,1,0.1000,0.1500,-0.2750*
1,1,0.1000,-0.1500,-0.2750*
%
%ADD52ROUNDEDRECTD52*%
%ADD53R,1.3061X1.0582*%
%ADD54R,0.7500X0.9000*%
%ADD55R,0.9062X0.9051*%
%ADD56R,1.7582X1.3555*%
%ADD57O,1.3500X0.2500*%
%ADD58R,0.5500X0.5500*%
%ADD59R,1.1500X2.7000*%
%ADD60R,1.1064X0.4156*%
%ADD61R,0.5200X0.5200*%
%ADD62R,0.7500X0.8000*%
%ADD63R,0.6500X0.6500*%
%ADD64R,0.3000X1.5000*%
%ADD65C,0.3500*%
%ADD66C,0.2500*%
G36*
X47000Y237059D02*
X42235D01*
X42235Y237059D01*
X41064Y236826D01*
X40072Y236163D01*
X40072Y236163D01*
X36920Y233011D01*
X35522Y232733D01*
X34000Y231716D01*
X32984Y230195D01*
X32627Y228400D01*
X32984Y226605D01*
X34000Y225084D01*
X35522Y224067D01*
X37317Y223710D01*
X39111Y224067D01*
X40633Y225084D01*
X41650Y226605D01*
X42007Y228400D01*
X43064Y229174D01*
X44235Y228941D01*
X47000D01*
Y223000D01*
X60443D01*
X61180Y221730D01*
X60816Y219900D01*
X60083Y219167D01*
X57882Y218730D01*
X56017Y217483D01*
X54770Y215618D01*
X54585Y214687D01*
X60083D01*
Y212147D01*
X54585D01*
X54770Y211216D01*
X56017Y209351D01*
X57527Y208342D01*
X57698Y208055D01*
X57909Y207175D01*
X57920Y206802D01*
X57645Y206390D01*
X57451Y205414D01*
Y204000D01*
X47475D01*
X46324Y204990D01*
X46325Y205000D01*
X46025Y207284D01*
X45143Y209413D01*
X43741Y211241D01*
X41913Y212643D01*
X39784Y213525D01*
X37500Y213825D01*
X35216Y213525D01*
X33087Y212643D01*
X31259Y211241D01*
X29857Y209413D01*
X28975Y207284D01*
X28674Y205000D01*
X28975Y202716D01*
X29857Y200587D01*
X31259Y198759D01*
X32828Y197556D01*
X33097Y197108D01*
X33144Y195959D01*
X32467Y194945D01*
X32110Y193150D01*
X32467Y191355D01*
X33484Y189834D01*
X35005Y188817D01*
X36800Y188460D01*
X37045Y188509D01*
X37943Y187611D01*
X37812Y186950D01*
X38169Y185155D01*
X38426Y184770D01*
X37747Y183500D01*
X23750D01*
Y179394D01*
X23672Y179000D01*
X23672Y179000D01*
Y177619D01*
X23605Y177415D01*
X22686Y176624D01*
X14303D01*
X13625Y177894D01*
X14063Y178549D01*
X14248Y179480D01*
X10095D01*
X9750Y179623D01*
X8750D01*
Y180750D01*
X7480D01*
Y186248D01*
X6549Y186063D01*
X5414Y185304D01*
X4144Y185983D01*
Y240856D01*
X47000D01*
Y237059D01*
D02*
G37*
G36*
X149857Y200587D02*
X151259Y198759D01*
X153087Y197357D01*
X154993Y196568D01*
X155387Y195835D01*
X155571Y195147D01*
X155175Y194554D01*
X154818Y192759D01*
X155002Y191831D01*
X154407Y190939D01*
X152541Y189693D01*
X151295Y187827D01*
X151110Y186896D01*
X156608D01*
Y184356D01*
X151110D01*
X151295Y183426D01*
X152541Y181560D01*
X153270Y181073D01*
Y179803D01*
X152541Y179316D01*
X151295Y177451D01*
X151110Y176520D01*
X156608D01*
Y175250D01*
X157878D01*
Y169752D01*
X158808Y169937D01*
X160674Y171184D01*
X161920Y173049D01*
X162358Y175250D01*
X162310Y175490D01*
X163453Y176254D01*
X164300Y175688D01*
X165231Y175503D01*
Y181001D01*
X167771D01*
Y175503D01*
X168701Y175688D01*
X169587Y176279D01*
X170856Y175600D01*
Y168401D01*
X169587Y167722D01*
X168701Y168314D01*
X167771Y168499D01*
Y163001D01*
X165231D01*
Y168499D01*
X164300Y168314D01*
X162435Y167067D01*
X161188Y165201D01*
X161109Y164803D01*
X159698Y164218D01*
X158808Y164813D01*
X157878Y164998D01*
Y159500D01*
X156608D01*
Y158230D01*
X151110D01*
X151295Y157299D01*
X152541Y155434D01*
X154407Y154187D01*
X155649Y153940D01*
Y151347D01*
X154407Y151100D01*
X152541Y149853D01*
X151355Y148079D01*
X151250Y148100D01*
X151020D01*
Y142250D01*
X148480D01*
Y148100D01*
X148250D01*
X147064Y147864D01*
X146058Y147192D01*
X145753Y146735D01*
X145530Y146884D01*
X144750Y147039D01*
X143725D01*
X143468Y147264D01*
X142843Y148309D01*
X143018Y149189D01*
X143748Y150208D01*
X148061D01*
Y165205D01*
X149101D01*
Y172517D01*
X141500D01*
Y173787D01*
X140230D01*
Y182369D01*
X135179D01*
X135021Y182605D01*
X133367Y183710D01*
X133592Y184960D01*
X133730D01*
Y195000D01*
X136270D01*
Y184960D01*
X139040D01*
Y186000D01*
X148000D01*
Y201751D01*
X149270Y202004D01*
X149857Y200587D01*
D02*
G37*
G36*
X116270Y184960D02*
X117148D01*
X117174Y184830D01*
X117837Y183837D01*
X119462Y182212D01*
X119767Y180681D01*
X120182Y180060D01*
X119503Y178790D01*
X118770D01*
Y174000D01*
X116230D01*
Y178790D01*
X110710D01*
Y177240D01*
X110540Y176040D01*
X104770D01*
Y169500D01*
X103500D01*
Y168230D01*
X96460D01*
Y164801D01*
X95190Y163759D01*
X95040Y163788D01*
X95040Y163788D01*
X92500D01*
Y174250D01*
X76500D01*
Y164250D01*
Y154750D01*
Y145250D01*
X78058D01*
X78443Y143980D01*
X78309Y143890D01*
X76825Y142406D01*
X73395D01*
X72341Y143461D01*
Y143808D01*
X72982Y144767D01*
X73207Y145899D01*
Y154750D01*
X72982Y155882D01*
X72341Y156841D01*
X70007Y159175D01*
X70313Y160714D01*
X69956Y162509D01*
X68939Y164031D01*
X68500Y164324D01*
Y174250D01*
X59576D01*
Y178502D01*
X59576Y178502D01*
X59266Y180063D01*
X59250Y180087D01*
Y183500D01*
X58083D01*
X57369Y184674D01*
X57370Y184770D01*
X57549Y185672D01*
Y186000D01*
X110960D01*
Y184960D01*
X113730D01*
Y195000D01*
X116270D01*
Y184960D01*
D02*
G37*
G36*
X23212Y173730D02*
X20116Y170634D01*
X20116Y170634D01*
X18866Y169384D01*
X17982Y168061D01*
X17691Y166598D01*
X17250Y165500D01*
X17250Y165500D01*
X17250Y165500D01*
Y152394D01*
X17172Y152000D01*
X17250Y151606D01*
Y148000D01*
X17422D01*
Y144280D01*
X12219Y139078D01*
X12116Y139009D01*
X11232Y137686D01*
X9888Y137437D01*
X9295Y137833D01*
X7500Y138190D01*
X5705Y137833D01*
X5414Y137638D01*
X4144Y138317D01*
Y139502D01*
X5187Y140186D01*
X5414Y140158D01*
X7164Y139810D01*
X8959Y140167D01*
X10480Y141184D01*
X11497Y142705D01*
X11854Y144500D01*
X11497Y146295D01*
X10480Y147816D01*
X8959Y148833D01*
X7164Y149190D01*
X5414Y148842D01*
X5187Y148814D01*
X4144Y149498D01*
Y164517D01*
X5414Y165196D01*
X6549Y164437D01*
X7480Y164252D01*
Y169750D01*
X8750D01*
Y170875D01*
X9750D01*
X10100Y171020D01*
X14248D01*
X14063Y171951D01*
X12874Y173730D01*
X12974Y174179D01*
X13331Y175000D01*
X22686D01*
X23212Y173730D01*
D02*
G37*
G36*
X130764Y159141D02*
X132417Y158035D01*
X134368Y157647D01*
X134939D01*
Y155583D01*
X134861Y155189D01*
X134861Y155189D01*
Y150879D01*
X133866Y149884D01*
X132982Y148561D01*
X132912Y148209D01*
X130954Y146250D01*
X130604Y146181D01*
X128785Y144965D01*
X125285Y141465D01*
X124069Y139646D01*
X123642Y137500D01*
Y117040D01*
X120270D01*
Y112250D01*
X117730D01*
Y117040D01*
X113040D01*
Y118790D01*
X108074D01*
X107395Y120060D01*
X107833Y120716D01*
X108190Y122511D01*
X107833Y124306D01*
X107000Y125553D01*
Y131747D01*
X107902Y132350D01*
X108919Y133872D01*
X109276Y135666D01*
X108919Y137461D01*
X108614Y137917D01*
X109261Y138564D01*
X109902Y139524D01*
X110127Y140655D01*
Y140777D01*
X111269Y141919D01*
X112550Y142174D01*
X114072Y143191D01*
X115089Y144712D01*
X115445Y146507D01*
X115089Y148302D01*
X114072Y149824D01*
X112550Y150840D01*
X110939Y151161D01*
X110677Y151812D01*
X110599Y152425D01*
X111634Y153116D01*
X113189Y154672D01*
X117250D01*
X117250Y154672D01*
X118507Y154922D01*
X119000D01*
X119000Y154922D01*
X120561Y155232D01*
X120588Y155250D01*
X123250D01*
Y157482D01*
X125554Y159787D01*
X125554Y159787D01*
X126034Y160505D01*
X126216Y160627D01*
X126740Y161410D01*
X126870Y161493D01*
X128318Y161586D01*
X130764Y159141D01*
D02*
G37*
G36*
X36770Y140210D02*
X42540D01*
Y140460D01*
X44716D01*
X45726Y139190D01*
X45559Y138350D01*
X45782Y137230D01*
X45020Y135784D01*
X44939Y135768D01*
X43616Y134884D01*
X37811Y129078D01*
X21689D01*
X19078Y131689D01*
Y134402D01*
X20427Y135751D01*
X21651Y135499D01*
X21791Y135318D01*
X22784Y133834D01*
X24305Y132817D01*
X26100Y132460D01*
X27895Y132817D01*
X29416Y133834D01*
X30433Y135355D01*
X30790Y137150D01*
X30433Y138945D01*
X30336Y139090D01*
X30935Y140210D01*
X34230D01*
Y146750D01*
X36770D01*
Y140210D01*
D02*
G37*
G36*
X76930Y116000D02*
X77287Y114205D01*
X78304Y112684D01*
X79825Y111667D01*
X81620Y111310D01*
X82230Y111431D01*
X83500Y110389D01*
Y102250D01*
Y92750D01*
Y83250D01*
X99500D01*
Y85076D01*
X101852D01*
X102750Y84178D01*
Y82750D01*
X102023Y81781D01*
X96219D01*
Y77809D01*
X93730D01*
X92170Y77498D01*
X90847Y76614D01*
X90847Y76614D01*
X86366Y72134D01*
X86025Y71624D01*
X73500D01*
Y77500D01*
X65000D01*
Y77500D01*
X64500D01*
Y77500D01*
X56053D01*
X55739Y77970D01*
X54217Y78987D01*
X52422Y79344D01*
X52299Y79319D01*
X51455Y80446D01*
X51561Y80980D01*
X46063D01*
Y83520D01*
X51561D01*
X51376Y84451D01*
X50129Y86316D01*
X49040Y87044D01*
Y89480D01*
X42000D01*
Y90750D01*
X40730D01*
Y97290D01*
X38040D01*
Y97540D01*
X32270D01*
Y91000D01*
X31000D01*
D01*
X32270D01*
Y84460D01*
X33807D01*
X34187Y82549D01*
X35434Y80684D01*
X36876Y79720D01*
Y78968D01*
X36750Y77750D01*
X28250D01*
Y77750D01*
X27750D01*
Y77750D01*
X19250D01*
Y69250D01*
X20696D01*
Y65054D01*
X20000D01*
X18927Y64840D01*
X18017Y64233D01*
X17409Y63323D01*
X17196Y62250D01*
X17409Y61177D01*
X17790Y60608D01*
X17932Y59750D01*
X17790Y58892D01*
X17409Y58323D01*
X17196Y57250D01*
X16047Y56519D01*
X15750Y56578D01*
X14750D01*
Y58250D01*
X13092D01*
X13083Y58295D01*
X12066Y59816D01*
X10545Y60833D01*
X9806Y60980D01*
X9931Y62250D01*
X14750D01*
Y73250D01*
X13279D01*
X12566Y74316D01*
X12511Y74354D01*
X12779Y75702D01*
X13155Y75777D01*
X14676Y76793D01*
X15693Y78315D01*
X16050Y80110D01*
X15968Y80520D01*
X16078Y81075D01*
X16078Y81075D01*
Y89061D01*
X20134Y93116D01*
X20557Y93750D01*
X21000D01*
Y94412D01*
X21018Y94439D01*
X21328Y96000D01*
X21328Y96000D01*
Y96750D01*
X21018Y98311D01*
X21000Y98338D01*
Y106606D01*
X21078Y107000D01*
X21078Y107000D01*
Y110203D01*
X21618Y110743D01*
X25000D01*
Y100500D01*
X36000D01*
Y100250D01*
X47895D01*
X47936Y100189D01*
X49458Y99172D01*
X51252Y98815D01*
X53047Y99172D01*
X54569Y100189D01*
X55586Y101710D01*
X55943Y103505D01*
X55729Y104579D01*
X55586Y105300D01*
X56651Y105959D01*
X57193Y106067D01*
X58230Y106760D01*
X59500Y106147D01*
Y102250D01*
X75500D01*
Y112250D01*
X73328D01*
Y116500D01*
X76519D01*
X76930Y116000D01*
D02*
G37*
G36*
X170856Y115205D02*
Y60401D01*
X169587Y59722D01*
X168701Y60313D01*
X167721Y60508D01*
X167235Y61682D01*
X167314Y61800D01*
X167499Y62731D01*
X162001D01*
Y64001D01*
X160731D01*
Y69499D01*
X159800Y69314D01*
X157935Y68067D01*
X157561Y67508D01*
X156291Y67893D01*
Y71210D01*
X158980D01*
Y78250D01*
X160250D01*
Y79520D01*
X166540D01*
Y85290D01*
X166418D01*
X165740Y86560D01*
X166571Y87804D01*
X166756Y88734D01*
X161258D01*
Y91274D01*
X166756D01*
X166571Y92205D01*
X165398Y93960D01*
X165251Y94373D01*
Y95389D01*
X166067Y95934D01*
X167314Y97800D01*
X167499Y98731D01*
X162001D01*
Y101271D01*
X167499D01*
X167314Y102201D01*
X166067Y104067D01*
X165063Y104738D01*
Y106265D01*
X165166Y106334D01*
X166413Y108199D01*
X166598Y109130D01*
X161100D01*
Y111670D01*
X166598D01*
X166413Y112601D01*
X166875Y113715D01*
X167396Y113819D01*
X169215Y115035D01*
X169587Y115590D01*
X170856Y115205D01*
D02*
G37*
G36*
X46282Y77457D02*
X47031Y76458D01*
X46925Y75924D01*
X52422D01*
Y74654D01*
X53692D01*
Y69153D01*
X54960Y68155D01*
Y67960D01*
X65540D01*
X66446Y67082D01*
Y65054D01*
X62000D01*
X60927Y64840D01*
X60017Y64233D01*
X59409Y63323D01*
X59196Y62250D01*
X59409Y61177D01*
X59483Y61067D01*
X59268Y59982D01*
X58605Y58991D01*
X57703Y58065D01*
X56773Y58250D01*
Y52753D01*
X55503D01*
Y51483D01*
X50005D01*
X50190Y50552D01*
X51437Y48686D01*
X52124Y48227D01*
X51167Y46795D01*
X50810Y45000D01*
X51167Y43205D01*
X52184Y41684D01*
X53705Y40667D01*
X55500Y40310D01*
X57295Y40667D01*
X58108Y41210D01*
X59303Y41180D01*
X59644Y40826D01*
X60017Y40267D01*
X60927Y39660D01*
X62000Y39446D01*
X72563D01*
X72616Y39366D01*
X73016Y38966D01*
X73016Y38966D01*
X74339Y38082D01*
X75900Y37772D01*
X76150Y36528D01*
Y29650D01*
X76172D01*
Y24750D01*
X76172Y24750D01*
X76482Y23189D01*
X77366Y21866D01*
X79172Y20061D01*
Y18328D01*
X78648D01*
Y11172D01*
X81827D01*
X82111Y10982D01*
X83672Y10672D01*
X83672Y10672D01*
X85680D01*
X87241Y10982D01*
X87525Y11172D01*
X92712D01*
Y18328D01*
X87525D01*
X87328Y18459D01*
Y21750D01*
X87018Y23311D01*
X86134Y24634D01*
X86134Y24634D01*
X84328Y26439D01*
Y27155D01*
X84631Y27940D01*
X85925Y28190D01*
X86854Y27569D01*
X89000Y27142D01*
X104500D01*
X106646Y27569D01*
X108465Y28785D01*
X108715Y29035D01*
X109931Y30854D01*
X110358Y33000D01*
Y34486D01*
X117340D01*
X118514Y33216D01*
X118418Y32000D01*
X118745Y27842D01*
X119175Y26051D01*
X118389Y25054D01*
X109520D01*
Y15737D01*
Y6419D01*
X119581D01*
X120000Y5322D01*
Y4143D01*
X52915Y4143D01*
X52000Y5413D01*
Y10672D01*
X62820D01*
X64381Y10982D01*
X64665Y11172D01*
X69852D01*
Y18328D01*
X64665D01*
X64381Y18518D01*
X62820Y18828D01*
X52000D01*
Y22481D01*
X53120Y23080D01*
X53305Y22956D01*
X55100Y22599D01*
X56895Y22956D01*
X58416Y23972D01*
X59433Y25494D01*
X59790Y27289D01*
X59433Y29084D01*
X58416Y30605D01*
X56895Y31622D01*
X55100Y31979D01*
X53305Y31622D01*
X53120Y31498D01*
X52000Y32097D01*
Y35000D01*
X43542D01*
X43000Y35108D01*
X37573D01*
X34215Y38465D01*
X33393Y39014D01*
X33296Y39312D01*
X33236Y40647D01*
X33590Y41177D01*
X34577Y41586D01*
X34799Y41437D01*
X35730Y41252D01*
Y46750D01*
X37000D01*
Y48020D01*
X42498D01*
X42313Y48951D01*
X41066Y50816D01*
Y51934D01*
X42313Y53799D01*
X42751Y56000D01*
X42738Y56061D01*
X43935Y56556D01*
X44184Y56184D01*
X45705Y55167D01*
X47500Y54810D01*
X48923Y55093D01*
X49802Y54447D01*
X50026Y54128D01*
X50005Y54023D01*
X54233D01*
Y58250D01*
X53302Y58065D01*
X53184Y57986D01*
X52041Y58750D01*
X52190Y59500D01*
X51833Y61295D01*
X50816Y62816D01*
X49295Y63833D01*
X47500Y64190D01*
X45705Y63833D01*
X44184Y62816D01*
X43167Y61295D01*
X42847Y59687D01*
X42269Y59415D01*
X41575Y59305D01*
X41066Y60066D01*
X39201Y61313D01*
X38802Y61392D01*
X38534Y62740D01*
X38675Y62835D01*
X39692Y64356D01*
X40049Y66151D01*
X39922Y66789D01*
X40884Y68275D01*
X41701Y68437D01*
X43566Y69684D01*
X44813Y71549D01*
X44998Y72480D01*
X39500D01*
Y74876D01*
X40500D01*
X40847Y75020D01*
X44998D01*
X44813Y75951D01*
X44467Y76469D01*
X45126Y77512D01*
X46282Y77457D01*
D02*
G37*
G36*
X95179Y68692D02*
X94922Y68431D01*
X94287Y67790D01*
X89770D01*
Y62000D01*
X88500D01*
Y60730D01*
X82710D01*
Y56210D01*
X83750D01*
Y47250D01*
X83750D01*
X83815Y47120D01*
X83031Y45850D01*
X80544D01*
X80150Y45928D01*
X80150Y45928D01*
X77195D01*
X77061Y46018D01*
X75616Y46305D01*
X75804Y47250D01*
X75590Y48323D01*
X75517Y48433D01*
X75732Y49518D01*
X76570Y50771D01*
X76612Y50980D01*
X67500D01*
Y53520D01*
X76612D01*
X76570Y53729D01*
X75888Y54750D01*
X76570Y55771D01*
X76612Y55980D01*
X67500D01*
Y58520D01*
X76612D01*
X76570Y58729D01*
X75732Y59982D01*
X75517Y61067D01*
X75590Y61177D01*
X75804Y62250D01*
X75590Y63323D01*
X74983Y64233D01*
X74073Y64840D01*
X73000Y65054D01*
X72054D01*
Y69000D01*
X73500D01*
Y70000D01*
X95179D01*
Y68692D01*
D02*
G37*
G36*
X19258Y39201D02*
X19955Y38785D01*
X20151Y37796D01*
X20142Y37750D01*
X20569Y35604D01*
X21785Y33785D01*
X25035Y30535D01*
X26854Y29319D01*
X27661Y29159D01*
X31285Y25535D01*
X33104Y24319D01*
X35250Y23892D01*
X37500D01*
Y5000D01*
X36585Y4143D01*
X30672D01*
X30287Y5413D01*
X31067Y5934D01*
X32313Y7800D01*
X32499Y8731D01*
X21503D01*
X21688Y7800D01*
X22935Y5934D01*
X23714Y5413D01*
X23329Y4143D01*
X20415D01*
X19500Y5413D01*
Y35000D01*
X17858D01*
Y38516D01*
X18941Y39299D01*
X19258Y39201D01*
D02*
G37*
%LPC*%
G36*
X10020Y186248D02*
Y182020D01*
X14248D01*
X14063Y182951D01*
X12816Y184816D01*
X10951Y186063D01*
X10020Y186248D01*
D02*
G37*
G36*
X149101Y182369D02*
X142770D01*
Y175057D01*
X149101D01*
Y182369D01*
D02*
G37*
G36*
X155337Y173980D02*
X151110D01*
X151295Y173049D01*
X152541Y171184D01*
X154407Y169937D01*
X155337Y169752D01*
Y173980D01*
D02*
G37*
G36*
Y164998D02*
X154407Y164813D01*
X152541Y163566D01*
X151295Y161701D01*
X151110Y160770D01*
X155337D01*
Y164998D01*
D02*
G37*
G36*
X102230Y176040D02*
X96460D01*
Y170770D01*
X102230D01*
Y176040D01*
D02*
G37*
G36*
X14248Y168480D02*
X10020D01*
Y164252D01*
X10951Y164437D01*
X12816Y165684D01*
X14063Y167549D01*
X14248Y168480D01*
D02*
G37*
G36*
X29730Y97540D02*
X23960D01*
Y92270D01*
X29730D01*
Y97540D01*
D02*
G37*
G36*
X49040Y97290D02*
X43270D01*
Y92020D01*
X49040D01*
Y97290D01*
D02*
G37*
G36*
X76540Y94290D02*
X68770D01*
Y89520D01*
X76540D01*
Y94290D01*
D02*
G37*
G36*
X66230D02*
X58460D01*
Y89520D01*
X66230D01*
Y94290D01*
D02*
G37*
G36*
X29730Y89730D02*
X23960D01*
Y84460D01*
X29730D01*
Y89730D01*
D02*
G37*
G36*
X76540Y86980D02*
X68770D01*
Y82210D01*
X76540D01*
Y86980D01*
D02*
G37*
G36*
X66230D02*
X58460D01*
Y82210D01*
X66230D01*
Y86980D01*
D02*
G37*
G36*
X166540Y76980D02*
X161520D01*
Y71210D01*
X166540D01*
Y76980D01*
D02*
G37*
G36*
X163271Y69499D02*
Y65271D01*
X167499D01*
X167314Y66201D01*
X166067Y68067D01*
X164201Y69314D01*
X163271Y69499D01*
D02*
G37*
G36*
X51152Y73383D02*
X46925D01*
X47110Y72453D01*
X48356Y70587D01*
X50222Y69341D01*
X51152Y69156D01*
Y73383D01*
D02*
G37*
G36*
X42498Y45480D02*
X38270D01*
Y41252D01*
X39201Y41437D01*
X41066Y42684D01*
X42313Y44549D01*
X42498Y45480D01*
D02*
G37*
G36*
X68250Y33440D02*
X66455Y33083D01*
X64934Y32066D01*
X63917Y30545D01*
X63560Y28750D01*
X63917Y26955D01*
X64934Y25434D01*
X66455Y24417D01*
X68250Y24060D01*
X70045Y24417D01*
X71566Y25434D01*
X72583Y26955D01*
X72940Y28750D01*
X72583Y30545D01*
X71566Y32066D01*
X70045Y33083D01*
X68250Y33440D01*
D02*
G37*
G36*
X106980Y25054D02*
X96919D01*
Y17006D01*
X106980D01*
Y25054D01*
D02*
G37*
G36*
Y14467D02*
X96919D01*
Y6419D01*
X106980D01*
Y14467D01*
D02*
G37*
G36*
X87230Y67790D02*
X82710D01*
Y63270D01*
X87230D01*
Y67790D01*
D02*
G37*
G36*
X28271Y15498D02*
Y11271D01*
X32499D01*
X32313Y12201D01*
X31067Y14067D01*
X29201Y15313D01*
X28271Y15498D01*
D02*
G37*
G36*
X25731D02*
X24800Y15313D01*
X22935Y14067D01*
X21688Y12201D01*
X21503Y11271D01*
X25731D01*
Y15498D01*
D02*
G37*
%LPD*%
D22*
X35500Y161750D02*
D03*
Y146750D02*
D03*
X46750Y162000D02*
D03*
Y147000D02*
D03*
X103500Y154500D02*
D03*
Y169500D02*
D03*
X42000Y90750D02*
D03*
Y105750D02*
D03*
X31000Y91000D02*
D03*
Y106000D02*
D03*
X106000Y112250D02*
D03*
Y97250D02*
D03*
D23*
X117500Y174000D02*
D03*
Y159000D02*
D03*
X119000Y97250D02*
D03*
Y112250D02*
D03*
D24*
X115750Y87000D02*
D03*
X107250D02*
D03*
X54750Y179250D02*
D03*
X46250D02*
D03*
X36750D02*
D03*
X28250D02*
D03*
X77750Y120750D02*
D03*
X69250D02*
D03*
X33750Y118000D02*
D03*
X42250D02*
D03*
X51250Y117750D02*
D03*
X59750D02*
D03*
D34*
X92454Y88250D02*
X93079Y87625D01*
X106625D01*
X107250Y87000D01*
X7500Y133500D02*
X8304Y134304D01*
X80000Y195000D02*
X80000Y195000D01*
X80000Y203330D02*
X85170Y208500D01*
X80000Y195000D02*
Y203330D01*
X85000Y203381D02*
X86619Y205000D01*
X85000Y195000D02*
Y203381D01*
X86619Y205000D02*
X127000D01*
X85170Y208500D02*
X118760D01*
X111787Y214302D02*
X115835Y218350D01*
X81070Y215600D02*
X82367Y214302D01*
X74346Y219761D02*
X108214D01*
X108356Y219902D01*
X82367Y214302D02*
X111787D01*
X70000Y209170D02*
X76430Y215600D01*
X70000Y195000D02*
Y209170D01*
X76430Y215600D02*
X81070D01*
X115835Y218350D02*
X116169D01*
X115750Y87000D02*
X121500D01*
X128743Y79757D01*
Y79676D02*
Y79757D01*
X8304Y134304D02*
X13179D01*
X15000Y136125D01*
X24500Y42019D02*
X24731Y42250D01*
X24500Y40000D02*
Y42019D01*
X60000Y205414D02*
X74346Y219761D01*
X145000Y226000D02*
X146553Y224447D01*
X147248Y216751D02*
X147507D01*
X142247Y211750D02*
X147248Y216751D01*
X146553Y224447D02*
X147257D01*
X159508Y192759D02*
Y193219D01*
X167250Y200961D01*
Y209039D01*
X146961Y208250D02*
X153461Y214750D01*
X161539D01*
X167250Y209039D01*
X140000Y232000D02*
X140057Y231943D01*
Y218968D02*
Y231943D01*
Y218968D02*
X140114Y218911D01*
X145000Y226000D02*
Y232000D01*
X118760Y208500D02*
X122010Y211750D01*
X142247D01*
X130250Y208250D02*
X146961D01*
X127000Y205000D02*
X130250Y208250D01*
X42502Y186950D02*
X43497Y185956D01*
X46509D01*
X163250Y129750D02*
Y129939D01*
X159189Y134000D02*
X163250Y129939D01*
X149507Y134000D02*
X159189D01*
X143250Y141000D02*
Y142250D01*
Y141000D02*
X145250Y139000D01*
Y138257D02*
Y139000D01*
Y138257D02*
X149507Y134000D01*
X136750Y115786D02*
X137000Y115535D01*
X136750Y115786D02*
Y121750D01*
X137000Y80901D02*
Y115535D01*
X136416Y80317D02*
X137000Y80901D01*
X58612Y47250D02*
X67500D01*
X56362Y45000D02*
X58612Y47250D01*
X55500Y45000D02*
X56362D01*
X60000Y195000D02*
Y205414D01*
X55000Y185672D02*
Y195000D01*
X46509Y185956D02*
X47965Y184500D01*
X53828D01*
X55000Y185672D01*
D35*
X65623Y159794D02*
X67000Y158417D01*
X59200Y169250D02*
X59546D01*
X57880Y168340D02*
X58290D01*
X57650Y168110D02*
X57716Y168044D01*
Y160254D02*
Y168044D01*
X57650Y168110D02*
X57880Y168340D01*
X65623Y159794D02*
Y160714D01*
X61250Y142150D02*
X61549Y142449D01*
X69170D01*
X70250Y145899D02*
Y154750D01*
X66136Y143650D02*
X66335Y143850D01*
X68201D02*
X70250Y145899D01*
X67000Y158000D02*
X70250Y154750D01*
X66335Y143850D02*
X68201D01*
X67000Y158000D02*
Y158417D01*
X96000Y137121D02*
Y138878D01*
X80400Y141800D02*
X82719D01*
X83068Y141451D01*
X88459D02*
X89110Y140801D01*
X96000Y120650D02*
Y137121D01*
X83068Y141451D02*
X88459D01*
X84755Y126000D02*
X85130Y126375D01*
X78050Y139450D02*
X80400Y141800D01*
X69170Y142449D02*
X72170Y139450D01*
X78050D01*
X63155Y127000D02*
X66092D01*
X63056Y126900D02*
X63155Y127000D01*
X95675Y120325D02*
X96000Y120650D01*
X103384Y136868D02*
X107170Y140655D01*
Y142002D01*
X110755Y145587D02*
Y146507D01*
X104043Y123054D02*
Y135124D01*
X103500Y122511D02*
X104043Y123054D01*
Y135124D02*
X104586Y135666D01*
X107170Y142002D02*
X110755Y145587D01*
X80330Y128000D02*
X82330Y126000D01*
X66092Y127000D02*
X67092Y128000D01*
X80330D01*
X80969Y116650D02*
X81620Y116000D01*
X116545Y96005D02*
X117006D01*
Y96756D01*
X116150Y96400D02*
X116545Y96005D01*
X117006Y96756D02*
X117500Y97250D01*
X116150Y94400D02*
Y96400D01*
X117500Y97250D02*
X119000D01*
X77750Y120750D02*
X78000D01*
X80969Y117781D01*
Y116650D02*
Y117781D01*
D36*
X36800Y193150D02*
X43019D01*
X44869Y195000D01*
X50000D01*
D37*
X46500Y132000D02*
X47816D01*
X132750Y143000D02*
X136750Y147000D01*
X132750Y141000D02*
X136750D01*
X132750D02*
Y143000D01*
X149750Y122000D02*
X152750D01*
X15750Y52500D02*
X16000Y52250D01*
X17500D01*
X149750Y121750D02*
Y122000D01*
X143250Y115250D02*
Y121750D01*
Y115250D02*
X144250Y114250D01*
X136750Y141000D02*
Y142250D01*
Y147000D01*
D38*
X132593Y202650D02*
X135000Y200243D01*
X115000Y184636D02*
Y195000D01*
Y184636D02*
X118000Y181636D01*
X131038Y202038D02*
X131981D01*
X132593Y202650D01*
X132500Y220616D02*
Y221269D01*
X132515Y220795D02*
X132536D01*
X130000Y223310D02*
Y232000D01*
Y223310D02*
X132515Y220795D01*
X132500Y221269D02*
X135000Y223769D01*
Y232000D01*
X120000Y223981D02*
X123239Y220742D01*
X124292Y219689D01*
X123239Y220742D02*
Y221400D01*
X117500Y174250D02*
X118000Y174750D01*
Y181636D01*
X120000Y186000D02*
X123525Y182475D01*
X117500Y174000D02*
Y174250D01*
X123525Y182475D02*
X124100D01*
X42235Y234000D02*
X55000D01*
X37317Y229082D02*
X42235Y234000D01*
X37317Y228400D02*
Y229082D01*
X42235Y234000D02*
X44235Y232000D01*
X123239Y221400D02*
X123495D01*
X122942Y183058D02*
X125000Y185116D01*
Y195000D01*
X135000D02*
Y200243D01*
X120000Y186000D02*
Y195000D01*
X130000Y201000D02*
X131038Y202038D01*
X123495Y221400D02*
X125000Y222906D01*
Y232000D01*
X130000Y195000D02*
Y201000D01*
X120000Y223981D02*
Y232000D01*
X44235D02*
X50000D01*
X55000D02*
Y234000D01*
D39*
X50075Y151250D02*
X51035Y150290D01*
X49750Y151250D02*
X50075D01*
X49738Y150871D02*
Y151195D01*
X57716Y160254D02*
Y167766D01*
X58290Y168340D01*
X16849Y106849D02*
X17000Y107000D01*
Y111892D01*
X19929Y114821D02*
X28500D01*
X17000Y111892D02*
X19929Y114821D01*
X17250Y96000D02*
Y96750D01*
X12000Y90750D02*
X17250Y96000D01*
X15000Y134304D02*
Y136091D01*
X92051Y133701D02*
X92350Y134000D01*
X92879D01*
X15000Y130000D02*
Y134304D01*
X74876Y134000D02*
X75175Y133701D01*
X58000Y134000D02*
X74876D01*
X75175Y133701D02*
X92051D01*
X101770Y145527D02*
X102000Y145757D01*
X101770Y142892D02*
Y145527D01*
X92879Y134000D02*
X96000Y137121D01*
X101770Y142892D01*
X21250Y152000D02*
X21500Y152250D01*
Y152500D01*
Y142591D02*
Y152250D01*
X15000Y136091D02*
Y136125D01*
Y136091D02*
X21500Y142591D01*
Y161000D02*
X21750Y161250D01*
Y166500D02*
X24500Y169250D01*
X21750Y161250D02*
Y166500D01*
X56000Y132000D02*
X58000Y134000D01*
X53711Y132000D02*
X56000D01*
X50000Y149750D02*
Y151000D01*
X47000Y146750D02*
X50000Y149750D01*
X39500Y125000D02*
X46500Y132000D01*
X35500Y146750D02*
X47000D01*
X114256Y166758D02*
X114609Y166404D01*
X114256Y166758D02*
Y172198D01*
X114227Y172227D02*
X114256Y172198D01*
X117250Y158750D02*
X117500Y159000D01*
X111500Y158750D02*
X117250D01*
X108750Y156000D02*
X111500Y158750D01*
X105000Y156000D02*
X108750D01*
X103500Y154500D02*
X105000Y156000D01*
X102000D02*
X103500Y154500D01*
X98750Y156000D02*
X102000D01*
X95040Y159710D02*
X98750Y156000D01*
X85494Y159710D02*
X95040D01*
X85454Y159750D02*
X85494Y159710D01*
X113000Y171000D02*
X114227Y172227D01*
X103500Y169500D02*
X105000Y171000D01*
X113000D01*
X103250Y169250D02*
X103500Y169500D01*
X104678Y106928D02*
Y110928D01*
X103255Y107568D02*
X103613Y107210D01*
X103255Y107568D02*
Y108005D01*
X103601D01*
X104678Y106928D01*
X107245Y96005D02*
X117006D01*
X106000Y97250D02*
X107245Y96005D01*
X114227Y172227D02*
X116000Y174000D01*
X117500D01*
X15000Y130000D02*
X20000Y125000D01*
X39500D01*
X9375Y67875D02*
X9500Y67750D01*
X9375Y67875D02*
Y70875D01*
X9250Y71000D02*
X9375Y70875D01*
X11360Y80434D02*
X12000Y81075D01*
X11360Y80110D02*
Y80434D01*
X12000Y81075D02*
Y90750D01*
X48000Y14750D02*
X62820D01*
X44750Y18000D02*
X48000Y14750D01*
X44750Y18000D02*
Y20000D01*
X80250Y32750D02*
X89000D01*
X80250D02*
Y33750D01*
Y24750D02*
Y32750D01*
X83672Y14750D02*
X85680D01*
X83250Y15172D02*
X83672Y14750D01*
X83250Y15172D02*
Y21750D01*
X80250Y24750D02*
X83250Y21750D01*
X108250Y15736D02*
X108250Y15736D01*
Y17000D01*
X102250Y75756D02*
X102500Y75506D01*
X114000D01*
X114250Y75256D01*
X100225Y73730D02*
X102250Y75756D01*
X93730Y73730D02*
X100225D01*
X89250Y69250D02*
X93730Y73730D01*
X88500Y62000D02*
X89250Y62750D01*
Y69250D01*
X76500Y57250D02*
X81000Y61750D01*
X88250D02*
X88500Y62000D01*
X81000Y61750D02*
X88250D01*
X88750Y41500D02*
X89000Y41250D01*
X88750Y41500D02*
Y51750D01*
X88500Y52000D02*
X88750Y51750D01*
X80750Y41250D02*
X89000D01*
X80250Y41750D02*
X80750Y41250D01*
X80150Y41850D02*
X80250Y41750D01*
X75900Y41850D02*
X80150D01*
X75500Y42250D02*
X75900Y41850D01*
X9500Y52750D02*
X9750Y52500D01*
X15750D01*
X117500Y159000D02*
X119000D01*
X122670Y162670D01*
Y163713D01*
X122900Y163943D01*
X160870Y89617D02*
X161258Y90004D01*
X160870Y78870D02*
Y89617D01*
X138939Y155189D02*
X141500Y157750D01*
X138939Y149189D02*
Y155189D01*
X136750Y147000D02*
X138939Y149189D01*
X141500Y173787D02*
X142733Y175020D01*
X40000Y90750D02*
X45833Y84917D01*
X39500Y84750D02*
Y90750D01*
X31000Y91000D02*
X31125Y90875D01*
X39375D01*
X31000Y106000D02*
Y114821D01*
X39500Y90750D02*
X40000D01*
X45833Y82480D02*
Y84917D01*
Y82480D02*
X46063Y82250D01*
X42375Y117875D02*
X51125D01*
X42250Y118000D02*
X42375Y117875D01*
X51125D02*
X51250Y117750D01*
X46500Y162250D02*
Y179000D01*
X28000Y179250D02*
X28250D01*
X27750Y179000D02*
X28000Y179250D01*
X27750Y172500D02*
Y179000D01*
X23000Y167750D02*
X27750Y172500D01*
X33500Y163250D02*
Y166571D01*
X22929D02*
X33500D01*
X35000Y161750D02*
X35500D01*
X33500Y163250D02*
X35000Y161750D01*
X36750Y179250D02*
X46250D01*
X55538Y169250D02*
X58330D01*
X58290Y168340D02*
Y169210D01*
X58330Y169250D01*
X46250Y179250D02*
X46500Y179000D01*
Y162250D02*
X46750Y162000D01*
X54750Y179250D02*
X55000D01*
X55250Y179000D01*
Y178750D02*
Y179000D01*
Y178750D02*
X55498Y178502D01*
Y169290D02*
Y178502D01*
Y169290D02*
X55538Y169250D01*
X35500Y146750D02*
X35500Y146750D01*
X59506Y150290D02*
X59546Y150250D01*
X51035Y150290D02*
X59506D01*
X85454Y159750D02*
X85494Y159790D01*
X117250Y97000D02*
X117500Y97250D01*
X117250Y95500D02*
Y97000D01*
X106000Y97250D02*
X106000Y97250D01*
X92454Y97750D02*
X92494Y97710D01*
X105540D01*
X106000Y97250D01*
X39375Y90875D02*
X39500Y90750D01*
X31429Y117750D02*
X33500D01*
X28500Y114821D02*
X31429Y117750D01*
X33500D02*
X33750Y118000D01*
X41750Y117750D02*
X42000Y118000D01*
X41750Y112750D02*
Y117750D01*
X40000Y105750D02*
X41500Y107250D01*
Y112500D01*
X41750Y112750D01*
X42000Y118000D02*
X42250D01*
X59750Y117750D02*
X66000D01*
X69000Y120750D01*
X69250D01*
Y108290D02*
Y120750D01*
X68210Y107250D02*
X69250Y108290D01*
X66546Y107250D02*
X68210D01*
X106000Y112250D02*
X119000D01*
X153037Y145787D02*
X163250D01*
X149750Y142500D02*
X153037Y145787D01*
X149750Y142250D02*
Y142500D01*
X160250Y78250D02*
X160870Y78870D01*
X52388Y88250D02*
X66546D01*
X46388Y82250D02*
X52388Y88250D01*
X46063Y82250D02*
X46388D01*
X104678Y110928D02*
X106000Y112250D01*
D40*
X8788Y53462D02*
X9500Y52750D01*
X8788Y53462D02*
Y56462D01*
X8750Y56500D02*
X8788Y56462D01*
X24500Y39000D02*
X25750Y37750D01*
X24500Y39000D02*
Y40000D01*
D41*
X142561Y175250D02*
X156608D01*
X142561Y175020D02*
Y175250D01*
X35250Y29500D02*
X43000D01*
X29000Y34500D02*
X30250D01*
X35250Y29500D01*
X25750Y37750D02*
X29000Y34500D01*
X114250Y63244D02*
X115003Y63997D01*
X131986D01*
X132739Y64750D01*
X102250Y63744D02*
X102500Y63494D01*
X114000D01*
X114250Y63244D01*
X101959Y63453D02*
X102250Y63744D01*
X101959Y47041D02*
Y63453D01*
X106236Y42764D02*
X108250D01*
X101959Y47041D02*
X106236Y42764D01*
X104750Y39264D02*
X108250Y42764D01*
X104750Y33000D02*
Y39264D01*
X89000Y32750D02*
X104500D01*
X104750Y33000D01*
X44750Y20000D02*
Y27750D01*
X43000Y29500D02*
X44750Y27750D01*
X9750Y52500D02*
X12250Y50000D01*
Y20000D02*
Y50000D01*
X149000Y64750D02*
X150250Y63500D01*
X148250Y65500D02*
X149000Y64750D01*
X148250Y65500D02*
Y78250D01*
X148261Y64750D02*
X149000D01*
X163250Y129750D02*
X164311Y128689D01*
Y119939D02*
Y128689D01*
Y119939D02*
X165250Y119000D01*
X155250Y124500D02*
Y125064D01*
X163250Y128769D02*
Y129750D01*
X162189Y127708D02*
X163250Y128769D01*
X157894Y127708D02*
X162189D01*
X155250Y125064D02*
X157894Y127708D01*
X152750Y122000D02*
X155250Y124500D01*
X148000Y110500D02*
X152500D01*
Y101000D02*
Y110500D01*
X144250Y114250D02*
X148000Y110500D01*
X129250Y114093D02*
Y137500D01*
X132750Y141000D01*
X130500Y101000D02*
Y112843D01*
X129250Y114093D02*
X130500Y112843D01*
D42*
X8750Y180750D02*
D03*
Y169750D02*
D03*
X39500Y84750D02*
D03*
Y73750D02*
D03*
X57716Y160254D02*
D03*
X65623Y160714D02*
D03*
X61250Y142150D02*
D03*
X50249Y138350D02*
D03*
X89000Y148500D02*
D03*
X89110Y140801D02*
D03*
X84755Y126000D02*
D03*
X63056Y126900D02*
D03*
X104586Y135666D02*
D03*
X102000Y145757D02*
D03*
X50991Y125442D02*
D03*
X50000Y151000D02*
D03*
X55398Y110400D02*
D03*
X103500Y122511D02*
D03*
X95675Y120325D02*
D03*
X51252Y103505D02*
D03*
X81620Y116000D02*
D03*
X26100Y137150D02*
D03*
X7500Y133500D02*
D03*
X110755Y146507D02*
D03*
X108356Y219902D02*
D03*
X78750Y210000D02*
D03*
X116169Y218350D02*
D03*
X132593Y202650D02*
D03*
X132536Y220795D02*
D03*
X123239Y221400D02*
D03*
X114609Y166404D02*
D03*
X103255Y108005D02*
D03*
X128743Y79676D02*
D03*
X117006Y96005D02*
D03*
X156608Y185627D02*
D03*
Y175250D02*
D03*
Y145787D02*
D03*
Y159500D02*
D03*
X124100Y182475D02*
D03*
X126750Y9000D02*
D03*
X165750Y9250D02*
D03*
X166501Y181001D02*
D03*
Y163001D02*
D03*
X162001Y100001D02*
D03*
Y64001D02*
D03*
X166501Y55001D02*
D03*
X27001Y10001D02*
D03*
X55503Y52753D02*
D03*
X55100Y27289D02*
D03*
X68250Y28750D02*
D03*
X119507Y54177D02*
D03*
X9250Y71000D02*
D03*
X131417Y179000D02*
D03*
X8750Y56500D02*
D03*
X37000Y46750D02*
D03*
X10000Y123250D02*
D03*
X7164Y144500D02*
D03*
X7228Y102500D02*
D03*
X11360Y80110D02*
D03*
X52422Y74654D02*
D03*
X161100Y110400D02*
D03*
X37000Y56000D02*
D03*
X47500Y59500D02*
D03*
X35359Y66151D02*
D03*
X108250Y17000D02*
D03*
X66567Y219900D02*
D03*
X60083Y213417D02*
D03*
X37317Y228400D02*
D03*
X152037Y230547D02*
D03*
X147257Y224447D02*
D03*
X147507Y216751D02*
D03*
X162750Y229299D02*
D03*
X159508Y192759D02*
D03*
X140114Y218911D02*
D03*
X122900Y163943D02*
D03*
X42502Y186950D02*
D03*
X36800Y193150D02*
D03*
X150250Y63500D02*
D03*
X165250Y119000D02*
D03*
X161258Y90004D02*
D03*
X55500Y45000D02*
D03*
X136416Y80317D02*
D03*
X46063Y82250D02*
D03*
D43*
X157500Y205000D02*
D03*
X37500D02*
D03*
D44*
X145000Y32000D02*
D03*
D45*
X8750Y175249D02*
D03*
X39500Y79250D02*
D03*
D47*
X134368Y162745D02*
X137486D01*
X131417Y165697D02*
X134368Y162745D01*
X137486D02*
X141500Y158731D01*
X131417Y165697D02*
Y179000D01*
X141500Y157750D02*
Y158731D01*
D48*
X16750Y106750D02*
D03*
Y98250D02*
D03*
X21500Y161000D02*
D03*
Y152500D02*
D03*
X89000Y32750D02*
D03*
Y41250D02*
D03*
D49*
X84500Y150250D02*
D03*
X91500Y88250D02*
D03*
Y107250D02*
D03*
Y97750D02*
D03*
X67500Y88250D02*
D03*
Y107250D02*
D03*
X84500Y169250D02*
D03*
Y159750D02*
D03*
X60500Y150250D02*
D03*
Y169250D02*
D03*
D50*
X130500Y101000D02*
D03*
X152500D02*
D03*
D51*
X141500Y157750D02*
D03*
Y173787D02*
D03*
X163250Y129750D02*
D03*
Y145787D02*
D03*
D52*
X136750Y142250D02*
D03*
X143250D02*
D03*
X149750D02*
D03*
Y121750D02*
D03*
X143250D02*
D03*
X136750D02*
D03*
D53*
X132739Y64750D02*
D03*
X148261D02*
D03*
D54*
X148250Y78250D02*
D03*
X160250D02*
D03*
D55*
X102250Y63744D02*
D03*
Y75756D02*
D03*
X114250Y63244D02*
D03*
Y75256D02*
D03*
D56*
X108250Y42764D02*
D03*
Y15736D02*
D03*
D57*
X67500Y62250D02*
D03*
Y57250D02*
D03*
Y52250D02*
D03*
Y47250D02*
D03*
Y42250D02*
D03*
X25500Y62250D02*
D03*
Y57250D02*
D03*
Y52250D02*
D03*
Y47250D02*
D03*
Y42250D02*
D03*
D58*
X32500Y73500D02*
D03*
X23500D02*
D03*
X60250Y73250D02*
D03*
X69250D02*
D03*
D59*
X12250Y20000D02*
D03*
X44750D02*
D03*
D60*
X62820Y14750D02*
D03*
X85680D02*
D03*
D61*
X80250Y33750D02*
D03*
Y41750D02*
D03*
D62*
X9500Y52750D02*
D03*
Y67750D02*
D03*
D63*
X88500Y52000D02*
D03*
Y62000D02*
D03*
D64*
X50000Y195000D02*
D03*
Y232000D02*
D03*
X55000Y195000D02*
D03*
Y232000D02*
D03*
X60000Y195000D02*
D03*
Y232000D02*
D03*
X65000Y195000D02*
D03*
Y232000D02*
D03*
X70000Y195000D02*
D03*
Y232000D02*
D03*
X75000Y195000D02*
D03*
Y232000D02*
D03*
X80000Y195000D02*
D03*
Y232000D02*
D03*
X85000Y195000D02*
D03*
Y232000D02*
D03*
X90000Y195000D02*
D03*
Y232000D02*
D03*
X95000Y195000D02*
D03*
Y232000D02*
D03*
X100000Y195000D02*
D03*
Y232000D02*
D03*
X105000Y195000D02*
D03*
Y232000D02*
D03*
X110000Y195000D02*
D03*
Y232000D02*
D03*
X115000Y195000D02*
D03*
Y232000D02*
D03*
X120000Y195000D02*
D03*
Y232000D02*
D03*
X125000Y195000D02*
D03*
Y232000D02*
D03*
X130000Y195000D02*
D03*
Y232000D02*
D03*
X135000Y195000D02*
D03*
Y232000D02*
D03*
X140000Y195000D02*
D03*
Y232000D02*
D03*
X145000Y195000D02*
D03*
Y232000D02*
D03*
D65*
X53711Y132000D02*
X53745Y131965D01*
X47816Y132000D02*
X53711D01*
D66*
X58211Y52753D02*
X66997D01*
X67500Y57250D02*
X76500D01*
X62000D02*
X67500D01*
X57500D02*
X62000D01*
X58211Y53460D02*
X62000Y57250D01*
X56211Y53460D02*
X58211D01*
X55503Y52753D02*
X56211Y53460D01*
X57456Y57294D02*
X57500Y57250D01*
X55503Y52753D02*
X66997D01*
X67500Y52250D01*
X25500Y47250D02*
X36500D01*
X37000Y46750D01*
X59548Y73952D02*
X60250Y73250D01*
X53124Y73952D02*
X59548D01*
X52422Y74654D02*
X53124Y73952D01*
X25500Y57250D02*
X34749D01*
X35999Y56000D01*
X37000D01*
X76500Y57250D02*
X76500Y57250D01*
X67500Y42250D02*
X75500D01*
X75500Y42250D01*
X69250Y62250D02*
Y73250D01*
X67500Y62250D02*
X69250D01*
X32500Y73500D02*
X32625Y73625D01*
X39375D01*
X39500Y73750D01*
X23500Y62250D02*
Y73500D01*
Y62250D02*
X25500D01*
X24731Y42250D02*
X25500D01*
X17500Y52250D02*
X25500D01*
X17500Y52250D02*
X17500Y52250D01*
M02*
