G04*
G04 #@! TF.GenerationSoftware,Altium Limited,Altium Designer,23.3.1 (30)*
G04*
G04 Layer_Color=8421504*
%FSLAX44Y44*%
%MOMM*%
G71*
G04*
G04 #@! TF.SameCoordinates,3788C411-BF41-4264-93CF-D4AFF9625904*
G04*
G04*
G04 #@! TF.FilePolarity,Positive*
G04*
G01*
G75*
%ADD13R,1.6510X0.9398*%
%ADD14R,1.0414X0.5334*%
%ADD15R,0.5153X0.4725*%
%ADD16R,0.5500X0.5500*%
%ADD17C,1.0000*%
%ADD18R,1.4620X0.2794*%
%ADD19R,0.2794X1.4620*%
%ADD20R,3.7592X4.4450*%
%ADD21R,0.8080X0.2548*%
%ADD22R,0.9000X0.8000*%
%ADD23R,0.8500X0.4500*%
%ADD24R,0.6000X0.5500*%
%ADD25R,0.5000X0.6000*%
G36*
X92546Y221158D02*
X75750D01*
Y233975D01*
X92546D01*
Y221158D01*
D02*
G37*
G36*
X73750D02*
X56954D01*
Y233975D01*
X73750D01*
Y221158D01*
D02*
G37*
G36*
X92546Y206342D02*
X75750D01*
Y219158D01*
X92546D01*
Y206342D01*
D02*
G37*
G36*
X73750D02*
X56954D01*
Y219158D01*
X73750D01*
Y206342D01*
D02*
G37*
G36*
X92546Y191525D02*
X75750D01*
Y204342D01*
X92546D01*
Y191525D01*
D02*
G37*
G36*
X73750D02*
X56954D01*
Y204342D01*
X73750D01*
Y191525D01*
D02*
G37*
D13*
X161700Y220000D02*
D03*
Y75000D02*
D03*
D14*
X142500Y207500D02*
D03*
Y199500D02*
D03*
Y191500D02*
D03*
Y183500D02*
D03*
Y175500D02*
D03*
Y167500D02*
D03*
Y159500D02*
D03*
Y151500D02*
D03*
Y143500D02*
D03*
Y135500D02*
D03*
Y127500D02*
D03*
Y119500D02*
D03*
Y111500D02*
D03*
Y103500D02*
D03*
Y95500D02*
D03*
Y87500D02*
D03*
D15*
X10214Y218500D02*
D03*
X17786D02*
D03*
D16*
X12500Y194000D02*
D03*
Y203000D02*
D03*
D17*
X14250Y43500D02*
D03*
X15000Y132500D02*
D03*
X40000Y177250D02*
D03*
X110750Y208000D02*
D03*
X128000Y212250D02*
D03*
X14250Y234000D02*
D03*
X45500Y35250D02*
D03*
X78500D02*
D03*
X108500Y64000D02*
D03*
Y46250D02*
D03*
X165750Y235500D02*
D03*
X143000D02*
D03*
X25250Y66250D02*
D03*
X64000D02*
D03*
D18*
X122164Y157940D02*
D03*
Y152860D02*
D03*
Y147780D02*
D03*
Y142700D02*
D03*
Y137620D02*
D03*
Y132540D02*
D03*
Y127460D02*
D03*
Y122380D02*
D03*
Y117300D02*
D03*
Y112220D02*
D03*
Y107140D02*
D03*
Y102060D02*
D03*
X37836D02*
D03*
Y107140D02*
D03*
Y112220D02*
D03*
Y117300D02*
D03*
Y122380D02*
D03*
Y127460D02*
D03*
Y132540D02*
D03*
Y137620D02*
D03*
Y142700D02*
D03*
Y147780D02*
D03*
Y152860D02*
D03*
Y157940D02*
D03*
D19*
X107940Y87836D02*
D03*
X102860D02*
D03*
X97780D02*
D03*
X92700D02*
D03*
X87620D02*
D03*
X82540D02*
D03*
X77460D02*
D03*
X72380D02*
D03*
X67300D02*
D03*
X62220D02*
D03*
X57140D02*
D03*
X52060D02*
D03*
Y172164D02*
D03*
X57140D02*
D03*
X62220D02*
D03*
X67300D02*
D03*
X72380D02*
D03*
X77460D02*
D03*
X82540D02*
D03*
X87620D02*
D03*
X92700D02*
D03*
X97780D02*
D03*
X102860D02*
D03*
X107940D02*
D03*
D20*
X74750Y212750D02*
D03*
D21*
X99491Y233070D02*
D03*
Y227990D02*
D03*
Y222910D02*
D03*
Y217830D02*
D03*
Y212750D02*
D03*
Y207670D02*
D03*
Y202590D02*
D03*
Y197510D02*
D03*
Y192430D02*
D03*
X50009D02*
D03*
Y197510D02*
D03*
Y202590D02*
D03*
Y207670D02*
D03*
Y212750D02*
D03*
Y217830D02*
D03*
Y222910D02*
D03*
Y227990D02*
D03*
Y233070D02*
D03*
D22*
X22250Y163250D02*
D03*
Y148250D02*
D03*
X24000Y191000D02*
D03*
Y206000D02*
D03*
X22250Y107000D02*
D03*
Y122000D02*
D03*
D23*
X8750Y147500D02*
D03*
Y162500D02*
D03*
Y120250D02*
D03*
Y105250D02*
D03*
D24*
X28000Y218250D02*
D03*
X36500D02*
D03*
X116750Y228750D02*
D03*
X125250D02*
D03*
X28500Y93000D02*
D03*
X20000D02*
D03*
D25*
X57000Y36500D02*
D03*
X67000D02*
D03*
X124000Y63500D02*
D03*
X134000D02*
D03*
X130500Y173750D02*
D03*
X120500D02*
D03*
X39250Y64750D02*
D03*
X49250D02*
D03*
M02*
