G04*
G04 #@! TF.GenerationSoftware,Altium Limited,Altium Designer,23.3.1 (30)*
G04*
G04 Layer_Physical_Order=2*
G04 Layer_Color=14067636*
%FSLAX44Y44*%
%MOMM*%
G71*
G04*
G04 #@! TF.SameCoordinates,09AA13D2-A833-43CB-9613-60E66F18C171*
G04*
G04*
G04 #@! TF.FilePolarity,Positive*
G04*
G01*
G75*
%ADD34C,0.2000*%
%ADD39C,0.5000*%
%ADD41C,0.8000*%
%ADD42C,0.6200*%
%ADD43C,1.4500*%
%ADD45R,0.2000X0.5500*%
%ADD46C,3.0000*%
G36*
X170856Y186401D02*
X169587Y185722D01*
X168701Y186313D01*
X167771Y186499D01*
Y181001D01*
Y175503D01*
X168701Y175688D01*
X169587Y176279D01*
X170856Y175600D01*
Y168401D01*
X169587Y167722D01*
X168701Y168314D01*
X167771Y168499D01*
Y163001D01*
Y157503D01*
X168701Y157688D01*
X169587Y158279D01*
X170856Y157600D01*
Y122795D01*
X169587Y122410D01*
X169215Y122965D01*
X167396Y124181D01*
X165250Y124608D01*
X156186D01*
X154040Y124181D01*
X152221Y122965D01*
X147535Y118279D01*
X146319Y116460D01*
X145892Y114314D01*
Y81073D01*
X136321Y71502D01*
X57196D01*
X56597Y72622D01*
X56755Y72859D01*
X57112Y74654D01*
X56755Y76448D01*
X55739Y77970D01*
X54217Y78987D01*
X52422Y79344D01*
X52299Y79319D01*
X51455Y80446D01*
X51561Y80980D01*
X46063D01*
Y82250D01*
X44793D01*
Y87748D01*
X44340Y87658D01*
X43566Y88816D01*
X41701Y90063D01*
X40770Y90248D01*
Y84750D01*
X39500D01*
Y83624D01*
X38500D01*
X38151Y83480D01*
X34002D01*
X34119Y82894D01*
X33395Y81624D01*
X20301D01*
X19815Y82797D01*
X50111Y113093D01*
X51128Y112367D01*
X51151Y112324D01*
X51065Y112195D01*
X50708Y110400D01*
X50922Y109326D01*
X51065Y108605D01*
X50000Y107946D01*
X49458Y107838D01*
X47936Y106821D01*
X46919Y105300D01*
X46562Y103505D01*
X46919Y101710D01*
X47936Y100189D01*
X49458Y99172D01*
X51252Y98815D01*
X53047Y99172D01*
X54569Y100189D01*
X55586Y101710D01*
X55943Y103505D01*
X55729Y104579D01*
X55586Y105300D01*
X56651Y105959D01*
X57193Y106067D01*
X58714Y107084D01*
X59731Y108605D01*
X60088Y110400D01*
X59731Y112195D01*
X59645Y112324D01*
X60244Y113444D01*
X63718D01*
X63718Y113444D01*
X65279Y113754D01*
X66602Y114638D01*
X72307Y120343D01*
X72684Y120327D01*
X73655Y119895D01*
X73887Y118729D01*
X74771Y117406D01*
X77117Y115060D01*
X77287Y114205D01*
X78304Y112684D01*
X79825Y111667D01*
X81620Y111310D01*
X83415Y111667D01*
X84936Y112684D01*
X85953Y114205D01*
X86310Y116000D01*
X85953Y117795D01*
X84936Y119316D01*
X83415Y120333D01*
X83462Y120489D01*
X84060Y121448D01*
X84755Y121310D01*
X86550Y121667D01*
X88072Y122684D01*
X89088Y124205D01*
X89445Y126000D01*
X89088Y127795D01*
X88072Y129317D01*
X86550Y130333D01*
X84755Y130690D01*
X83490Y130438D01*
X82864Y131609D01*
X84784Y133529D01*
X84784Y133529D01*
X85668Y134852D01*
X85877Y135901D01*
X87141Y136584D01*
X87315Y136468D01*
X89110Y136111D01*
X90905Y136468D01*
X92426Y137484D01*
X93443Y139006D01*
X93800Y140801D01*
X93443Y142596D01*
X92426Y144117D01*
X92436Y145363D01*
X93333Y146705D01*
X93690Y148500D01*
X93333Y150295D01*
X92316Y151816D01*
X90795Y152833D01*
X89000Y153190D01*
X87205Y152833D01*
X86075Y152078D01*
X85668Y152246D01*
X84784Y153569D01*
X84784Y153569D01*
X81855Y156498D01*
X80532Y157382D01*
X78971Y157693D01*
X78971Y157693D01*
X70624D01*
X69936Y158736D01*
X69965Y158963D01*
X70313Y160714D01*
X69956Y162509D01*
X68939Y164031D01*
X67418Y165047D01*
X65623Y165404D01*
X63828Y165047D01*
X62307Y164031D01*
X62221Y163903D01*
X60645Y163830D01*
X59511Y164587D01*
X57716Y164944D01*
X55921Y164587D01*
X54400Y163570D01*
X53383Y162049D01*
X53026Y160254D01*
X53383Y158459D01*
X53780Y157865D01*
X53948Y157020D01*
X54368Y156392D01*
X53452Y155476D01*
X52200Y156313D01*
X51270Y156498D01*
Y152270D01*
X55498D01*
X55313Y153200D01*
X54870Y153863D01*
X55856Y154672D01*
X59798Y150731D01*
X61121Y149846D01*
X62682Y149536D01*
X77282D01*
X77822Y148996D01*
Y138102D01*
X75021Y135301D01*
X73977Y135293D01*
X73501Y135437D01*
X73039Y136128D01*
X73039Y136128D01*
X65672Y143495D01*
X65583Y143945D01*
X64566Y145466D01*
X63045Y146483D01*
X61250Y146840D01*
X59455Y146483D01*
X57934Y145466D01*
X56917Y143945D01*
X56560Y142150D01*
X56917Y140355D01*
X57934Y138834D01*
X59455Y137817D01*
X59905Y137727D01*
X65265Y132367D01*
X64542Y131294D01*
X63056Y131590D01*
X61261Y131233D01*
X59739Y130216D01*
X58723Y128695D01*
X58365Y126900D01*
X58723Y125105D01*
X59739Y123584D01*
X60807Y122870D01*
X60421Y121600D01*
X55484D01*
X54805Y122870D01*
X55324Y123647D01*
X55681Y125442D01*
X55324Y127236D01*
X54307Y128758D01*
X52786Y129775D01*
X50991Y130132D01*
X49196Y129775D01*
X47674Y128758D01*
X46658Y127236D01*
X46301Y125442D01*
X46658Y123647D01*
X47349Y122612D01*
X47368Y122412D01*
X47245Y121530D01*
X46942Y121110D01*
X45888Y120406D01*
X45888Y120406D01*
X35297Y109815D01*
X34124Y110301D01*
Y134401D01*
X33947Y134827D01*
X33865Y135280D01*
X33717Y135383D01*
X33648Y135549D01*
X33222Y135725D01*
X32843Y135988D01*
X31790Y136216D01*
X31322Y137150D01*
X31790Y138084D01*
X32843Y138312D01*
X33222Y138574D01*
X33648Y138751D01*
X33717Y138917D01*
X33865Y139020D01*
X33947Y139473D01*
X34124Y139899D01*
Y175000D01*
X33648Y176148D01*
X32500Y176624D01*
X23108D01*
Y206261D01*
X41282Y224435D01*
X42498Y226254D01*
X42924Y228400D01*
X42498Y230546D01*
X41282Y232365D01*
X39463Y233581D01*
X37317Y234008D01*
X35171Y233581D01*
X33351Y232365D01*
X13535Y212549D01*
X12319Y210729D01*
X11892Y208583D01*
Y186845D01*
X10622Y186128D01*
X10020Y186248D01*
Y180750D01*
X7480D01*
Y186248D01*
X6549Y186063D01*
X5414Y185304D01*
X4144Y185983D01*
Y240856D01*
X170856Y240856D01*
Y186401D01*
D02*
G37*
G36*
X32500Y139899D02*
X31230Y139624D01*
X30166Y141216D01*
X28301Y142463D01*
X27370Y142648D01*
Y137150D01*
Y131652D01*
X28301Y131837D01*
X30166Y133084D01*
X31230Y134676D01*
X32500Y134401D01*
Y107018D01*
X22982Y97500D01*
X12009D01*
X11519Y98770D01*
X12541Y100299D01*
X12726Y101230D01*
X7228D01*
Y102500D01*
X5958D01*
Y107998D01*
X5414Y107889D01*
X4144Y108633D01*
Y119829D01*
X5414Y120215D01*
X6035Y119285D01*
X7854Y118069D01*
X10000Y117642D01*
X10750D01*
X12896Y118069D01*
X14715Y119285D01*
X15931Y121104D01*
X15967Y121287D01*
X21465Y126785D01*
X22681Y128604D01*
X23108Y130750D01*
Y130955D01*
X24378Y131742D01*
X24830Y131652D01*
Y137150D01*
Y142648D01*
X24378Y142558D01*
X23108Y143345D01*
Y175000D01*
X32500D01*
Y139899D01*
D02*
G37*
G36*
X170856Y115205D02*
Y60401D01*
X169587Y59722D01*
X168701Y60313D01*
X167721Y60508D01*
X167235Y61682D01*
X167314Y61800D01*
X167499Y62731D01*
X156503D01*
X156688Y61800D01*
X157935Y59935D01*
X159800Y58688D01*
X160781Y58493D01*
X161267Y57319D01*
X161188Y57201D01*
X161003Y56271D01*
X166501D01*
Y55001D01*
X167771D01*
Y49503D01*
X168701Y49688D01*
X169587Y50279D01*
X170856Y49600D01*
Y13871D01*
X169587Y13470D01*
X167951Y14563D01*
X167020Y14748D01*
Y9250D01*
X165750D01*
Y7980D01*
X160252D01*
X160437Y7049D01*
X161530Y5413D01*
X161129Y4143D01*
X131745D01*
X131137Y5413D01*
X132063Y6799D01*
X132248Y7730D01*
X126750D01*
Y9000D01*
X125480D01*
Y14498D01*
X124549Y14313D01*
X122894Y13206D01*
X121624Y13592D01*
Y49082D01*
X121591Y49160D01*
X121616Y49241D01*
X121358Y49724D01*
X121307Y49847D01*
X122823Y50860D01*
X123840Y52382D01*
X124197Y54177D01*
X123840Y55971D01*
X122823Y57493D01*
X121577Y58326D01*
X121037Y59016D01*
X121482Y60286D01*
X138644D01*
X140790Y60713D01*
X142609Y61929D01*
X144409Y63728D01*
X145629Y63152D01*
X145917Y61705D01*
X146934Y60184D01*
X148455Y59167D01*
X150250Y58810D01*
X152045Y59167D01*
X153566Y60184D01*
X154583Y61705D01*
X154940Y63500D01*
X154583Y65295D01*
X153566Y66816D01*
X152045Y67833D01*
X150598Y68121D01*
X150021Y69341D01*
X155465Y74785D01*
X156681Y76604D01*
X157108Y78750D01*
Y84467D01*
X158378Y85146D01*
X159057Y84692D01*
X159988Y84507D01*
Y90004D01*
X161258D01*
Y91274D01*
X166756D01*
X166571Y92205D01*
X165398Y93960D01*
X165251Y94373D01*
Y95389D01*
X166067Y95934D01*
X167314Y97800D01*
X167499Y98731D01*
X162001D01*
Y101271D01*
X167499D01*
X167314Y102201D01*
X166067Y104067D01*
X165063Y104738D01*
Y106265D01*
X165166Y106334D01*
X166413Y108199D01*
X166598Y109130D01*
X161100D01*
Y111670D01*
X166598D01*
X166413Y112601D01*
X166875Y113715D01*
X167396Y113819D01*
X169215Y115035D01*
X169587Y115590D01*
X170856Y115205D01*
D02*
G37*
G36*
X36876Y78780D02*
X35434Y77816D01*
X34187Y75951D01*
X34002Y75020D01*
X38152D01*
X38500Y74876D01*
X39500D01*
Y72480D01*
X34002D01*
X34187Y71549D01*
X33994Y71083D01*
X33431Y70395D01*
X32043Y69468D01*
X31026Y67946D01*
X30669Y66151D01*
X31026Y64356D01*
X32043Y62835D01*
X33417Y61916D01*
X33584Y61182D01*
X33606Y60515D01*
X32934Y60066D01*
X31687Y58201D01*
X31502Y57270D01*
X37000D01*
Y54730D01*
X31502D01*
X31687Y53799D01*
X32934Y51934D01*
Y50816D01*
X31687Y48951D01*
X31502Y48020D01*
X42498D01*
X42313Y48951D01*
X41066Y50816D01*
Y51934D01*
X42313Y53799D01*
X42513Y54806D01*
X42753Y54977D01*
X43904Y55288D01*
X45354Y54319D01*
X47500Y53892D01*
X48733Y54138D01*
X48848Y54023D01*
X61001D01*
X60816Y54953D01*
X59569Y56819D01*
X57703Y58065D01*
X56653Y58274D01*
X56185Y59594D01*
X56733Y60286D01*
X119304D01*
X119362Y60092D01*
X118470Y58660D01*
X117712Y58510D01*
X116191Y57493D01*
X115174Y55971D01*
X114817Y54177D01*
X115174Y52382D01*
X116191Y50860D01*
X117712Y49844D01*
X119507Y49486D01*
X120000Y49082D01*
Y4143D01*
X30672Y4143D01*
X30287Y5413D01*
X31067Y5934D01*
X32313Y7800D01*
X32499Y8731D01*
X21503D01*
X21688Y7800D01*
X22935Y5934D01*
X23714Y5413D01*
X23329Y4143D01*
X4144D01*
Y52828D01*
X5414Y53214D01*
X5434Y53184D01*
X6955Y52167D01*
X8750Y51810D01*
X10545Y52167D01*
X12066Y53184D01*
X13083Y54705D01*
X13440Y56500D01*
X13083Y58295D01*
X12066Y59816D01*
X10545Y60833D01*
X8750Y61190D01*
X6955Y60833D01*
X5434Y59816D01*
X5414Y59786D01*
X4144Y60171D01*
Y66379D01*
X5414Y66780D01*
X7049Y65687D01*
X7980Y65502D01*
Y71000D01*
X9250D01*
Y72270D01*
X14748D01*
X14563Y73201D01*
X13590Y74656D01*
X13584Y74671D01*
X13739Y76000D01*
X13847Y76239D01*
X14676Y76793D01*
X15693Y78315D01*
X15782Y78765D01*
X17018Y80000D01*
X36876D01*
Y78780D01*
D02*
G37*
%LPC*%
G36*
X152037Y235238D02*
X150243Y234880D01*
X148721Y233864D01*
X147704Y232342D01*
X147347Y230547D01*
X147395Y230306D01*
X146368Y228961D01*
X145462Y228780D01*
X143941Y227764D01*
X142924Y226242D01*
X142567Y224447D01*
X142596Y224304D01*
X142413Y224022D01*
X141495Y223326D01*
X140114Y223601D01*
X139003Y223380D01*
X138319Y223244D01*
X137219Y223938D01*
X136603Y224861D01*
X134737Y226108D01*
X133806Y226293D01*
Y220795D01*
Y215297D01*
X134737Y215482D01*
X136213Y216469D01*
X136797Y215595D01*
X138319Y214578D01*
X140114Y214221D01*
X141908Y214578D01*
X142036Y214663D01*
X143664Y214224D01*
X144191Y213435D01*
X145713Y212418D01*
X145903Y212380D01*
X146272Y211165D01*
X145948Y210841D01*
X145395Y210014D01*
X145201Y209039D01*
Y196806D01*
X131974Y183579D01*
X131417Y183690D01*
X129622Y183333D01*
X128530Y183785D01*
X128433Y184270D01*
X127416Y185792D01*
X127395Y185806D01*
Y198166D01*
X128665Y198491D01*
X130392Y197337D01*
X131323Y197152D01*
Y202650D01*
Y208148D01*
X130392Y207963D01*
X128665Y206808D01*
X127395Y207134D01*
Y216226D01*
X128665Y216599D01*
X130336Y215482D01*
X131266Y215297D01*
Y220795D01*
Y226293D01*
X130336Y226108D01*
X128470Y224861D01*
X128100Y224307D01*
X126830D01*
X126556Y224716D01*
X125034Y225733D01*
X123239Y226090D01*
X121445Y225733D01*
X119923Y224716D01*
X118906Y223195D01*
X117527Y222770D01*
X116169Y223040D01*
X114374Y222683D01*
X113729Y222252D01*
X112785Y221748D01*
X112102Y222576D01*
X111672Y223219D01*
X110151Y224235D01*
X108356Y224592D01*
X106561Y224235D01*
X105040Y223219D01*
X104023Y221697D01*
X103666Y219902D01*
X104023Y218107D01*
X105040Y216586D01*
X106561Y215569D01*
X108356Y215212D01*
X110151Y215569D01*
X110796Y216000D01*
X111740Y216504D01*
X112423Y215676D01*
X112853Y215034D01*
X114374Y214017D01*
X116169Y213660D01*
X117964Y214017D01*
X118118Y214120D01*
X119238Y213521D01*
Y183584D01*
X119238Y183584D01*
X119434Y182598D01*
X119410Y182475D01*
X119767Y180681D01*
X120784Y179159D01*
X122305Y178142D01*
X124100Y177785D01*
X125895Y178142D01*
X126987Y177690D01*
X127083Y177205D01*
X128100Y175684D01*
X129622Y174667D01*
X131417Y174310D01*
X133211Y174667D01*
X134733Y175684D01*
X135750Y177205D01*
X136107Y179000D01*
X135857Y180253D01*
X149552Y193948D01*
X150105Y194775D01*
X150299Y195750D01*
Y198076D01*
X151569Y198522D01*
X153087Y197357D01*
X154993Y196568D01*
X155387Y195835D01*
X155571Y195147D01*
X155175Y194554D01*
X154818Y192759D01*
X155002Y191831D01*
X154407Y190939D01*
X152541Y189693D01*
X151295Y187827D01*
X151110Y186896D01*
X156608D01*
Y184356D01*
X151110D01*
X151295Y183426D01*
X152541Y181560D01*
X153270Y181073D01*
Y179803D01*
X152541Y179316D01*
X151295Y177451D01*
X151110Y176520D01*
X156608D01*
Y175250D01*
X157878D01*
Y169752D01*
X158808Y169937D01*
X160674Y171184D01*
X161920Y173049D01*
X162358Y175250D01*
X162310Y175490D01*
X163453Y176254D01*
X164300Y175688D01*
X165231Y175503D01*
Y181001D01*
Y186499D01*
X164300Y186313D01*
X163598Y185844D01*
X162197Y186436D01*
X161920Y187827D01*
X161453Y188527D01*
X162824Y189443D01*
X163841Y190965D01*
X164198Y192759D01*
X163841Y194554D01*
X162824Y196076D01*
X162505Y196289D01*
X162493Y196311D01*
X162509Y197814D01*
X163741Y198759D01*
X165143Y200587D01*
X166025Y202716D01*
X166325Y205000D01*
X166025Y207284D01*
X165143Y209413D01*
X163741Y211241D01*
X161913Y212643D01*
X159784Y213525D01*
X157887Y213775D01*
X157304Y214988D01*
X163749Y221433D01*
X164301Y222260D01*
X164495Y223235D01*
Y224956D01*
X164545Y224966D01*
X166066Y225983D01*
X167083Y227504D01*
X167440Y229299D01*
X167083Y231094D01*
X166066Y232615D01*
X164545Y233632D01*
X162750Y233989D01*
X160955Y233632D01*
X159434Y232615D01*
X158417Y231094D01*
X158060Y229299D01*
X158417Y227504D01*
X159397Y226037D01*
Y224291D01*
X153094Y217987D01*
X151878Y218356D01*
X151841Y218546D01*
X150961Y219862D01*
X150830Y220291D01*
X150865Y221568D01*
X151590Y222652D01*
X151947Y224447D01*
X151899Y224688D01*
X152927Y226034D01*
X153832Y226214D01*
X155354Y227231D01*
X156371Y228752D01*
X156728Y230547D01*
X156371Y232342D01*
X155354Y233864D01*
X153832Y234880D01*
X152037Y235238D01*
D02*
G37*
G36*
X67837Y225398D02*
Y221171D01*
X72065D01*
X71880Y222101D01*
X70633Y223967D01*
X68767Y225213D01*
X67837Y225398D01*
D02*
G37*
G36*
X80020Y215498D02*
Y211270D01*
X84248D01*
X84063Y212201D01*
X82816Y214066D01*
X80951Y215313D01*
X80020Y215498D01*
D02*
G37*
G36*
X77480D02*
X76549Y215313D01*
X74684Y214066D01*
X73437Y212201D01*
X73252Y211270D01*
X77480D01*
Y215498D01*
D02*
G37*
G36*
X65297Y225398D02*
X64366Y225213D01*
X62501Y223967D01*
X61254Y222101D01*
X60816Y219900D01*
X60083Y219167D01*
X57882Y218730D01*
X56017Y217483D01*
X54770Y215618D01*
X54585Y214687D01*
X60083D01*
Y213417D01*
X61353D01*
Y207919D01*
X62284Y208104D01*
X64149Y209351D01*
X65396Y211216D01*
X65834Y213417D01*
X66567Y214150D01*
X68767Y214588D01*
X70633Y215834D01*
X71880Y217700D01*
X72065Y218631D01*
X66567D01*
Y219900D01*
X65297D01*
Y225398D01*
D02*
G37*
G36*
X58813Y212147D02*
X54585D01*
X54770Y211216D01*
X56017Y209351D01*
X57882Y208104D01*
X58813Y207919D01*
Y212147D01*
D02*
G37*
G36*
X84248Y208730D02*
X80020D01*
Y204502D01*
X80951Y204687D01*
X82816Y205934D01*
X84063Y207799D01*
X84248Y208730D01*
D02*
G37*
G36*
X77480D02*
X73252D01*
X73437Y207799D01*
X74684Y205934D01*
X76549Y204687D01*
X77480Y204502D01*
Y208730D01*
D02*
G37*
G36*
X133863Y208148D02*
Y203920D01*
X138091D01*
X137906Y204851D01*
X136659Y206716D01*
X134794Y207963D01*
X133863Y208148D01*
D02*
G37*
G36*
X138091Y201380D02*
X133863D01*
Y197152D01*
X134794Y197337D01*
X136659Y198584D01*
X137906Y200449D01*
X138091Y201380D01*
D02*
G37*
G36*
X37500Y213825D02*
X35216Y213525D01*
X33087Y212643D01*
X31259Y211241D01*
X29857Y209413D01*
X28975Y207284D01*
X28674Y205000D01*
X28975Y202716D01*
X29857Y200587D01*
X31259Y198759D01*
X32828Y197556D01*
X33097Y197108D01*
X33144Y195959D01*
X32467Y194945D01*
X32110Y193150D01*
X32467Y191355D01*
X33484Y189834D01*
X35005Y188817D01*
X36800Y188460D01*
X37045Y188509D01*
X37943Y187611D01*
X37812Y186950D01*
X38169Y185155D01*
X39186Y183634D01*
X40707Y182617D01*
X42502Y182260D01*
X44297Y182617D01*
X45819Y183634D01*
X46835Y185155D01*
X47192Y186950D01*
X46835Y188745D01*
X45819Y190266D01*
X44297Y191283D01*
X42502Y191640D01*
X42257Y191591D01*
X41359Y192489D01*
X41490Y193150D01*
X41133Y194945D01*
X40759Y195504D01*
X41236Y197077D01*
X41913Y197357D01*
X43741Y198759D01*
X45143Y200587D01*
X46025Y202716D01*
X46325Y205000D01*
X46025Y207284D01*
X45143Y209413D01*
X43741Y211241D01*
X41913Y212643D01*
X39784Y213525D01*
X37500Y213825D01*
D02*
G37*
G36*
X155337Y173980D02*
X151110D01*
X151295Y173049D01*
X152541Y171184D01*
X154407Y169937D01*
X155337Y169752D01*
Y173980D01*
D02*
G37*
G36*
X113339Y171902D02*
X112409Y171717D01*
X110543Y170471D01*
X109297Y168605D01*
X109111Y167674D01*
X113339D01*
Y171902D01*
D02*
G37*
G36*
X165231Y168499D02*
X164300Y168314D01*
X162435Y167067D01*
X161188Y165201D01*
X161109Y164803D01*
X159698Y164218D01*
X158808Y164813D01*
X157878Y164998D01*
Y159500D01*
Y154002D01*
X158808Y154187D01*
X160674Y155434D01*
X161920Y157299D01*
X161999Y157698D01*
X163411Y158282D01*
X164300Y157688D01*
X165231Y157503D01*
Y163001D01*
Y168499D01*
D02*
G37*
G36*
X113339Y165134D02*
X109111D01*
X109297Y164204D01*
X110543Y162338D01*
X112409Y161091D01*
X113339Y160906D01*
Y165134D01*
D02*
G37*
G36*
X155337Y164998D02*
X154407Y164813D01*
X152541Y163566D01*
X151295Y161701D01*
X151110Y160770D01*
X155337D01*
Y164998D01*
D02*
G37*
G36*
X115879Y171902D02*
Y166404D01*
Y160906D01*
X116810Y161091D01*
X117490Y161546D01*
X119218Y161173D01*
X119584Y160627D01*
X121105Y159610D01*
X122900Y159253D01*
X124695Y159610D01*
X126216Y160627D01*
X127233Y162148D01*
X127590Y163943D01*
X127233Y165738D01*
X126216Y167259D01*
X124695Y168276D01*
X122900Y168633D01*
X121276Y168310D01*
X120361Y168423D01*
X119922Y168605D01*
X118676Y170471D01*
X116810Y171717D01*
X115879Y171902D01*
D02*
G37*
G36*
X155337Y158230D02*
X151110D01*
X151295Y157299D01*
X152541Y155434D01*
X154407Y154187D01*
X155337Y154002D01*
Y158230D01*
D02*
G37*
G36*
X48730Y156498D02*
X47799Y156313D01*
X45934Y155066D01*
X44687Y153200D01*
X44502Y152270D01*
X48730D01*
Y156498D01*
D02*
G37*
G36*
X110755Y151197D02*
X108961Y150840D01*
X107439Y149824D01*
X106891Y149003D01*
X105365Y149001D01*
X105316Y149073D01*
X103795Y150090D01*
X102000Y150447D01*
X100205Y150090D01*
X98684Y149073D01*
X97667Y147552D01*
X97310Y145757D01*
X97667Y143962D01*
X98684Y142441D01*
X100205Y141424D01*
X102000Y141067D01*
X102394Y141145D01*
X102791Y140000D01*
X101269Y138983D01*
X100253Y137461D01*
X99896Y135666D01*
X100253Y133872D01*
X101269Y132350D01*
X102791Y131333D01*
X104586Y130976D01*
X106381Y131333D01*
X107902Y132350D01*
X108919Y133872D01*
X109276Y135666D01*
X108919Y137461D01*
X107902Y138983D01*
X106381Y140000D01*
X104586Y140357D01*
X104192Y140278D01*
X103795Y141424D01*
X105316Y142441D01*
X105865Y143261D01*
X107390Y143264D01*
X107439Y143191D01*
X108961Y142174D01*
X110755Y141817D01*
X112550Y142174D01*
X114072Y143191D01*
X115089Y144712D01*
X115445Y146507D01*
X115089Y148302D01*
X114072Y149824D01*
X112550Y150840D01*
X110755Y151197D01*
D02*
G37*
G36*
X157878Y151285D02*
Y147057D01*
X162105D01*
X161920Y147988D01*
X160674Y149853D01*
X158808Y151100D01*
X157878Y151285D01*
D02*
G37*
G36*
X155337D02*
X154407Y151100D01*
X152541Y149853D01*
X151295Y147988D01*
X151110Y147057D01*
X155337D01*
Y151285D01*
D02*
G37*
G36*
X55498Y149730D02*
X51270D01*
Y145502D01*
X52200Y145687D01*
X54066Y146933D01*
X55313Y148799D01*
X55498Y149730D01*
D02*
G37*
G36*
X48730D02*
X44502D01*
X44687Y148799D01*
X45934Y146933D01*
X47799Y145687D01*
X48730Y145502D01*
Y149730D01*
D02*
G37*
G36*
X162105Y144517D02*
X157878D01*
Y140289D01*
X158808Y140475D01*
X160674Y141721D01*
X161920Y143587D01*
X162105Y144517D01*
D02*
G37*
G36*
X155337D02*
X151110D01*
X151295Y143587D01*
X152541Y141721D01*
X154407Y140475D01*
X155337Y140289D01*
Y144517D01*
D02*
G37*
G36*
X50249Y143040D02*
X48454Y142683D01*
X46933Y141666D01*
X45916Y140145D01*
X45559Y138350D01*
X45916Y136555D01*
X46933Y135034D01*
X48454Y134017D01*
X50249Y133660D01*
X52044Y134017D01*
X53566Y135034D01*
X54582Y136555D01*
X54939Y138350D01*
X54582Y140145D01*
X53566Y141666D01*
X52044Y142683D01*
X50249Y143040D01*
D02*
G37*
G36*
X103500Y127201D02*
X101705Y126844D01*
X100184Y125827D01*
X99458Y124741D01*
X99167Y124306D01*
X97887Y124380D01*
X97470Y124658D01*
X95675Y125015D01*
X93880Y124658D01*
X92358Y123642D01*
X91342Y122120D01*
X90985Y120325D01*
X91342Y118530D01*
X92358Y117009D01*
X93880Y115992D01*
X95675Y115635D01*
X97470Y115992D01*
X98991Y117009D01*
X99717Y118095D01*
X100008Y118530D01*
X101288Y118457D01*
X101705Y118178D01*
X103500Y117821D01*
X105295Y118178D01*
X106816Y119195D01*
X107833Y120716D01*
X108190Y122511D01*
X107833Y124306D01*
X106816Y125827D01*
X105295Y126844D01*
X103500Y127201D01*
D02*
G37*
G36*
X104525Y113503D02*
Y109275D01*
X108753D01*
X108568Y110206D01*
X107321Y112072D01*
X105456Y113318D01*
X104525Y113503D01*
D02*
G37*
G36*
X101985D02*
X101054Y113318D01*
X99189Y112072D01*
X97942Y110206D01*
X97757Y109275D01*
X101985D01*
Y113503D01*
D02*
G37*
G36*
X108753Y106735D02*
X104525D01*
Y102507D01*
X105456Y102692D01*
X107321Y103939D01*
X108568Y105805D01*
X108753Y106735D01*
D02*
G37*
G36*
X101985D02*
X97757D01*
X97942Y105805D01*
X99189Y103939D01*
X101054Y102692D01*
X101985Y102507D01*
Y106735D01*
D02*
G37*
G36*
X117006Y100695D02*
X115211Y100338D01*
X113689Y99321D01*
X112673Y97800D01*
X112316Y96005D01*
X112673Y94210D01*
X113689Y92688D01*
X115211Y91672D01*
X117006Y91315D01*
X118800Y91672D01*
X120322Y92688D01*
X121339Y94210D01*
X121696Y96005D01*
X121339Y97800D01*
X120322Y99321D01*
X118800Y100338D01*
X117006Y100695D01*
D02*
G37*
G36*
X38230Y90248D02*
X37299Y90063D01*
X35434Y88816D01*
X34187Y86951D01*
X34002Y86020D01*
X38230D01*
Y90248D01*
D02*
G37*
G36*
X47333Y87748D02*
Y83520D01*
X51561D01*
X51376Y84451D01*
X50129Y86316D01*
X48264Y87563D01*
X47333Y87748D01*
D02*
G37*
G36*
X136416Y85007D02*
X134621Y84650D01*
X133100Y83634D01*
X133071Y83591D01*
X131426Y83416D01*
X130538Y84010D01*
X128743Y84367D01*
X126948Y84010D01*
X125426Y82993D01*
X124410Y81471D01*
X124053Y79676D01*
X124410Y77882D01*
X125426Y76360D01*
X126948Y75343D01*
X128743Y74986D01*
X130538Y75343D01*
X132059Y76360D01*
X132088Y76403D01*
X133732Y76578D01*
X134621Y75984D01*
X136416Y75627D01*
X138211Y75984D01*
X139732Y77001D01*
X140749Y78523D01*
X141106Y80317D01*
X140749Y82112D01*
X139732Y83634D01*
X138211Y84650D01*
X136416Y85007D01*
D02*
G37*
G36*
X8498Y107998D02*
Y103770D01*
X12726D01*
X12541Y104701D01*
X11295Y106566D01*
X9429Y107813D01*
X8498Y107998D01*
D02*
G37*
G36*
X166756Y88734D02*
X162528D01*
Y84507D01*
X163458Y84692D01*
X165324Y85938D01*
X166571Y87804D01*
X166756Y88734D01*
D02*
G37*
G36*
X163271Y69499D02*
Y65271D01*
X167499D01*
X167314Y66201D01*
X166067Y68067D01*
X164201Y69314D01*
X163271Y69499D01*
D02*
G37*
G36*
X160731D02*
X159800Y69314D01*
X157935Y68067D01*
X156688Y66201D01*
X156503Y65271D01*
X160731D01*
Y69499D01*
D02*
G37*
G36*
X165231Y53731D02*
X161003D01*
X161188Y52800D01*
X162435Y50935D01*
X164300Y49688D01*
X165231Y49503D01*
Y53731D01*
D02*
G37*
G36*
X146270Y49500D02*
Y33270D01*
X162500D01*
X162286Y35438D01*
X161283Y38745D01*
X159655Y41792D01*
X157463Y44463D01*
X154792Y46655D01*
X151745Y48283D01*
X148438Y49286D01*
X146270Y49500D01*
D02*
G37*
G36*
X143730D02*
X141561Y49286D01*
X138255Y48283D01*
X135208Y46655D01*
X132537Y44463D01*
X130345Y41792D01*
X128717Y38745D01*
X127714Y35438D01*
X127500Y33270D01*
X143730D01*
Y49500D01*
D02*
G37*
G36*
X162500Y30730D02*
X146270D01*
Y14500D01*
X148438Y14714D01*
X151745Y15717D01*
X154792Y17345D01*
X157463Y19537D01*
X159655Y22208D01*
X161283Y25255D01*
X162286Y28561D01*
X162500Y30730D01*
D02*
G37*
G36*
X143730D02*
X127500D01*
X127714Y28561D01*
X128717Y25255D01*
X130345Y22208D01*
X132537Y19537D01*
X135208Y17345D01*
X138255Y15717D01*
X141561Y14714D01*
X143730Y14500D01*
Y30730D01*
D02*
G37*
G36*
X164480Y14748D02*
X163549Y14563D01*
X161684Y13316D01*
X160437Y11451D01*
X160252Y10520D01*
X164480D01*
Y14748D01*
D02*
G37*
G36*
X128020Y14498D02*
Y10270D01*
X132248D01*
X132063Y11201D01*
X130816Y13066D01*
X128951Y14313D01*
X128020Y14498D01*
D02*
G37*
G36*
X14748Y69730D02*
X10520D01*
Y65502D01*
X11451Y65687D01*
X13316Y66934D01*
X14563Y68799D01*
X14748Y69730D01*
D02*
G37*
G36*
X42498Y45480D02*
X38270D01*
Y41252D01*
X39201Y41437D01*
X41066Y42684D01*
X42313Y44549D01*
X42498Y45480D01*
D02*
G37*
G36*
X35730D02*
X31502D01*
X31687Y44549D01*
X32934Y42684D01*
X34799Y41437D01*
X35730Y41252D01*
Y45480D01*
D02*
G37*
G36*
X61001Y51483D02*
X50005D01*
X50190Y50552D01*
X51437Y48686D01*
X52124Y48227D01*
X51167Y46795D01*
X50810Y45000D01*
X51167Y43205D01*
X52184Y41684D01*
X53705Y40667D01*
X55500Y40310D01*
X57295Y40667D01*
X58816Y41684D01*
X59833Y43205D01*
X60190Y45000D01*
X59833Y46795D01*
X58878Y48225D01*
X59569Y48686D01*
X60816Y50552D01*
X61001Y51483D01*
D02*
G37*
G36*
X68250Y33440D02*
X66455Y33083D01*
X64934Y32066D01*
X63917Y30545D01*
X63560Y28750D01*
X63917Y26955D01*
X64934Y25434D01*
X66455Y24417D01*
X68250Y24060D01*
X70045Y24417D01*
X71566Y25434D01*
X72583Y26955D01*
X72940Y28750D01*
X72583Y30545D01*
X71566Y32066D01*
X70045Y33083D01*
X68250Y33440D01*
D02*
G37*
G36*
X55100Y31979D02*
X53305Y31622D01*
X51784Y30605D01*
X50767Y29084D01*
X50410Y27289D01*
X50767Y25494D01*
X51784Y23972D01*
X53305Y22956D01*
X55100Y22599D01*
X56895Y22956D01*
X58416Y23972D01*
X59433Y25494D01*
X59790Y27289D01*
X59433Y29084D01*
X58416Y30605D01*
X56895Y31622D01*
X55100Y31979D01*
D02*
G37*
G36*
X109520Y22498D02*
Y18270D01*
X113748D01*
X113563Y19201D01*
X112316Y21066D01*
X110451Y22313D01*
X109520Y22498D01*
D02*
G37*
G36*
X106980D02*
X106049Y22313D01*
X104184Y21066D01*
X102937Y19201D01*
X102752Y18270D01*
X106980D01*
Y22498D01*
D02*
G37*
G36*
X113748Y15730D02*
X109520D01*
Y11502D01*
X110451Y11687D01*
X112316Y12934D01*
X113563Y14799D01*
X113748Y15730D01*
D02*
G37*
G36*
X106980D02*
X102752D01*
X102937Y14799D01*
X104184Y12934D01*
X106049Y11687D01*
X106980Y11502D01*
Y15730D01*
D02*
G37*
G36*
X28271Y15498D02*
Y11271D01*
X32499D01*
X32313Y12201D01*
X31067Y14067D01*
X29201Y15313D01*
X28271Y15498D01*
D02*
G37*
G36*
X25731D02*
X24800Y15313D01*
X22935Y14067D01*
X21688Y12201D01*
X21503Y11271D01*
X25731D01*
Y15498D01*
D02*
G37*
%LPD*%
D34*
X131417Y179417D02*
X147750Y195750D01*
X131417Y179000D02*
Y179417D01*
X147750Y209039D02*
X161946Y223235D01*
Y228495D01*
X147750Y195750D02*
Y209039D01*
X161946Y228495D02*
X162750Y229299D01*
D39*
X57716Y158581D02*
Y160254D01*
Y158581D02*
X62682Y153615D01*
X61250Y142150D02*
X70156Y133244D01*
Y123959D02*
Y133244D01*
X62682Y153615D02*
X78971D01*
X81900Y150686D01*
X77655Y132168D02*
X81900Y136412D01*
Y150686D01*
X63718Y117522D02*
X70156Y123959D01*
X48772Y117522D02*
X63718D01*
X11360Y80110D02*
X48772Y117522D01*
X81620Y116000D02*
Y116325D01*
X77655Y120289D02*
X81620Y116325D01*
X77655Y120289D02*
Y132168D01*
X123239Y221400D02*
X123316Y221323D01*
Y183584D02*
Y221323D01*
Y183584D02*
X124100Y182800D01*
Y182475D02*
Y182800D01*
D41*
X17500Y130750D02*
Y208583D01*
X10000Y123250D02*
X17500Y130750D01*
X47500Y59500D02*
X53894Y65894D01*
X138644D01*
X151500Y78750D01*
X17500Y208583D02*
X37317Y228400D01*
X10000Y123250D02*
X10750D01*
X156186Y119000D02*
X165250D01*
X151500Y114314D02*
X156186Y119000D01*
X151500Y78750D02*
Y114314D01*
D42*
X8750Y180750D02*
D03*
Y169750D02*
D03*
X39500Y84750D02*
D03*
Y73750D02*
D03*
X57716Y160254D02*
D03*
X65623Y160714D02*
D03*
X61250Y142150D02*
D03*
X50249Y138350D02*
D03*
X89000Y148500D02*
D03*
X89110Y140801D02*
D03*
X84755Y126000D02*
D03*
X63056Y126900D02*
D03*
X104586Y135666D02*
D03*
X102000Y145757D02*
D03*
X50991Y125442D02*
D03*
X50000Y151000D02*
D03*
X55398Y110400D02*
D03*
X103500Y122511D02*
D03*
X95675Y120325D02*
D03*
X51252Y103505D02*
D03*
X81620Y116000D02*
D03*
X26100Y137150D02*
D03*
X7500Y133500D02*
D03*
X110755Y146507D02*
D03*
X108356Y219902D02*
D03*
X78750Y210000D02*
D03*
X116169Y218350D02*
D03*
X132593Y202650D02*
D03*
X132536Y220795D02*
D03*
X123239Y221400D02*
D03*
X114609Y166404D02*
D03*
X103255Y108005D02*
D03*
X128743Y79676D02*
D03*
X117006Y96005D02*
D03*
X156608Y185627D02*
D03*
Y175250D02*
D03*
Y145787D02*
D03*
Y159500D02*
D03*
X124100Y182475D02*
D03*
X126750Y9000D02*
D03*
X165750Y9250D02*
D03*
X166501Y181001D02*
D03*
Y163001D02*
D03*
X162001Y100001D02*
D03*
Y64001D02*
D03*
X166501Y55001D02*
D03*
X27001Y10001D02*
D03*
X55503Y52753D02*
D03*
X55100Y27289D02*
D03*
X68250Y28750D02*
D03*
X119507Y54177D02*
D03*
X9250Y71000D02*
D03*
X131417Y179000D02*
D03*
X8750Y56500D02*
D03*
X37000Y46750D02*
D03*
X10000Y123250D02*
D03*
X7164Y144500D02*
D03*
X7228Y102500D02*
D03*
X11360Y80110D02*
D03*
X52422Y74654D02*
D03*
X161100Y110400D02*
D03*
X37000Y56000D02*
D03*
X47500Y59500D02*
D03*
X35359Y66151D02*
D03*
X108250Y17000D02*
D03*
X66567Y219900D02*
D03*
X60083Y213417D02*
D03*
X37317Y228400D02*
D03*
X152037Y230547D02*
D03*
X147257Y224447D02*
D03*
X147507Y216751D02*
D03*
X162750Y229299D02*
D03*
X159508Y192759D02*
D03*
X140114Y218911D02*
D03*
X122900Y163943D02*
D03*
X42502Y186950D02*
D03*
X36800Y193150D02*
D03*
X150250Y63500D02*
D03*
X165250Y119000D02*
D03*
X161258Y90004D02*
D03*
X55500Y45000D02*
D03*
X136416Y80317D02*
D03*
X46063Y82250D02*
D03*
D43*
X157500Y205000D02*
D03*
X37500D02*
D03*
D45*
X8750Y175249D02*
D03*
X39500Y79250D02*
D03*
D46*
X145000Y32000D02*
D03*
M02*
