G04*
G04 #@! TF.GenerationSoftware,Altium Limited,Altium Designer,23.3.1 (30)*
G04*
G04 Layer_Physical_Order=1*
G04 Layer_Color=255*
%FSLAX44Y44*%
%MOMM*%
G71*
G04*
G04 #@! TF.SameCoordinates,09AA13D2-A833-43CB-9613-60E66F18C171*
G04*
G04*
G04 #@! TF.FilePolarity,Positive*
G04*
G01*
G75*
%ADD13R,1.6510X0.9398*%
%ADD14R,1.0414X0.5334*%
%ADD15R,0.5153X0.4725*%
%ADD16R,0.5500X0.5500*%
%ADD17C,1.0000*%
%ADD18R,1.4620X0.2794*%
%ADD19R,0.2794X1.4620*%
%ADD20R,3.7592X4.4450*%
%ADD21R,0.8080X0.2548*%
%ADD22R,0.9000X0.8000*%
%ADD23R,0.8500X0.4500*%
%ADD24R,0.6000X0.5500*%
%ADD25R,0.5000X0.6000*%
%ADD34C,0.2000*%
%ADD35C,0.2800*%
%ADD36C,0.2200*%
%ADD37C,0.4000*%
%ADD38C,0.3000*%
%ADD39C,0.5000*%
%ADD40C,0.6000*%
%ADD41C,0.8000*%
%ADD42C,0.6200*%
%ADD43C,1.4500*%
%ADD44C,5.0000*%
%ADD45R,0.2000X0.5500*%
G36*
X10848Y239986D02*
X10853Y239586D01*
X9614Y238636D01*
X8572Y237278D01*
X7917Y235697D01*
X7694Y234000D01*
X7917Y232303D01*
X8572Y230722D01*
X9614Y229364D01*
X10972Y228322D01*
X12553Y227667D01*
X14250Y227444D01*
X15947Y227667D01*
X17528Y228322D01*
X18886Y229364D01*
X19928Y230722D01*
X20230Y231451D01*
X32476D01*
X33075Y230331D01*
X32984Y230195D01*
X32627Y228400D01*
X32984Y226605D01*
X34000Y225084D01*
X35522Y224067D01*
X37015Y223770D01*
X36890Y222500D01*
X23500D01*
Y220924D01*
X21862D01*
Y222362D01*
X6138D01*
Y214638D01*
X6849D01*
Y208750D01*
X6849Y208750D01*
X7051Y207736D01*
X7625Y206875D01*
X8250Y206251D01*
Y199290D01*
X7210D01*
Y195270D01*
X12500D01*
Y194000D01*
X13770D01*
Y188710D01*
X16960D01*
Y184460D01*
X22730D01*
Y191000D01*
X25270D01*
Y184460D01*
X28449D01*
Y177650D01*
X27637Y176654D01*
X27606Y176624D01*
X14303D01*
X13625Y177894D01*
X14063Y178549D01*
X14248Y179480D01*
X10095D01*
X9750Y179623D01*
X8750D01*
Y180750D01*
X7480D01*
Y186248D01*
X6549Y186063D01*
X5414Y185304D01*
X4144Y185983D01*
Y240856D01*
X10499D01*
X10848Y239986D01*
D02*
G37*
G36*
X170856Y186401D02*
X169587Y185722D01*
X168701Y186313D01*
X167771Y186499D01*
Y181001D01*
X165231D01*
Y186499D01*
X164300Y186313D01*
X163598Y185844D01*
X162197Y186436D01*
X161920Y187827D01*
X161453Y188527D01*
X162824Y189443D01*
X163841Y190965D01*
X164198Y192759D01*
X163841Y194554D01*
X162824Y196076D01*
X162505Y196289D01*
X162493Y196311D01*
X162509Y197814D01*
X163741Y198759D01*
X165143Y200587D01*
X166025Y202716D01*
X166325Y205000D01*
X166025Y207284D01*
X165143Y209413D01*
X163741Y211241D01*
X162059Y212531D01*
X162085Y213042D01*
X162414Y213801D01*
X170856D01*
Y186401D01*
D02*
G37*
G36*
X167771Y157503D02*
X168701Y157688D01*
X169587Y158279D01*
X170856Y157600D01*
X170856Y120903D01*
X169587Y120778D01*
X169583Y120795D01*
X168566Y122316D01*
X167045Y123333D01*
X165250Y123690D01*
X163455Y123333D01*
X161934Y122316D01*
X160917Y120795D01*
X160560Y119000D01*
X160880Y117390D01*
X160819Y117034D01*
X160212Y115974D01*
X158899Y115713D01*
X157034Y114466D01*
X155787Y112601D01*
X155602Y111670D01*
X166598D01*
X166413Y112601D01*
X165903Y113363D01*
X166389Y114537D01*
X167045Y114667D01*
X168566Y115684D01*
X169583Y117205D01*
X169587Y117222D01*
X170856Y117097D01*
Y81199D01*
X151945D01*
Y70065D01*
X150675Y69023D01*
X150250Y69108D01*
X138000D01*
X135854Y68681D01*
X134967Y68088D01*
X134000D01*
X133557Y68000D01*
X130000D01*
Y65613D01*
X129761Y65256D01*
X129412Y63500D01*
X129761Y61744D01*
X129927Y61496D01*
X129942Y60612D01*
X129225Y60042D01*
X128000Y60585D01*
Y62606D01*
X128078Y63000D01*
X128078Y63000D01*
Y63500D01*
X128000Y63894D01*
Y68000D01*
X120000D01*
Y66549D01*
X114480D01*
X114178Y67278D01*
X113413Y68274D01*
X113691Y69398D01*
X113884Y69663D01*
X114163Y69718D01*
X115122Y70359D01*
X123164Y78401D01*
X124380Y78033D01*
X124410Y77882D01*
X125426Y76360D01*
X126948Y75343D01*
X128743Y74986D01*
X130538Y75343D01*
X132059Y76360D01*
X132088Y76403D01*
X133732Y76578D01*
X134621Y75984D01*
X136416Y75627D01*
X138211Y75984D01*
X139732Y77001D01*
X140749Y78523D01*
X141106Y80317D01*
X140759Y82063D01*
X140735Y82289D01*
X141407Y83333D01*
X149207D01*
Y90293D01*
X150247D01*
Y94230D01*
X142500D01*
Y96770D01*
X150247D01*
Y100707D01*
X149207D01*
Y106293D01*
X150247D01*
Y110230D01*
X142500D01*
Y112770D01*
X150247D01*
Y116707D01*
X149207D01*
Y122293D01*
X150247D01*
Y126230D01*
X142500D01*
Y128770D01*
X150247D01*
Y132707D01*
X149207D01*
Y138293D01*
X150247D01*
Y142869D01*
X151517Y143254D01*
X152541Y141721D01*
X154407Y140475D01*
X155337Y140289D01*
Y145787D01*
Y151285D01*
X154407Y151100D01*
X152541Y149853D01*
X151517Y148321D01*
X150247Y148706D01*
Y148707D01*
X149207D01*
Y154293D01*
X150247D01*
Y156581D01*
X151517Y156967D01*
X152541Y155434D01*
X154407Y154187D01*
X155337Y154002D01*
Y159500D01*
X157878D01*
Y154002D01*
X158808Y154187D01*
X160674Y155434D01*
X161920Y157299D01*
X161999Y157698D01*
X163411Y158282D01*
X164300Y157688D01*
X165231Y157503D01*
Y163001D01*
X167771D01*
Y157503D01*
D02*
G37*
G36*
X28449Y174150D02*
X28651Y173136D01*
X29225Y172276D01*
X32500Y169001D01*
Y160837D01*
X29290D01*
Y161980D01*
X23520D01*
Y156710D01*
X29026D01*
Y154698D01*
X28250Y153750D01*
X16250D01*
Y151828D01*
X9000D01*
X9000Y151828D01*
X7743Y151578D01*
X7643D01*
X7643Y151578D01*
X6083Y151268D01*
X6056Y151250D01*
X4144D01*
Y157710D01*
X7480D01*
Y162500D01*
X10020D01*
Y157710D01*
X15210D01*
Y156710D01*
X20980D01*
Y163250D01*
Y169790D01*
X15210D01*
X14314Y170689D01*
X14063Y171951D01*
X12874Y173730D01*
X12974Y174179D01*
X13331Y175000D01*
X27606D01*
X28449Y174150D01*
D02*
G37*
G36*
X75743Y154902D02*
Y132055D01*
X75968Y130924D01*
X76609Y129965D01*
X80149Y126424D01*
X80065Y126000D01*
X80422Y124205D01*
X81439Y122684D01*
X82960Y121667D01*
X82779Y121070D01*
X82440Y120527D01*
X81620Y120690D01*
X79825Y120333D01*
X78304Y119316D01*
X77287Y117795D01*
X76930Y116000D01*
X77287Y114205D01*
X78304Y112684D01*
X79825Y111667D01*
X81620Y111310D01*
X83415Y111667D01*
X83543Y111753D01*
X84663Y111154D01*
Y96646D01*
X75282D01*
X75109Y97515D01*
X74468Y98475D01*
X73957Y98986D01*
Y135644D01*
X73732Y136775D01*
X73091Y137734D01*
X67275Y143551D01*
X66315Y144192D01*
X65281Y144397D01*
X64566Y145466D01*
X63045Y146483D01*
X61250Y146840D01*
X59455Y146483D01*
X57934Y145466D01*
X56917Y143945D01*
X56560Y142150D01*
X56917Y140355D01*
X57934Y138834D01*
X58117Y138711D01*
Y135968D01*
X54965Y132816D01*
X54324Y131857D01*
X54099Y130725D01*
Y130245D01*
X52979Y129646D01*
X52786Y129775D01*
X52682Y129795D01*
X52226Y130556D01*
X52098Y131207D01*
X52143Y131275D01*
X52337Y132250D01*
Y134213D01*
X53566Y135034D01*
X54582Y136555D01*
X54939Y138350D01*
X54582Y140145D01*
X53566Y141666D01*
X52044Y142683D01*
X50249Y143040D01*
X48454Y142683D01*
X47916Y142323D01*
X46646Y143002D01*
Y145111D01*
X47588Y145614D01*
X47916Y145664D01*
X48730Y145502D01*
Y151000D01*
X51270D01*
Y145502D01*
X52200Y145687D01*
X54066Y146933D01*
X55313Y148799D01*
X55750Y151000D01*
X55995Y151297D01*
X69254D01*
X70386Y151522D01*
X71345Y152163D01*
X74570Y155388D01*
X75743Y154902D01*
D02*
G37*
G36*
X16250Y116500D02*
X28250D01*
X29026Y115552D01*
Y113540D01*
X23520D01*
Y107000D01*
Y100460D01*
X25573D01*
X25951Y100000D01*
Y97500D01*
X12009D01*
X11519Y98770D01*
X12541Y100299D01*
X12573Y100460D01*
X20980D01*
Y107000D01*
Y113540D01*
X15210D01*
Y110040D01*
X10020D01*
Y105250D01*
X7480D01*
Y110040D01*
X4144D01*
Y116500D01*
X6262D01*
X6994Y116011D01*
X8750Y115662D01*
X10506Y116011D01*
X11237Y116500D01*
X14500D01*
Y117922D01*
X16250D01*
Y116500D01*
D02*
G37*
G36*
X47936Y100189D02*
X49458Y99172D01*
X49822Y98266D01*
X49895Y97790D01*
X49328Y96941D01*
X49269Y96646D01*
X49163D01*
Y96111D01*
X49103Y95810D01*
Y88529D01*
X48867Y88257D01*
X47953Y87655D01*
X47868Y87641D01*
X47333Y87748D01*
Y82250D01*
X44793D01*
Y87748D01*
X44340Y87658D01*
X43566Y88816D01*
X41701Y90063D01*
X40770Y90248D01*
Y84750D01*
X39500D01*
Y83624D01*
X38500D01*
X38151Y83480D01*
X34002D01*
X34187Y82549D01*
X35434Y80684D01*
X36876Y79720D01*
Y77529D01*
X36184Y77066D01*
X35167Y75545D01*
X34810Y73750D01*
X35158Y71998D01*
X35166Y71954D01*
X34498Y70670D01*
X33564Y70484D01*
X32266Y69617D01*
X31609Y69573D01*
X30729Y69787D01*
X29886Y70886D01*
X28528Y71928D01*
X26947Y72583D01*
X25250Y72806D01*
X23553Y72583D01*
X21972Y71928D01*
X21569Y71618D01*
X20299Y72245D01*
Y73720D01*
X20105Y74695D01*
X19552Y75522D01*
X15870Y79205D01*
X16050Y80110D01*
X15693Y81904D01*
X14676Y83426D01*
X13155Y84443D01*
X11360Y84800D01*
X9565Y84443D01*
X8043Y83426D01*
X7027Y81904D01*
X6670Y80110D01*
X7027Y78315D01*
X8043Y76793D01*
X8099Y76756D01*
X7831Y75408D01*
X7455Y75333D01*
X5934Y74316D01*
X5414Y73538D01*
X4144Y73923D01*
Y97682D01*
X5264Y98281D01*
X5434Y98167D01*
X7228Y97810D01*
X8773Y98117D01*
X9082Y98134D01*
X10278Y97478D01*
X10494Y96916D01*
X10730Y96668D01*
X10861Y96352D01*
X11142Y96236D01*
X11351Y96016D01*
X11693Y96007D01*
X12009Y95876D01*
X14460D01*
Y94270D01*
X20000D01*
Y93000D01*
X21270D01*
Y87710D01*
X25540D01*
Y88750D01*
X33000D01*
Y97250D01*
X31049D01*
Y98944D01*
X31219Y99114D01*
X37439D01*
X37685Y99163D01*
X46646D01*
Y99833D01*
X47916Y100219D01*
X47936Y100189D01*
D02*
G37*
G36*
X76669Y69718D02*
X77800Y69493D01*
X103003D01*
X103547Y68223D01*
X102822Y67278D01*
X102167Y65697D01*
X101944Y64000D01*
X102167Y62303D01*
X102822Y60722D01*
X103864Y59364D01*
X105222Y58322D01*
X106803Y57667D01*
X108500Y57444D01*
X110197Y57667D01*
X111778Y58322D01*
X113136Y59364D01*
X114178Y60722D01*
X114265Y60932D01*
X115048Y60950D01*
X115865Y59775D01*
X115658Y58737D01*
X115658Y58737D01*
Y56696D01*
X115174Y55971D01*
X114817Y54177D01*
X115174Y52382D01*
X116191Y50860D01*
X117375Y50069D01*
X116990Y48799D01*
X114480D01*
X114178Y49528D01*
X113136Y50886D01*
X111778Y51928D01*
X110197Y52583D01*
X108500Y52806D01*
X106803Y52583D01*
X105222Y51928D01*
X103864Y50886D01*
X102822Y49528D01*
X102167Y47947D01*
X101944Y46250D01*
X102167Y44553D01*
X102822Y42972D01*
X103864Y41614D01*
X105222Y40572D01*
X106803Y39917D01*
X108500Y39694D01*
X110197Y39917D01*
X111778Y40572D01*
X113136Y41614D01*
X114178Y42972D01*
X114480Y43701D01*
X119500D01*
X120000Y43291D01*
Y40893D01*
X119719Y40214D01*
X118745Y36158D01*
X118418Y32000D01*
X118745Y27842D01*
X119719Y23786D01*
X120000Y23108D01*
Y4143D01*
X30672Y4143D01*
X30287Y5413D01*
X31067Y5934D01*
X32313Y7800D01*
X32499Y8731D01*
X21503D01*
X21688Y7800D01*
X22935Y5934D01*
X23714Y5413D01*
X23329Y4143D01*
X4144D01*
Y52828D01*
X5414Y53214D01*
X5434Y53184D01*
X6955Y52167D01*
X8750Y51810D01*
X10545Y52167D01*
X10681Y52258D01*
X11801Y51659D01*
Y49521D01*
X10972Y49178D01*
X9614Y48136D01*
X8572Y46778D01*
X7917Y45197D01*
X7694Y43500D01*
X7917Y41803D01*
X8572Y40222D01*
X9614Y38864D01*
X10972Y37822D01*
X12553Y37167D01*
X14250Y36944D01*
X15947Y37167D01*
X17528Y37822D01*
X18886Y38864D01*
X19928Y40222D01*
X20583Y41803D01*
X20806Y43500D01*
X20583Y45197D01*
X19928Y46778D01*
X18886Y48136D01*
X17528Y49178D01*
X16899Y49438D01*
Y57294D01*
X19552Y59948D01*
X19941Y60530D01*
X20837Y60887D01*
X21441Y60980D01*
X21972Y60572D01*
X23553Y59917D01*
X25250Y59694D01*
X26947Y59917D01*
X28528Y60572D01*
X29886Y61614D01*
X30658Y62621D01*
X31823Y62801D01*
X32202Y62729D01*
X33417Y61916D01*
X33584Y61182D01*
X33606Y60515D01*
X32934Y60066D01*
X31687Y58201D01*
X31502Y57270D01*
X37000D01*
Y54730D01*
X31502D01*
X31687Y53799D01*
X32934Y51934D01*
Y50816D01*
X31687Y48951D01*
X31502Y48020D01*
X42498D01*
X42313Y48951D01*
X41066Y50816D01*
Y51934D01*
X42313Y53799D01*
X42751Y56000D01*
X42738Y56061D01*
X43935Y56556D01*
X44184Y56184D01*
X45705Y55167D01*
X47500Y54810D01*
X48923Y55093D01*
X49802Y54447D01*
X50026Y54128D01*
X50005Y54023D01*
X54233D01*
Y58250D01*
X53302Y58065D01*
X53196Y57994D01*
X52280Y58910D01*
X53018Y60014D01*
X53065Y60250D01*
X53250D01*
Y61181D01*
X53328Y61575D01*
X53328Y61575D01*
Y63701D01*
X58020D01*
X58322Y62972D01*
X59364Y61614D01*
X60722Y60572D01*
X62303Y59917D01*
X64000Y59694D01*
X65697Y59917D01*
X67278Y60572D01*
X68636Y61614D01*
X69678Y62972D01*
X70333Y64553D01*
X70556Y66250D01*
X70333Y67947D01*
X70008Y68730D01*
X70857Y70000D01*
X76247D01*
X76669Y69718D01*
D02*
G37*
%LPC*%
G36*
X11230Y192730D02*
X7210D01*
Y188710D01*
X11230D01*
Y192730D01*
D02*
G37*
G36*
X10020Y186248D02*
Y182020D01*
X14248D01*
X14063Y182951D01*
X12816Y184816D01*
X10951Y186063D01*
X10020Y186248D01*
D02*
G37*
G36*
X157878Y151285D02*
Y147057D01*
X162105D01*
X161920Y147988D01*
X160674Y149853D01*
X158808Y151100D01*
X157878Y151285D01*
D02*
G37*
G36*
X162105Y144517D02*
X157878D01*
Y140289D01*
X158808Y140475D01*
X160674Y141721D01*
X161920Y143587D01*
X162105Y144517D01*
D02*
G37*
G36*
X166598Y109130D02*
X155602D01*
X155787Y108199D01*
X157034Y106334D01*
X158038Y105663D01*
Y104136D01*
X157935Y104067D01*
X156688Y102201D01*
X156503Y101271D01*
X167499D01*
X167314Y102201D01*
X166067Y104067D01*
X165063Y104738D01*
Y106265D01*
X165166Y106334D01*
X166413Y108199D01*
X166598Y109130D01*
D02*
G37*
G36*
X167499Y98731D02*
X156503D01*
X156688Y97800D01*
X157861Y96045D01*
X158008Y95632D01*
Y94616D01*
X157192Y94071D01*
X155945Y92205D01*
X155760Y91274D01*
X166756D01*
X166571Y92205D01*
X165398Y93960D01*
X165251Y94373D01*
Y95389D01*
X166067Y95934D01*
X167314Y97800D01*
X167499Y98731D01*
D02*
G37*
G36*
X166756Y88734D02*
X162528D01*
Y84507D01*
X163458Y84692D01*
X165324Y85938D01*
X166571Y87804D01*
X166756Y88734D01*
D02*
G37*
G36*
X159988D02*
X155760D01*
X155945Y87804D01*
X157192Y85938D01*
X159057Y84692D01*
X159988Y84507D01*
Y88734D01*
D02*
G37*
G36*
X29290Y169790D02*
X23520D01*
Y164520D01*
X29290D01*
Y169790D01*
D02*
G37*
G36*
X18730Y91730D02*
X14460D01*
Y87710D01*
X18730D01*
Y91730D01*
D02*
G37*
G36*
X38230Y90248D02*
X37299Y90063D01*
X35434Y88816D01*
X34187Y86951D01*
X34002Y86020D01*
X38230D01*
Y90248D01*
D02*
G37*
G36*
X56773Y58250D02*
Y54023D01*
X61001D01*
X60816Y54953D01*
X59569Y56819D01*
X57703Y58065D01*
X56773Y58250D01*
D02*
G37*
G36*
X42498Y45480D02*
X38270D01*
Y41252D01*
X39201Y41437D01*
X41066Y42684D01*
X42313Y44549D01*
X42498Y45480D01*
D02*
G37*
G36*
X35730D02*
X31502D01*
X31687Y44549D01*
X32934Y42684D01*
X34799Y41437D01*
X35730Y41252D01*
Y45480D01*
D02*
G37*
G36*
X78500Y41806D02*
X76803Y41583D01*
X75222Y40928D01*
X73864Y39886D01*
X72822Y38528D01*
X72520Y37799D01*
X71000D01*
Y41000D01*
X63000D01*
Y36894D01*
X62922Y36500D01*
Y30325D01*
X62922Y30325D01*
X63232Y28764D01*
X63695Y28071D01*
X63917Y26955D01*
X64934Y25434D01*
X66455Y24417D01*
X68250Y24060D01*
X70045Y24417D01*
X71566Y25434D01*
X72583Y26955D01*
X72940Y28750D01*
X72676Y30076D01*
X73864Y30614D01*
X75222Y29572D01*
X76803Y28917D01*
X78500Y28694D01*
X80197Y28917D01*
X81778Y29572D01*
X83136Y30614D01*
X84178Y31972D01*
X84833Y33553D01*
X85056Y35250D01*
X84833Y36947D01*
X84178Y38528D01*
X83136Y39886D01*
X81778Y40928D01*
X80197Y41583D01*
X78500Y41806D01*
D02*
G37*
G36*
X61001Y51483D02*
X50005D01*
X50190Y50552D01*
X51437Y48686D01*
X52124Y48227D01*
X51167Y46795D01*
X50810Y45000D01*
X51167Y43205D01*
X52184Y41684D01*
X52184Y41683D01*
X52496Y41460D01*
X53000Y41000D01*
Y37799D01*
X51480D01*
X51178Y38528D01*
X50136Y39886D01*
X48778Y40928D01*
X47197Y41583D01*
X45500Y41806D01*
X43803Y41583D01*
X42222Y40928D01*
X40864Y39886D01*
X39822Y38528D01*
X39167Y36947D01*
X38944Y35250D01*
X39167Y33553D01*
X39822Y31972D01*
X40864Y30614D01*
X42222Y29572D01*
X43803Y28917D01*
X45500Y28694D01*
X47197Y28917D01*
X48778Y29572D01*
X50136Y30614D01*
X51178Y31972D01*
X51480Y32701D01*
X52922D01*
Y31366D01*
X51784Y30605D01*
X50767Y29084D01*
X50410Y27289D01*
X50767Y25494D01*
X51784Y23972D01*
X53305Y22956D01*
X55100Y22599D01*
X56895Y22956D01*
X58416Y23972D01*
X59433Y25494D01*
X59603Y26349D01*
X59884Y26630D01*
X59884Y26630D01*
X60768Y27953D01*
X61078Y29514D01*
X61078Y29514D01*
Y36500D01*
X61000Y36894D01*
Y41000D01*
X59887D01*
X59208Y42270D01*
X59833Y43205D01*
X60190Y45000D01*
X59833Y46795D01*
X58878Y48225D01*
X59569Y48686D01*
X60816Y50552D01*
X61001Y51483D01*
D02*
G37*
G36*
X109520Y22498D02*
Y18270D01*
X113748D01*
X113563Y19201D01*
X112316Y21066D01*
X110451Y22313D01*
X109520Y22498D01*
D02*
G37*
G36*
X106980D02*
X106049Y22313D01*
X104184Y21066D01*
X102937Y19201D01*
X102752Y18270D01*
X106980D01*
Y22498D01*
D02*
G37*
G36*
X113748Y15730D02*
X109520D01*
Y11502D01*
X110451Y11687D01*
X112316Y12934D01*
X113563Y14799D01*
X113748Y15730D01*
D02*
G37*
G36*
X106980D02*
X102752D01*
X102937Y14799D01*
X104184Y12934D01*
X106049Y11687D01*
X106980Y11502D01*
Y15730D01*
D02*
G37*
G36*
X28271Y15498D02*
Y11271D01*
X32499D01*
X32313Y12201D01*
X31067Y14067D01*
X29201Y15313D01*
X28271Y15498D01*
D02*
G37*
G36*
X25731D02*
X24800Y15313D01*
X22935Y14067D01*
X21688Y12201D01*
X21503Y11271D01*
X25731D01*
Y15498D01*
D02*
G37*
%LPD*%
D13*
X161700Y220000D02*
D03*
Y75000D02*
D03*
D14*
X142500Y207500D02*
D03*
Y199500D02*
D03*
Y191500D02*
D03*
Y183500D02*
D03*
Y175500D02*
D03*
Y167500D02*
D03*
Y159500D02*
D03*
Y151500D02*
D03*
Y143500D02*
D03*
Y135500D02*
D03*
Y127500D02*
D03*
Y119500D02*
D03*
Y111500D02*
D03*
Y103500D02*
D03*
Y95500D02*
D03*
Y87500D02*
D03*
D15*
X10214Y218500D02*
D03*
X17786D02*
D03*
D16*
X12500Y194000D02*
D03*
Y203000D02*
D03*
D17*
X14250Y43500D02*
D03*
X15000Y132500D02*
D03*
X40000Y177250D02*
D03*
X110750Y208000D02*
D03*
X128000Y212250D02*
D03*
X14250Y234000D02*
D03*
X45500Y35250D02*
D03*
X78500D02*
D03*
X108500Y64000D02*
D03*
Y46250D02*
D03*
X165750Y235500D02*
D03*
X143000D02*
D03*
X25250Y66250D02*
D03*
X64000D02*
D03*
D18*
X122164Y157940D02*
D03*
Y152860D02*
D03*
Y147780D02*
D03*
Y142700D02*
D03*
Y137620D02*
D03*
Y132540D02*
D03*
Y127460D02*
D03*
Y122380D02*
D03*
Y117300D02*
D03*
Y112220D02*
D03*
Y107140D02*
D03*
Y102060D02*
D03*
X37836D02*
D03*
Y107140D02*
D03*
Y112220D02*
D03*
Y117300D02*
D03*
Y122380D02*
D03*
Y127460D02*
D03*
Y132540D02*
D03*
Y137620D02*
D03*
Y142700D02*
D03*
Y147780D02*
D03*
Y152860D02*
D03*
Y157940D02*
D03*
D19*
X107940Y87836D02*
D03*
X102860D02*
D03*
X97780D02*
D03*
X92700D02*
D03*
X87620D02*
D03*
X82540D02*
D03*
X77460D02*
D03*
X72380D02*
D03*
X67300D02*
D03*
X62220D02*
D03*
X57140D02*
D03*
X52060D02*
D03*
Y172164D02*
D03*
X57140D02*
D03*
X62220D02*
D03*
X67300D02*
D03*
X72380D02*
D03*
X77460D02*
D03*
X82540D02*
D03*
X87620D02*
D03*
X92700D02*
D03*
X97780D02*
D03*
X102860D02*
D03*
X107940D02*
D03*
D20*
X74750Y212750D02*
D03*
D21*
X99491Y233070D02*
D03*
Y227990D02*
D03*
Y222910D02*
D03*
Y217830D02*
D03*
Y212750D02*
D03*
Y207670D02*
D03*
Y202590D02*
D03*
Y197510D02*
D03*
Y192430D02*
D03*
X50009D02*
D03*
Y197510D02*
D03*
Y202590D02*
D03*
Y207670D02*
D03*
Y212750D02*
D03*
Y217830D02*
D03*
Y222910D02*
D03*
Y227990D02*
D03*
Y233070D02*
D03*
D22*
X22250Y163250D02*
D03*
Y148250D02*
D03*
X24000Y191000D02*
D03*
Y206000D02*
D03*
X22250Y107000D02*
D03*
Y122000D02*
D03*
D23*
X8750Y147500D02*
D03*
Y162500D02*
D03*
Y120250D02*
D03*
Y105250D02*
D03*
D24*
X28000Y218250D02*
D03*
X36500D02*
D03*
X116750Y228750D02*
D03*
X125250D02*
D03*
X28500Y93000D02*
D03*
X20000D02*
D03*
D25*
X57000Y36500D02*
D03*
X67000D02*
D03*
X124000Y63500D02*
D03*
X134000D02*
D03*
X130500Y173750D02*
D03*
X120500D02*
D03*
X39250Y64750D02*
D03*
X49250D02*
D03*
D34*
X49196Y152304D02*
X50750Y150750D01*
X37836Y157940D02*
X38233Y157543D01*
X45395D01*
X49196Y153742D01*
Y152304D02*
Y153742D01*
X49788Y137889D02*
X50249Y138350D01*
X45395Y127857D02*
X49788Y132250D01*
Y137889D01*
X8250Y134250D02*
X15000D01*
X50208Y124659D02*
X50991Y125442D01*
X47838Y122380D02*
X50117Y124659D01*
X50208D01*
X37836Y122380D02*
X47838D01*
X38233Y127857D02*
X45395D01*
X7500Y133500D02*
X8000Y133000D01*
X7500Y133500D02*
X8250Y134250D01*
X99491Y222910D02*
X102257D01*
X110750Y208000D02*
Y216372D01*
X102257Y222910D02*
X103563Y224216D01*
X108356Y218766D02*
X110750Y216372D01*
X109060Y228526D02*
X113846D01*
X108356Y218766D02*
Y219902D01*
X103563Y224216D02*
X104750D01*
X109060Y228526D01*
X120738Y213781D02*
X126469D01*
X116169Y218350D02*
X120738Y213781D01*
X132536Y220795D02*
Y221714D01*
X125500Y228750D02*
X132536Y221714D01*
X138775Y224511D02*
X147194D01*
X129285Y234000D02*
X138775Y224511D01*
X147194D02*
X147257Y224447D01*
X109270Y234000D02*
X129285D01*
X50750Y66250D02*
X64000D01*
X49250Y64750D02*
X50750Y66250D01*
X40000Y177250D02*
X41531Y178781D01*
Y184842D01*
X42502Y185814D01*
Y186950D01*
X126469Y213781D02*
X128000Y212250D01*
X54537Y35250D02*
X55394Y34394D01*
X8000Y133000D02*
X14500D01*
X15000Y134250D02*
X15750Y135000D01*
X14500Y133000D02*
X15000Y132500D01*
X11360Y80110D02*
X17750Y73720D01*
Y61750D02*
Y73720D01*
X14350Y58350D02*
X17750Y61750D01*
X14250Y43500D02*
X14350Y43600D01*
Y58350D01*
X25250Y66250D02*
X25299Y66201D01*
X35310D01*
X35359Y66151D01*
X45500Y35250D02*
X54537D01*
X68250D02*
X78500D01*
X67000Y36500D02*
X68250Y35250D01*
X108500Y64000D02*
X123500D01*
X124000Y63500D01*
X131750Y58500D02*
X131828D01*
X132500Y62000D02*
X134000Y63500D01*
X132500Y59172D02*
Y62000D01*
X131828Y58500D02*
X132500Y59172D01*
X119500Y46250D02*
X131750Y58500D01*
X108500Y46250D02*
X119500D01*
X105795Y237475D02*
X109270Y234000D01*
X45564Y237475D02*
X105795D01*
X14250Y234000D02*
X42090D01*
X45564Y237475D01*
X166000Y233835D02*
Y236000D01*
X163554Y231389D02*
X166000Y233835D01*
X163554Y230103D02*
Y231389D01*
X162750Y229299D02*
X163554Y230103D01*
X125250Y228750D02*
X125500D01*
X103260Y227990D02*
X109270Y234000D01*
X44216Y227716D02*
X50009D01*
X12250Y191000D02*
X24000D01*
X12000Y191250D02*
X12250Y191000D01*
X24000Y214500D02*
X27875Y218375D01*
X24000Y206000D02*
Y214500D01*
X18250Y218500D02*
X18375Y218375D01*
X27875D01*
X28000Y218250D01*
X12000Y184250D02*
Y191250D01*
X8750Y181000D02*
X12000Y184250D01*
X8750Y180750D02*
Y181000D01*
X36500Y218250D02*
X40500D01*
X42250Y220000D02*
Y225750D01*
X40500Y218250D02*
X42250Y220000D01*
Y225750D02*
X44216Y227716D01*
X37836Y127460D02*
X38233Y127857D01*
X99491Y227990D02*
X103260D01*
X113872Y228500D02*
X116500D01*
X113846Y228526D02*
X113872Y228500D01*
X116500D02*
X116750Y228750D01*
X28500Y93000D02*
Y100000D01*
X37439Y101663D02*
X37836Y102060D01*
X30163Y101663D02*
X37439D01*
X28500Y100000D02*
X30163Y101663D01*
D35*
X65623Y160714D02*
Y161635D01*
X52419Y157000D02*
X52485D01*
X51650Y157295D02*
Y162739D01*
X52124Y157295D02*
X52419Y157000D01*
X47426Y167250D02*
X51793Y162883D01*
X52485Y157000D02*
X55231Y154254D01*
X51650Y157295D02*
X52124D01*
X67297Y163309D02*
Y172161D01*
X55231Y154254D02*
X69254D01*
X65623Y161635D02*
X67297Y163309D01*
X61901Y141500D02*
X64420D01*
X61074Y134744D02*
Y141974D01*
X57056Y124415D02*
Y130725D01*
X61074Y134744D01*
X64420Y141500D02*
X64460Y141460D01*
X61074Y141974D02*
X61250Y142150D01*
X61901Y141500D01*
X92700Y159444D02*
Y172164D01*
X104748Y135829D02*
X104748D01*
X83000Y153429D02*
X87620Y158049D01*
X83000Y146015D02*
Y153429D01*
X78700Y132055D02*
Y158116D01*
X104748Y135829D02*
X113114Y127463D01*
X83000Y146015D02*
X88214Y140801D01*
X89110D01*
X78700Y132055D02*
X84755Y126000D01*
X75908Y160908D02*
X78700Y158116D01*
X87620Y87836D02*
Y121325D01*
X83850Y125095D02*
X87620Y121325D01*
X64460Y141460D02*
X65184D01*
X71000Y135644D01*
X57056Y124415D02*
X61398Y120072D01*
Y104902D02*
Y120072D01*
X63056Y126034D02*
Y126900D01*
X100965Y136965D02*
X101614Y136317D01*
X103935D01*
X104586Y135666D01*
X113114Y127463D02*
X122161D01*
X92700Y159444D02*
X96000Y156144D01*
Y142527D02*
Y156144D01*
Y142527D02*
X100527Y138000D01*
X102000Y145757D02*
X102990D01*
X90000Y126000D02*
X100965Y136965D01*
X69254Y154254D02*
X75908Y160908D01*
X48501Y117297D02*
X55398Y110400D01*
X37839Y117297D02*
X48501D01*
X63056Y126034D02*
X66700Y122389D01*
X71000Y97761D02*
Y135644D01*
X66700Y95980D02*
X67297Y95383D01*
X66700Y95980D02*
Y122389D01*
X71000Y97761D02*
X72377Y96384D01*
X84755Y126000D02*
X90000D01*
X67297Y172161D02*
X67300Y172164D01*
X51650Y162739D02*
X52060Y163149D01*
Y167797D01*
X103500Y122511D02*
X107250Y118761D01*
X95350Y120651D02*
X95675Y120325D01*
X72380Y164436D02*
X75908Y160908D01*
X100840Y128840D02*
X105656D01*
X111954Y114702D02*
Y122542D01*
X92700Y120700D02*
X92749Y120651D01*
X105656Y128840D02*
X111954Y122542D01*
X92749Y120651D02*
X95350D01*
X111250Y135726D02*
Y137497D01*
X114436Y132540D02*
X122164D01*
X111250Y135726D02*
X114436Y132540D01*
X102990Y145757D02*
X111250Y137497D01*
X72380Y164436D02*
Y172164D01*
X92700Y87836D02*
Y120700D01*
X100840Y128840D01*
X107250Y112496D02*
Y118761D01*
X49349Y105408D02*
X51252Y103505D01*
X52996Y96500D02*
X61398Y104902D01*
X67297Y87839D02*
Y95383D01*
X110755Y146507D02*
X110995D01*
X72377Y87839D02*
Y96384D01*
X52750Y96500D02*
X52996D01*
X52060Y95810D02*
X52750Y96500D01*
X87620Y158049D02*
Y172164D01*
X110995Y146507D02*
X112265Y147777D01*
X122161D01*
X107360Y152860D02*
X122164D01*
X104000Y149500D02*
X107360Y152860D01*
X104000Y146238D02*
Y149500D01*
X122161Y147777D02*
X122164Y147780D01*
X110765Y99500D02*
X114108Y102843D01*
X112196Y107550D02*
X121754D01*
X107250Y112496D02*
X112196Y107550D01*
X121754D02*
X122164Y107140D01*
X101716Y99500D02*
X110765D01*
X114108Y102843D02*
X119892D01*
X120675Y102060D01*
X122164D01*
X97783Y95567D02*
X101716Y99500D01*
X111250Y76750D02*
X136733Y102233D01*
X128081Y87500D02*
X142500D01*
X113031Y72450D02*
X128081Y87500D01*
X77800Y72450D02*
X113031D01*
X85250Y76750D02*
X111250D01*
X57143Y78357D02*
Y87833D01*
Y78357D02*
X59000Y76500D01*
X64750D01*
X25875Y128375D02*
X30037Y132537D01*
X37833D01*
X25875Y127875D02*
Y128375D01*
X38750Y65250D02*
X39250Y64750D01*
X38499Y65501D02*
X38750Y65250D01*
X36334Y65501D02*
X38499D01*
X36010D02*
X36334D01*
X35359Y66151D02*
X36010Y65501D01*
X49349Y105408D02*
Y108435D01*
X37833Y132537D02*
X37836Y132540D01*
X37833Y147783D02*
X37836Y147780D01*
X28217Y147783D02*
X37833D01*
X28000Y148000D02*
X28217Y147783D01*
X52060Y87836D02*
Y95810D01*
X100500Y161250D02*
X109750D01*
X97783Y163967D02*
X100500Y161250D01*
X113057Y157943D02*
X122161D01*
X109750Y161250D02*
X113057Y157943D01*
X131500Y189000D02*
X135733Y184767D01*
X112250Y189000D02*
X131500D01*
X135733Y184767D02*
X141233D01*
X142500Y183500D01*
X105624Y182374D02*
X112250Y189000D01*
X85022Y182374D02*
X105624D01*
X37836Y112220D02*
X37839Y112217D01*
X45567D01*
X49349Y108435D01*
X37836Y117300D02*
X37839Y117297D01*
X122167Y157943D02*
X130693D01*
X122164Y157940D02*
X122167Y157943D01*
X132500Y165000D02*
X134750Y167250D01*
X142250D01*
X130693Y157943D02*
X132500Y159750D01*
Y165000D01*
X142250Y167250D02*
X142500Y167500D01*
X114536Y112120D02*
X116357D01*
X111954Y114702D02*
X114536Y112120D01*
X122161Y127463D02*
X122164Y127460D01*
X72377Y87839D02*
X72380Y87836D01*
X67297Y87839D02*
X67300Y87836D01*
X97783Y163967D02*
Y172161D01*
X57140Y87836D02*
X57143Y87833D01*
X62220Y87836D02*
X62223Y87833D01*
Y79027D02*
Y87833D01*
Y79027D02*
X64750Y76500D01*
X73750D01*
X77800Y72450D01*
X77463Y79037D02*
Y87833D01*
X79750Y76750D02*
X85250D01*
X77463Y79037D02*
X79750Y76750D01*
X77460Y87836D02*
X77463Y87833D01*
X82537Y81857D02*
Y87833D01*
X82500Y79500D02*
Y81820D01*
Y79500D02*
X85250Y76750D01*
X82500Y81820D02*
X82537Y81857D01*
Y87833D02*
X82540Y87836D01*
X79103Y182374D02*
X85022D01*
X77463Y172167D02*
Y180734D01*
X79103Y182374D01*
X77460Y172164D02*
X77463Y172167D01*
X82543Y179895D02*
X85022Y182374D01*
X82543Y172167D02*
Y179895D01*
X82540Y172164D02*
X82543Y172167D01*
X97780Y172164D02*
X97783Y172161D01*
X122161Y157943D02*
X122164Y157940D01*
X136733Y102233D02*
X141233D01*
X130482Y102063D02*
X134250Y105831D01*
Y115669D01*
X122167Y102063D02*
X130482D01*
X134250Y115669D02*
X137331Y118750D01*
X141750D01*
X142500Y119500D01*
X129803Y117303D02*
X131573Y119073D01*
X122167Y117303D02*
X129803D01*
X122164Y117300D02*
X122167Y117303D01*
X131573Y119073D02*
Y124060D01*
X122164Y102060D02*
X122167Y102063D01*
X129895Y122383D02*
X131573Y124060D01*
X141233Y102233D02*
X142500Y103500D01*
X97780Y87836D02*
X97783Y87839D01*
Y95567D01*
X132750Y139263D02*
Y145250D01*
X130203Y142703D02*
X132750Y145250D01*
Y148750D01*
X122164Y142700D02*
X122167Y142703D01*
X130203D01*
X142250Y151250D02*
X142500Y151500D01*
X135250Y151250D02*
X142250D01*
X122167Y137623D02*
X131110D01*
X132750Y139263D01*
Y148750D02*
X135250Y151250D01*
X122164Y137620D02*
X122167Y137623D01*
X131573Y124060D02*
X133250Y125738D01*
X142250Y135750D02*
X142500Y135500D01*
X136000Y135750D02*
X142250D01*
X133250Y133000D02*
X136000Y135750D01*
X133250Y125738D02*
Y133000D01*
X122164Y122380D02*
X122167Y122383D01*
X129895D01*
D36*
X12500Y206250D02*
X15400Y203350D01*
X11500Y202250D02*
X12000Y202750D01*
Y206250D02*
X12500D01*
X12000Y202750D02*
Y206250D01*
X38000Y167250D02*
X47426D01*
X37000Y168250D02*
X38000Y167250D01*
X37000Y168250D02*
X37000D01*
X31100Y174150D02*
X37000Y168250D01*
X52060Y167797D02*
Y172164D01*
Y178077D01*
X29513Y197663D02*
X31100Y196077D01*
X15400Y200600D02*
X18336Y197663D01*
X29513D01*
X31100Y174150D02*
Y196077D01*
X15400Y200600D02*
Y203350D01*
X9500Y218250D02*
X9750Y218500D01*
X9500Y208750D02*
Y218250D01*
Y208750D02*
X12000Y206250D01*
D37*
X26100Y137150D02*
X27150D01*
X27500Y137500D01*
X24750Y126750D02*
X25875Y127875D01*
X24250Y126750D02*
X24750D01*
D38*
X77795Y210000D02*
X78750D01*
X77647Y209853D02*
X77795Y210000D01*
X144000Y29750D02*
X146116D01*
X165750Y9250D02*
Y10116D01*
X27500Y137500D02*
X27620Y137620D01*
X37836D01*
X67600Y219900D02*
X74750Y212750D01*
X66567Y219900D02*
X67600D01*
X60750Y212750D02*
X74750D01*
X60083Y213417D02*
X60750Y212750D01*
X74750D02*
X77647Y209853D01*
X143000Y236000D02*
X144894D01*
X149735Y231160D01*
X151425D01*
X152037Y230547D01*
X136903Y198333D02*
X141333D01*
X135120Y196550D02*
X136903Y198333D01*
X113168Y196550D02*
X135120D01*
X104143Y187525D02*
X113168Y196550D01*
X141333Y198333D02*
X142500Y199500D01*
X77275Y187525D02*
X104143D01*
X72750Y183000D02*
X77275Y187525D01*
X65186Y183000D02*
X72750D01*
X62323Y180137D02*
X65186Y183000D01*
X57243Y172267D02*
Y181243D01*
X59000Y183000D01*
X65186D01*
X57140Y172164D02*
X57243Y172267D01*
X62220Y172164D02*
X62323Y172267D01*
Y180137D01*
D39*
X132593Y202650D02*
X132823Y202880D01*
Y203353D01*
X136802Y207333D01*
X156278Y185627D02*
X156608D01*
X156607Y159500D02*
X156608Y159500D01*
X152713Y145787D02*
X156608D01*
X156600Y175250D02*
X156608D01*
X150572Y191333D02*
X156278Y185627D01*
X142500Y159500D02*
X156607D01*
X142667Y191333D02*
X150572D01*
X142625Y175375D02*
X156475D01*
X156600Y175250D01*
X49250Y61575D02*
Y64750D01*
X47500Y59825D02*
X49250Y61575D01*
X47500Y59500D02*
Y59825D01*
X55100Y27614D02*
X57000Y29514D01*
X55100Y27289D02*
Y27614D01*
X57000Y29514D02*
Y36500D01*
X67000Y30325D02*
Y36500D01*
X68250Y28750D02*
Y29075D01*
X67000Y30325D02*
X68250Y29075D01*
X124000Y63000D02*
Y63500D01*
X119507Y54177D02*
X119737Y54406D01*
Y58737D01*
X124000Y63000D01*
X24250Y124000D02*
Y126750D01*
X38750Y65250D02*
X39250D01*
X7643Y147500D02*
X8750D01*
X7393Y147250D02*
X7643Y147500D01*
X7393Y144730D02*
Y147250D01*
X7164Y144500D02*
X7393Y144730D01*
X7708Y105250D02*
X8750D01*
X7458Y102730D02*
Y105000D01*
X7228Y102500D02*
X7458Y102730D01*
Y105000D02*
X7708Y105250D01*
X142500Y111500D02*
X160000D01*
X161100Y110400D01*
X36585Y65250D02*
X38750D01*
X36334Y65501D02*
X36585Y65250D01*
X35684Y66151D02*
X36334Y65501D01*
X39250Y64750D02*
Y65250D01*
X35359Y66151D02*
X35684D01*
X142500Y175500D02*
X142625Y175375D01*
X142500Y191500D02*
X142667Y191333D01*
X155762Y95500D02*
X161258Y90004D01*
X142500Y95500D02*
X155762D01*
X148695Y143333D02*
X151707Y140321D01*
X8750Y105250D02*
X9000Y105500D01*
X20750D01*
X22250Y107000D01*
X12000Y122000D02*
X22250D01*
X22500D01*
X22250Y148250D02*
X22500Y148000D01*
X28000D01*
X8750Y147500D02*
X9000Y147750D01*
X21750D01*
X22250Y148250D01*
X8750Y162500D02*
Y169500D01*
X21875Y162875D02*
X22250Y163250D01*
X9125Y162875D02*
X21875D01*
X8750Y162500D02*
X9125Y162875D01*
X136802Y207333D02*
X142333D01*
X142500Y207500D01*
Y143500D02*
X142667Y143667D01*
X150592D01*
X152713Y145787D01*
X151707Y131176D02*
Y140321D01*
X142500Y127500D02*
X142667Y127667D01*
X148198D01*
X151707Y131176D01*
D40*
X124100Y182421D02*
Y182475D01*
X120500Y173750D02*
Y178821D01*
X124100Y182421D01*
X131378Y178962D02*
X131417Y179000D01*
X131378Y174628D02*
Y178962D01*
X130500Y173750D02*
X131378Y174628D01*
X8750Y120250D02*
X10000Y121500D01*
Y123250D01*
X134000Y63500D02*
X138000D01*
D41*
X150250D01*
D42*
X8750Y180750D02*
D03*
Y169750D02*
D03*
X39500Y84750D02*
D03*
Y73750D02*
D03*
X57716Y160254D02*
D03*
X65623Y160714D02*
D03*
X61250Y142150D02*
D03*
X50249Y138350D02*
D03*
X89000Y148500D02*
D03*
X89110Y140801D02*
D03*
X84755Y126000D02*
D03*
X63056Y126900D02*
D03*
X104586Y135666D02*
D03*
X102000Y145757D02*
D03*
X50991Y125442D02*
D03*
X50000Y151000D02*
D03*
X55398Y110400D02*
D03*
X103500Y122511D02*
D03*
X95675Y120325D02*
D03*
X51252Y103505D02*
D03*
X81620Y116000D02*
D03*
X26100Y137150D02*
D03*
X7500Y133500D02*
D03*
X110755Y146507D02*
D03*
X108356Y219902D02*
D03*
X78750Y210000D02*
D03*
X116169Y218350D02*
D03*
X132593Y202650D02*
D03*
X132536Y220795D02*
D03*
X123239Y221400D02*
D03*
X114609Y166404D02*
D03*
X103255Y108005D02*
D03*
X128743Y79676D02*
D03*
X117006Y96005D02*
D03*
X156608Y185627D02*
D03*
Y175250D02*
D03*
Y145787D02*
D03*
Y159500D02*
D03*
X124100Y182475D02*
D03*
X126750Y9000D02*
D03*
X165750Y9250D02*
D03*
X166501Y181001D02*
D03*
Y163001D02*
D03*
X162001Y100001D02*
D03*
Y64001D02*
D03*
X166501Y55001D02*
D03*
X27001Y10001D02*
D03*
X55503Y52753D02*
D03*
X55100Y27289D02*
D03*
X68250Y28750D02*
D03*
X119507Y54177D02*
D03*
X9250Y71000D02*
D03*
X131417Y179000D02*
D03*
X8750Y56500D02*
D03*
X37000Y46750D02*
D03*
X10000Y123250D02*
D03*
X7164Y144500D02*
D03*
X7228Y102500D02*
D03*
X11360Y80110D02*
D03*
X52422Y74654D02*
D03*
X161100Y110400D02*
D03*
X37000Y56000D02*
D03*
X47500Y59500D02*
D03*
X35359Y66151D02*
D03*
X108250Y17000D02*
D03*
X66567Y219900D02*
D03*
X60083Y213417D02*
D03*
X37317Y228400D02*
D03*
X152037Y230547D02*
D03*
X147257Y224447D02*
D03*
X147507Y216751D02*
D03*
X162750Y229299D02*
D03*
X159508Y192759D02*
D03*
X140114Y218911D02*
D03*
X122900Y163943D02*
D03*
X42502Y186950D02*
D03*
X36800Y193150D02*
D03*
X150250Y63500D02*
D03*
X165250Y119000D02*
D03*
X161258Y90004D02*
D03*
X55500Y45000D02*
D03*
X136416Y80317D02*
D03*
X46063Y82250D02*
D03*
D43*
X157500Y205000D02*
D03*
X37500D02*
D03*
D44*
X145000Y32000D02*
D03*
D45*
X8750Y175249D02*
D03*
X39500Y79250D02*
D03*
M02*
