G04*
G04 #@! TF.GenerationSoftware,Altium Limited,Altium Designer,23.3.1 (30)*
G04*
G04 Layer_Physical_Order=3*
G04 Layer_Color=14461039*
%FSLAX44Y44*%
%MOMM*%
G71*
G04*
G04 #@! TF.SameCoordinates,0C8B1239-9648-4062-A48B-5DF8A2282461*
G04*
G04*
G04 #@! TF.FilePolarity,Positive*
G04*
G01*
G75*
%ADD13C,0.2000*%
%ADD97C,0.5000*%
%ADD105C,0.6000*%
%ADD107C,0.5000*%
%ADD109C,1.1000*%
%ADD110C,0.6200*%
%ADD111C,1.0500*%
%ADD112R,1.0500X1.0500*%
%ADD113C,1.4500*%
%ADD114R,1.0500X1.0500*%
%ADD115C,0.7000*%
%ADD117R,0.5500X0.2000*%
%ADD118C,3.0000*%
G36*
X178376Y241941D02*
Y236932D01*
X177950Y236558D01*
X176188Y236326D01*
X174546Y235646D01*
X173136Y234564D01*
X172357Y233549D01*
X172055Y233451D01*
X171145D01*
X170843Y233549D01*
X170064Y234564D01*
X168654Y235646D01*
X167012Y236326D01*
X165250Y236558D01*
X163488Y236326D01*
X161846Y235646D01*
X160570Y234667D01*
X160018Y234787D01*
X159300Y235170D01*
Y236500D01*
X145800D01*
Y223000D01*
X159300D01*
Y224330D01*
X160018Y224713D01*
X160570Y224833D01*
X161846Y223854D01*
X163320Y223243D01*
X163584Y222965D01*
X164119Y221810D01*
X164032Y221370D01*
X175028D01*
X174843Y222301D01*
X174791Y222378D01*
X175633Y223403D01*
X176188Y223174D01*
X177950Y222942D01*
X178376Y222568D01*
Y202000D01*
X178852Y200852D01*
X180000Y200376D01*
X200525D01*
X200738Y199305D01*
X201755Y197784D01*
X203277Y196767D01*
X205072Y196410D01*
X206866Y196767D01*
X208388Y197784D01*
X209405Y199305D01*
X209618Y200376D01*
X225085D01*
X225890Y199395D01*
X225831Y199095D01*
X226188Y197300D01*
X227204Y195779D01*
X228726Y194762D01*
X230521Y194405D01*
X232316Y194762D01*
X233837Y195779D01*
X234854Y197300D01*
X235211Y199095D01*
X235152Y199395D01*
X235957Y200376D01*
X259017D01*
X259207Y200455D01*
X259411Y200425D01*
X259762Y200685D01*
X260165Y200852D01*
X260244Y201042D01*
X260409Y201165D01*
X260618Y201514D01*
X262167Y201628D01*
X263276Y200276D01*
X265789Y198214D01*
X268655Y196682D01*
X271765Y195739D01*
X275000Y195420D01*
X278235Y195739D01*
X281345Y196682D01*
X284211Y198214D01*
X286724Y200276D01*
X287833Y201628D01*
X289382Y201514D01*
X289591Y201165D01*
X289756Y201042D01*
X289835Y200852D01*
X290238Y200685D01*
X290589Y200425D01*
X290793Y200455D01*
X290983Y200376D01*
X312666D01*
X313536Y199106D01*
X313310Y197968D01*
X313667Y196173D01*
X314684Y194652D01*
X316205Y193635D01*
X318000Y193278D01*
X319795Y193635D01*
X321316Y194652D01*
X322333Y196173D01*
X322690Y197968D01*
X322464Y199106D01*
X323334Y200376D01*
X388376D01*
Y187939D01*
X387106Y186981D01*
X387020Y186998D01*
Y182847D01*
X386876Y182500D01*
Y181500D01*
X385750D01*
Y180230D01*
X380252D01*
X380437Y179299D01*
X381684Y177434D01*
X383179Y176435D01*
X382187Y174951D01*
X382002Y174020D01*
X387500D01*
Y171480D01*
X382002D01*
X382187Y170549D01*
X383434Y168684D01*
X385299Y167437D01*
X387500Y166999D01*
X388376Y166280D01*
Y158624D01*
X369312D01*
X368506Y159605D01*
X368534Y159744D01*
X368096Y161945D01*
X366850Y163811D01*
X364984Y165057D01*
X362784Y165495D01*
X361954Y165330D01*
X361633Y166945D01*
X360616Y168466D01*
X359095Y169483D01*
X357300Y169840D01*
X355505Y169483D01*
X354907Y169083D01*
X353900Y168578D01*
X353279Y169407D01*
X352834Y170074D01*
X351312Y171091D01*
X349517Y171448D01*
X347722Y171091D01*
X346201Y170074D01*
X346060Y169865D01*
X344414Y169562D01*
X343682Y170051D01*
X341888Y170408D01*
X340093Y170051D01*
X339040Y169347D01*
X337510Y169350D01*
X335989Y170367D01*
X334194Y170724D01*
X332399Y170367D01*
X331077Y169484D01*
X329765Y169563D01*
X328244Y170580D01*
X326449Y170937D01*
X324654Y170580D01*
X323132Y169563D01*
X322902Y169218D01*
X321857D01*
X321479Y169375D01*
X320045Y170333D01*
X318250Y170690D01*
X316455Y170333D01*
X314934Y169316D01*
X313917Y167795D01*
X313560Y166000D01*
X313917Y164205D01*
X314934Y162684D01*
X316455Y161667D01*
X318250Y161310D01*
X320045Y161667D01*
X321566Y162684D01*
X321797Y163028D01*
X322841D01*
X323220Y162872D01*
X324654Y161914D01*
X326449Y161556D01*
X328244Y161914D01*
X329380Y162673D01*
X330878Y162718D01*
X332399Y161701D01*
X334194Y161344D01*
X335989Y161701D01*
X337042Y162404D01*
X338571Y162402D01*
X340093Y161385D01*
X341888Y161028D01*
X343682Y161385D01*
X345204Y162402D01*
X345344Y162612D01*
X346990Y162914D01*
X347722Y162425D01*
X349517Y162068D01*
X351312Y162425D01*
X351910Y162825D01*
X352917Y163330D01*
X353538Y162501D01*
X353984Y161834D01*
X355505Y160817D01*
X356477Y160624D01*
X356682Y159717D01*
X355802Y158624D01*
X355000D01*
X353852Y158148D01*
X353376Y157000D01*
Y105604D01*
X353586Y105098D01*
X353745Y104574D01*
X353820Y104534D01*
X353845Y104472D01*
X353852Y104454D01*
Y103102D01*
X353845Y103084D01*
X353820Y103022D01*
X353745Y102982D01*
X353586Y102458D01*
X353376Y101952D01*
Y98615D01*
X338646Y98533D01*
X338570Y98502D01*
X338491Y98525D01*
X338007Y98265D01*
X337500Y98052D01*
X336583Y98716D01*
X335061Y99733D01*
X333266Y100090D01*
X331471Y99733D01*
X329950Y98716D01*
X329003Y98005D01*
X328498Y98211D01*
X328016Y98467D01*
X327933Y98441D01*
X327853Y98474D01*
X314981Y98403D01*
X314905Y98371D01*
X314826Y98395D01*
X314342Y98134D01*
X313835Y97921D01*
X313038Y98784D01*
X312816Y99116D01*
X311295Y100133D01*
X309500Y100490D01*
X307705Y100133D01*
X306184Y99116D01*
X305953Y98772D01*
X305193Y97874D01*
X304688Y98080D01*
X304206Y98336D01*
X304123Y98310D01*
X304042Y98343D01*
X294773Y98292D01*
X294690Y98392D01*
X294333Y100187D01*
X293316Y101709D01*
X291795Y102726D01*
X290000Y103083D01*
X288205Y102726D01*
X286684Y101709D01*
X285667Y100187D01*
X285310Y98392D01*
X285667Y96598D01*
X286684Y95076D01*
X288205Y94059D01*
X288385Y93723D01*
X288376Y93702D01*
Y83739D01*
X287395Y82933D01*
X286600Y83091D01*
X284805Y82734D01*
X283284Y81717D01*
X282267Y80196D01*
X281910Y78401D01*
X282267Y76606D01*
X283284Y75085D01*
X284805Y74068D01*
X286600Y73711D01*
X287395Y73869D01*
X288376Y73063D01*
Y70193D01*
X288409Y70115D01*
X288384Y70034D01*
X288642Y69551D01*
X288852Y69045D01*
X288189Y68049D01*
X287226Y66607D01*
X286869Y64812D01*
X287226Y63018D01*
X288242Y61496D01*
X289764Y60479D01*
X291559Y60122D01*
X293354Y60479D01*
X293944Y60874D01*
X294286Y60972D01*
X295475Y60852D01*
X296154Y60446D01*
X296397Y60470D01*
X296623Y60376D01*
X331957D01*
X332045Y60413D01*
X332136Y60386D01*
X332608Y60646D01*
X332932Y60780D01*
X333431Y60034D01*
X335296Y58787D01*
X336227Y58602D01*
Y64100D01*
X338767D01*
Y58602D01*
X339698Y58787D01*
X341563Y60034D01*
X342062Y60780D01*
X342386Y60646D01*
X342858Y60386D01*
X342949Y60413D01*
X343037Y60376D01*
X365296D01*
X365802Y60586D01*
X366152Y60692D01*
X366503Y60586D01*
X367009Y60376D01*
X369328D01*
X378376Y51328D01*
Y3059D01*
X239737Y3059D01*
X239612Y4329D01*
X239630Y4332D01*
X241151Y5349D01*
X242168Y6870D01*
X242525Y8665D01*
X242168Y10460D01*
X241151Y11982D01*
X240998Y12084D01*
X240748Y13603D01*
X241433Y14628D01*
X241532Y15127D01*
X241592Y15180D01*
X242923Y15609D01*
X244301Y14689D01*
X244576Y14634D01*
X244503Y14271D01*
X255499D01*
X255314Y15202D01*
X254067Y17068D01*
X252202Y18314D01*
X251927Y18369D01*
X251999Y18731D01*
X246501D01*
Y20001D01*
X245231D01*
Y25499D01*
X244301Y25314D01*
X242435Y24067D01*
X241189Y22202D01*
X240934Y20921D01*
X239522Y20336D01*
X238895Y20756D01*
X237100Y21113D01*
X235305Y20756D01*
X233784Y19739D01*
X232767Y18217D01*
X232410Y16422D01*
X232767Y14628D01*
X233784Y13106D01*
X233937Y13004D01*
X234186Y11485D01*
X233502Y10460D01*
X233145Y8665D01*
X233502Y6870D01*
X234518Y5349D01*
X236040Y4332D01*
X236058Y4329D01*
X235933Y3059D01*
X116369D01*
X115691Y4329D01*
X116393Y5380D01*
X116578Y6310D01*
X111080D01*
Y7580D01*
X109810D01*
Y13078D01*
X108880Y12893D01*
X107609Y12044D01*
X106094Y12382D01*
X106023Y12555D01*
X104734Y14234D01*
X103055Y15523D01*
X101099Y16333D01*
X100270Y16442D01*
Y8500D01*
X99000D01*
Y7230D01*
X91058D01*
X91167Y6401D01*
X91977Y4445D01*
X92167Y4198D01*
X91605Y3059D01*
X81249D01*
X80623Y4329D01*
X81115Y4970D01*
X81820Y6673D01*
X82060Y8500D01*
X81820Y10327D01*
X81115Y12030D01*
X79992Y13492D01*
X78530Y14614D01*
X76827Y15320D01*
X75000Y15560D01*
X73173Y15320D01*
X71470Y14614D01*
X70008Y13492D01*
X68885Y12030D01*
X68180Y10327D01*
X67940Y8500D01*
X68180Y6673D01*
X68885Y4970D01*
X69377Y4329D01*
X68751Y3059D01*
X56025D01*
Y134792D01*
X38973D01*
X38876Y135049D01*
X38762Y136062D01*
X40066Y136934D01*
X41083Y138455D01*
X41440Y140250D01*
X41083Y142045D01*
X40066Y143566D01*
X38545Y144583D01*
X36750Y144940D01*
X36091Y144809D01*
X35193Y145707D01*
X35251Y146002D01*
X34814Y148202D01*
X33567Y150068D01*
X31702Y151314D01*
X30771Y151499D01*
Y146002D01*
Y140504D01*
X30817Y140513D01*
X31880Y140288D01*
X32191Y139590D01*
X32417Y138455D01*
X33434Y136934D01*
X34738Y136062D01*
X34624Y135049D01*
X34527Y134792D01*
X3019D01*
Y242000D01*
X77218D01*
X77709Y240730D01*
X76688Y239202D01*
X76251Y237002D01*
X76288Y236812D01*
X75191Y236018D01*
X73630Y236328D01*
X73630Y236328D01*
X56000D01*
X56000Y236328D01*
X55897Y236308D01*
X48082D01*
X48045Y236333D01*
X46250Y236690D01*
X44455Y236333D01*
X42934Y235316D01*
X41917Y233795D01*
X41560Y232000D01*
X41917Y230205D01*
X42934Y228684D01*
X44455Y227667D01*
X46250Y227310D01*
X48045Y227667D01*
X48770Y228151D01*
X55979D01*
X55980Y228151D01*
X56082Y228172D01*
X71941D01*
X106746Y193366D01*
X106746Y193366D01*
X108069Y192482D01*
X108384Y192419D01*
X109172Y191632D01*
Y186181D01*
X108846Y186046D01*
X107436Y184964D01*
X106354Y183554D01*
X105674Y181912D01*
X105442Y180150D01*
X105674Y178388D01*
X106354Y176746D01*
X107436Y175336D01*
X108451Y174557D01*
X108549Y174255D01*
Y173345D01*
X108451Y173043D01*
X107436Y172264D01*
X106354Y170854D01*
X105674Y169212D01*
X105442Y167450D01*
X105674Y165688D01*
X106354Y164046D01*
X107333Y162770D01*
X107213Y162218D01*
X106830Y161500D01*
X105500D01*
Y148000D01*
X108077D01*
X108756Y146730D01*
X108133Y145797D01*
X107948Y144867D01*
X113446D01*
Y142327D01*
X107948D01*
X108133Y141396D01*
X109380Y139530D01*
X111245Y138284D01*
X111998Y138134D01*
X112704Y137078D01*
X112683Y136973D01*
X113040Y135179D01*
X114057Y133657D01*
X115578Y132640D01*
X117373Y132283D01*
X119168Y132640D01*
X120689Y133657D01*
X121706Y135179D01*
X122058Y136948D01*
X123949Y138839D01*
X124308D01*
X125283Y139033D01*
X126110Y139586D01*
X133752Y147228D01*
X134305Y148055D01*
X134499Y149031D01*
Y159646D01*
X152963Y178110D01*
X154552Y178426D01*
X156074Y179443D01*
X157091Y180964D01*
X157448Y182759D01*
X157091Y184554D01*
X156074Y186075D01*
X154552Y187092D01*
X153165Y187368D01*
X153002Y188631D01*
X153261Y188682D01*
X154584Y189566D01*
X168445Y203427D01*
X168895Y203517D01*
X170416Y204534D01*
X171433Y206055D01*
X171790Y207850D01*
X171433Y209645D01*
X170416Y211166D01*
X168895Y212183D01*
X167100Y212540D01*
X165305Y212183D01*
X163784Y211166D01*
X162767Y209645D01*
X162677Y209195D01*
X150011Y196528D01*
X149817D01*
X149817Y196528D01*
X149098Y196385D01*
X147963Y197134D01*
X147828Y197343D01*
Y202882D01*
X148693Y203747D01*
X148795Y203767D01*
X150316Y204784D01*
X151333Y206305D01*
X151690Y208100D01*
X151333Y209895D01*
X150316Y211416D01*
X148795Y212433D01*
X147000Y212790D01*
X145205Y212433D01*
X143684Y211416D01*
X142667Y209895D01*
X142508Y209097D01*
X140866Y207455D01*
X139982Y206132D01*
X139672Y204571D01*
X139672Y204571D01*
Y188291D01*
Y185539D01*
X133747Y179615D01*
X133457Y179181D01*
X124802Y170526D01*
X119171D01*
X118061Y171268D01*
X117787Y171322D01*
X117064Y172264D01*
X116049Y173043D01*
X115951Y173345D01*
Y174255D01*
X116049Y174557D01*
X117064Y175336D01*
X117344Y175701D01*
X118614Y175659D01*
X118697Y175534D01*
X120219Y174517D01*
X122014Y174160D01*
X123809Y174517D01*
X125330Y175534D01*
X126347Y177055D01*
X126704Y178850D01*
X126347Y180645D01*
X125330Y182166D01*
X123809Y183183D01*
X122014Y183540D01*
X120219Y183183D01*
X119548Y182735D01*
X118333Y183104D01*
X118146Y183554D01*
X117328Y184620D01*
Y193321D01*
X117018Y194882D01*
X116134Y196205D01*
X116134Y196205D01*
X115742Y196597D01*
X116230Y197629D01*
Y213980D01*
X100000D01*
X100059Y213385D01*
X98840Y212808D01*
X92916Y218731D01*
X93268Y220176D01*
X94753Y221168D01*
X95999Y223034D01*
X96184Y223965D01*
X90686D01*
Y226505D01*
X96184D01*
X95999Y227435D01*
X94753Y229301D01*
X92887Y230547D01*
X92033Y230717D01*
X91765Y232065D01*
X93067Y232935D01*
X94314Y234801D01*
X94499Y235732D01*
X89001D01*
Y238272D01*
X94499D01*
X94314Y239202D01*
X93293Y240730D01*
X93784Y242000D01*
X178337D01*
X178376Y241941D01*
D02*
G37*
G36*
X195790Y241941D02*
X196468Y240671D01*
X196297Y240415D01*
X195940Y238620D01*
X196297Y236825D01*
X197314Y235304D01*
X198835Y234287D01*
X200630Y233930D01*
X202425Y234287D01*
X203946Y235304D01*
X204963Y236825D01*
X205320Y238620D01*
X204963Y240415D01*
X204792Y240671D01*
X205471Y241941D01*
X213001D01*
X213627Y240671D01*
X213136Y240030D01*
X212430Y238327D01*
X212190Y236500D01*
X212430Y234673D01*
X213136Y232970D01*
X214258Y231508D01*
X215720Y230385D01*
X217423Y229680D01*
X219250Y229440D01*
X221077Y229680D01*
X222780Y230385D01*
X224242Y231508D01*
X225018Y232518D01*
X226483Y232611D01*
X226935Y231935D01*
X228800Y230688D01*
X229516Y229337D01*
X229470Y229102D01*
X228036Y228093D01*
X227814Y228137D01*
X226019Y227780D01*
X224497Y226763D01*
X223481Y225242D01*
X223124Y223447D01*
X223481Y221652D01*
X224497Y220130D01*
X224412Y218660D01*
X223667Y217544D01*
X223310Y215749D01*
X223667Y213954D01*
X224684Y212433D01*
X226205Y211416D01*
X228000Y211059D01*
X229795Y211416D01*
X231316Y212433D01*
X232333Y213954D01*
X232690Y215749D01*
X232333Y217544D01*
X231316Y219065D01*
X231401Y220536D01*
X232147Y221652D01*
X232147Y221652D01*
X232153Y221663D01*
X232800Y222688D01*
X233731Y222503D01*
Y228001D01*
X235001D01*
Y229271D01*
X241221D01*
X241720Y229641D01*
X243250Y229440D01*
X245077Y229680D01*
X246780Y230385D01*
X248242Y231508D01*
X249364Y232970D01*
X250070Y234673D01*
X250310Y236500D01*
X250070Y238327D01*
X249364Y240030D01*
X248873Y240671D01*
X249499Y241941D01*
X435454Y241941D01*
X435839Y240671D01*
X434935Y240067D01*
X433688Y238202D01*
X433503Y237271D01*
X439001D01*
Y234731D01*
X433503D01*
X433688Y233801D01*
X434935Y231935D01*
X435289Y231698D01*
X434934Y230408D01*
X433087Y229643D01*
X431259Y228241D01*
X429857Y226413D01*
X428975Y224284D01*
X428675Y222000D01*
X428975Y219716D01*
X429857Y217587D01*
X431259Y215759D01*
X433087Y214357D01*
X435216Y213475D01*
X437500Y213174D01*
X439784Y213475D01*
X441913Y214357D01*
X443741Y215759D01*
X445143Y217587D01*
X446025Y219716D01*
X446325Y222000D01*
X446205Y222915D01*
X447392Y223630D01*
X448801Y222688D01*
X449731Y222503D01*
Y228001D01*
X452271D01*
Y222503D01*
X453202Y222688D01*
X454671Y223670D01*
X455941Y223131D01*
Y216871D01*
X454671Y216332D01*
X453202Y217314D01*
X452271Y217499D01*
Y212001D01*
X451001D01*
Y210731D01*
X445503D01*
X445664Y209922D01*
X445461Y209882D01*
X443595Y208635D01*
X442348Y206770D01*
X442163Y205839D01*
X447661D01*
Y203299D01*
X442163D01*
X442348Y202369D01*
X443595Y200503D01*
X445461Y199256D01*
X445634Y197927D01*
X445503Y197271D01*
X451001D01*
Y196001D01*
X452271D01*
Y190503D01*
X453202Y190688D01*
X454671Y191670D01*
X455941Y191131D01*
X455941Y56871D01*
X454671Y56332D01*
X453202Y57314D01*
X452271Y57499D01*
Y52001D01*
Y46503D01*
X453202Y46688D01*
X454671Y47670D01*
X455941Y47131D01*
Y3059D01*
X380000D01*
Y52000D01*
X370000Y62000D01*
X367009D01*
X366884Y63270D01*
X368353Y63562D01*
X370219Y64809D01*
X371465Y66674D01*
X371650Y67605D01*
X360654D01*
X360840Y66674D01*
X362086Y64809D01*
X363952Y63562D01*
X365421Y63270D01*
X365296Y62000D01*
X343037D01*
X342022Y63270D01*
X342187Y64100D01*
X341830Y65895D01*
X340813Y67416D01*
X340014Y67950D01*
X339571Y69574D01*
X339813Y69935D01*
X340170Y71730D01*
X339813Y73524D01*
X338796Y75046D01*
X337274Y76063D01*
X335480Y76420D01*
X335445Y76413D01*
X334899Y76960D01*
X330250D01*
Y72311D01*
X330796Y71764D01*
X330789Y71730D01*
X331147Y69935D01*
X332163Y68413D01*
X332962Y67879D01*
X333405Y66256D01*
X333164Y65895D01*
X332807Y64100D01*
X332972Y63270D01*
X331957Y62000D01*
X296623D01*
X295942Y63270D01*
X296249Y64812D01*
X295892Y66607D01*
X294875Y68129D01*
X293354Y69145D01*
X291559Y69503D01*
X290982Y69388D01*
X290000Y70193D01*
Y75210D01*
X290933Y76606D01*
X291290Y78401D01*
X290933Y80196D01*
X290000Y81592D01*
Y93702D01*
X291795Y94059D01*
X293316Y95076D01*
X294333Y96598D01*
X294347Y96666D01*
X304051Y96719D01*
X304810Y95800D01*
X305167Y94005D01*
X306184Y92484D01*
X307705Y91467D01*
X309500Y91110D01*
X311295Y91467D01*
X312816Y92484D01*
X313833Y94005D01*
X314190Y95800D01*
X314989Y96779D01*
X327861Y96851D01*
X328670Y95871D01*
X328576Y95400D01*
X328933Y93605D01*
X329950Y92084D01*
X331471Y91067D01*
X333266Y90710D01*
X335061Y91067D01*
X336583Y92084D01*
X337599Y93605D01*
X337956Y95400D01*
X337852Y95926D01*
X338655Y96910D01*
X355000Y97000D01*
Y101952D01*
X356270Y102077D01*
X356369Y101577D01*
X357616Y99712D01*
X359482Y98465D01*
X360412Y98280D01*
Y103778D01*
X361682D01*
Y105048D01*
X367180D01*
X366995Y105978D01*
X365909Y107604D01*
X366517Y108010D01*
X367534Y109532D01*
X367891Y111327D01*
X367534Y113121D01*
X366517Y114643D01*
X364996Y115660D01*
X364930Y115818D01*
X365732Y117018D01*
X366089Y118813D01*
X365732Y120608D01*
X364716Y122129D01*
X363194Y123146D01*
X361399Y123503D01*
X359604Y123146D01*
X358083Y122129D01*
X357066Y120608D01*
X356709Y118813D01*
X357066Y117018D01*
X358083Y115497D01*
X359604Y114480D01*
X359670Y114322D01*
X358868Y113121D01*
X358511Y111327D01*
X358868Y109532D01*
X359261Y108943D01*
X357616Y107844D01*
X356369Y105978D01*
X356270Y105479D01*
X355000Y105604D01*
Y157000D01*
X359085D01*
X359467Y156428D01*
X360290Y155878D01*
X360293Y154353D01*
X359574Y153873D01*
X358557Y152351D01*
X358200Y150556D01*
X358557Y148761D01*
X359574Y147240D01*
Y146344D01*
X358934Y145916D01*
X357917Y144395D01*
X357560Y142600D01*
X357917Y140805D01*
X358934Y139284D01*
X360455Y138267D01*
X362250Y137910D01*
X364045Y138267D01*
X365566Y139284D01*
X366583Y140805D01*
X366940Y142600D01*
X366583Y144395D01*
X365858Y145480D01*
X365952Y147070D01*
X366206Y147240D01*
X367223Y148761D01*
X367580Y150556D01*
X367223Y152351D01*
X366206Y153873D01*
X365384Y154422D01*
X365380Y155947D01*
X366100Y156428D01*
X366482Y157000D01*
X390000D01*
Y168888D01*
X390816Y169434D01*
X391833Y170955D01*
X392190Y172750D01*
X391833Y174545D01*
X390816Y176066D01*
X390000Y176612D01*
Y178876D01*
X391720D01*
X392684Y177434D01*
X394549Y176187D01*
X395480Y176002D01*
Y180151D01*
X395624Y180499D01*
Y181500D01*
Y182500D01*
X395480Y182848D01*
Y186998D01*
X394549Y186813D01*
X392684Y185566D01*
X391720Y184123D01*
X390000D01*
Y200837D01*
X390000Y201618D01*
X391100Y202410D01*
X392406Y201537D01*
X393337Y201352D01*
Y205580D01*
X389109D01*
X389294Y204650D01*
X390185Y203316D01*
X390298Y203146D01*
X389602Y202000D01*
X388888Y202000D01*
X320246D01*
X319795Y202301D01*
X318000Y202658D01*
X316205Y202301D01*
X315754Y202000D01*
X290983D01*
X290222Y203270D01*
X291283Y205255D01*
X292286Y208562D01*
X292500Y210730D01*
X257500D01*
X257714Y208562D01*
X258717Y205255D01*
X259778Y203270D01*
X259017Y202000D01*
X234112D01*
X233837Y202411D01*
X232316Y203428D01*
X230521Y203785D01*
X228726Y203428D01*
X227204Y202411D01*
X226930Y202000D01*
X209583D01*
X209405Y202895D01*
X208388Y204416D01*
X206866Y205433D01*
X205072Y205790D01*
X203277Y205433D01*
X201755Y204416D01*
X200738Y202895D01*
X200560Y202000D01*
X180000D01*
Y223293D01*
X181354Y223854D01*
X182764Y224936D01*
X183541Y225948D01*
X183935Y225935D01*
X185800Y224688D01*
X186731Y224503D01*
Y230001D01*
Y235499D01*
X185800Y235314D01*
X183935Y234067D01*
X183492Y234053D01*
X182748Y234577D01*
X181354Y235646D01*
X180000Y236207D01*
Y241941D01*
X195790D01*
D02*
G37*
%LPC*%
G36*
X31520Y232998D02*
Y228770D01*
X35748D01*
X35563Y229701D01*
X34316Y231566D01*
X32451Y232813D01*
X31520Y232998D01*
D02*
G37*
G36*
X28980D02*
X28049Y232813D01*
X26184Y231566D01*
X24937Y229701D01*
X24752Y228770D01*
X28980D01*
Y232998D01*
D02*
G37*
G36*
X35748Y226230D02*
X31520D01*
Y222002D01*
X32451Y222187D01*
X34316Y223434D01*
X35563Y225299D01*
X35748Y226230D01*
D02*
G37*
G36*
X28980D02*
X24752D01*
X24937Y225299D01*
X26184Y223434D01*
X28049Y222187D01*
X28980Y222002D01*
Y226230D01*
D02*
G37*
G36*
X53500Y225840D02*
X51705Y225483D01*
X50184Y224466D01*
X49167Y222945D01*
X48810Y221150D01*
X49088Y219754D01*
X48453Y219131D01*
X48127Y218890D01*
X48068Y218864D01*
X46367Y219202D01*
X44572Y218845D01*
X43051Y217828D01*
X42034Y216307D01*
X41677Y214512D01*
X42034Y212717D01*
X43051Y211196D01*
X44572Y210179D01*
X46367Y209822D01*
X48162Y210179D01*
X49683Y211196D01*
X50700Y212717D01*
X51057Y214512D01*
X50779Y215908D01*
X51414Y216531D01*
X51740Y216772D01*
X51799Y216798D01*
X53500Y216460D01*
X55295Y216817D01*
X56816Y217834D01*
X57833Y219355D01*
X58190Y221150D01*
X57833Y222945D01*
X56816Y224466D01*
X55295Y225483D01*
X53500Y225840D01*
D02*
G37*
G36*
X118770Y232750D02*
Y216520D01*
X135000D01*
X134786Y218688D01*
X133783Y221995D01*
X132155Y225042D01*
X129963Y227713D01*
X127292Y229904D01*
X124245Y231533D01*
X120938Y232536D01*
X118770Y232750D01*
D02*
G37*
G36*
X116230D02*
X114061Y232536D01*
X110755Y231533D01*
X107708Y229904D01*
X105037Y227713D01*
X102845Y225042D01*
X101217Y221995D01*
X100214Y218688D01*
X100000Y216520D01*
X116230D01*
Y232750D01*
D02*
G37*
G36*
X175028Y218830D02*
X170800D01*
Y214602D01*
X171730Y214787D01*
X173596Y216034D01*
X174843Y217899D01*
X175028Y218830D01*
D02*
G37*
G36*
X168260D02*
X164032D01*
X164217Y217899D01*
X165464Y216034D01*
X167329Y214787D01*
X168260Y214602D01*
Y218830D01*
D02*
G37*
G36*
X9250Y219790D02*
X7455Y219433D01*
X5934Y218416D01*
X4917Y216895D01*
X4560Y215100D01*
X4917Y213305D01*
X5934Y211784D01*
X7455Y210767D01*
X9250Y210410D01*
X11045Y210767D01*
X12566Y211784D01*
X13583Y213305D01*
X13940Y215100D01*
X13583Y216895D01*
X12566Y218416D01*
X11045Y219433D01*
X9250Y219790D01*
D02*
G37*
G36*
X72250Y218740D02*
X70455Y218383D01*
X68934Y217366D01*
X67917Y215845D01*
X67560Y214050D01*
X67917Y212255D01*
X68934Y210734D01*
X70455Y209717D01*
X72250Y209360D01*
X74045Y209717D01*
X75566Y210734D01*
X76583Y212255D01*
X76940Y214050D01*
X76583Y215845D01*
X75566Y217366D01*
X74045Y218383D01*
X72250Y218740D01*
D02*
G37*
G36*
X39500Y210848D02*
X37549Y210460D01*
X35895Y209355D01*
X34790Y207701D01*
X34402Y205750D01*
X34790Y203799D01*
X35895Y202145D01*
X37549Y201040D01*
X39500Y200652D01*
X41451Y201040D01*
X43105Y202145D01*
X44210Y203799D01*
X44598Y205750D01*
X44210Y207701D01*
X43105Y209355D01*
X41451Y210460D01*
X39500Y210848D01*
D02*
G37*
G36*
X135000Y213980D02*
X118770D01*
Y197750D01*
X120938Y197964D01*
X124245Y198967D01*
X127292Y200595D01*
X129963Y202787D01*
X132155Y205458D01*
X133783Y208505D01*
X134786Y211812D01*
X135000Y213980D01*
D02*
G37*
G36*
X30250Y203690D02*
X28455Y203333D01*
X26934Y202316D01*
X25917Y200795D01*
X25560Y199000D01*
X25917Y197205D01*
X26934Y195684D01*
X28455Y194667D01*
X30250Y194310D01*
X32045Y194667D01*
X33566Y195684D01*
X34583Y197205D01*
X34940Y199000D01*
X34583Y200795D01*
X33566Y202316D01*
X32045Y203333D01*
X30250Y203690D01*
D02*
G37*
G36*
X93600Y202477D02*
X91805Y202120D01*
X90284Y201104D01*
X89267Y199582D01*
X88910Y197787D01*
X89267Y195992D01*
X90284Y194471D01*
X91805Y193454D01*
X93600Y193097D01*
X95395Y193454D01*
X96916Y194471D01*
X97933Y195992D01*
X98290Y197787D01*
X97933Y199582D01*
X96916Y201104D01*
X95395Y202120D01*
X93600Y202477D01*
D02*
G37*
G36*
X61730Y191646D02*
X60838Y191469D01*
X59006Y190244D01*
X57781Y188412D01*
X57604Y187520D01*
X61730D01*
Y191646D01*
D02*
G37*
G36*
X74270D02*
Y186250D01*
X71730D01*
Y191646D01*
X70838Y191469D01*
X69006Y190244D01*
X68635Y189689D01*
X67365D01*
X66994Y190244D01*
X65162Y191469D01*
X64270Y191646D01*
Y186250D01*
X63000D01*
Y184980D01*
X57604D01*
X57781Y184088D01*
X59006Y182256D01*
Y181244D01*
X57781Y179412D01*
X57604Y178520D01*
X63000D01*
Y175980D01*
X57604D01*
X57781Y175088D01*
X59006Y173256D01*
Y172244D01*
X57781Y170412D01*
X57604Y169520D01*
X63000D01*
Y168250D01*
X64270D01*
Y162854D01*
X65162Y163031D01*
X66994Y164256D01*
X67365Y164811D01*
X68635D01*
X69006Y164256D01*
X70838Y163031D01*
X71730Y162854D01*
Y168250D01*
X73000D01*
Y169520D01*
X78396D01*
X78218Y170412D01*
X76994Y172244D01*
Y173256D01*
X78218Y175088D01*
X78396Y175980D01*
X73000D01*
Y178520D01*
X78396D01*
X78330Y178852D01*
X78219Y179412D01*
X79288Y180050D01*
X79934Y179084D01*
X81455Y178067D01*
X83250Y177710D01*
X85045Y178067D01*
X86566Y179084D01*
X87583Y180605D01*
X87940Y182400D01*
X87583Y184195D01*
X86566Y185716D01*
X85045Y186733D01*
X83250Y187090D01*
X81455Y186733D01*
X79934Y185716D01*
X79796Y185511D01*
X78600Y186007D01*
X78649Y186250D01*
X78218Y188412D01*
X76994Y190244D01*
X75162Y191469D01*
X74270Y191646D01*
D02*
G37*
G36*
X314296Y191458D02*
X312502Y191101D01*
X310980Y190084D01*
X309963Y188563D01*
X309685Y187163D01*
X308544Y186095D01*
X308523Y186099D01*
X307868Y185969D01*
X306404Y186937D01*
X306333Y187295D01*
X305316Y188816D01*
X303795Y189833D01*
X302000Y190190D01*
X300205Y189833D01*
X298684Y188816D01*
X297667Y187295D01*
X297310Y185500D01*
X297667Y183705D01*
X298684Y182184D01*
X300205Y181167D01*
X302000Y180810D01*
X302656Y180940D01*
X304119Y179972D01*
X304190Y179614D01*
X305207Y178093D01*
X306729Y177076D01*
X308523Y176719D01*
X310318Y177076D01*
X311840Y178093D01*
X312857Y179614D01*
X313135Y181014D01*
X314276Y182082D01*
X314296Y182078D01*
X316091Y182435D01*
X317613Y183452D01*
X318629Y184973D01*
X318986Y186768D01*
X318629Y188563D01*
X317613Y190084D01*
X316091Y191101D01*
X314296Y191458D01*
D02*
G37*
G36*
X354924Y188848D02*
Y184620D01*
X359152D01*
X358967Y185551D01*
X357720Y187416D01*
X355854Y188663D01*
X354924Y188848D01*
D02*
G37*
G36*
X352384D02*
X351453Y188663D01*
X349588Y187416D01*
X348341Y185551D01*
X348156Y184620D01*
X352384D01*
Y188848D01*
D02*
G37*
G36*
X384480Y186998D02*
X383549Y186813D01*
X381684Y185566D01*
X380437Y183701D01*
X380252Y182770D01*
X384480D01*
Y186998D01*
D02*
G37*
G36*
X96770Y185998D02*
Y181770D01*
X100998D01*
X100813Y182701D01*
X99566Y184566D01*
X97701Y185813D01*
X96770Y185998D01*
D02*
G37*
G36*
X94230D02*
X93299Y185813D01*
X91434Y184566D01*
X90187Y182701D01*
X90002Y181770D01*
X94230D01*
Y185998D01*
D02*
G37*
G36*
X251542Y190982D02*
X249747Y190625D01*
X248225Y189608D01*
X247209Y188087D01*
X246852Y186292D01*
X247209Y184497D01*
X248225Y182976D01*
X249747Y181959D01*
X251542Y181602D01*
X253337Y181959D01*
X254699Y182869D01*
X255217Y182996D01*
X255874D01*
X256304Y182853D01*
X257705Y181917D01*
X259500Y181560D01*
X261295Y181917D01*
X262816Y182934D01*
X263833Y184455D01*
X264190Y186250D01*
X263833Y188045D01*
X262816Y189566D01*
X261295Y190583D01*
X259500Y190940D01*
X257705Y190583D01*
X256343Y189673D01*
X255825Y189546D01*
X255168D01*
X254738Y189689D01*
X253337Y190625D01*
X251542Y190982D01*
D02*
G37*
G36*
X187598Y184642D02*
Y180415D01*
X191825D01*
X191640Y181345D01*
X190394Y183211D01*
X188528Y184457D01*
X187598Y184642D01*
D02*
G37*
G36*
X185058D02*
X184127Y184457D01*
X182261Y183211D01*
X181015Y181345D01*
X180830Y180415D01*
X185058D01*
Y184642D01*
D02*
G37*
G36*
X325645Y187690D02*
X323850Y187333D01*
X322329Y186316D01*
X321312Y184795D01*
X320955Y183000D01*
X321312Y181205D01*
X322329Y179684D01*
X323850Y178667D01*
X325645Y178310D01*
X327440Y178667D01*
X328961Y179684D01*
X329978Y181205D01*
X330335Y183000D01*
X329978Y184795D01*
X328961Y186316D01*
X327440Y187333D01*
X325645Y187690D01*
D02*
G37*
G36*
X359152Y182080D02*
X354924D01*
Y177852D01*
X355854Y178037D01*
X357720Y179284D01*
X358967Y181149D01*
X359152Y182080D01*
D02*
G37*
G36*
X352384D02*
X348156D01*
X348341Y181149D01*
X349588Y179284D01*
X351453Y178037D01*
X352384Y177852D01*
Y182080D01*
D02*
G37*
G36*
X100998Y179230D02*
X96770D01*
Y175002D01*
X97701Y175187D01*
X99566Y176434D01*
X100813Y178299D01*
X100998Y179230D01*
D02*
G37*
G36*
X94230D02*
X90002D01*
X90187Y178299D01*
X91434Y176434D01*
X93299Y175187D01*
X94230Y175002D01*
Y179230D01*
D02*
G37*
G36*
X278647Y183793D02*
X276853Y183436D01*
X275331Y182419D01*
X274314Y180897D01*
X273957Y179102D01*
X274314Y177308D01*
X275331Y175786D01*
X276853Y174769D01*
X278647Y174412D01*
X280442Y174769D01*
X281964Y175786D01*
X282980Y177308D01*
X283338Y179102D01*
X282980Y180897D01*
X281964Y182419D01*
X280442Y183436D01*
X278647Y183793D01*
D02*
G37*
G36*
X191825Y177875D02*
X187598D01*
Y173647D01*
X188528Y173832D01*
X190394Y175078D01*
X191640Y176944D01*
X191825Y177875D01*
D02*
G37*
G36*
X185058D02*
X180830D01*
X181015Y176944D01*
X182261Y175078D01*
X184127Y173832D01*
X185058Y173647D01*
Y177875D01*
D02*
G37*
G36*
X78396Y166980D02*
X74270D01*
Y162854D01*
X75162Y163031D01*
X76994Y164256D01*
X78218Y166088D01*
X78396Y166980D01*
D02*
G37*
G36*
X61730D02*
X57604D01*
X57781Y166088D01*
X59006Y164256D01*
X60838Y163031D01*
X61730Y162854D01*
Y166980D01*
D02*
G37*
G36*
X51771Y165499D02*
Y161271D01*
X55999D01*
X55814Y162202D01*
X54567Y164068D01*
X52702Y165314D01*
X51771Y165499D01*
D02*
G37*
G36*
X39500Y169348D02*
X37549Y168960D01*
X35895Y167855D01*
X34790Y166201D01*
X34402Y164250D01*
X34790Y162299D01*
X35895Y160645D01*
X37549Y159540D01*
X39500Y159152D01*
X41451Y159540D01*
X43105Y160645D01*
X43787Y161666D01*
X44738Y161271D01*
X49231D01*
Y165499D01*
X48300Y165314D01*
X46435Y164068D01*
X45612Y162836D01*
X44415Y163331D01*
X44598Y164250D01*
X44210Y166201D01*
X43105Y167855D01*
X41451Y168960D01*
X39500Y169348D01*
D02*
G37*
G36*
X304100Y169940D02*
X302305Y169583D01*
X300784Y168566D01*
X299767Y167045D01*
X299410Y165250D01*
X299767Y163455D01*
X300784Y161934D01*
X302305Y160917D01*
X304100Y160560D01*
X305895Y160917D01*
X307416Y161934D01*
X308433Y163455D01*
X308790Y165250D01*
X308433Y167045D01*
X307416Y168566D01*
X305895Y169583D01*
X304100Y169940D01*
D02*
G37*
G36*
X207750Y169590D02*
X205955Y169233D01*
X204434Y168216D01*
X203417Y166695D01*
X203060Y164900D01*
X203417Y163105D01*
X204434Y161584D01*
X205955Y160567D01*
X207750Y160210D01*
X209545Y160567D01*
X211066Y161584D01*
X212083Y163105D01*
X212440Y164900D01*
X212083Y166695D01*
X211066Y168216D01*
X209545Y169233D01*
X207750Y169590D01*
D02*
G37*
G36*
X220262Y161989D02*
Y157762D01*
X224489D01*
X224304Y158692D01*
X223058Y160558D01*
X221192Y161804D01*
X220262Y161989D01*
D02*
G37*
G36*
X217722D02*
X216791Y161804D01*
X214925Y160558D01*
X213679Y158692D01*
X213494Y157762D01*
X217722D01*
Y161989D01*
D02*
G37*
G36*
X233270Y161498D02*
Y157270D01*
X237498D01*
X237313Y158201D01*
X236066Y160066D01*
X234201Y161313D01*
X233270Y161498D01*
D02*
G37*
G36*
X230730D02*
X229799Y161313D01*
X227934Y160066D01*
X226687Y158201D01*
X226502Y157270D01*
X230730D01*
Y161498D01*
D02*
G37*
G36*
X55999Y158731D02*
X45003D01*
X45075Y158369D01*
X44800Y158314D01*
X42935Y157068D01*
X41688Y155202D01*
X41503Y154271D01*
X52499D01*
X52427Y154634D01*
X52702Y154689D01*
X54567Y155935D01*
X55814Y157801D01*
X55999Y158731D01*
D02*
G37*
G36*
X224489Y155222D02*
X220262D01*
Y150994D01*
X221192Y151179D01*
X223058Y152425D01*
X224304Y154291D01*
X224489Y155222D01*
D02*
G37*
G36*
X217722D02*
X213494D01*
X213679Y154291D01*
X214925Y152425D01*
X216791Y151179D01*
X217722Y150994D01*
Y155222D01*
D02*
G37*
G36*
X237498Y154730D02*
X233270D01*
Y150502D01*
X234201Y150687D01*
X236066Y151934D01*
X237313Y153799D01*
X237498Y154730D01*
D02*
G37*
G36*
X230730D02*
X226502D01*
X226687Y153799D01*
X227934Y151934D01*
X229799Y150687D01*
X230730Y150502D01*
Y154730D01*
D02*
G37*
G36*
X310270Y152686D02*
Y149070D01*
X313886D01*
X313748Y149767D01*
X312634Y151434D01*
X310966Y152548D01*
X310270Y152686D01*
D02*
G37*
G36*
X307730Y152686D02*
X307034Y152548D01*
X305366Y151434D01*
X304252Y149767D01*
X304114Y149070D01*
X307730D01*
Y152686D01*
D02*
G37*
G36*
X345070Y152686D02*
Y149070D01*
X348686D01*
X348548Y149767D01*
X347434Y151434D01*
X345766Y152548D01*
X345070Y152686D01*
D02*
G37*
G36*
X342530Y152686D02*
X341833Y152548D01*
X340166Y151434D01*
X339052Y149767D01*
X338914Y149070D01*
X342530D01*
Y152686D01*
D02*
G37*
G36*
X333470D02*
Y149070D01*
X337086D01*
X336948Y149767D01*
X335834Y151434D01*
X334166Y152548D01*
X333470Y152686D01*
D02*
G37*
G36*
X321870D02*
Y149070D01*
X325486D01*
X325348Y149767D01*
X324234Y151434D01*
X322566Y152548D01*
X321870Y152686D01*
D02*
G37*
G36*
X330930D02*
X330233Y152548D01*
X328566Y151434D01*
X327452Y149767D01*
X327314Y149070D01*
X330930D01*
Y152686D01*
D02*
G37*
G36*
X319330D02*
X318633Y152548D01*
X316966Y151434D01*
X315853Y149767D01*
X315714Y149070D01*
X319330D01*
Y152686D01*
D02*
G37*
G36*
X45731Y151732D02*
X41503D01*
X41688Y150801D01*
X42935Y148935D01*
X44800Y147689D01*
X45731Y147504D01*
Y151732D01*
D02*
G37*
G36*
X28231Y151499D02*
X27300Y151314D01*
X25435Y150068D01*
X24188Y148202D01*
X24003Y147271D01*
X28231D01*
Y151499D01*
D02*
G37*
G36*
X154850Y153590D02*
X153055Y153233D01*
X151534Y152216D01*
X150517Y150695D01*
X150160Y148900D01*
X150517Y147105D01*
X151534Y145584D01*
X153055Y144567D01*
X154850Y144210D01*
X156645Y144567D01*
X158166Y145584D01*
X159183Y147105D01*
X159540Y148900D01*
X159183Y150695D01*
X158166Y152216D01*
X156645Y153233D01*
X154850Y153590D01*
D02*
G37*
G36*
X307730Y146530D02*
X304114D01*
X304252Y145834D01*
X305366Y144166D01*
X307034Y143052D01*
X307730Y142914D01*
Y146530D01*
D02*
G37*
G36*
X342530Y146530D02*
X338914D01*
X339052Y145834D01*
X340166Y144166D01*
X341833Y143052D01*
X342530Y142914D01*
Y146530D01*
D02*
G37*
G36*
X337086Y146530D02*
X333470D01*
Y142914D01*
X334166Y143052D01*
X335834Y144166D01*
X336948Y145834D01*
X337086Y146530D01*
D02*
G37*
G36*
X325486D02*
X321870D01*
Y142914D01*
X322566Y143052D01*
X324234Y144166D01*
X325348Y145834D01*
X325486Y146530D01*
D02*
G37*
G36*
X330930D02*
X327314D01*
X327452Y145834D01*
X328566Y144166D01*
X330233Y143052D01*
X330930Y142914D01*
Y146530D01*
D02*
G37*
G36*
X319330D02*
X315714D01*
X315853Y145834D01*
X316966Y144166D01*
X318633Y143052D01*
X319330Y142914D01*
Y146530D01*
D02*
G37*
G36*
X348686Y146530D02*
X345070D01*
Y142914D01*
X345766Y143052D01*
X347434Y144166D01*
X348548Y145834D01*
X348686Y146530D01*
D02*
G37*
G36*
X313886Y146530D02*
X310270D01*
Y142914D01*
X310966Y143052D01*
X312634Y144166D01*
X313748Y145834D01*
X313886Y146530D01*
D02*
G37*
G36*
X52499Y151732D02*
X48271D01*
Y146519D01*
X48348Y146442D01*
X48310Y146250D01*
X48667Y144455D01*
X49684Y142934D01*
X51205Y141917D01*
X53000Y141560D01*
X54795Y141917D01*
X56316Y142934D01*
X57333Y144455D01*
X57690Y146250D01*
X57333Y148045D01*
X56316Y149566D01*
X54795Y150583D01*
X53000Y150940D01*
X52451Y151489D01*
X52499Y151732D01*
D02*
G37*
G36*
X290750Y150440D02*
X288955Y150083D01*
X287434Y149066D01*
X286417Y147545D01*
X286060Y145750D01*
X286417Y143955D01*
X287434Y142434D01*
X288955Y141417D01*
X290750Y141060D01*
X292545Y141417D01*
X294066Y142434D01*
X295083Y143955D01*
X295440Y145750D01*
X295083Y147545D01*
X294066Y149066D01*
X292545Y150083D01*
X290750Y150440D01*
D02*
G37*
G36*
X196855Y154045D02*
X195060Y153688D01*
X193538Y152671D01*
X192521Y151149D01*
X192164Y149355D01*
X192521Y147560D01*
X193538Y146038D01*
X195060Y145021D01*
X195111Y145011D01*
X195337Y143671D01*
X194187Y141951D01*
X194002Y141020D01*
X204998D01*
X204813Y141951D01*
X203566Y143816D01*
X201701Y145063D01*
X201024Y145197D01*
X200539Y146589D01*
X201188Y147560D01*
X201545Y149355D01*
X201188Y151149D01*
X200171Y152671D01*
X198649Y153688D01*
X196855Y154045D01*
D02*
G37*
G36*
X28231Y144732D02*
X24003D01*
X24188Y143801D01*
X25435Y141935D01*
X27300Y140689D01*
X28231Y140504D01*
Y144732D01*
D02*
G37*
G36*
X251520Y143498D02*
Y139270D01*
X255748D01*
X255563Y140201D01*
X254316Y142066D01*
X252451Y143313D01*
X251520Y143498D01*
D02*
G37*
G36*
X248980D02*
X248049Y143313D01*
X246184Y142066D01*
X244937Y140201D01*
X244752Y139270D01*
X248980D01*
Y143498D01*
D02*
G37*
G36*
X86508Y140368D02*
Y136140D01*
X90736D01*
X90550Y137071D01*
X89304Y138937D01*
X87438Y140183D01*
X86508Y140368D01*
D02*
G37*
G36*
X83968D02*
X83037Y140183D01*
X81172Y138937D01*
X79925Y137071D01*
X79740Y136140D01*
X83968D01*
Y140368D01*
D02*
G37*
G36*
X65750Y145340D02*
X63955Y144983D01*
X62434Y143966D01*
X61417Y142445D01*
X61060Y140650D01*
X61417Y138855D01*
X62434Y137334D01*
X63955Y136317D01*
X65750Y135960D01*
X67545Y136317D01*
X69066Y137334D01*
X70083Y138855D01*
X70440Y140650D01*
X70083Y142445D01*
X69066Y143966D01*
X67545Y144983D01*
X65750Y145340D01*
D02*
G37*
G36*
X273900Y143690D02*
X272105Y143333D01*
X270584Y142316D01*
X269567Y140795D01*
X269210Y139000D01*
X269567Y137205D01*
X270584Y135684D01*
X272105Y134667D01*
X273900Y134310D01*
X275695Y134667D01*
X277216Y135684D01*
X278233Y137205D01*
X278590Y139000D01*
X278233Y140795D01*
X277216Y142316D01*
X275695Y143333D01*
X273900Y143690D01*
D02*
G37*
G36*
X204998Y138480D02*
X200770D01*
Y134252D01*
X201701Y134437D01*
X203566Y135684D01*
X204813Y137549D01*
X204998Y138480D01*
D02*
G37*
G36*
X198230D02*
X194002D01*
X194187Y137549D01*
X195434Y135684D01*
X197299Y134437D01*
X198230Y134252D01*
Y138480D01*
D02*
G37*
G36*
X255748Y136730D02*
X251520D01*
Y132502D01*
X252451Y132687D01*
X254316Y133934D01*
X255563Y135799D01*
X255748Y136730D01*
D02*
G37*
G36*
X248980D02*
X244752D01*
X244937Y135799D01*
X246184Y133934D01*
X248049Y132687D01*
X248980Y132502D01*
Y136730D01*
D02*
G37*
G36*
X90736Y133600D02*
X86508D01*
Y129373D01*
X87438Y129558D01*
X89304Y130804D01*
X90550Y132670D01*
X90736Y133600D01*
D02*
G37*
G36*
X83968D02*
X79740D01*
X79925Y132670D01*
X81172Y130804D01*
X83037Y129558D01*
X83968Y129373D01*
Y133600D01*
D02*
G37*
G36*
X166980Y130636D02*
X166283Y130498D01*
X164616Y129384D01*
X163502Y127717D01*
X163397Y127189D01*
X162103D01*
X161998Y127717D01*
X160884Y129384D01*
X159216Y130498D01*
X158520Y130636D01*
Y125750D01*
X155980D01*
Y130636D01*
X155283Y130498D01*
X153616Y129384D01*
X152502Y127717D01*
X152397Y127189D01*
X151103D01*
X150998Y127717D01*
X149884Y129384D01*
X148216Y130498D01*
X147520Y130636D01*
Y125750D01*
X144980D01*
Y130636D01*
X144284Y130498D01*
X142616Y129384D01*
X141502Y127717D01*
X141397Y127189D01*
X140103D01*
X139998Y127717D01*
X138884Y129384D01*
X137217Y130498D01*
X136520Y130636D01*
Y125750D01*
X135250D01*
Y124480D01*
X130364D01*
X130502Y123784D01*
X131616Y122116D01*
X133284Y121002D01*
X133811Y120897D01*
Y119603D01*
X133284Y119498D01*
X131616Y118384D01*
X130502Y116716D01*
X130364Y116020D01*
X135250D01*
Y113480D01*
X130364D01*
X130502Y112783D01*
X131616Y111116D01*
X133284Y110002D01*
X133811Y109897D01*
Y108603D01*
X133284Y108497D01*
X131616Y107384D01*
X130502Y105716D01*
X130364Y105020D01*
X135250D01*
Y102480D01*
X130364D01*
X130502Y101784D01*
X131616Y100116D01*
X133284Y99002D01*
X133811Y98897D01*
Y97603D01*
X133284Y97498D01*
X131616Y96384D01*
X130502Y94717D01*
X130364Y94020D01*
X135250D01*
Y92750D01*
X136520D01*
Y87864D01*
X137217Y88002D01*
X138884Y89116D01*
X139998Y90784D01*
X140103Y91311D01*
X141397D01*
X141502Y90784D01*
X142616Y89116D01*
X144284Y88002D01*
X144980Y87864D01*
Y92750D01*
X147520D01*
Y87864D01*
X148216Y88002D01*
X149884Y89116D01*
X150998Y90784D01*
X151103Y91311D01*
X152397D01*
X152502Y90784D01*
X153616Y89116D01*
X155283Y88002D01*
X155980Y87864D01*
Y92750D01*
X158520D01*
Y87864D01*
X159216Y88002D01*
X160884Y89116D01*
X161998Y90784D01*
X162103Y91311D01*
X163397D01*
X163502Y90784D01*
X164616Y89116D01*
X166283Y88002D01*
X166980Y87864D01*
Y92750D01*
X168250D01*
Y94020D01*
X173136D01*
X172998Y94717D01*
X171884Y96384D01*
X170217Y97498D01*
X169689Y97603D01*
Y98897D01*
X170217Y99002D01*
X171884Y100116D01*
X172998Y101784D01*
X173136Y102480D01*
X168250D01*
Y105020D01*
X173136D01*
X172998Y105716D01*
X171884Y107384D01*
X170217Y108497D01*
X169689Y108603D01*
Y109897D01*
X170217Y110002D01*
X171884Y111116D01*
X172998Y112783D01*
X173136Y113480D01*
X168250D01*
Y116020D01*
X173136D01*
X172998Y116716D01*
X171884Y118384D01*
X170217Y119498D01*
X169689Y119603D01*
Y120897D01*
X170217Y121002D01*
X171884Y122116D01*
X172998Y123784D01*
X173136Y124480D01*
X168250D01*
Y125750D01*
X166980D01*
Y130636D01*
D02*
G37*
G36*
X169520D02*
Y127020D01*
X173136D01*
X172998Y127717D01*
X171884Y129384D01*
X170217Y130498D01*
X169520Y130636D01*
D02*
G37*
G36*
X133980D02*
X133284Y130498D01*
X131616Y129384D01*
X130502Y127717D01*
X130364Y127020D01*
X133980D01*
Y130636D01*
D02*
G37*
G36*
X310270Y129486D02*
Y125870D01*
X313886D01*
X313748Y126566D01*
X312634Y128234D01*
X310966Y129348D01*
X310270Y129486D01*
D02*
G37*
G36*
X307730Y129486D02*
X307034Y129348D01*
X305366Y128234D01*
X304252Y126566D01*
X304114Y125870D01*
X307730D01*
Y129486D01*
D02*
G37*
G36*
X345070D02*
Y125870D01*
X348686D01*
X348548Y126566D01*
X347434Y128234D01*
X345766Y129348D01*
X345070Y129486D01*
D02*
G37*
G36*
X342530D02*
X341833Y129348D01*
X340166Y128234D01*
X339052Y126566D01*
X338914Y125870D01*
X342530D01*
Y129486D01*
D02*
G37*
G36*
X333470D02*
Y125870D01*
X337086D01*
X336948Y126566D01*
X335834Y128234D01*
X334166Y129348D01*
X333470Y129486D01*
D02*
G37*
G36*
X321870D02*
Y125870D01*
X325486D01*
X325348Y126566D01*
X324234Y128234D01*
X322566Y129348D01*
X321870Y129486D01*
D02*
G37*
G36*
X330930Y129486D02*
X330233Y129348D01*
X328566Y128234D01*
X327452Y126566D01*
X327314Y125870D01*
X330930D01*
Y129486D01*
D02*
G37*
G36*
X319330D02*
X318633Y129348D01*
X316966Y128234D01*
X315853Y126566D01*
X315714Y125870D01*
X319330D01*
Y129486D01*
D02*
G37*
G36*
X307730Y123330D02*
X304114D01*
X304252Y122633D01*
X305366Y120966D01*
X307034Y119852D01*
X307730Y119714D01*
Y123330D01*
D02*
G37*
G36*
X337086Y123330D02*
X333470D01*
Y119714D01*
X334166Y119852D01*
X335834Y120966D01*
X336948Y122633D01*
X337086Y123330D01*
D02*
G37*
G36*
X325486D02*
X321870D01*
Y119714D01*
X322566Y119852D01*
X324234Y120966D01*
X325348Y122633D01*
X325486Y123330D01*
D02*
G37*
G36*
X348686Y123330D02*
X345070D01*
Y119714D01*
X345766Y119852D01*
X347434Y120966D01*
X348548Y122633D01*
X348686Y123330D01*
D02*
G37*
G36*
X342530D02*
X338914D01*
X339052Y122633D01*
X340166Y120966D01*
X341833Y119852D01*
X342530Y119714D01*
Y123330D01*
D02*
G37*
G36*
X330930Y123330D02*
X327314D01*
X327452Y122633D01*
X328566Y120966D01*
X330233Y119852D01*
X330930Y119714D01*
Y123330D01*
D02*
G37*
G36*
X319330D02*
X315714D01*
X315853Y122633D01*
X316966Y120966D01*
X318633Y119852D01*
X319330Y119714D01*
Y123330D01*
D02*
G37*
G36*
X313886Y123330D02*
X310270D01*
Y119714D01*
X310966Y119852D01*
X312634Y120966D01*
X313748Y122633D01*
X313886Y123330D01*
D02*
G37*
G36*
X70000Y132690D02*
X68205Y132333D01*
X66684Y131316D01*
X65667Y129795D01*
X65310Y128000D01*
X65667Y126205D01*
X66684Y124684D01*
X67684Y124015D01*
Y123566D01*
X66667Y122045D01*
X66310Y120250D01*
X66667Y118455D01*
X67684Y116934D01*
X69205Y115917D01*
X71000Y115560D01*
X72795Y115917D01*
X74316Y116934D01*
X75333Y118455D01*
X75690Y120250D01*
X75333Y122045D01*
X74316Y123566D01*
X73316Y124235D01*
Y124684D01*
X74333Y126205D01*
X74690Y128000D01*
X74333Y129795D01*
X73316Y131316D01*
X71795Y132333D01*
X70000Y132690D01*
D02*
G37*
G36*
X310270Y117886D02*
Y114270D01*
X313886D01*
X313748Y114966D01*
X312634Y116634D01*
X310966Y117748D01*
X310270Y117886D01*
D02*
G37*
G36*
X307730Y117886D02*
X307034Y117748D01*
X305366Y116634D01*
X304252Y114966D01*
X304114Y114270D01*
X307730D01*
Y117886D01*
D02*
G37*
G36*
X345070D02*
Y114270D01*
X348686D01*
X348548Y114966D01*
X347434Y116634D01*
X345766Y117748D01*
X345070Y117886D01*
D02*
G37*
G36*
X342530Y117886D02*
X341833Y117748D01*
X340166Y116634D01*
X339052Y114966D01*
X338914Y114270D01*
X342530D01*
Y117886D01*
D02*
G37*
G36*
X333470Y117886D02*
Y114270D01*
X337086D01*
X336948Y114966D01*
X335834Y116634D01*
X334166Y117748D01*
X333470Y117886D01*
D02*
G37*
G36*
X321870D02*
Y114270D01*
X325486D01*
X325348Y114966D01*
X324234Y116634D01*
X322566Y117748D01*
X321870Y117886D01*
D02*
G37*
G36*
X330930Y117886D02*
X330233Y117748D01*
X328566Y116634D01*
X327452Y114966D01*
X327314Y114270D01*
X330930D01*
Y117886D01*
D02*
G37*
G36*
X319330D02*
X318633Y117748D01*
X316966Y116634D01*
X315853Y114966D01*
X315714Y114270D01*
X319330D01*
Y117886D01*
D02*
G37*
G36*
X65225Y116098D02*
Y111870D01*
X69453D01*
X69268Y112801D01*
X68021Y114666D01*
X66156Y115913D01*
X65225Y116098D01*
D02*
G37*
G36*
X62685D02*
X61754Y115913D01*
X59889Y114666D01*
X58642Y112801D01*
X58457Y111870D01*
X62685D01*
Y116098D01*
D02*
G37*
G36*
X83145Y120715D02*
X81350Y120358D01*
X79828Y119341D01*
X78811Y117820D01*
X78454Y116025D01*
X78811Y114230D01*
X79828Y112709D01*
X81350Y111692D01*
X83145Y111335D01*
X84939Y111692D01*
X86461Y112709D01*
X87478Y114230D01*
X87835Y116025D01*
X87478Y117820D01*
X86461Y119341D01*
X84939Y120358D01*
X83145Y120715D01*
D02*
G37*
G36*
X231500Y116690D02*
X229705Y116333D01*
X228184Y115316D01*
X227167Y113795D01*
X226810Y112000D01*
X226946Y111316D01*
X225749Y110821D01*
X225151Y111716D01*
X223630Y112733D01*
X221835Y113090D01*
X220040Y112733D01*
X218518Y111716D01*
X217502Y110195D01*
X217145Y108400D01*
X217160Y108325D01*
X216123Y107026D01*
X215104Y106824D01*
X213582Y105807D01*
X212565Y104285D01*
X212208Y102491D01*
X212565Y100696D01*
X213582Y99174D01*
X215104Y98158D01*
X216898Y97800D01*
X218693Y98158D01*
X220215Y99174D01*
X221231Y100696D01*
X221588Y102491D01*
X221574Y102565D01*
X222610Y103864D01*
X223630Y104067D01*
X225151Y105084D01*
X226168Y106605D01*
X226525Y108400D01*
X226389Y109083D01*
X227585Y109579D01*
X228184Y108684D01*
X229705Y107667D01*
X231500Y107310D01*
X233295Y107667D01*
X234816Y108684D01*
X235833Y110205D01*
X236190Y112000D01*
X235833Y113795D01*
X234816Y115316D01*
X233295Y116333D01*
X231500Y116690D01*
D02*
G37*
G36*
X337086Y111730D02*
X333470D01*
Y108114D01*
X334166Y108252D01*
X335834Y109366D01*
X336948Y111033D01*
X337086Y111730D01*
D02*
G37*
G36*
X325486D02*
X321870D01*
Y108114D01*
X322566Y108252D01*
X324234Y109366D01*
X325348Y111033D01*
X325486Y111730D01*
D02*
G37*
G36*
X348686Y111730D02*
X345070D01*
Y108114D01*
X345766Y108252D01*
X347434Y109366D01*
X348548Y111033D01*
X348686Y111730D01*
D02*
G37*
G36*
X307730Y111730D02*
X304114D01*
X304252Y111033D01*
X305366Y109366D01*
X307034Y108252D01*
X307730Y108114D01*
Y111730D01*
D02*
G37*
G36*
X313886D02*
X310270D01*
Y108114D01*
X310966Y108252D01*
X312634Y109366D01*
X313748Y111033D01*
X313886Y111730D01*
D02*
G37*
G36*
X342530Y111730D02*
X338914D01*
X339052Y111033D01*
X340166Y109366D01*
X341833Y108252D01*
X342530Y108114D01*
Y111730D01*
D02*
G37*
G36*
X330930Y111730D02*
X327314D01*
X327452Y111033D01*
X328566Y109366D01*
X330233Y108252D01*
X330930Y108114D01*
Y111730D01*
D02*
G37*
G36*
X319330D02*
X315714D01*
X315853Y111033D01*
X316966Y109366D01*
X318633Y108252D01*
X319330Y108114D01*
Y111730D01*
D02*
G37*
G36*
X69453Y109330D02*
X65225D01*
Y105102D01*
X66156Y105287D01*
X68021Y106534D01*
X69268Y108399D01*
X69453Y109330D01*
D02*
G37*
G36*
X62685D02*
X58457D01*
X58642Y108399D01*
X59889Y106534D01*
X61754Y105287D01*
X62685Y105102D01*
Y109330D01*
D02*
G37*
G36*
X93170Y103809D02*
Y99581D01*
X97398D01*
X97213Y100511D01*
X95966Y102377D01*
X94101Y103624D01*
X93170Y103809D01*
D02*
G37*
G36*
X192509Y107445D02*
X190715Y107088D01*
X189193Y106071D01*
X188176Y104550D01*
X187819Y102755D01*
X188176Y100960D01*
X189193Y99438D01*
X190715Y98422D01*
X192509Y98065D01*
X194304Y98422D01*
X195826Y99438D01*
X196076Y99813D01*
X197425Y99545D01*
X197567Y98830D01*
X198584Y97308D01*
X200105Y96292D01*
X201900Y95935D01*
X203695Y96292D01*
X205216Y97308D01*
X206233Y98830D01*
X206590Y100625D01*
X206233Y102420D01*
X205216Y103941D01*
X203695Y104958D01*
X201900Y105315D01*
X200105Y104958D01*
X198584Y103941D01*
X198333Y103566D01*
X196985Y103834D01*
X196842Y104550D01*
X195826Y106071D01*
X194304Y107088D01*
X192509Y107445D01*
D02*
G37*
G36*
X173136Y91480D02*
X169520D01*
Y87864D01*
X170217Y88002D01*
X171884Y89116D01*
X172998Y90784D01*
X173136Y91480D01*
D02*
G37*
G36*
X133980D02*
X130364D01*
X130502Y90784D01*
X131616Y89116D01*
X133284Y88002D01*
X133980Y87864D01*
Y91480D01*
D02*
G37*
G36*
X90630Y103809D02*
X89699Y103624D01*
X87834Y102377D01*
X86587Y100511D01*
X86300Y99070D01*
X84254Y98663D01*
X82389Y97416D01*
X81142Y95551D01*
X80957Y94620D01*
X86455D01*
Y93350D01*
X87725D01*
Y87852D01*
X88656Y88037D01*
X90521Y89284D01*
X91768Y91149D01*
X92054Y92591D01*
X94101Y92998D01*
X95966Y94244D01*
X97213Y96110D01*
X97398Y97041D01*
X91900D01*
Y98311D01*
X90630D01*
Y103809D01*
D02*
G37*
G36*
X85185Y92080D02*
X80957D01*
X81142Y91149D01*
X82389Y89284D01*
X84254Y88037D01*
X85185Y87852D01*
Y92080D01*
D02*
G37*
G36*
X109730Y95540D02*
X107935Y95183D01*
X106413Y94166D01*
X105397Y92645D01*
X105040Y90850D01*
X105397Y89055D01*
X106413Y87534D01*
X107935Y86517D01*
X109730Y86160D01*
X111525Y86517D01*
X113046Y87534D01*
X114063Y89055D01*
X114420Y90850D01*
X114063Y92645D01*
X113046Y94166D01*
X111525Y95183D01*
X109730Y95540D01*
D02*
G37*
G36*
X274215Y81490D02*
Y77262D01*
X278442D01*
X278257Y78193D01*
X277011Y80058D01*
X275145Y81305D01*
X274215Y81490D01*
D02*
G37*
G36*
X271675D02*
X270744Y81305D01*
X268878Y80058D01*
X267632Y78193D01*
X267447Y77262D01*
X271675D01*
Y81490D01*
D02*
G37*
G36*
X194760Y96194D02*
X192965Y95837D01*
X191443Y94821D01*
X190426Y93299D01*
X190069Y91504D01*
X190426Y89709D01*
X191443Y88188D01*
X192965Y87171D01*
X194760Y86814D01*
X196172Y87095D01*
X197058Y86438D01*
X197274Y86124D01*
X197210Y85803D01*
X197567Y84008D01*
X198584Y82486D01*
X199062Y82167D01*
Y80639D01*
X198584Y80320D01*
X197567Y78798D01*
X197411Y78016D01*
X197126Y77010D01*
X196160Y77084D01*
Y71570D01*
Y66073D01*
X197090Y66258D01*
X198956Y67504D01*
X200202Y69370D01*
X200583Y71280D01*
X201530Y72387D01*
X201900Y72313D01*
X203695Y72670D01*
X205216Y73687D01*
X206233Y75209D01*
X206590Y77003D01*
X206233Y78798D01*
X205216Y80320D01*
X204738Y80639D01*
Y82167D01*
X205216Y82486D01*
X206233Y84008D01*
X206590Y85803D01*
X206233Y87598D01*
X205216Y89119D01*
X203695Y90136D01*
X201900Y90493D01*
X200487Y90212D01*
X199601Y90869D01*
X199386Y91182D01*
X199450Y91504D01*
X199093Y93299D01*
X198076Y94821D01*
X196554Y95837D01*
X194760Y96194D01*
D02*
G37*
G36*
X193620Y77068D02*
X192689Y76883D01*
X190823Y75637D01*
X189577Y73771D01*
X189574Y73758D01*
X188518Y73053D01*
X187828Y73190D01*
X186033Y72833D01*
X184512Y71816D01*
X183495Y70295D01*
X183138Y68500D01*
X183495Y66705D01*
X184512Y65184D01*
X186033Y64167D01*
X187828Y63810D01*
X189623Y64167D01*
X191145Y65184D01*
X192117Y66639D01*
X192689Y66258D01*
X193620Y66073D01*
Y71570D01*
Y77068D01*
D02*
G37*
G36*
X243332Y82139D02*
X241537Y81782D01*
X240016Y80765D01*
X238999Y79244D01*
X238642Y77449D01*
X238999Y75654D01*
X240016Y74132D01*
X241537Y73116D01*
X243332Y72759D01*
X245127Y73116D01*
X246649Y74132D01*
X247665Y75654D01*
X248022Y77449D01*
X247665Y79244D01*
X246649Y80765D01*
X245127Y81782D01*
X243332Y82139D01*
D02*
G37*
G36*
X278442Y74722D02*
X274215D01*
Y70494D01*
X275145Y70679D01*
X277011Y71926D01*
X278257Y73791D01*
X278442Y74722D01*
D02*
G37*
G36*
X271675D02*
X267447D01*
X267632Y73791D01*
X268878Y71926D01*
X270744Y70679D01*
X271675Y70494D01*
Y74722D01*
D02*
G37*
G36*
X103166Y84867D02*
X101371Y84510D01*
X99849Y83494D01*
X98833Y81972D01*
X98476Y80177D01*
X98833Y78383D01*
X99849Y76861D01*
X101371Y75844D01*
X101593Y75800D01*
X102490Y74407D01*
X102310Y73500D01*
X102667Y71705D01*
X103684Y70184D01*
X105205Y69167D01*
X107000Y68810D01*
X108795Y69167D01*
X110316Y70184D01*
X111333Y71705D01*
X111690Y73500D01*
X111333Y75295D01*
X110316Y76816D01*
X108795Y77833D01*
X108572Y77877D01*
X107675Y79270D01*
X107856Y80177D01*
X107499Y81972D01*
X106482Y83494D01*
X104960Y84510D01*
X103166Y84867D01*
D02*
G37*
G36*
X177714Y76734D02*
X175919Y76377D01*
X174397Y75360D01*
X173380Y73839D01*
X173023Y72044D01*
X173212Y71094D01*
X172381Y69634D01*
X172249Y69608D01*
X170728Y68591D01*
X169711Y67069D01*
X169449Y65751D01*
X169028Y65577D01*
X167233Y65934D01*
X166142Y65717D01*
X165044Y66630D01*
X165021Y66690D01*
X164674Y68435D01*
X163657Y69957D01*
X162136Y70974D01*
X160341Y71331D01*
X158546Y70974D01*
X157025Y69957D01*
X156008Y68435D01*
X155716Y66970D01*
X155580Y66764D01*
X154942Y66701D01*
X153831Y67625D01*
X153474Y69420D01*
X152457Y70941D01*
X150936Y71958D01*
X149141Y72315D01*
X147346Y71958D01*
X145825Y70941D01*
X144808Y69420D01*
X144451Y67625D01*
X143365Y66573D01*
X141961Y66294D01*
X141081Y65706D01*
X139434Y65884D01*
X139230Y66191D01*
X137708Y67207D01*
X135913Y67564D01*
X134119Y67207D01*
X132597Y66191D01*
X131580Y64669D01*
X131325Y63385D01*
X130435Y62592D01*
X129428Y62697D01*
X128778Y63887D01*
X129143Y64432D01*
X129500Y66227D01*
X129143Y68021D01*
X128126Y69543D01*
X126604Y70560D01*
X124810Y70917D01*
X123015Y70560D01*
X121493Y69543D01*
X120476Y68021D01*
X120119Y66227D01*
X120476Y64432D01*
X121493Y62910D01*
X123015Y61893D01*
X124810Y61536D01*
X125154Y61605D01*
X125918Y60462D01*
X125296Y59532D01*
X124939Y57737D01*
X125296Y55942D01*
X126313Y54421D01*
X127835Y53404D01*
X129629Y53047D01*
X131424Y53404D01*
X132946Y54421D01*
X133962Y55942D01*
X134218Y57226D01*
X135407Y58285D01*
X135913Y58184D01*
X137708Y58541D01*
X138588Y59129D01*
X140235Y58950D01*
X140440Y58644D01*
X141961Y57628D01*
X143756Y57270D01*
X145551Y57628D01*
X147072Y58644D01*
X148089Y60166D01*
X148446Y61961D01*
X149413Y62898D01*
X150416Y61894D01*
X150266Y61136D01*
X150623Y59341D01*
X151639Y57820D01*
X153161Y56803D01*
X154956Y56446D01*
X156751Y56803D01*
X158272Y57820D01*
X159289Y59341D01*
X159580Y60807D01*
X160273Y61849D01*
X161559Y62062D01*
X162530Y61254D01*
X162553Y61194D01*
X162900Y59449D01*
X163917Y57927D01*
X165438Y56911D01*
X167233Y56554D01*
X169028Y56911D01*
X170549Y57927D01*
X171566Y59449D01*
X171828Y60767D01*
X172249Y60941D01*
X174044Y60584D01*
X175839Y60941D01*
X177360Y61958D01*
X178377Y63480D01*
X178734Y65275D01*
X178545Y66224D01*
X179377Y67685D01*
X179508Y67711D01*
X181030Y68727D01*
X182047Y70249D01*
X182404Y72044D01*
X182047Y73839D01*
X181030Y75360D01*
X179508Y76377D01*
X177714Y76734D01*
D02*
G37*
G36*
X276763Y69443D02*
X274969Y69086D01*
X273447Y68070D01*
X272430Y66548D01*
X272073Y64753D01*
X272430Y62958D01*
X273447Y61437D01*
X274969Y60420D01*
X276763Y60063D01*
X278558Y60420D01*
X280080Y61437D01*
X281097Y62958D01*
X281454Y64753D01*
X281097Y66548D01*
X280080Y68070D01*
X278558Y69086D01*
X276763Y69443D01*
D02*
G37*
G36*
X265500Y66690D02*
X263705Y66333D01*
X262184Y65316D01*
X261167Y63795D01*
X260810Y62000D01*
X261030Y60892D01*
X261074Y60145D01*
X260108Y59512D01*
X259881Y59467D01*
X258815Y60372D01*
X258780Y60444D01*
X258990Y61500D01*
X258633Y63295D01*
X257616Y64816D01*
X256095Y65833D01*
X254300Y66190D01*
X252505Y65833D01*
X250984Y64816D01*
X249967Y63295D01*
X249610Y61500D01*
X249967Y59705D01*
X250984Y58184D01*
X252505Y57167D01*
X254300Y56810D01*
X255519Y57052D01*
X256585Y56147D01*
X256620Y56075D01*
X256410Y55019D01*
X256767Y53225D01*
X257784Y51703D01*
X259305Y50686D01*
X261100Y50329D01*
X262895Y50686D01*
X264416Y51703D01*
X265437Y51031D01*
X265252Y50100D01*
X269480D01*
Y54328D01*
X268549Y54143D01*
X266684Y52897D01*
X266514Y52642D01*
X265433Y53225D01*
X265790Y55019D01*
X265570Y56127D01*
X265526Y56875D01*
X266492Y57507D01*
X267295Y57667D01*
X268816Y58684D01*
X269833Y60205D01*
X270190Y62000D01*
X269833Y63795D01*
X268816Y65316D01*
X267295Y66333D01*
X265500Y66690D01*
D02*
G37*
G36*
X244271Y60499D02*
Y56271D01*
X248499D01*
X248314Y57202D01*
X247068Y59068D01*
X245202Y60314D01*
X244271Y60499D01*
D02*
G37*
G36*
X241731D02*
X240801Y60314D01*
X238935Y59068D01*
X237689Y57202D01*
X237503Y56271D01*
X241731D01*
Y60499D01*
D02*
G37*
G36*
X115020Y57998D02*
Y53770D01*
X119248D01*
X119063Y54701D01*
X117816Y56566D01*
X115951Y57813D01*
X115020Y57998D01*
D02*
G37*
G36*
X112480D02*
X111549Y57813D01*
X109684Y56566D01*
X108437Y54701D01*
X108252Y53770D01*
X112480D01*
Y57998D01*
D02*
G37*
G36*
X272020Y54328D02*
Y50100D01*
X276248D01*
X276063Y51031D01*
X274816Y52897D01*
X272951Y54143D01*
X272020Y54328D01*
D02*
G37*
G36*
X248499Y53731D02*
X244271D01*
Y49503D01*
X245202Y49689D01*
X247068Y50935D01*
X248314Y52801D01*
X248499Y53731D01*
D02*
G37*
G36*
X241731D02*
X237503D01*
X237689Y52801D01*
X238935Y50935D01*
X240801Y49689D01*
X241731Y49503D01*
Y53731D01*
D02*
G37*
G36*
X359771Y53499D02*
Y49271D01*
X363999D01*
X363814Y50202D01*
X362568Y52067D01*
X360702Y53314D01*
X359771Y53499D01*
D02*
G37*
G36*
X357231D02*
X356301Y53314D01*
X354435Y52067D01*
X353189Y50202D01*
X353004Y49271D01*
X357231D01*
Y53499D01*
D02*
G37*
G36*
X119248Y51230D02*
X115020D01*
Y47002D01*
X115951Y47187D01*
X117816Y48434D01*
X119063Y50299D01*
X119248Y51230D01*
D02*
G37*
G36*
X112480D02*
X108252D01*
X108437Y50299D01*
X109684Y48434D01*
X111549Y47187D01*
X112480Y47002D01*
Y51230D01*
D02*
G37*
G36*
X276248Y47560D02*
X272020D01*
Y43333D01*
X272951Y43518D01*
X274816Y44764D01*
X276063Y46630D01*
X276248Y47560D01*
D02*
G37*
G36*
X269480D02*
X265252D01*
X265437Y46630D01*
X266684Y44764D01*
X268549Y43518D01*
X269480Y43333D01*
Y47560D01*
D02*
G37*
G36*
X363999Y46731D02*
X359771D01*
Y42503D01*
X360702Y42689D01*
X362568Y43935D01*
X363814Y45801D01*
X363999Y46731D01*
D02*
G37*
G36*
X357231D02*
X353004D01*
X353189Y45801D01*
X354435Y43935D01*
X356301Y42689D01*
X357231Y42503D01*
Y46731D01*
D02*
G37*
G36*
X280503Y42631D02*
Y38403D01*
X284731D01*
X284546Y39334D01*
X283300Y41199D01*
X281434Y42446D01*
X280503Y42631D01*
D02*
G37*
G36*
X277963D02*
X277033Y42446D01*
X275167Y41199D01*
X273920Y39334D01*
X273735Y38403D01*
X277963D01*
Y42631D01*
D02*
G37*
G36*
X186670Y42398D02*
Y38170D01*
X190898D01*
X190713Y39101D01*
X189466Y40966D01*
X187601Y42213D01*
X186670Y42398D01*
D02*
G37*
G36*
X184130D02*
X183199Y42213D01*
X181334Y40966D01*
X180087Y39101D01*
X179902Y38170D01*
X184130D01*
Y42398D01*
D02*
G37*
G36*
X205771Y39499D02*
Y35271D01*
X209999D01*
X209814Y36202D01*
X208568Y38068D01*
X206702Y39314D01*
X205771Y39499D01*
D02*
G37*
G36*
X203231D02*
X202301Y39314D01*
X200435Y38068D01*
X199188Y36202D01*
X199003Y35271D01*
X203231D01*
Y39499D01*
D02*
G37*
G36*
X284731Y35863D02*
X280503D01*
Y31635D01*
X281434Y31820D01*
X283300Y33067D01*
X284546Y34933D01*
X284731Y35863D01*
D02*
G37*
G36*
X277963D02*
X273735D01*
X273920Y34933D01*
X275167Y33067D01*
X277033Y31820D01*
X277963Y31635D01*
Y35863D01*
D02*
G37*
G36*
X190898Y35630D02*
X186670D01*
Y31402D01*
X187601Y31587D01*
X189466Y32834D01*
X190713Y34699D01*
X190898Y35630D01*
D02*
G37*
G36*
X184130D02*
X179902D01*
X180087Y34699D01*
X181334Y32834D01*
X183199Y31587D01*
X184130Y31402D01*
Y35630D01*
D02*
G37*
G36*
X243500Y47825D02*
X241216Y47525D01*
X239087Y46643D01*
X237259Y45241D01*
X235857Y43413D01*
X234975Y41284D01*
X234674Y39000D01*
X234975Y36716D01*
X235857Y34587D01*
X237259Y32759D01*
X239087Y31357D01*
X241216Y30475D01*
X243500Y30175D01*
X245784Y30475D01*
X247913Y31357D01*
X249741Y32759D01*
X251143Y34587D01*
X252025Y36716D01*
X252325Y39000D01*
X252025Y41284D01*
X251143Y43413D01*
X249741Y45241D01*
X247913Y46643D01*
X245784Y47525D01*
X243500Y47825D01*
D02*
G37*
G36*
X123500D02*
X121216Y47525D01*
X119087Y46643D01*
X117259Y45241D01*
X115857Y43413D01*
X114975Y41284D01*
X114675Y39000D01*
X114975Y36716D01*
X115857Y34587D01*
X117259Y32759D01*
X119087Y31357D01*
X121216Y30475D01*
X123500Y30175D01*
X125784Y30475D01*
X127913Y31357D01*
X129741Y32759D01*
X131143Y34587D01*
X132025Y36716D01*
X132325Y39000D01*
X132025Y41284D01*
X131143Y43413D01*
X129741Y45241D01*
X127913Y46643D01*
X125784Y47525D01*
X123500Y47825D01*
D02*
G37*
G36*
X209999Y32731D02*
X205771D01*
Y28503D01*
X206702Y28688D01*
X208568Y29935D01*
X209814Y31801D01*
X209999Y32731D01*
D02*
G37*
G36*
X203231D02*
X199003D01*
X199188Y31801D01*
X200435Y29935D01*
X202301Y28688D01*
X203231Y28503D01*
Y32731D01*
D02*
G37*
G36*
X105067Y44154D02*
X103272Y43797D01*
X101750Y42780D01*
X100734Y41259D01*
X100377Y39464D01*
X100734Y37669D01*
X101750Y36147D01*
X103245Y35149D01*
X103532Y34930D01*
X103950Y33919D01*
X103667Y33495D01*
X103310Y31700D01*
X103667Y29905D01*
X104684Y28384D01*
X106205Y27367D01*
X108000Y27010D01*
X109795Y27367D01*
X111316Y28384D01*
X112333Y29905D01*
X112690Y31700D01*
X112333Y33495D01*
X111316Y35016D01*
X109822Y36015D01*
X109535Y36233D01*
X109116Y37245D01*
X109400Y37669D01*
X109757Y39464D01*
X109400Y41259D01*
X108383Y42780D01*
X106861Y43797D01*
X105067Y44154D01*
D02*
G37*
G36*
X139750Y33890D02*
X137955Y33533D01*
X136434Y32516D01*
X135417Y30995D01*
X135060Y29200D01*
X135417Y27405D01*
X136434Y25884D01*
X137955Y24867D01*
X139750Y24510D01*
X141545Y24867D01*
X143066Y25884D01*
X144083Y27405D01*
X144440Y29200D01*
X144083Y30995D01*
X143066Y32516D01*
X141545Y33533D01*
X139750Y33890D01*
D02*
G37*
G36*
X213750Y31540D02*
X211955Y31183D01*
X210434Y30166D01*
X209417Y28645D01*
X209060Y26850D01*
X209417Y25055D01*
X210434Y23534D01*
X211955Y22517D01*
X213750Y22160D01*
X215545Y22517D01*
X217066Y23534D01*
X218083Y25055D01*
X218440Y26850D01*
X218083Y28645D01*
X217066Y30166D01*
X215545Y31183D01*
X213750Y31540D01*
D02*
G37*
G36*
X247771Y25499D02*
Y21271D01*
X251999D01*
X251814Y22202D01*
X250567Y24067D01*
X248702Y25314D01*
X247771Y25499D01*
D02*
G37*
G36*
X167031Y28790D02*
X165236Y28433D01*
X163714Y27416D01*
X162698Y25895D01*
X162341Y24100D01*
X162698Y22305D01*
X163714Y20784D01*
X165236Y19767D01*
X167031Y19410D01*
X168826Y19767D01*
X170347Y20784D01*
X171364Y22305D01*
X171721Y24100D01*
X171364Y25895D01*
X170347Y27416D01*
X168826Y28433D01*
X167031Y28790D01*
D02*
G37*
G36*
X264400Y28525D02*
X262605Y28168D01*
X261084Y27151D01*
X260067Y25630D01*
X259710Y23835D01*
X260067Y22040D01*
X261084Y20519D01*
X262605Y19502D01*
X264400Y19145D01*
X266195Y19502D01*
X267717Y20519D01*
X268733Y22040D01*
X269090Y23835D01*
X268733Y25630D01*
X267717Y27151D01*
X266195Y28168D01*
X264400Y28525D01*
D02*
G37*
G36*
X292270Y22898D02*
Y18670D01*
X296498D01*
X296313Y19601D01*
X295066Y21466D01*
X293201Y22713D01*
X292270Y22898D01*
D02*
G37*
G36*
X289730D02*
X288799Y22713D01*
X286934Y21466D01*
X285687Y19601D01*
X285502Y18670D01*
X289730D01*
Y22898D01*
D02*
G37*
G36*
X370770Y22748D02*
Y18520D01*
X374998D01*
X374813Y19451D01*
X373566Y21316D01*
X371701Y22563D01*
X370770Y22748D01*
D02*
G37*
G36*
X368230D02*
X367299Y22563D01*
X365434Y21316D01*
X364187Y19451D01*
X364002Y18520D01*
X368230D01*
Y22748D01*
D02*
G37*
G36*
X352270Y22248D02*
Y18020D01*
X356498D01*
X356313Y18951D01*
X355066Y20816D01*
X353201Y22063D01*
X352270Y22248D01*
D02*
G37*
G36*
X349730D02*
X348799Y22063D01*
X346934Y20816D01*
X345687Y18951D01*
X345552Y18271D01*
X344141Y17687D01*
X343202Y18314D01*
X342271Y18499D01*
Y13001D01*
Y7503D01*
X343202Y7689D01*
X345068Y8935D01*
X346314Y10801D01*
X346449Y11480D01*
X347860Y12065D01*
X348799Y11437D01*
X349730Y11252D01*
Y16750D01*
Y22248D01*
D02*
G37*
G36*
X106250Y25190D02*
X104455Y24833D01*
X102934Y23816D01*
X101917Y22295D01*
X101560Y20500D01*
X101917Y18705D01*
X102934Y17184D01*
X104455Y16167D01*
X106250Y15810D01*
X108045Y16167D01*
X109566Y17184D01*
X110583Y18705D01*
X110940Y20500D01*
X110583Y22295D01*
X109566Y23816D01*
X108045Y24833D01*
X106250Y25190D01*
D02*
G37*
G36*
X339731Y18499D02*
X338801Y18314D01*
X336935Y17068D01*
X335689Y15202D01*
X335504Y14271D01*
X339731D01*
Y18499D01*
D02*
G37*
G36*
X307271D02*
Y14271D01*
X311499D01*
X311314Y15202D01*
X310068Y17068D01*
X308202Y18314D01*
X307271Y18499D01*
D02*
G37*
G36*
X304731D02*
X303801Y18314D01*
X301935Y17068D01*
X300689Y15202D01*
X300504Y14271D01*
X304731D01*
Y18499D01*
D02*
G37*
G36*
X127750Y22690D02*
X125955Y22333D01*
X124434Y21316D01*
X123417Y19795D01*
X123060Y18000D01*
X123417Y16205D01*
X124434Y14684D01*
X125955Y13667D01*
X127750Y13310D01*
X129545Y13667D01*
X131066Y14684D01*
X132083Y16205D01*
X132440Y18000D01*
X132083Y19795D01*
X131066Y21316D01*
X129545Y22333D01*
X127750Y22690D01*
D02*
G37*
G36*
X296498Y16130D02*
X292270D01*
Y11902D01*
X293201Y12087D01*
X295066Y13334D01*
X296313Y15199D01*
X296498Y16130D01*
D02*
G37*
G36*
X289730D02*
X285502D01*
X285687Y15199D01*
X286934Y13334D01*
X288799Y12087D01*
X289730Y11902D01*
Y16130D01*
D02*
G37*
G36*
X374998Y15980D02*
X370770D01*
Y11752D01*
X371701Y11937D01*
X373566Y13184D01*
X374813Y15049D01*
X374998Y15980D01*
D02*
G37*
G36*
X368230D02*
X364002D01*
X364187Y15049D01*
X365434Y13184D01*
X367299Y11937D01*
X368230Y11752D01*
Y15980D01*
D02*
G37*
G36*
X356498Y15480D02*
X352270D01*
Y11252D01*
X353201Y11437D01*
X355066Y12684D01*
X356313Y14549D01*
X356498Y15480D01*
D02*
G37*
G36*
X97730Y16442D02*
X96901Y16333D01*
X94945Y15523D01*
X93266Y14234D01*
X91977Y12555D01*
X91167Y10599D01*
X91058Y9770D01*
X97730D01*
Y16442D01*
D02*
G37*
G36*
X112350Y13078D02*
Y8850D01*
X116578D01*
X116393Y9781D01*
X115146Y11647D01*
X113281Y12893D01*
X112350Y13078D01*
D02*
G37*
G36*
X339731Y11731D02*
X335504D01*
X335689Y10801D01*
X336935Y8935D01*
X338801Y7689D01*
X339731Y7503D01*
Y11731D01*
D02*
G37*
G36*
X311499D02*
X307271D01*
Y7503D01*
X308202Y7689D01*
X310068Y8935D01*
X311314Y10801D01*
X311499Y11731D01*
D02*
G37*
G36*
X304731D02*
X300504D01*
X300689Y10801D01*
X301935Y8935D01*
X303801Y7689D01*
X304731Y7503D01*
Y11731D01*
D02*
G37*
G36*
X255499D02*
X251271D01*
Y7503D01*
X252202Y7689D01*
X254067Y8935D01*
X255314Y10801D01*
X255499Y11731D01*
D02*
G37*
G36*
X248731D02*
X244503D01*
X244689Y10801D01*
X245935Y8935D01*
X247801Y7689D01*
X248731Y7503D01*
Y11731D01*
D02*
G37*
G36*
X189271Y235499D02*
Y231271D01*
X193499D01*
X193314Y232202D01*
X192067Y234067D01*
X190201Y235314D01*
X189271Y235499D01*
D02*
G37*
G36*
X193499Y228731D02*
X189271D01*
Y224503D01*
X190201Y224688D01*
X192067Y225935D01*
X193314Y227801D01*
X193499Y228731D01*
D02*
G37*
G36*
X240499Y226731D02*
X236271D01*
Y222503D01*
X237201Y222688D01*
X239067Y223935D01*
X240314Y225801D01*
X240499Y226731D01*
D02*
G37*
G36*
X415365Y225523D02*
Y221295D01*
X419593D01*
X419407Y222225D01*
X418161Y224091D01*
X416295Y225338D01*
X415365Y225523D01*
D02*
G37*
G36*
X385185Y225398D02*
Y221170D01*
X389413D01*
X389228Y222101D01*
X387981Y223966D01*
X386116Y225213D01*
X385185Y225398D01*
D02*
G37*
G36*
X382645D02*
X381714Y225213D01*
X379849Y223966D01*
X378602Y222101D01*
X378417Y221170D01*
X382645D01*
Y225398D01*
D02*
G37*
G36*
X412825Y225523D02*
X411894Y225338D01*
X410028Y224091D01*
X408782Y222225D01*
X408722Y221925D01*
X407233Y220950D01*
X406630Y221070D01*
X404835Y220713D01*
X403313Y219696D01*
X402297Y218174D01*
X401940Y216380D01*
X402297Y214585D01*
X402759Y213893D01*
X403434Y212816D01*
X402417Y211295D01*
X402060Y209500D01*
X402417Y207705D01*
X403434Y206184D01*
X404955Y205167D01*
X406750Y204810D01*
X408545Y205167D01*
X409404Y205741D01*
X410506Y205791D01*
X410970Y205376D01*
X411934Y203934D01*
X413799Y202687D01*
X414730Y202502D01*
Y208000D01*
X416000D01*
Y209270D01*
X421498D01*
X421313Y210201D01*
X420066Y212066D01*
X418201Y213313D01*
X416746Y213602D01*
X416735Y213629D01*
X416612Y214924D01*
X418161Y215959D01*
X419407Y217824D01*
X419593Y218755D01*
X414095D01*
Y220025D01*
X412825D01*
Y225523D01*
D02*
G37*
G36*
X318015Y238529D02*
X316220Y238172D01*
X314698Y237155D01*
X313682Y235634D01*
X313325Y233839D01*
X313682Y232044D01*
X314090Y231433D01*
X313613Y229861D01*
X313087Y229643D01*
X311259Y228241D01*
X309857Y226413D01*
X308975Y224284D01*
X308675Y222000D01*
X308975Y219716D01*
X309857Y217587D01*
X310016Y217380D01*
X309432Y216534D01*
X309204Y216352D01*
X307500Y216691D01*
X305705Y216334D01*
X304184Y215318D01*
X303167Y213796D01*
X302810Y212001D01*
X303167Y210206D01*
X304184Y208685D01*
X305705Y207668D01*
X307500Y207311D01*
X309295Y207668D01*
X310816Y208685D01*
X311833Y210206D01*
X312190Y212001D01*
X311851Y213704D01*
X312033Y213934D01*
X312879Y214517D01*
X313087Y214357D01*
X315216Y213475D01*
X317500Y213174D01*
X319784Y213475D01*
X321913Y214357D01*
X323741Y215759D01*
X325143Y217587D01*
X326025Y219716D01*
X326325Y222000D01*
X326025Y224284D01*
X325143Y226413D01*
X323741Y228241D01*
X322073Y229520D01*
X321897Y229757D01*
X321716Y231099D01*
X322348Y232044D01*
X322705Y233839D01*
X322348Y235634D01*
X321331Y237155D01*
X319809Y238172D01*
X318015Y238529D01*
D02*
G37*
G36*
X389413Y218630D02*
X385185D01*
Y214402D01*
X386116Y214587D01*
X387981Y215834D01*
X389228Y217699D01*
X389413Y218630D01*
D02*
G37*
G36*
X382645D02*
X378417D01*
X378602Y217699D01*
X379849Y215834D01*
X381714Y214587D01*
X382645Y214402D01*
Y218630D01*
D02*
G37*
G36*
X449731Y217499D02*
X448801Y217314D01*
X446935Y216067D01*
X445688Y214202D01*
X445503Y213271D01*
X449731D01*
Y217499D01*
D02*
G37*
G36*
X276270Y229500D02*
Y213270D01*
X292500D01*
X292286Y215438D01*
X291283Y218745D01*
X289655Y221792D01*
X287463Y224463D01*
X284792Y226654D01*
X281745Y228283D01*
X278438Y229286D01*
X276270Y229500D01*
D02*
G37*
G36*
X273730D02*
X271562Y229286D01*
X268255Y228283D01*
X265208Y226654D01*
X262537Y224463D01*
X260345Y221792D01*
X258717Y218745D01*
X257714Y215438D01*
X257500Y213270D01*
X273730D01*
Y229500D01*
D02*
G37*
G36*
X345911Y225306D02*
X344116Y224949D01*
X342594Y223933D01*
X341577Y222411D01*
X341221Y220616D01*
X341577Y218821D01*
X342594Y217300D01*
X344116Y216283D01*
X345911Y215926D01*
X347044Y216152D01*
X348142Y215164D01*
X348060Y214750D01*
X348417Y212955D01*
X349434Y211434D01*
X350955Y210417D01*
X352750Y210060D01*
X354545Y210417D01*
X356066Y211434D01*
X357083Y212955D01*
X357440Y214750D01*
X357083Y216545D01*
X356066Y218066D01*
X354545Y219083D01*
X352750Y219440D01*
X351617Y219215D01*
X350518Y220202D01*
X350601Y220616D01*
X350244Y222411D01*
X349227Y223933D01*
X347705Y224949D01*
X345911Y225306D01*
D02*
G37*
G36*
X395877Y212348D02*
Y208120D01*
X400105D01*
X399920Y209051D01*
X398673Y210916D01*
X396807Y212163D01*
X395877Y212348D01*
D02*
G37*
G36*
X393337D02*
X392406Y212163D01*
X390541Y210916D01*
X389294Y209051D01*
X389109Y208120D01*
X393337D01*
Y212348D01*
D02*
G37*
G36*
X421498Y206730D02*
X417270D01*
Y202502D01*
X418201Y202687D01*
X420066Y203934D01*
X421313Y205799D01*
X421498Y206730D01*
D02*
G37*
G36*
X400105Y205580D02*
X395877D01*
Y201352D01*
X396807Y201537D01*
X398673Y202784D01*
X399920Y204650D01*
X400105Y205580D01*
D02*
G37*
G36*
X449731Y194731D02*
X445503D01*
X445688Y193801D01*
X446935Y191935D01*
X448801Y190688D01*
X449731Y190503D01*
Y194731D01*
D02*
G37*
G36*
X398020Y186998D02*
Y182770D01*
X402248D01*
X402063Y183701D01*
X400816Y185566D01*
X398951Y186813D01*
X398020Y186998D01*
D02*
G37*
G36*
X402248Y180230D02*
X398020D01*
Y176002D01*
X398951Y176187D01*
X400816Y177434D01*
X402063Y179299D01*
X402248Y180230D01*
D02*
G37*
G36*
X420520Y177998D02*
Y173770D01*
X424748D01*
X424563Y174701D01*
X423316Y176566D01*
X421451Y177813D01*
X420520Y177998D01*
D02*
G37*
G36*
X434600Y177690D02*
X432805Y177333D01*
X431284Y176316D01*
X430267Y174795D01*
X429910Y173000D01*
X430267Y171205D01*
X431284Y169684D01*
X432805Y168667D01*
X434600Y168310D01*
X436395Y168667D01*
X437916Y169684D01*
X438933Y171205D01*
X439290Y173000D01*
X438933Y174795D01*
X437916Y176316D01*
X436395Y177333D01*
X434600Y177690D01*
D02*
G37*
G36*
X424748Y171230D02*
X420520D01*
Y167002D01*
X421451Y167187D01*
X423316Y168434D01*
X424563Y170299D01*
X424748Y171230D01*
D02*
G37*
G36*
X411605Y180085D02*
X409810Y179728D01*
X408289Y178711D01*
X407272Y177190D01*
X406915Y175395D01*
X407272Y173600D01*
X408289Y172078D01*
X409810Y171062D01*
X411605Y170705D01*
X412525Y170888D01*
X413937Y170299D01*
X415184Y168434D01*
X417049Y167187D01*
X417980Y167002D01*
Y172500D01*
Y177998D01*
X417049Y177813D01*
X417015Y177790D01*
X415288Y178163D01*
X414921Y178711D01*
X413400Y179728D01*
X411605Y180085D01*
D02*
G37*
G36*
X445250Y166940D02*
X443455Y166583D01*
X441934Y165566D01*
X440917Y164045D01*
X440560Y162250D01*
X440917Y160455D01*
X441934Y158934D01*
X443455Y157917D01*
X445250Y157560D01*
X447045Y157917D01*
X448566Y158934D01*
X449583Y160455D01*
X449940Y162250D01*
X449583Y164045D01*
X448566Y165566D01*
X447045Y166583D01*
X445250Y166940D01*
D02*
G37*
G36*
X436520Y161498D02*
Y157270D01*
X440748D01*
X440563Y158201D01*
X439316Y160066D01*
X437451Y161313D01*
X436520Y161498D01*
D02*
G37*
G36*
X433980D02*
X433049Y161313D01*
X431184Y160066D01*
X429937Y158201D01*
X429752Y157270D01*
X433980D01*
Y161498D01*
D02*
G37*
G36*
X390790Y155348D02*
Y151120D01*
X395018D01*
X394833Y152051D01*
X393587Y153916D01*
X391721Y155163D01*
X390790Y155348D01*
D02*
G37*
G36*
X388250D02*
X387320Y155163D01*
X385454Y153916D01*
X384208Y152051D01*
X384022Y151120D01*
X388250D01*
Y155348D01*
D02*
G37*
G36*
X440748Y154730D02*
X436520D01*
Y150502D01*
X437451Y150687D01*
X439316Y151934D01*
X440563Y153799D01*
X440748Y154730D01*
D02*
G37*
G36*
X433980D02*
X429752D01*
X429937Y153799D01*
X431184Y151934D01*
X433049Y150687D01*
X433980Y150502D01*
Y154730D01*
D02*
G37*
G36*
X395018Y148580D02*
X390790D01*
Y144352D01*
X391721Y144537D01*
X393587Y145784D01*
X394833Y147649D01*
X395018Y148580D01*
D02*
G37*
G36*
X388250D02*
X384022D01*
X384208Y147649D01*
X385454Y145784D01*
X387320Y144537D01*
X388250Y144352D01*
Y148580D01*
D02*
G37*
G36*
X438411Y147690D02*
X436616Y147333D01*
X435094Y146316D01*
X434078Y144795D01*
X433721Y143000D01*
X434078Y141205D01*
X435094Y139684D01*
X436616Y138667D01*
X438411Y138310D01*
X440205Y138667D01*
X441727Y139684D01*
X442744Y141205D01*
X443101Y143000D01*
X442744Y144795D01*
X441727Y146316D01*
X440205Y147333D01*
X438411Y147690D01*
D02*
G37*
G36*
X439681Y130498D02*
Y126270D01*
X443909D01*
X443723Y127201D01*
X442477Y129066D01*
X440611Y130313D01*
X439681Y130498D01*
D02*
G37*
G36*
X437141D02*
X436210Y130313D01*
X434344Y129066D01*
X433098Y127201D01*
X432913Y126270D01*
X437141D01*
Y130498D01*
D02*
G37*
G36*
X443909Y123730D02*
X439681D01*
Y119502D01*
X440611Y119687D01*
X442477Y120934D01*
X443723Y122799D01*
X443909Y123730D01*
D02*
G37*
G36*
X437141D02*
X432913D01*
X433098Y122799D01*
X434344Y120934D01*
X436210Y119687D01*
X437141Y119502D01*
Y123730D01*
D02*
G37*
G36*
X400770Y119367D02*
Y115139D01*
X404998D01*
X404813Y116070D01*
X403566Y117935D01*
X401701Y119182D01*
X400770Y119367D01*
D02*
G37*
G36*
X398230D02*
X397299Y119182D01*
X395434Y117935D01*
X394187Y116070D01*
X394002Y115139D01*
X398230D01*
Y119367D01*
D02*
G37*
G36*
X386989Y118249D02*
Y114021D01*
X391217D01*
X391032Y114952D01*
X389785Y116818D01*
X387919Y118064D01*
X386989Y118249D01*
D02*
G37*
G36*
X384449D02*
X383518Y118064D01*
X381653Y116818D01*
X380406Y114952D01*
X380213Y113980D01*
X378735Y113059D01*
X378000Y113205D01*
X376205Y112848D01*
X374684Y111832D01*
X373667Y110310D01*
X373310Y108515D01*
X373667Y106720D01*
X374684Y105199D01*
X376205Y104182D01*
X378000Y103825D01*
X379795Y104182D01*
X381316Y105199D01*
X382325Y106708D01*
X382562Y107042D01*
X383518Y107439D01*
X384449Y107254D01*
Y112751D01*
Y118249D01*
D02*
G37*
G36*
X424271Y113499D02*
Y109271D01*
X428499D01*
X428314Y110202D01*
X427067Y112067D01*
X425202Y113314D01*
X424271Y113499D01*
D02*
G37*
G36*
X421731D02*
X420801Y113314D01*
X418935Y112067D01*
X417688Y110202D01*
X417503Y109271D01*
X421731D01*
Y113499D01*
D02*
G37*
G36*
X404998Y112599D02*
X400770D01*
Y108371D01*
X401701Y108556D01*
X403566Y109803D01*
X404813Y111668D01*
X404998Y112599D01*
D02*
G37*
G36*
X398230D02*
X394002D01*
X394187Y111668D01*
X395434Y109803D01*
X397299Y108556D01*
X398230Y108371D01*
Y112599D01*
D02*
G37*
G36*
X391217Y111481D02*
X386989D01*
Y107254D01*
X387919Y107439D01*
X389785Y108685D01*
X391032Y110551D01*
X391217Y111481D01*
D02*
G37*
G36*
X443682Y110176D02*
Y105948D01*
X447910D01*
X447725Y106879D01*
X446478Y108744D01*
X444613Y109991D01*
X443682Y110176D01*
D02*
G37*
G36*
X441142D02*
X440211Y109991D01*
X438346Y108744D01*
X437099Y106879D01*
X436914Y105948D01*
X441142D01*
Y110176D01*
D02*
G37*
G36*
X428499Y106731D02*
X424271D01*
Y102503D01*
X425202Y102688D01*
X427067Y103935D01*
X428314Y105800D01*
X428499Y106731D01*
D02*
G37*
G36*
X421731D02*
X417503D01*
X417688Y105800D01*
X418935Y103935D01*
X420801Y102688D01*
X421731Y102503D01*
Y106731D01*
D02*
G37*
G36*
X447910Y103408D02*
X443682D01*
Y99180D01*
X444613Y99365D01*
X446478Y100612D01*
X447725Y102478D01*
X447910Y103408D01*
D02*
G37*
G36*
X441142D02*
X436914D01*
X437099Y102478D01*
X438346Y100612D01*
X440211Y99365D01*
X441142Y99180D01*
Y103408D01*
D02*
G37*
G36*
X367180Y102508D02*
X362952D01*
Y98280D01*
X363883Y98465D01*
X365748Y99712D01*
X366995Y101577D01*
X367180Y102508D01*
D02*
G37*
G36*
X380696Y98741D02*
Y94513D01*
X384924D01*
X384739Y95444D01*
X383493Y97309D01*
X381627Y98556D01*
X380696Y98741D01*
D02*
G37*
G36*
X378157D02*
X377226Y98556D01*
X375360Y97309D01*
X374114Y95444D01*
X373929Y94513D01*
X378157D01*
Y98741D01*
D02*
G37*
G36*
Y91973D02*
X373929D01*
X374109Y91068D01*
X374047Y90981D01*
X373171Y90168D01*
X372025Y90933D01*
X370230Y91290D01*
X368436Y90933D01*
X366914Y89916D01*
X365897Y88395D01*
X365540Y86600D01*
X365897Y84805D01*
X366914Y83284D01*
X368436Y82267D01*
X370230Y81910D01*
X372025Y82267D01*
X373547Y83284D01*
X374564Y84805D01*
X374921Y86600D01*
X374603Y88199D01*
X375163Y88725D01*
X375642Y88989D01*
X377226Y87930D01*
X378157Y87745D01*
Y91973D01*
D02*
G37*
G36*
X446770Y93998D02*
Y89770D01*
X450998D01*
X450813Y90701D01*
X449566Y92566D01*
X447701Y93813D01*
X446770Y93998D01*
D02*
G37*
G36*
X444230D02*
X443299Y93813D01*
X441434Y92566D01*
X440187Y90701D01*
X440002Y89770D01*
X444230D01*
Y93998D01*
D02*
G37*
G36*
X384924Y91973D02*
X380696D01*
Y87745D01*
X381627Y87930D01*
X383493Y89177D01*
X384739Y91042D01*
X384924Y91973D01*
D02*
G37*
G36*
X353976Y84298D02*
Y80070D01*
X358204D01*
X358019Y81001D01*
X356772Y82866D01*
X354907Y84113D01*
X353976Y84298D01*
D02*
G37*
G36*
X351436D02*
X350506Y84113D01*
X348640Y82866D01*
X347393Y81001D01*
X347208Y80070D01*
X351436D01*
Y84298D01*
D02*
G37*
G36*
X330250Y83727D02*
Y79500D01*
X334477D01*
X334292Y80430D01*
X333046Y82296D01*
X331180Y83542D01*
X330250Y83727D01*
D02*
G37*
G36*
X327710D02*
X326779Y83542D01*
X324913Y82296D01*
X323667Y80430D01*
X323482Y79500D01*
X327710D01*
Y83727D01*
D02*
G37*
G36*
X450998Y87230D02*
X440002D01*
X440187Y86299D01*
X441434Y84434D01*
X443299Y83187D01*
X444003Y83047D01*
Y81752D01*
X443049Y81563D01*
X441184Y80316D01*
X439937Y78451D01*
X439752Y77520D01*
X450748D01*
X450563Y78451D01*
X449316Y80316D01*
X447451Y81563D01*
X446747Y81703D01*
Y82998D01*
X447701Y83187D01*
X449566Y84434D01*
X450813Y86299D01*
X450998Y87230D01*
D02*
G37*
G36*
X297813Y84048D02*
X296019Y83691D01*
X294497Y82674D01*
X293480Y81153D01*
X293123Y79358D01*
X293480Y77563D01*
X294497Y76041D01*
X296019Y75025D01*
X297813Y74668D01*
X299608Y75025D01*
X301130Y76041D01*
X302147Y77563D01*
X302504Y79358D01*
X302147Y81153D01*
X301130Y82674D01*
X299608Y83691D01*
X297813Y84048D01*
D02*
G37*
G36*
X358204Y77530D02*
X353976D01*
Y73302D01*
X354907Y73487D01*
X356772Y74734D01*
X358019Y76599D01*
X358204Y77530D01*
D02*
G37*
G36*
X351436D02*
X347208D01*
X347393Y76599D01*
X348640Y74734D01*
X350506Y73487D01*
X351436Y73302D01*
Y77530D01*
D02*
G37*
G36*
X327710Y76960D02*
X323482D01*
X323667Y76029D01*
X324913Y74163D01*
X326779Y72917D01*
X327710Y72732D01*
Y76960D01*
D02*
G37*
G36*
X450748Y74980D02*
X446520D01*
Y70752D01*
X447451Y70937D01*
X449316Y72184D01*
X450563Y74049D01*
X450748Y74980D01*
D02*
G37*
G36*
X443980D02*
X439752D01*
X439937Y74049D01*
X441184Y72184D01*
X443049Y70937D01*
X443980Y70752D01*
Y74980D01*
D02*
G37*
G36*
X367422Y74373D02*
Y70145D01*
X371650D01*
X371465Y71076D01*
X370219Y72941D01*
X368353Y74188D01*
X367422Y74373D01*
D02*
G37*
G36*
X364882D02*
X363952Y74188D01*
X362086Y72941D01*
X360840Y71076D01*
X360654Y70145D01*
X364882D01*
Y74373D01*
D02*
G37*
G36*
X311441Y76886D02*
X309646Y76529D01*
X308124Y75512D01*
X307107Y73991D01*
X306750Y72196D01*
X307107Y70401D01*
X308124Y68880D01*
X309646Y67863D01*
X311441Y67506D01*
X313235Y67863D01*
X314757Y68880D01*
X315774Y70401D01*
X316131Y72196D01*
X315774Y73991D01*
X314757Y75512D01*
X313235Y76529D01*
X311441Y76886D01*
D02*
G37*
G36*
X391540Y62809D02*
Y58581D01*
X395768D01*
X395583Y59511D01*
X394336Y61377D01*
X392471Y62624D01*
X391540Y62809D01*
D02*
G37*
G36*
X389000D02*
X388069Y62624D01*
X386204Y61377D01*
X384957Y59511D01*
X384772Y58581D01*
X389000D01*
Y62809D01*
D02*
G37*
G36*
X449731Y57499D02*
X448801Y57314D01*
X446935Y56067D01*
X445688Y54202D01*
X445503Y53271D01*
X449731D01*
Y57499D01*
D02*
G37*
G36*
X395768Y56041D02*
X391540D01*
Y51813D01*
X392471Y51998D01*
X394336Y53245D01*
X395583Y55110D01*
X395768Y56041D01*
D02*
G37*
G36*
X389000D02*
X384772D01*
X384957Y55110D01*
X386204Y53245D01*
X388069Y51998D01*
X389000Y51813D01*
Y56041D01*
D02*
G37*
G36*
X449731Y50731D02*
X445503D01*
X445688Y49800D01*
X446935Y47935D01*
X448801Y46688D01*
X449731Y46503D01*
Y50731D01*
D02*
G37*
G36*
X426270Y49500D02*
Y33270D01*
X442500D01*
X442286Y35438D01*
X441283Y38745D01*
X439655Y41792D01*
X437463Y44463D01*
X434792Y46655D01*
X431745Y48283D01*
X428438Y49286D01*
X426270Y49500D01*
D02*
G37*
G36*
X423730D02*
X421562Y49286D01*
X418255Y48283D01*
X415208Y46655D01*
X412537Y44463D01*
X410345Y41792D01*
X408717Y38745D01*
X407714Y35438D01*
X407500Y33270D01*
X423730D01*
Y49500D01*
D02*
G37*
G36*
X386250Y35440D02*
X384455Y35083D01*
X382934Y34066D01*
X381917Y32545D01*
X381560Y30750D01*
X381917Y28955D01*
X382934Y27434D01*
X384455Y26417D01*
X386250Y26060D01*
X388045Y26417D01*
X389566Y27434D01*
X390583Y28955D01*
X390940Y30750D01*
X390583Y32545D01*
X389566Y34066D01*
X388045Y35083D01*
X386250Y35440D01*
D02*
G37*
G36*
X442500Y30730D02*
X426270D01*
Y14500D01*
X428438Y14714D01*
X431745Y15717D01*
X434792Y17345D01*
X437463Y19537D01*
X439655Y22208D01*
X441283Y25255D01*
X442286Y28561D01*
X442500Y30730D01*
D02*
G37*
G36*
X423730D02*
X407500D01*
X407714Y28561D01*
X408717Y25255D01*
X410345Y22208D01*
X412537Y19537D01*
X415208Y17345D01*
X418255Y15717D01*
X421562Y14714D01*
X423730Y14500D01*
Y30730D01*
D02*
G37*
G36*
X400271Y17499D02*
Y13271D01*
X404499D01*
X404314Y14202D01*
X403067Y16067D01*
X401202Y17314D01*
X400271Y17499D01*
D02*
G37*
G36*
X397731D02*
X396800Y17314D01*
X394935Y16067D01*
X393688Y14202D01*
X393503Y13271D01*
X397731D01*
Y17499D01*
D02*
G37*
G36*
X404499Y10731D02*
X400271D01*
Y6503D01*
X401202Y6688D01*
X403067Y7935D01*
X404314Y9800D01*
X404499Y10731D01*
D02*
G37*
G36*
X397731D02*
X393503D01*
X393688Y9800D01*
X394935Y7935D01*
X396800Y6688D01*
X397731Y6503D01*
Y10731D01*
D02*
G37*
%LPD*%
D13*
X118479Y136973D02*
X122894Y141388D01*
X117373Y136973D02*
X118479D01*
X122894Y141388D02*
X124308D01*
X131950Y149031D02*
Y160701D01*
X124308Y141388D02*
X131950Y149031D01*
X135250Y114750D02*
Y125750D01*
Y103750D02*
Y114750D01*
Y92750D02*
Y103750D01*
X168250Y114750D02*
Y125750D01*
Y103750D02*
Y114750D01*
Y92750D02*
Y103750D01*
X157250D02*
Y114750D01*
Y92750D02*
X168250D01*
X146250D02*
X157250D01*
X135250D02*
X146250D01*
X157250Y125750D02*
X168250D01*
X146250D02*
X157250D01*
X135250D02*
X146250D01*
X152758Y181509D02*
Y182759D01*
X131950Y160701D02*
X152758Y181509D01*
X157250Y114750D02*
X168250D01*
X146250D02*
X157250D01*
X135250D02*
X146250D01*
X157250Y103750D02*
X168250D01*
X146250D02*
X157250D01*
X135250D02*
X146250D01*
X157250Y114750D02*
Y125750D01*
Y92750D02*
Y103750D01*
X146250Y114750D02*
Y125750D01*
Y103750D02*
Y114750D01*
Y92750D02*
Y103750D01*
D97*
X343800Y147800D02*
D03*
X320600Y113000D02*
D03*
X309000D02*
D03*
X320600Y124600D02*
D03*
X309000D02*
D03*
Y147800D02*
D03*
X343800Y113000D02*
D03*
X320600Y147800D02*
D03*
X343800Y124600D02*
D03*
X332200D02*
D03*
Y113000D02*
D03*
Y147800D02*
D03*
X168250Y125750D02*
D03*
X157250D02*
D03*
X168250Y114750D02*
D03*
X157250D02*
D03*
X168250Y92750D02*
D03*
Y103750D02*
D03*
X157250D02*
D03*
Y92750D02*
D03*
X146250Y114750D02*
D03*
Y125750D02*
D03*
X135250D02*
D03*
Y114750D02*
D03*
X146250Y92750D02*
D03*
Y103750D02*
D03*
X135250Y92750D02*
D03*
Y103750D02*
D03*
D105*
X73000Y186250D02*
D03*
Y177250D02*
D03*
Y168250D02*
D03*
X63000Y186250D02*
D03*
Y177250D02*
D03*
Y168250D02*
D03*
D107*
X228000Y232250D02*
X228750D01*
X229250Y232750D01*
X231231Y232096D02*
X235001Y228326D01*
X231001Y236001D02*
X231231Y235772D01*
X235001Y228001D02*
Y228326D01*
X231231Y232096D02*
Y235772D01*
X143750Y188291D02*
Y204571D01*
Y185788D02*
Y188291D01*
X149817Y192450D02*
X151700D01*
X145658Y188291D02*
X149817Y192450D01*
X151700D02*
X167100Y207850D01*
X143750Y183866D02*
Y185788D01*
X109630Y196250D02*
X110321D01*
X113250Y180200D02*
Y193321D01*
X110321Y196250D02*
X113250Y193321D01*
X147000Y207821D02*
Y208100D01*
X143750Y204571D02*
X147000Y207821D01*
X143750Y183850D02*
Y183866D01*
X46250Y232000D02*
X46480Y232230D01*
X55980D01*
X56000Y232250D01*
X73630D02*
X109630Y196250D01*
X56000Y232250D02*
X73630D01*
X126492Y166448D02*
X136631Y176587D01*
X117552Y166448D02*
X126492D01*
X136631Y176731D02*
X143750Y183850D01*
X136631Y176587D02*
Y176731D01*
X116500Y167500D02*
X117552Y166448D01*
D109*
X243250Y236500D02*
D03*
X219250D02*
D03*
X75000Y8500D02*
D03*
X99000D02*
D03*
D110*
X385750Y181500D02*
D03*
X396750D02*
D03*
X88000Y48000D02*
D03*
X85500Y73500D02*
D03*
X63955Y110600D02*
D03*
X75000Y30000D02*
D03*
Y38000D02*
D03*
X77500Y60000D02*
D03*
X72455Y65100D02*
D03*
X69955Y87600D02*
D03*
X72500Y80000D02*
D03*
Y72500D02*
D03*
X80000Y52500D02*
D03*
Y45000D02*
D03*
X83145Y116025D02*
D03*
X91900Y98311D02*
D03*
X113750Y52500D02*
D03*
X129629Y57737D02*
D03*
X106250Y20500D02*
D03*
X108000Y31700D02*
D03*
X135913Y62874D02*
D03*
X124810Y66227D02*
D03*
X105067Y39464D02*
D03*
X107000Y73500D02*
D03*
X103166Y80177D02*
D03*
X109730Y90850D02*
D03*
X200630Y238620D02*
D03*
X228000Y215749D02*
D03*
X227814Y223447D02*
D03*
X188001Y230001D02*
D03*
X447661Y204569D02*
D03*
X451001Y228001D02*
D03*
Y212001D02*
D03*
Y196001D02*
D03*
Y52001D02*
D03*
X439001Y236001D02*
D03*
X423001Y108001D02*
D03*
X399001Y12001D02*
D03*
X231001Y236001D02*
D03*
X235001Y228001D02*
D03*
X304100Y165250D02*
D03*
X259500Y186250D02*
D03*
X251542Y186292D02*
D03*
X290750Y145750D02*
D03*
X273900Y139000D02*
D03*
X278647Y179102D02*
D03*
X290000Y98392D02*
D03*
X86455Y93350D02*
D03*
X139750Y29200D02*
D03*
X352750Y214750D02*
D03*
X345911Y220616D02*
D03*
X307500Y212001D02*
D03*
X325645Y183000D02*
D03*
X265500Y62000D02*
D03*
X254300Y61500D02*
D03*
X261100Y55019D02*
D03*
X213750Y26850D02*
D03*
X237835Y8665D02*
D03*
X237100Y16422D02*
D03*
X127750Y18000D02*
D03*
X154956Y61136D02*
D03*
X149141Y67625D02*
D03*
X143756Y61961D02*
D03*
X160341Y66641D02*
D03*
X174044Y65275D02*
D03*
X167233Y61244D02*
D03*
X177714Y72044D02*
D03*
X187828Y68500D02*
D03*
X194890Y71570D02*
D03*
X394607Y206850D02*
D03*
X383915Y219900D02*
D03*
X318000Y197968D02*
D03*
X314296Y186768D02*
D03*
X353654Y183350D02*
D03*
X362784Y159744D02*
D03*
X357300Y165150D02*
D03*
X302000Y185500D02*
D03*
X308523Y181409D02*
D03*
X318250Y166000D02*
D03*
X326449Y166247D02*
D03*
X334194Y166034D02*
D03*
X341888Y165718D02*
D03*
X349517Y166758D02*
D03*
X362890Y150556D02*
D03*
X333266Y95400D02*
D03*
X361682Y103778D02*
D03*
X185400Y36900D02*
D03*
X85238Y134870D02*
D03*
X154850Y148900D02*
D03*
X186328Y179144D02*
D03*
X205072Y201100D02*
D03*
X152758Y182759D02*
D03*
X122014Y178850D02*
D03*
X117373Y136973D02*
D03*
X113446Y143597D02*
D03*
X122100Y152742D02*
D03*
X95500Y180500D02*
D03*
X406630Y216380D02*
D03*
X414095Y220025D02*
D03*
X406750Y209500D02*
D03*
X318015Y233839D02*
D03*
X416000Y208000D02*
D03*
X363201Y111327D02*
D03*
X361399Y118813D02*
D03*
X379426Y93243D02*
D03*
X370230Y86600D02*
D03*
X411605Y175395D02*
D03*
X389520Y149850D02*
D03*
X419250Y172500D02*
D03*
X387500Y172750D02*
D03*
X30250Y199000D02*
D03*
X390270Y57311D02*
D03*
X306001Y13001D02*
D03*
X264400Y23835D02*
D03*
X93600Y197787D02*
D03*
X111080Y7580D02*
D03*
X169530Y220100D02*
D03*
X147000Y208100D02*
D03*
X167100Y207850D02*
D03*
X218992Y156492D02*
D03*
X358502Y48001D02*
D03*
X341002Y13001D02*
D03*
X250001D02*
D03*
X243001Y55001D02*
D03*
X246501Y20001D02*
D03*
X204501Y34001D02*
D03*
X89001Y237002D02*
D03*
X82001D02*
D03*
X50501Y160002D02*
D03*
X47001Y153001D02*
D03*
X29501Y146002D02*
D03*
X70000Y128000D02*
D03*
X90686Y225235D02*
D03*
X167031Y24100D02*
D03*
X72250Y214050D02*
D03*
X243332Y77449D02*
D03*
X442412Y104678D02*
D03*
X386250Y30750D02*
D03*
X335480Y71730D02*
D03*
X328980Y78230D02*
D03*
X352706Y78800D02*
D03*
X297813Y79358D02*
D03*
X309500Y95800D02*
D03*
X438411Y143000D02*
D03*
X362250Y142600D02*
D03*
X272945Y75992D02*
D03*
X291559Y64812D02*
D03*
X286600Y78401D02*
D03*
X311441Y72196D02*
D03*
X378000Y108515D02*
D03*
X399500Y113869D02*
D03*
X291000Y17400D02*
D03*
X279233Y37133D02*
D03*
X351000Y16750D02*
D03*
X369500Y17250D02*
D03*
X337497Y64100D02*
D03*
X207750Y164900D02*
D03*
X196855Y149355D02*
D03*
X199500Y139750D02*
D03*
X232000Y156000D02*
D03*
X46367Y214512D02*
D03*
X71000Y120250D02*
D03*
X53000Y146250D02*
D03*
X53500Y221150D02*
D03*
X36750Y140250D02*
D03*
X201900Y85803D02*
D03*
Y77003D02*
D03*
Y100625D02*
D03*
X231500Y112000D02*
D03*
X216898Y102491D02*
D03*
X445250Y76250D02*
D03*
X445500Y88500D02*
D03*
X250250Y138000D02*
D03*
X65750Y140650D02*
D03*
X30250Y227500D02*
D03*
X9250Y215100D02*
D03*
X46250Y232000D02*
D03*
X83250Y182400D02*
D03*
X230521Y199095D02*
D03*
X366152Y68875D02*
D03*
X270750Y48830D02*
D03*
X276763Y64753D02*
D03*
X435250Y156000D02*
D03*
X434600Y173000D02*
D03*
X445250Y162250D02*
D03*
X438411Y125000D02*
D03*
X385719Y112751D02*
D03*
X221835Y108400D02*
D03*
X194760Y91504D02*
D03*
X192509Y102755D02*
D03*
D111*
X177950Y229750D02*
D03*
X165250D02*
D03*
X112250Y180150D02*
D03*
Y167450D02*
D03*
D112*
X152550Y229750D02*
D03*
D113*
X437500Y222000D02*
D03*
X317500D02*
D03*
X243500Y39000D02*
D03*
X123500D02*
D03*
D114*
X112250Y154750D02*
D03*
D115*
X39500Y205750D02*
D03*
Y164250D02*
D03*
D117*
X391250Y181500D02*
D03*
D118*
X275000Y212000D02*
D03*
X117500Y215250D02*
D03*
X425000Y32000D02*
D03*
M02*
