G04*
G04 #@! TF.GenerationSoftware,Altium Limited,Altium Designer,23.3.1 (30)*
G04*
G04 Layer_Physical_Order=2*
G04 Layer_Color=14067636*
%FSLAX44Y44*%
%MOMM*%
G71*
G04*
G04 #@! TF.SameCoordinates,B5BEB57F-9CAB-4151-92A5-F0F3E31B6F9E*
G04*
G04*
G04 #@! TF.FilePolarity,Positive*
G04*
G01*
G75*
%ADD13C,0.2000*%
%ADD98C,0.6200*%
%ADD106C,0.6000*%
%ADD107C,0.4000*%
%ADD108C,0.5000*%
%ADD109C,0.3000*%
%ADD110C,1.1000*%
%ADD111C,1.0500*%
%ADD112R,1.0500X1.0500*%
%ADD113C,1.4500*%
%ADD114R,1.0500X1.0500*%
%ADD115C,0.7000*%
%ADD117R,0.5500X0.2000*%
%ADD118C,3.0000*%
G36*
X178376Y241941D02*
Y236932D01*
X177950Y236558D01*
X176188Y236326D01*
X174546Y235646D01*
X173136Y234564D01*
X172357Y233549D01*
X172055Y233451D01*
X171145D01*
X170843Y233549D01*
X170064Y234564D01*
X168654Y235646D01*
X167012Y236326D01*
X165250Y236558D01*
X163488Y236326D01*
X161846Y235646D01*
X160570Y234667D01*
X160018Y234787D01*
X159300Y235170D01*
Y236500D01*
X145800D01*
Y223000D01*
X159300D01*
Y224330D01*
X160018Y224713D01*
X160570Y224833D01*
X161846Y223854D01*
X163488Y223174D01*
X165250Y222942D01*
X167012Y223174D01*
X168654Y223854D01*
X170064Y224936D01*
X170843Y225951D01*
X171145Y226049D01*
X172055D01*
X172357Y225951D01*
X173136Y224936D01*
X174546Y223854D01*
X176188Y223174D01*
X177950Y222942D01*
X178376Y222568D01*
Y202000D01*
X178852Y200852D01*
X180000Y200376D01*
X200525D01*
X200738Y199305D01*
X201755Y197784D01*
X203277Y196767D01*
X205072Y196410D01*
X206866Y196767D01*
X208388Y197784D01*
X209405Y199305D01*
X209618Y200376D01*
X225085D01*
X225890Y199395D01*
X225831Y199095D01*
X226188Y197300D01*
X227204Y195779D01*
X228726Y194762D01*
X229537Y194601D01*
X229955Y193223D01*
X211155Y174422D01*
X210705Y174333D01*
X209184Y173316D01*
X208167Y171795D01*
X207997Y170940D01*
X204134Y167076D01*
X196282Y174928D01*
X194959Y175812D01*
X193398Y176123D01*
X193398Y176123D01*
X185076D01*
X183815Y177384D01*
X182492Y178268D01*
X180931Y178578D01*
X180931Y178578D01*
X156892D01*
X156345Y179848D01*
X157091Y180964D01*
X157448Y182759D01*
X157091Y184554D01*
X156074Y186075D01*
X154552Y187092D01*
X152758Y187449D01*
X150963Y187092D01*
X149441Y186075D01*
X148424Y184554D01*
X148201Y183429D01*
X147395Y182519D01*
X146858Y182328D01*
X129828D01*
Y187000D01*
X129828Y187000D01*
X129518Y188561D01*
X128634Y189884D01*
X128634Y189884D01*
X121662Y196856D01*
X122021Y198292D01*
X124245Y198967D01*
X127292Y200595D01*
X129963Y202787D01*
X132155Y205458D01*
X133783Y208505D01*
X134786Y211812D01*
X135000Y213980D01*
X100000D01*
X100214Y211812D01*
X100329Y211430D01*
X99240Y210778D01*
X85984Y224034D01*
X84661Y224918D01*
X83100Y225228D01*
X83100Y225228D01*
X55709D01*
X55327Y225483D01*
X53533Y225840D01*
X51738Y225483D01*
X50216Y224466D01*
X49620Y223575D01*
X48035Y223106D01*
X47995Y223133D01*
X46200Y223490D01*
X44405Y223133D01*
X42884Y222116D01*
X41867Y220595D01*
X41510Y218800D01*
X40292Y218690D01*
X39500Y218848D01*
X37549Y218460D01*
X35895Y217355D01*
X34790Y215701D01*
X34402Y213750D01*
X34790Y211799D01*
X35895Y210145D01*
X37549Y209040D01*
X39500Y208652D01*
X41451Y209040D01*
X43105Y210145D01*
X44210Y211799D01*
X44480Y213157D01*
X45703Y214209D01*
X46200Y214110D01*
X47995Y214467D01*
X48302Y214672D01*
X49422Y214073D01*
Y208389D01*
X43211Y202178D01*
X31576D01*
X31195Y202433D01*
X29400Y202790D01*
X27605Y202433D01*
X26084Y201416D01*
X25067Y199895D01*
X24710Y198100D01*
X25067Y196305D01*
X26084Y194784D01*
X27605Y193767D01*
X29400Y193410D01*
X31195Y193767D01*
X31576Y194022D01*
X44900D01*
X44900Y194022D01*
X46461Y194332D01*
X47784Y195216D01*
X56384Y203816D01*
X57268Y205139D01*
X57578Y206700D01*
X57578Y206700D01*
Y217072D01*
X67249D01*
X67937Y216028D01*
X67908Y215802D01*
X67560Y214050D01*
X67917Y212255D01*
X68934Y210734D01*
X70455Y209717D01*
X72250Y209360D01*
X74045Y209717D01*
X75566Y210734D01*
X76583Y212255D01*
X76940Y214050D01*
X76592Y215802D01*
X76563Y216028D01*
X77251Y217072D01*
X81411D01*
X94986Y203496D01*
X94360Y202326D01*
X93600Y202477D01*
X91805Y202120D01*
X90284Y201104D01*
X89267Y199582D01*
X88910Y197787D01*
X89267Y195992D01*
X90284Y194471D01*
X91805Y193454D01*
X92084Y193399D01*
X98985Y186497D01*
Y184299D01*
X98922Y183981D01*
X98922Y183981D01*
Y160929D01*
X98922Y160929D01*
X99232Y159368D01*
X100116Y158045D01*
X103545Y154616D01*
X104868Y153732D01*
X105500Y153606D01*
Y148000D01*
X119000D01*
Y148000D01*
X120065Y148569D01*
X120305Y148409D01*
X122100Y148052D01*
X123895Y148409D01*
X125416Y149425D01*
X126433Y150947D01*
X126701Y152297D01*
X132836Y158431D01*
X174275D01*
X175686Y157021D01*
X176843Y156248D01*
X178209Y155976D01*
X184591D01*
X191510Y149057D01*
X182285Y139832D01*
X181511Y138674D01*
X181240Y137308D01*
Y79600D01*
X181511Y78234D01*
X182285Y77077D01*
X183839Y75523D01*
Y70809D01*
X183495Y70295D01*
X183138Y68500D01*
X183495Y66705D01*
X184512Y65184D01*
X186033Y64167D01*
X187828Y63810D01*
X189623Y64167D01*
X191145Y65184D01*
X192161Y66705D01*
X192518Y68500D01*
X192161Y70295D01*
X191145Y71816D01*
X190976Y71929D01*
Y77001D01*
X190704Y78367D01*
X189931Y79524D01*
X188377Y81078D01*
Y98548D01*
X189647Y99135D01*
X190715Y98422D01*
X192509Y98065D01*
X194304Y98422D01*
X195826Y99438D01*
X196076Y99813D01*
X197425Y99545D01*
X197567Y98830D01*
X198584Y97308D01*
X200105Y96292D01*
X201900Y95935D01*
X203695Y96292D01*
X205216Y97308D01*
X206233Y98830D01*
X206590Y100625D01*
X206233Y102420D01*
X205216Y103941D01*
X203695Y104958D01*
X201900Y105315D01*
X200105Y104958D01*
X198584Y103941D01*
X198333Y103566D01*
X196985Y103834D01*
X196842Y104550D01*
X195826Y106071D01*
X194304Y107088D01*
X192509Y107445D01*
X190715Y107088D01*
X189647Y106374D01*
X188377Y106962D01*
Y135830D01*
X197300Y144753D01*
X198649Y145021D01*
X200171Y146038D01*
X200335Y146284D01*
X200897Y146297D01*
X201753Y146120D01*
X202508Y144991D01*
X219175Y128324D01*
X219175Y128324D01*
X220001Y127772D01*
X230101Y117673D01*
X229849Y116449D01*
X229669Y116309D01*
X228184Y115316D01*
X227167Y113795D01*
X226810Y112000D01*
X226946Y111316D01*
X225749Y110821D01*
X225151Y111716D01*
X223630Y112733D01*
X221835Y113090D01*
X220040Y112733D01*
X218518Y111716D01*
X217502Y110195D01*
X217145Y108400D01*
X217160Y108325D01*
X216123Y107026D01*
X215104Y106824D01*
X213582Y105807D01*
X212565Y104285D01*
X212208Y102491D01*
X212565Y100696D01*
X213582Y99174D01*
X215104Y98158D01*
X216898Y97800D01*
X218693Y98158D01*
X220215Y99174D01*
X221231Y100696D01*
X221588Y102491D01*
X221574Y102565D01*
X222610Y103864D01*
X223630Y104067D01*
X225151Y105084D01*
X226168Y106605D01*
X226525Y108400D01*
X226389Y109083D01*
X227585Y109579D01*
X228184Y108684D01*
X229705Y107667D01*
X231500Y107310D01*
X233295Y107667D01*
X233652Y107905D01*
X234922Y107226D01*
Y104480D01*
X207812Y77371D01*
X206434Y77789D01*
X206233Y78798D01*
X205216Y80320D01*
X204738Y80639D01*
Y82167D01*
X205216Y82486D01*
X206233Y84008D01*
X206590Y85803D01*
X206233Y87598D01*
X205216Y89119D01*
X203695Y90136D01*
X201900Y90493D01*
X200487Y90212D01*
X199601Y90869D01*
X199386Y91182D01*
X199450Y91504D01*
X199093Y93299D01*
X198076Y94821D01*
X196554Y95837D01*
X194760Y96194D01*
X192965Y95837D01*
X191443Y94821D01*
X190426Y93299D01*
X190069Y91504D01*
X190426Y89709D01*
X191443Y88188D01*
X192965Y87171D01*
X194760Y86814D01*
X196172Y87095D01*
X197058Y86438D01*
X197274Y86124D01*
X197210Y85803D01*
X197567Y84008D01*
X198584Y82486D01*
X199062Y82167D01*
Y80639D01*
X198584Y80320D01*
X197567Y78798D01*
X197210Y77003D01*
X197567Y75209D01*
X198584Y73687D01*
X200105Y72670D01*
X201115Y72470D01*
X201533Y71091D01*
X172516Y42075D01*
X171632Y40752D01*
X171322Y39191D01*
X171322Y39191D01*
Y34158D01*
X165686Y28523D01*
X165236Y28433D01*
X163714Y27416D01*
X162698Y25895D01*
X162341Y24100D01*
X162698Y22305D01*
X163714Y20784D01*
X165236Y19767D01*
X167031Y19410D01*
X168826Y19767D01*
X170347Y20784D01*
X171364Y22305D01*
X171453Y22755D01*
X178284Y29585D01*
X178284Y29585D01*
X179168Y30909D01*
X179478Y32469D01*
X179478Y32469D01*
Y37502D01*
X236515Y94538D01*
X237689Y94052D01*
Y84764D01*
X211087Y58163D01*
X210203Y56839D01*
X209893Y55279D01*
X209893Y55279D01*
Y29357D01*
X209417Y28645D01*
X209060Y26850D01*
X209417Y25055D01*
X210434Y23534D01*
X211955Y22517D01*
X213750Y22160D01*
X215545Y22517D01*
X217066Y23534D01*
X218083Y25055D01*
X218440Y26850D01*
X218083Y28645D01*
X218050Y28695D01*
Y53590D01*
X238738Y74278D01*
X240002Y74153D01*
X240016Y74132D01*
X241537Y73116D01*
X243332Y72759D01*
X245127Y73116D01*
X245263Y73207D01*
X246383Y72608D01*
Y69907D01*
X231948Y55472D01*
X231395Y54645D01*
X231201Y53670D01*
Y34961D01*
X231395Y33986D01*
X231948Y33159D01*
X234551Y30556D01*
Y20252D01*
X233784Y19739D01*
X232767Y18217D01*
X232410Y16422D01*
X232767Y14628D01*
X233784Y13106D01*
X233937Y13004D01*
X234186Y11485D01*
X233502Y10460D01*
X233145Y8665D01*
X233502Y6870D01*
X234518Y5349D01*
X236040Y4332D01*
X236058Y4329D01*
X235933Y3059D01*
X106395Y3059D01*
X105833Y4198D01*
X106023Y4445D01*
X106833Y6401D01*
X106942Y7230D01*
X91058D01*
X91167Y6401D01*
X91977Y4445D01*
X92167Y4198D01*
X91605Y3059D01*
X81249D01*
X80623Y4329D01*
X81115Y4970D01*
X81820Y6673D01*
X82060Y8500D01*
X81820Y10327D01*
X81115Y12030D01*
X79992Y13492D01*
X79000Y14254D01*
Y85250D01*
X69000D01*
Y122756D01*
X69701Y123332D01*
X71496Y123689D01*
X72666Y124471D01*
X73026Y124512D01*
X73894Y123585D01*
X73837Y123272D01*
X73017Y122045D01*
X72660Y120250D01*
X73017Y118455D01*
X73997Y116988D01*
Y116505D01*
X73744Y116126D01*
X73550Y115151D01*
X73744Y114175D01*
X74297Y113348D01*
X91201Y96444D01*
Y33000D01*
X91395Y32025D01*
X91948Y31198D01*
X101740Y21405D01*
X101560Y20500D01*
X101917Y18705D01*
X102934Y17184D01*
X104455Y16167D01*
X106250Y15810D01*
X108045Y16167D01*
X109566Y17184D01*
X110583Y18705D01*
X110615Y18866D01*
X111830Y19234D01*
X120467Y10598D01*
X121294Y10045D01*
X122270Y9851D01*
X130070D01*
X131045Y10045D01*
X131872Y10598D01*
X136310Y15036D01*
X136863Y15863D01*
X137057Y16838D01*
Y22902D01*
X138845Y24690D01*
X139750Y24510D01*
X141545Y24867D01*
X143066Y25884D01*
X144083Y27405D01*
X144440Y29200D01*
X144083Y30995D01*
X143066Y32516D01*
X141545Y33533D01*
X139750Y33890D01*
X137955Y33533D01*
X136434Y32516D01*
X135417Y30995D01*
X135060Y29200D01*
X135240Y28295D01*
X132706Y25760D01*
X132153Y24933D01*
X131959Y23958D01*
Y22092D01*
X130689Y21569D01*
X129545Y22333D01*
X127750Y22690D01*
X126845Y22510D01*
X122624Y26731D01*
Y28294D01*
X122478Y29028D01*
X122965Y29815D01*
X123339Y30196D01*
X123500Y30175D01*
X125784Y30475D01*
X127913Y31357D01*
X129741Y32759D01*
X131143Y34587D01*
X132025Y36716D01*
X132325Y39000D01*
X132025Y41284D01*
X131143Y43413D01*
X129741Y45241D01*
X127913Y46643D01*
X125784Y47525D01*
X123806Y47785D01*
X123178Y48954D01*
X125901Y51677D01*
X126454Y52504D01*
X126517Y52822D01*
X127848Y53461D01*
X127904Y53423D01*
X129699Y53066D01*
X131494Y53423D01*
X133015Y54440D01*
X134032Y55961D01*
X134281Y57214D01*
X135483Y58270D01*
X135913Y58184D01*
X137708Y58541D01*
X138588Y59129D01*
X140235Y58950D01*
X140440Y58644D01*
X141961Y57628D01*
X143756Y57270D01*
X145551Y57628D01*
X147072Y58644D01*
X148089Y60166D01*
X148446Y61961D01*
X149413Y62898D01*
X150416Y61894D01*
X150266Y61136D01*
X150623Y59341D01*
X151639Y57820D01*
X153161Y56803D01*
X154956Y56446D01*
X156751Y56803D01*
X158272Y57820D01*
X159289Y59341D01*
X159580Y60807D01*
X160273Y61849D01*
X161559Y62062D01*
X162530Y61254D01*
X162553Y61194D01*
X162900Y59449D01*
X163917Y57927D01*
X165438Y56911D01*
X167233Y56554D01*
X169028Y56911D01*
X170549Y57927D01*
X171566Y59449D01*
X171661Y59924D01*
X173123Y60767D01*
X174044Y60584D01*
X175839Y60941D01*
X177360Y61958D01*
X178377Y63480D01*
X178734Y65275D01*
X178545Y66224D01*
X179377Y67685D01*
X179508Y67711D01*
X181030Y68727D01*
X182047Y70249D01*
X182404Y72044D01*
X182047Y73839D01*
X181030Y75360D01*
X179508Y76377D01*
X177714Y76734D01*
X175919Y76377D01*
X174397Y75360D01*
X173380Y73839D01*
X173023Y72044D01*
X173212Y71094D01*
X172381Y69634D01*
X172249Y69608D01*
X170728Y68591D01*
X169711Y67069D01*
X169449Y65751D01*
X169028Y65577D01*
X167233Y65934D01*
X166142Y65717D01*
X165044Y66630D01*
X165021Y66690D01*
X164674Y68435D01*
X163657Y69957D01*
X162136Y70974D01*
X160341Y71331D01*
X158546Y70974D01*
X157025Y69957D01*
X156008Y68435D01*
X155716Y66970D01*
X155580Y66764D01*
X154942Y66701D01*
X153831Y67625D01*
X153474Y69420D01*
X152457Y70941D01*
X150936Y71958D01*
X149141Y72315D01*
X147346Y71958D01*
X145825Y70941D01*
X144808Y69420D01*
X144451Y67625D01*
X143365Y66573D01*
X141961Y66294D01*
X141081Y65706D01*
X139434Y65884D01*
X139230Y66191D01*
X137708Y67207D01*
X135913Y67564D01*
X134119Y67207D01*
X132597Y66191D01*
X131580Y64669D01*
X131331Y63417D01*
X130433Y62628D01*
X129462Y62723D01*
X128805Y63927D01*
X129143Y64432D01*
X129500Y66227D01*
X129143Y68021D01*
X128126Y69543D01*
X126604Y70560D01*
X124810Y70917D01*
X123015Y70560D01*
X121493Y69543D01*
X120476Y68021D01*
X120119Y66227D01*
X120476Y64432D01*
X121493Y62910D01*
X121550Y62872D01*
Y54535D01*
X113322Y46308D01*
X112149Y46793D01*
Y67125D01*
X129802Y84778D01*
X130355Y85605D01*
X130549Y86580D01*
Y113821D01*
X130355Y114796D01*
X129802Y115623D01*
X124592Y120834D01*
Y125694D01*
X131098Y132201D01*
X141750D01*
X142726Y132395D01*
X143553Y132948D01*
X154821Y144216D01*
X154850Y144210D01*
X156645Y144567D01*
X158166Y145584D01*
X159183Y147105D01*
X159540Y148900D01*
X159183Y150695D01*
X158166Y152216D01*
X156645Y153233D01*
X154850Y153590D01*
X153055Y153233D01*
X151534Y152216D01*
X150517Y150695D01*
X150160Y148900D01*
X150514Y147119D01*
X140695Y137299D01*
X130042D01*
X129067Y137105D01*
X128240Y136552D01*
X120987Y129299D01*
X117702D01*
X115675Y131326D01*
X116300Y132497D01*
X117373Y132283D01*
X119168Y132640D01*
X120689Y133657D01*
X121706Y135179D01*
X122063Y136973D01*
X121706Y138768D01*
X120689Y140290D01*
X119168Y141307D01*
X117373Y141664D01*
X115578Y141307D01*
X114057Y140290D01*
X113094Y138849D01*
X107756D01*
X100052Y146552D01*
X99226Y147105D01*
X98250Y147299D01*
X71056D01*
X69552Y148802D01*
X68726Y149355D01*
X67750Y149549D01*
X61497D01*
X59650Y151396D01*
X59690Y151600D01*
X59333Y153395D01*
X58316Y154916D01*
X56795Y155933D01*
X55000Y156290D01*
X53205Y155933D01*
X51684Y154916D01*
X50667Y153395D01*
X50310Y151600D01*
X50667Y149805D01*
X51684Y148284D01*
X53205Y147267D01*
X55000Y146910D01*
X56607Y147229D01*
X58639Y145198D01*
X59465Y144645D01*
X60441Y144451D01*
X66694D01*
X68198Y142948D01*
X68267Y142247D01*
X67900Y141881D01*
X67348Y141054D01*
X67154Y140078D01*
Y135000D01*
X55000D01*
Y134792D01*
X3019D01*
Y242000D01*
X178337D01*
X178376Y241941D01*
D02*
G37*
G36*
X311469Y228402D02*
X311259Y228241D01*
X309857Y226413D01*
X308975Y224284D01*
X308675Y222000D01*
X308975Y219716D01*
X309857Y217587D01*
X310016Y217380D01*
X309432Y216534D01*
X309204Y216352D01*
X307500Y216691D01*
X305705Y216334D01*
X304184Y215318D01*
X303167Y213796D01*
X302810Y212001D01*
X303158Y210250D01*
X303187Y210023D01*
X302499Y208979D01*
X302151D01*
X300590Y208669D01*
X299267Y207785D01*
X299267Y207785D01*
X293482Y202000D01*
X290983D01*
X290222Y203270D01*
X291283Y205255D01*
X292286Y208562D01*
X292500Y210730D01*
X275000D01*
Y213270D01*
X292500D01*
X292286Y215438D01*
X291283Y218745D01*
X289655Y221792D01*
X287463Y224463D01*
X284792Y226654D01*
X281745Y228283D01*
X281355Y228402D01*
X281543Y229672D01*
X311038D01*
X311469Y228402D01*
D02*
G37*
G36*
X195790Y241941D02*
X196468Y240671D01*
X196297Y240415D01*
X195940Y238620D01*
X196297Y236825D01*
X197314Y235304D01*
X198835Y234287D01*
X200630Y233930D01*
X201535Y234110D01*
X220895Y214750D01*
X221722Y214198D01*
X222698Y214004D01*
X223657D01*
X223667Y213954D01*
X224684Y212433D01*
X226205Y211416D01*
X228000Y211059D01*
X229795Y211416D01*
X231316Y212433D01*
X232333Y213954D01*
X232690Y215749D01*
X232333Y217544D01*
X231316Y219065D01*
X231401Y220536D01*
X232147Y221652D01*
X232504Y223447D01*
X232147Y225242D01*
X231130Y226763D01*
X229609Y227780D01*
X227814Y228137D01*
X226019Y227780D01*
X224497Y226763D01*
X223481Y225242D01*
X223124Y223447D01*
X223481Y221652D01*
X223607Y221463D01*
X223043Y220021D01*
X222893Y219985D01*
X222854Y220001D01*
X205140Y237715D01*
X205320Y238620D01*
X204963Y240415D01*
X204792Y240671D01*
X205471Y241941D01*
X213001D01*
X213627Y240671D01*
X213136Y240030D01*
X212430Y238327D01*
X212190Y236500D01*
X212430Y234673D01*
X213136Y232970D01*
X214258Y231508D01*
X215720Y230385D01*
X217423Y229680D01*
X219250Y229440D01*
X221077Y229680D01*
X222780Y230385D01*
X224242Y231508D01*
X225364Y232970D01*
X226070Y234673D01*
X226310Y236500D01*
X226070Y238327D01*
X225364Y240030D01*
X224872Y240671D01*
X225499Y241941D01*
X237001D01*
X237628Y240671D01*
X237136Y240030D01*
X236430Y238327D01*
X236190Y236500D01*
X236430Y234673D01*
X237136Y232970D01*
X238258Y231508D01*
X239720Y230385D01*
X241423Y229680D01*
X243250Y229440D01*
X245077Y229680D01*
X246780Y230385D01*
X248242Y231508D01*
X249364Y232970D01*
X250070Y234673D01*
X250310Y236500D01*
X250070Y238327D01*
X249364Y240030D01*
X248873Y240671D01*
X249499Y241941D01*
X455941Y241941D01*
X455941Y3059D01*
X380000D01*
Y29159D01*
X381270Y29863D01*
X381803Y29529D01*
X381917Y28955D01*
X382934Y27434D01*
X384455Y26417D01*
X386250Y26060D01*
X388045Y26417D01*
X389566Y27434D01*
X390583Y28955D01*
X390940Y30750D01*
X390583Y32545D01*
X389566Y34066D01*
X388466Y34802D01*
X380000Y43268D01*
Y52000D01*
X370000Y62000D01*
X361268D01*
X333755Y89512D01*
X334047Y90773D01*
X334128Y90881D01*
X335061Y91067D01*
X336583Y92084D01*
X337599Y93605D01*
X337956Y95400D01*
X337852Y95926D01*
X338655Y96910D01*
X355000Y97000D01*
Y131422D01*
X366250D01*
X366250Y131422D01*
X366250Y131422D01*
X428750D01*
X428750Y131422D01*
X430311Y131732D01*
X431634Y132616D01*
X437507Y138490D01*
X438411Y138310D01*
X440205Y138667D01*
X441727Y139684D01*
X442744Y141205D01*
X443101Y143000D01*
X442744Y144795D01*
X441727Y146316D01*
X440205Y147333D01*
X438411Y147690D01*
X436616Y147333D01*
X435836Y146812D01*
X434460Y146538D01*
X433137Y145654D01*
X433136Y145654D01*
X427061Y139578D01*
X377755D01*
X377269Y140752D01*
X382813Y146295D01*
X383697Y147618D01*
X383866Y148469D01*
X395297Y159900D01*
X400188D01*
X400188Y159900D01*
X401749Y160210D01*
X403072Y161094D01*
X412950Y170972D01*
X413400Y171062D01*
X414921Y172078D01*
X415938Y173600D01*
X416295Y175395D01*
X415938Y177190D01*
X414921Y178711D01*
X413400Y179728D01*
X411605Y180085D01*
X409810Y179728D01*
X408289Y178711D01*
X407272Y177190D01*
X407183Y176740D01*
X398499Y168056D01*
X393608D01*
X392047Y167746D01*
X391355Y167283D01*
X390273Y167846D01*
X390238Y169047D01*
X390816Y169434D01*
X391833Y170955D01*
X392190Y172750D01*
X391833Y174545D01*
X390816Y176066D01*
X390000Y176612D01*
Y178876D01*
X391720D01*
X392684Y177434D01*
X394549Y176187D01*
X395480Y176002D01*
Y180151D01*
X395624Y180499D01*
Y181500D01*
Y182500D01*
X395480Y182848D01*
Y186998D01*
X394549Y186813D01*
X392684Y185566D01*
X391720Y184123D01*
X390000D01*
Y202000D01*
X348969D01*
Y210216D01*
X350239Y210895D01*
X350955Y210417D01*
X352750Y210060D01*
X354545Y210417D01*
X356066Y211434D01*
X357083Y212955D01*
X357440Y214750D01*
X357083Y216545D01*
X356066Y218066D01*
X354545Y219083D01*
X352750Y219440D01*
X351617Y219215D01*
X350518Y220202D01*
X350601Y220616D01*
X350244Y222411D01*
X349227Y223933D01*
X347742Y224925D01*
X347561Y225065D01*
X347310Y226289D01*
X348503Y227481D01*
X393501D01*
X397707Y223275D01*
Y221549D01*
X397707Y221549D01*
X398018Y219988D01*
X398902Y218665D01*
X402127Y215440D01*
X402297Y214585D01*
X402612Y214114D01*
Y211586D01*
X402417Y211295D01*
X402060Y209500D01*
X402417Y207705D01*
X403434Y206184D01*
X404955Y205167D01*
X406750Y204810D01*
X408545Y205167D01*
X410066Y206184D01*
X411083Y207705D01*
X411440Y209500D01*
X411083Y211295D01*
X410768Y211766D01*
Y214294D01*
X410963Y214585D01*
X411320Y216380D01*
X410963Y218174D01*
X409946Y219696D01*
X408424Y220713D01*
X408380Y220722D01*
X405864Y223238D01*
Y224964D01*
X405864Y224965D01*
X405553Y226525D01*
X404669Y227848D01*
X398074Y234443D01*
X396751Y235327D01*
X395190Y235638D01*
X395190Y235638D01*
X346813D01*
X346813Y235638D01*
X345252Y235327D01*
X343929Y234443D01*
X343929Y234443D01*
X335078Y225592D01*
X334194Y224269D01*
X333884Y222708D01*
X333884Y222708D01*
Y212041D01*
X333271Y211428D01*
X315059D01*
X313498Y211118D01*
X313280Y210972D01*
X312137Y211736D01*
X312190Y212001D01*
X311851Y213704D01*
X312033Y213934D01*
X312879Y214517D01*
X313087Y214357D01*
X315216Y213475D01*
X317500Y213174D01*
X319784Y213475D01*
X321913Y214357D01*
X323741Y215759D01*
X325143Y217587D01*
X326025Y219716D01*
X326325Y222000D01*
X326025Y224284D01*
X325143Y226413D01*
X323741Y228241D01*
X322073Y229520D01*
X321897Y229757D01*
X321716Y231099D01*
X322348Y232044D01*
X322705Y233839D01*
X322348Y235634D01*
X321331Y237155D01*
X319809Y238172D01*
X318015Y238529D01*
X316220Y238172D01*
X315706Y237828D01*
X269880D01*
X269880Y237828D01*
X268319Y237518D01*
X266996Y236634D01*
X253116Y222754D01*
X252232Y221431D01*
X251922Y219870D01*
X251922Y219870D01*
Y208618D01*
X249382Y206078D01*
X244500D01*
X244500Y206078D01*
X242939Y205768D01*
X241616Y204884D01*
X238732Y202000D01*
X234112D01*
X233837Y202411D01*
X232316Y203428D01*
X230521Y203785D01*
X228726Y203428D01*
X227204Y202411D01*
X226930Y202000D01*
X209583D01*
X209405Y202895D01*
X208388Y204416D01*
X206866Y205433D01*
X205072Y205790D01*
X203277Y205433D01*
X201755Y204416D01*
X200738Y202895D01*
X200560Y202000D01*
X180000D01*
Y223293D01*
X181354Y223854D01*
X182764Y224936D01*
X183846Y226346D01*
X184526Y227988D01*
X184758Y229750D01*
X184526Y231512D01*
X183846Y233154D01*
X182764Y234564D01*
X181354Y235646D01*
X180000Y236207D01*
Y241941D01*
X195790D01*
D02*
G37*
G36*
X346567Y223781D02*
X346748Y223641D01*
X346806Y223625D01*
X346840Y223575D01*
X348056Y222762D01*
X348714Y221778D01*
X348945Y220616D01*
X348926Y220519D01*
X348967Y220314D01*
X348897Y220116D01*
X349084Y219725D01*
X349169Y219300D01*
X349376Y217981D01*
X348417Y216545D01*
X348060Y214750D01*
X348417Y212955D01*
X348500Y212831D01*
X348219Y211708D01*
X347924Y211407D01*
X347821Y211364D01*
X347669Y210996D01*
X347416Y210688D01*
X347440Y210443D01*
X347346Y210216D01*
Y202000D01*
X347821Y200852D01*
X348969Y200376D01*
X388376D01*
Y187939D01*
X387106Y186981D01*
X387020Y186998D01*
Y182847D01*
X386876Y182500D01*
Y181500D01*
Y180499D01*
X387020Y180152D01*
Y176002D01*
X387951Y176187D01*
X388852Y175464D01*
X389006Y175400D01*
X389098Y175262D01*
X389646Y174896D01*
X390304Y173911D01*
X390535Y172750D01*
X390304Y171589D01*
X389646Y170604D01*
X389336Y170397D01*
X389231Y170240D01*
X389058Y170162D01*
X388897Y169740D01*
X388646Y169364D01*
X388683Y169178D01*
X388615Y169001D01*
X388650Y167800D01*
X388745Y167588D01*
X388724Y167358D01*
X388989Y167042D01*
X389158Y166666D01*
X389268Y165406D01*
X377045Y153183D01*
X376161Y151860D01*
X375992Y151009D01*
X368127Y143144D01*
X366749Y143562D01*
X366583Y144395D01*
X365566Y145916D01*
Y146812D01*
X366206Y147240D01*
X367223Y148761D01*
X367580Y150556D01*
X367223Y152351D01*
X366206Y153873D01*
X364685Y154889D01*
X362890Y155246D01*
X361095Y154889D01*
X359574Y153873D01*
X358557Y152351D01*
X358200Y150556D01*
X358557Y148761D01*
X359574Y147240D01*
Y146344D01*
X358934Y145916D01*
X357917Y144395D01*
X357560Y142600D01*
X357908Y140848D01*
X357937Y140622D01*
X357249Y139578D01*
X303750D01*
X303750Y139578D01*
X302189Y139268D01*
X300866Y138384D01*
X276241Y113759D01*
X251701Y89218D01*
X251342Y89252D01*
X250431Y89646D01*
Y94353D01*
X252302Y96225D01*
X252855Y97052D01*
X253049Y98027D01*
Y122013D01*
X252855Y122989D01*
X252302Y123816D01*
X226742Y149376D01*
X226920Y150270D01*
X226563Y152065D01*
X225547Y153586D01*
X224025Y154603D01*
X222230Y154960D01*
X221325Y154780D01*
X220327Y155778D01*
Y155858D01*
X220133Y156834D01*
X219580Y157661D01*
X219020Y158221D01*
Y159012D01*
X218826Y159987D01*
X218274Y160814D01*
X216414Y162674D01*
X215587Y163227D01*
X214611Y163421D01*
X213673D01*
X213187Y164594D01*
X214251Y165658D01*
X214295Y165667D01*
X215816Y166684D01*
X216833Y168205D01*
X216923Y168655D01*
X246189Y197922D01*
X251071D01*
X251071Y197922D01*
X252632Y198232D01*
X253955Y199116D01*
X258884Y204045D01*
X258884Y204045D01*
X259006Y204227D01*
X260484Y204154D01*
X261214Y202789D01*
X263276Y200276D01*
X265789Y198214D01*
X268655Y196682D01*
X271765Y195739D01*
X275000Y195420D01*
X278235Y195739D01*
X281345Y196682D01*
X284211Y198214D01*
X286724Y200276D01*
X287833Y201628D01*
X289382Y201514D01*
X289591Y201165D01*
X289756Y201042D01*
X289835Y200852D01*
X290238Y200685D01*
X290315Y200628D01*
X290676Y199194D01*
X287682Y196199D01*
X286798Y194876D01*
X286487Y193315D01*
X286487Y193315D01*
Y192505D01*
X277558Y183576D01*
X276853Y183436D01*
X275331Y182419D01*
X274314Y180897D01*
X273957Y179102D01*
X274314Y177308D01*
X274508Y177018D01*
X273522Y176208D01*
X264072Y185658D01*
X264190Y186250D01*
X263833Y188045D01*
X262816Y189566D01*
X261295Y190583D01*
X259500Y190940D01*
X257705Y190583D01*
X256343Y189673D01*
X255825Y189546D01*
X255168D01*
X254738Y189689D01*
X253337Y190625D01*
X251542Y190982D01*
X249747Y190625D01*
X248225Y189608D01*
X247209Y188087D01*
X246852Y186292D01*
X247209Y184497D01*
X248225Y182976D01*
X249747Y181959D01*
X251542Y181602D01*
X251891Y181671D01*
X286351Y147212D01*
X286060Y145750D01*
X286417Y143955D01*
X287434Y142434D01*
X288955Y141417D01*
X290750Y141060D01*
X292545Y141417D01*
X294066Y142434D01*
X295083Y143955D01*
X295440Y145750D01*
X295083Y147545D01*
X294066Y149066D01*
X292545Y150083D01*
X290750Y150440D01*
X290401Y150371D01*
X278406Y162366D01*
X279216Y163352D01*
X279900Y162895D01*
X280875Y162701D01*
X300271D01*
X300784Y161934D01*
X302305Y160917D01*
X304100Y160560D01*
X305895Y160917D01*
X307416Y161934D01*
X308433Y163455D01*
X308790Y165250D01*
X308433Y167045D01*
X307416Y168566D01*
X305895Y169583D01*
X304100Y169940D01*
X302305Y169583D01*
X300784Y168566D01*
X300271Y167799D01*
X281931D01*
X275753Y173977D01*
X276562Y174963D01*
X276853Y174769D01*
X278647Y174412D01*
X280442Y174769D01*
X281964Y175786D01*
X282980Y177308D01*
X283019Y177501D01*
X293449Y187931D01*
X293449Y187932D01*
X294333Y189255D01*
X294644Y190815D01*
X294644Y190816D01*
Y191626D01*
X303841Y200823D01*
X312610D01*
X312610Y200823D01*
X312884Y200877D01*
X313667Y199763D01*
X313310Y197968D01*
X313667Y196173D01*
X314684Y194652D01*
X316205Y193635D01*
X318000Y193278D01*
X319795Y193635D01*
X321316Y194652D01*
X322333Y196173D01*
X322690Y197968D01*
X322333Y199763D01*
X321316Y201285D01*
X320243Y202002D01*
X320628Y203272D01*
X334960D01*
X334960Y203272D01*
X336521Y203582D01*
X337844Y204466D01*
X340846Y207467D01*
X340846Y207467D01*
X341730Y208791D01*
X342040Y210351D01*
X342040Y210352D01*
Y221019D01*
X344971Y223950D01*
X345375Y224048D01*
X346567Y223781D01*
D02*
G37*
G36*
X101394Y133052D02*
X100908Y131878D01*
X79801D01*
X79196Y132283D01*
X77401Y132640D01*
X75606Y132283D01*
X74436Y131501D01*
X73324Y131374D01*
X72252Y132255D01*
Y138701D01*
X95744D01*
X101394Y133052D01*
D02*
G37*
G36*
X353376Y98615D02*
X338646Y98533D01*
X338570Y98502D01*
X338491Y98525D01*
X338007Y98265D01*
X337500Y98052D01*
X336583Y98716D01*
X335061Y99733D01*
X333266Y100090D01*
X331471Y99733D01*
X329950Y98716D01*
X328933Y97195D01*
X328576Y95400D01*
X328933Y93605D01*
X329773Y92348D01*
X329455Y91411D01*
X329210Y91078D01*
X319989D01*
X313923Y97145D01*
X313833Y97595D01*
X312816Y99116D01*
X311295Y100133D01*
X310845Y100223D01*
X297684Y113384D01*
X296361Y114268D01*
X294800Y114578D01*
X294800Y114578D01*
X290255D01*
X289769Y115752D01*
X305439Y131422D01*
X307875D01*
X308000Y130152D01*
X306799Y129913D01*
X304934Y128666D01*
X303687Y126801D01*
X303502Y125870D01*
X309000D01*
Y123330D01*
X303502D01*
X303687Y122399D01*
X304934Y120534D01*
X306473Y119506D01*
X306544Y119247D01*
Y118353D01*
X306473Y118094D01*
X304934Y117066D01*
X303687Y115201D01*
X303502Y114270D01*
X309000D01*
Y113000D01*
X310270D01*
Y107502D01*
X311201Y107687D01*
X313066Y108934D01*
X314094Y110473D01*
X314353Y110543D01*
X315247D01*
X315506Y110473D01*
X316534Y108934D01*
X318399Y107687D01*
X319330Y107502D01*
Y113000D01*
X321870D01*
Y107502D01*
X322801Y107687D01*
X324666Y108934D01*
X325694Y110473D01*
X325953Y110543D01*
X326847D01*
X327106Y110473D01*
X328134Y108934D01*
X329999Y107687D01*
X330930Y107502D01*
Y113000D01*
X333470D01*
Y107502D01*
X334401Y107687D01*
X336266Y108934D01*
X337294Y110473D01*
X337553Y110543D01*
X338447D01*
X338706Y110473D01*
X339734Y108934D01*
X341599Y107687D01*
X342530Y107502D01*
Y113000D01*
X343800D01*
Y114270D01*
X349298D01*
X349113Y115201D01*
X347866Y117066D01*
X346327Y118094D01*
X346256Y118353D01*
Y119247D01*
X346327Y119506D01*
X347866Y120534D01*
X349113Y122399D01*
X349298Y123330D01*
X343800D01*
Y125870D01*
X349298D01*
X349113Y126801D01*
X347866Y128666D01*
X346001Y129913D01*
X344800Y130152D01*
X344925Y131422D01*
X353376D01*
Y98615D01*
D02*
G37*
G36*
X300040Y99493D02*
X299557Y98318D01*
X294773Y98292D01*
X294690Y98392D01*
X294333Y100187D01*
X293316Y101709D01*
X291795Y102726D01*
X290000Y103083D01*
X288205Y102726D01*
X286684Y101709D01*
X285667Y100187D01*
X285310Y98392D01*
X285667Y96598D01*
X286421Y95469D01*
Y92026D01*
X278948Y84552D01*
X278395Y83725D01*
X278201Y82750D01*
Y75165D01*
X278395Y74190D01*
X278948Y73363D01*
X283410Y68901D01*
Y62122D01*
X283604Y61146D01*
X284156Y60319D01*
X287066Y57410D01*
X287893Y56858D01*
X288868Y56663D01*
X322962D01*
X323938Y56858D01*
X324765Y57410D01*
X334574Y67220D01*
X335480Y67039D01*
X337274Y67396D01*
X338796Y68413D01*
X339813Y69935D01*
X339879Y70269D01*
X341095Y70638D01*
X379715Y32017D01*
X379538Y30759D01*
X379213Y30580D01*
X379068Y30397D01*
X378852Y30307D01*
X378695Y29928D01*
X378439Y29607D01*
X378466Y29375D01*
X378376Y29159D01*
Y3059D01*
X239737Y3059D01*
X239612Y4329D01*
X239630Y4332D01*
X241151Y5349D01*
X242168Y6870D01*
X242525Y8665D01*
X242168Y10460D01*
X241151Y11982D01*
X240998Y12084D01*
X240748Y13603D01*
X241433Y14628D01*
X241790Y16422D01*
X241433Y18217D01*
X240416Y19739D01*
X239649Y20252D01*
Y29981D01*
X240705Y30687D01*
X241216Y30475D01*
X243500Y30175D01*
X245784Y30475D01*
X247913Y31357D01*
X249741Y32759D01*
X251143Y34587D01*
X252025Y36716D01*
X252325Y39000D01*
X252025Y41284D01*
X251143Y43413D01*
X249741Y45241D01*
X247913Y46643D01*
X245784Y47525D01*
X243500Y47825D01*
X241216Y47525D01*
X239087Y46643D01*
X237569Y45478D01*
X236299Y45924D01*
Y52614D01*
X248951Y65266D01*
X250207Y64811D01*
X250374Y63904D01*
X249967Y63295D01*
X249610Y61500D01*
X249967Y59705D01*
X250984Y58184D01*
X252505Y57167D01*
X254300Y56810D01*
X255519Y57052D01*
X256585Y56147D01*
X256620Y56075D01*
X256410Y55019D01*
X256767Y53225D01*
X257784Y51703D01*
X259305Y50686D01*
X261100Y50329D01*
X262895Y50686D01*
X264416Y51703D01*
X265433Y53225D01*
X265790Y55019D01*
X265570Y56127D01*
X265526Y56875D01*
X266492Y57507D01*
X267295Y57667D01*
X268816Y58684D01*
X269833Y60205D01*
X270190Y62000D01*
X269833Y63795D01*
X268816Y65316D01*
X267295Y66333D01*
X265500Y66690D01*
X263705Y66333D01*
X262184Y65316D01*
X261167Y63795D01*
X260810Y62000D01*
X261030Y60892D01*
X261074Y60145D01*
X260108Y59512D01*
X259881Y59467D01*
X258815Y60372D01*
X258780Y60444D01*
X258990Y61500D01*
X258633Y63295D01*
X258578Y63377D01*
Y84561D01*
X280439Y106422D01*
X293111D01*
X300040Y99493D01*
D02*
G37*
G36*
X305077Y94455D02*
X305167Y94005D01*
X306184Y92484D01*
X307705Y91467D01*
X308155Y91377D01*
X315416Y84116D01*
X315416Y84116D01*
X316739Y83232D01*
X318300Y82922D01*
X318300Y82922D01*
X328811D01*
X334388Y77344D01*
X334019Y76129D01*
X333685Y76063D01*
X332163Y75046D01*
X331147Y73524D01*
X330789Y71730D01*
X330970Y70824D01*
X322145Y62000D01*
X296623D01*
X295942Y63270D01*
X296249Y64812D01*
X295892Y66607D01*
X294875Y68129D01*
X293354Y69145D01*
X291559Y69503D01*
X290982Y69388D01*
X290000Y70193D01*
Y75210D01*
X290933Y76606D01*
X291290Y78401D01*
X290933Y80196D01*
X290000Y81592D01*
Y88395D01*
X290772Y89168D01*
X291325Y89994D01*
X291519Y90970D01*
Y94004D01*
X291795Y94059D01*
X293316Y95076D01*
X294333Y96598D01*
X294347Y96666D01*
X302820Y96713D01*
X305077Y94455D01*
D02*
G37*
%LPC*%
G36*
X46250Y236690D02*
X44455Y236333D01*
X42934Y235316D01*
X41917Y233795D01*
X41560Y232000D01*
X41917Y230205D01*
X42934Y228684D01*
X44455Y227667D01*
X46250Y227310D01*
X48045Y227667D01*
X49566Y228684D01*
X50583Y230205D01*
X50940Y232000D01*
X50583Y233795D01*
X49566Y235316D01*
X48045Y236333D01*
X46250Y236690D01*
D02*
G37*
G36*
X118770Y232750D02*
Y216520D01*
X135000D01*
X134786Y218688D01*
X133783Y221995D01*
X132155Y225042D01*
X129963Y227713D01*
X127292Y229904D01*
X124245Y231533D01*
X120938Y232536D01*
X118770Y232750D01*
D02*
G37*
G36*
X116230D02*
X114061Y232536D01*
X110755Y231533D01*
X107708Y229904D01*
X105037Y227713D01*
X102845Y225042D01*
X101217Y221995D01*
X100214Y218688D01*
X100000Y216520D01*
X116230D01*
Y232750D01*
D02*
G37*
G36*
X9250Y219790D02*
X7455Y219433D01*
X5934Y218416D01*
X4917Y216895D01*
X4560Y215100D01*
X4917Y213305D01*
X5934Y211784D01*
X7455Y210767D01*
X9250Y210410D01*
X11045Y210767D01*
X12566Y211784D01*
X13583Y213305D01*
X13940Y215100D01*
X13583Y216895D01*
X12566Y218416D01*
X11045Y219433D01*
X9250Y219790D01*
D02*
G37*
G36*
X147000Y212790D02*
X145205Y212433D01*
X143684Y211416D01*
X142667Y209895D01*
X142310Y208100D01*
X142667Y206305D01*
X143684Y204784D01*
X145205Y203767D01*
X147000Y203410D01*
X148795Y203767D01*
X150316Y204784D01*
X151333Y206305D01*
X151690Y208100D01*
X151333Y209895D01*
X150316Y211416D01*
X148795Y212433D01*
X147000Y212790D01*
D02*
G37*
G36*
X167100Y212540D02*
X165305Y212183D01*
X163784Y211166D01*
X162767Y209645D01*
X162410Y207850D01*
X162767Y206055D01*
X163784Y204534D01*
X165305Y203517D01*
X167100Y203160D01*
X168895Y203517D01*
X170416Y204534D01*
X171433Y206055D01*
X171790Y207850D01*
X171433Y209645D01*
X170416Y211166D01*
X168895Y212183D01*
X167100Y212540D01*
D02*
G37*
G36*
X83250Y187090D02*
X81455Y186733D01*
X79934Y185716D01*
X78917Y184195D01*
X78560Y182400D01*
X78917Y180605D01*
X79934Y179084D01*
X81455Y178067D01*
X83250Y177710D01*
X85045Y178067D01*
X86566Y179084D01*
X87583Y180605D01*
X87940Y182400D01*
X87583Y184195D01*
X86566Y185716D01*
X85045Y186733D01*
X83250Y187090D01*
D02*
G37*
G36*
X39500Y177348D02*
X37549Y176960D01*
X35895Y175855D01*
X34790Y174201D01*
X34402Y172250D01*
X34790Y170299D01*
X35895Y168645D01*
X37549Y167540D01*
X39500Y167152D01*
X41451Y167540D01*
X43105Y168645D01*
X44210Y170299D01*
X44598Y172250D01*
X44210Y174201D01*
X43105Y175855D01*
X41451Y176960D01*
X39500Y177348D01*
D02*
G37*
G36*
X31400Y157490D02*
X29605Y157133D01*
X28084Y156116D01*
X27067Y154595D01*
X26710Y152800D01*
X27067Y151005D01*
X28084Y149484D01*
X29605Y148467D01*
X31400Y148110D01*
X33195Y148467D01*
X34716Y149484D01*
X35733Y151005D01*
X36090Y152800D01*
X35733Y154595D01*
X34716Y156116D01*
X33195Y157133D01*
X31400Y157490D01*
D02*
G37*
G36*
X100270Y16442D02*
Y9770D01*
X106942D01*
X106833Y10599D01*
X106023Y12555D01*
X104734Y14234D01*
X103055Y15523D01*
X101099Y16333D01*
X100270Y16442D01*
D02*
G37*
G36*
X97730D02*
X96901Y16333D01*
X94945Y15523D01*
X93266Y14234D01*
X91977Y12555D01*
X91167Y10599D01*
X91058Y9770D01*
X97730D01*
Y16442D01*
D02*
G37*
G36*
X437500Y230826D02*
X435216Y230525D01*
X433087Y229643D01*
X431259Y228241D01*
X429857Y226413D01*
X428975Y224284D01*
X428675Y222000D01*
X428975Y219716D01*
X429857Y217587D01*
X431259Y215759D01*
X433087Y214357D01*
X435216Y213475D01*
X437500Y213174D01*
X439784Y213475D01*
X441913Y214357D01*
X443741Y215759D01*
X445143Y217587D01*
X446025Y219716D01*
X446325Y222000D01*
X446025Y224284D01*
X445143Y226413D01*
X443741Y228241D01*
X441913Y229643D01*
X439784Y230525D01*
X437500Y230826D01*
D02*
G37*
G36*
X398020Y186998D02*
Y182770D01*
X402248D01*
X402063Y183701D01*
X400816Y185566D01*
X398951Y186813D01*
X398020Y186998D01*
D02*
G37*
G36*
X402248Y180230D02*
X398020D01*
Y176002D01*
X398951Y176187D01*
X400816Y177434D01*
X402063Y179299D01*
X402248Y180230D01*
D02*
G37*
G36*
X434600Y177690D02*
X432805Y177333D01*
X431284Y176316D01*
X430267Y174795D01*
X429910Y173000D01*
X430267Y171205D01*
X431284Y169684D01*
X432805Y168667D01*
X434600Y168310D01*
X436395Y168667D01*
X437916Y169684D01*
X438933Y171205D01*
X439290Y173000D01*
X438933Y174795D01*
X437916Y176316D01*
X436395Y177333D01*
X434600Y177690D01*
D02*
G37*
G36*
X445250Y166940D02*
X443455Y166583D01*
X441934Y165566D01*
X440917Y164045D01*
X440560Y162250D01*
X440917Y160455D01*
X441934Y158934D01*
X443455Y157917D01*
X445250Y157560D01*
X447045Y157917D01*
X448566Y158934D01*
X449583Y160455D01*
X449940Y162250D01*
X449583Y164045D01*
X448566Y165566D01*
X447045Y166583D01*
X445250Y166940D01*
D02*
G37*
G36*
X361399Y123503D02*
X359604Y123146D01*
X358083Y122129D01*
X357066Y120608D01*
X356709Y118813D01*
X357066Y117018D01*
X358083Y115497D01*
X359604Y114480D01*
X359670Y114322D01*
X358868Y113121D01*
X358511Y111327D01*
X358868Y109532D01*
X359885Y108010D01*
X361406Y106994D01*
X363201Y106636D01*
X364996Y106994D01*
X366517Y108010D01*
X367534Y109532D01*
X367891Y111327D01*
X367534Y113121D01*
X366517Y114643D01*
X364996Y115660D01*
X364930Y115818D01*
X365732Y117018D01*
X366089Y118813D01*
X365732Y120608D01*
X364716Y122129D01*
X363194Y123146D01*
X361399Y123503D01*
D02*
G37*
G36*
X378000Y113205D02*
X376205Y112848D01*
X374684Y111832D01*
X373667Y110310D01*
X373310Y108515D01*
X373667Y106720D01*
X374684Y105199D01*
X375451Y104686D01*
Y102498D01*
X368428Y95475D01*
X367876Y94648D01*
X367682Y93673D01*
Y90429D01*
X366914Y89916D01*
X365897Y88395D01*
X365540Y86600D01*
X365897Y84805D01*
X366914Y83284D01*
X368436Y82267D01*
X370230Y81910D01*
X372025Y82267D01*
X373547Y83284D01*
X374564Y84805D01*
X374921Y86600D01*
X374564Y88395D01*
X373547Y89916D01*
X372779Y90429D01*
Y92617D01*
X379802Y99640D01*
X380355Y100467D01*
X380549Y101442D01*
Y104686D01*
X381316Y105199D01*
X382333Y106720D01*
X382690Y108515D01*
X382333Y110310D01*
X381316Y111832D01*
X379795Y112848D01*
X378000Y113205D01*
D02*
G37*
G36*
X426270Y49500D02*
Y33270D01*
X442500D01*
X442286Y35438D01*
X441283Y38745D01*
X439655Y41792D01*
X437463Y44463D01*
X434792Y46655D01*
X431745Y48283D01*
X428438Y49286D01*
X426270Y49500D01*
D02*
G37*
G36*
X423730D02*
X421562Y49286D01*
X418255Y48283D01*
X415208Y46655D01*
X412537Y44463D01*
X410345Y41792D01*
X408717Y38745D01*
X407714Y35438D01*
X407500Y33270D01*
X423730D01*
Y49500D01*
D02*
G37*
G36*
X442500Y30730D02*
X426270D01*
Y14500D01*
X428438Y14714D01*
X431745Y15717D01*
X434792Y17345D01*
X437463Y19537D01*
X439655Y22208D01*
X441283Y25255D01*
X442286Y28561D01*
X442500Y30730D01*
D02*
G37*
G36*
X423730D02*
X407500D01*
X407714Y28561D01*
X408717Y25255D01*
X410345Y22208D01*
X412537Y19537D01*
X415208Y17345D01*
X418255Y15717D01*
X421562Y14714D01*
X423730Y14500D01*
Y30730D01*
D02*
G37*
G36*
X314296Y191458D02*
X312502Y191101D01*
X310980Y190084D01*
X309963Y188563D01*
X309685Y187163D01*
X308544Y186095D01*
X308523Y186099D01*
X307868Y185969D01*
X306404Y186937D01*
X306333Y187295D01*
X305316Y188816D01*
X303795Y189833D01*
X302000Y190190D01*
X300205Y189833D01*
X298684Y188816D01*
X297667Y187295D01*
X297310Y185500D01*
X297667Y183705D01*
X298684Y182184D01*
X300205Y181167D01*
X302000Y180810D01*
X302633Y180936D01*
X304119Y179972D01*
X304190Y179614D01*
X305207Y178093D01*
X306729Y177076D01*
X308523Y176719D01*
X310318Y177076D01*
X311840Y178093D01*
X312857Y179614D01*
X313135Y181014D01*
X314276Y182082D01*
X314296Y182078D01*
X316091Y182435D01*
X317613Y183452D01*
X318629Y184973D01*
X318986Y186768D01*
X318629Y188563D01*
X317613Y190084D01*
X316091Y191101D01*
X314296Y191458D01*
D02*
G37*
G36*
X384480Y186998D02*
X383549Y186813D01*
X381684Y185566D01*
X380437Y183701D01*
X380252Y182770D01*
X384480D01*
Y186998D01*
D02*
G37*
G36*
X325645Y187690D02*
X323850Y187333D01*
X322329Y186316D01*
X321312Y184795D01*
X320955Y183000D01*
X321312Y181205D01*
X322329Y179684D01*
X323850Y178667D01*
X325645Y178310D01*
X327440Y178667D01*
X328961Y179684D01*
X329978Y181205D01*
X330335Y183000D01*
X329978Y184795D01*
X328961Y186316D01*
X327440Y187333D01*
X325645Y187690D01*
D02*
G37*
G36*
X384480Y180230D02*
X380252D01*
X380437Y179299D01*
X381684Y177434D01*
X383549Y176187D01*
X384480Y176002D01*
Y180230D01*
D02*
G37*
G36*
X349517Y171448D02*
X347722Y171091D01*
X346201Y170074D01*
X346060Y169865D01*
X344414Y169562D01*
X343682Y170051D01*
X341888Y170408D01*
X340093Y170051D01*
X339040Y169347D01*
X337510Y169350D01*
X335989Y170367D01*
X334194Y170724D01*
X332399Y170367D01*
X331263Y169608D01*
X329765Y169563D01*
X328244Y170580D01*
X326449Y170937D01*
X324654Y170580D01*
X323132Y169563D01*
X322902Y169218D01*
X321857D01*
X321479Y169375D01*
X320045Y170333D01*
X318250Y170690D01*
X316455Y170333D01*
X314934Y169316D01*
X313917Y167795D01*
X313560Y166000D01*
X313917Y164205D01*
X314934Y162684D01*
X316455Y161667D01*
X318250Y161310D01*
X320045Y161667D01*
X321566Y162684D01*
X321797Y163028D01*
X322841D01*
X323220Y162872D01*
X324654Y161914D01*
X326449Y161556D01*
X328244Y161914D01*
X329380Y162673D01*
X330878Y162718D01*
X332399Y161701D01*
X334194Y161344D01*
X335989Y161701D01*
X337042Y162404D01*
X338571Y162402D01*
X340093Y161385D01*
X341888Y161028D01*
X343682Y161385D01*
X345204Y162402D01*
X345344Y162612D01*
X347048Y162875D01*
X347722Y162425D01*
X349517Y162068D01*
X351312Y162425D01*
X351910Y162825D01*
X352917Y163330D01*
X353538Y162501D01*
X353984Y161834D01*
X355505Y160817D01*
X357300Y160460D01*
X359095Y160817D01*
X360616Y161834D01*
X361633Y163355D01*
X361990Y165150D01*
X361633Y166945D01*
X360616Y168466D01*
X359095Y169483D01*
X357300Y169840D01*
X355505Y169483D01*
X354907Y169083D01*
X353900Y168578D01*
X353279Y169407D01*
X352834Y170074D01*
X351312Y171091D01*
X349517Y171448D01*
D02*
G37*
G36*
X307730Y153298D02*
X306799Y153113D01*
X304934Y151866D01*
X303687Y150001D01*
X303502Y149070D01*
X307730D01*
Y153298D01*
D02*
G37*
G36*
X345070Y153298D02*
Y149070D01*
X349298D01*
X349113Y150001D01*
X347866Y151866D01*
X346001Y153113D01*
X345070Y153298D01*
D02*
G37*
G36*
X307730Y146530D02*
X303502D01*
X303687Y145599D01*
X304934Y143734D01*
X306799Y142487D01*
X307730Y142302D01*
Y146530D01*
D02*
G37*
G36*
X333470Y153298D02*
Y147800D01*
Y142302D01*
X334401Y142487D01*
X336266Y143734D01*
X337294Y145273D01*
X337553Y145344D01*
X338447D01*
X338706Y145273D01*
X339734Y143734D01*
X341599Y142487D01*
X342530Y142302D01*
Y147800D01*
Y153298D01*
X341599Y153113D01*
X339734Y151866D01*
X338706Y150327D01*
X338447Y150256D01*
X337553D01*
X337294Y150327D01*
X336266Y151866D01*
X334401Y153113D01*
X333470Y153298D01*
D02*
G37*
G36*
X321870D02*
Y147800D01*
Y142302D01*
X322801Y142487D01*
X324666Y143734D01*
X325694Y145273D01*
X325953Y145344D01*
X326847D01*
X327106Y145273D01*
X328134Y143734D01*
X329999Y142487D01*
X330930Y142302D01*
Y147800D01*
Y153298D01*
X329999Y153113D01*
X328134Y151866D01*
X327106Y150327D01*
X326847Y150257D01*
X325953D01*
X325694Y150327D01*
X324666Y151866D01*
X322801Y153113D01*
X321870Y153298D01*
D02*
G37*
G36*
X310270D02*
Y147800D01*
Y142302D01*
X311201Y142487D01*
X313066Y143734D01*
X314094Y145273D01*
X314353Y145344D01*
X315247D01*
X315506Y145273D01*
X316534Y143734D01*
X318399Y142487D01*
X319330Y142302D01*
Y147800D01*
Y153298D01*
X318399Y153113D01*
X316534Y151866D01*
X315506Y150327D01*
X315247Y150256D01*
X314353D01*
X314094Y150327D01*
X313066Y151866D01*
X311201Y153113D01*
X310270Y153298D01*
D02*
G37*
G36*
X349298Y146530D02*
X345070D01*
Y142302D01*
X346001Y142487D01*
X347866Y143734D01*
X349113Y145599D01*
X349298Y146530D01*
D02*
G37*
G36*
X273900Y143690D02*
X272105Y143333D01*
X270584Y142316D01*
X269567Y140795D01*
X269210Y139000D01*
X269567Y137205D01*
X270584Y135684D01*
X272105Y134667D01*
X273900Y134310D01*
X275695Y134667D01*
X277216Y135684D01*
X278233Y137205D01*
X278590Y139000D01*
X278233Y140795D01*
X277216Y142316D01*
X275695Y143333D01*
X273900Y143690D01*
D02*
G37*
G36*
X349298Y111730D02*
X345070D01*
Y107502D01*
X346001Y107687D01*
X347866Y108934D01*
X349113Y110799D01*
X349298Y111730D01*
D02*
G37*
G36*
X307730Y111730D02*
X303502D01*
X303687Y110799D01*
X304934Y108934D01*
X306799Y107687D01*
X307730Y107502D01*
Y111730D01*
D02*
G37*
G36*
X276763Y69443D02*
X274969Y69086D01*
X273447Y68070D01*
X272430Y66548D01*
X272073Y64753D01*
X272430Y62958D01*
X273447Y61437D01*
X274969Y60420D01*
X276763Y60063D01*
X278558Y60420D01*
X280080Y61437D01*
X281097Y62958D01*
X281454Y64753D01*
X281097Y66548D01*
X280080Y68070D01*
X278558Y69086D01*
X276763Y69443D01*
D02*
G37*
G36*
X264400Y28525D02*
X262605Y28168D01*
X261084Y27151D01*
X260067Y25630D01*
X259710Y23835D01*
X260067Y22040D01*
X261084Y20519D01*
X262605Y19502D01*
X264400Y19145D01*
X266195Y19502D01*
X267717Y20519D01*
X268733Y22040D01*
X269090Y23835D01*
X268733Y25630D01*
X267717Y27151D01*
X266195Y28168D01*
X264400Y28525D01*
D02*
G37*
G36*
X297813Y84048D02*
X296019Y83691D01*
X294497Y82674D01*
X293480Y81153D01*
X293123Y79358D01*
X293480Y77563D01*
X294497Y76041D01*
X296019Y75025D01*
X297813Y74668D01*
X299608Y75025D01*
X301130Y76041D01*
X302147Y77563D01*
X302504Y79358D01*
X302147Y81153D01*
X301130Y82674D01*
X299608Y83691D01*
X297813Y84048D01*
D02*
G37*
G36*
X311441Y76886D02*
X309646Y76529D01*
X308124Y75512D01*
X307107Y73991D01*
X306750Y72196D01*
X307107Y70401D01*
X308124Y68880D01*
X309646Y67863D01*
X311441Y67506D01*
X313235Y67863D01*
X314757Y68880D01*
X315774Y70401D01*
X316131Y72196D01*
X315774Y73991D01*
X314757Y75512D01*
X313235Y76529D01*
X311441Y76886D01*
D02*
G37*
%LPD*%
D13*
X105850Y39464D02*
Y40590D01*
X109600Y44340D02*
Y68180D01*
X105850Y40590D02*
X109600Y44340D01*
X88015Y110116D02*
Y111271D01*
X76546Y119446D02*
X77350Y120250D01*
X88015Y110116D02*
X97400Y100730D01*
X76099Y115151D02*
X76546Y115598D01*
X69703Y128023D02*
Y140078D01*
X83572Y115714D02*
X88015Y111271D01*
X69701Y128022D02*
X69703Y128023D01*
X76546Y115598D02*
Y119446D01*
X216471Y157165D02*
X217778Y155858D01*
X222244Y150270D02*
X250500Y122013D01*
X217778Y154722D02*
Y155858D01*
X221750Y150270D02*
X222244D01*
X217778Y154722D02*
X222230Y150270D01*
X212628Y160872D02*
X216403Y157097D01*
X216471Y157165D02*
Y159012D01*
X214611Y160872D02*
X216471Y159012D01*
X212628Y160872D02*
X214611D01*
X211642D02*
X212628D01*
X141750Y134750D02*
X154850Y147850D01*
Y148900D01*
X250500Y98027D02*
Y122013D01*
X247882Y95409D02*
X250500Y98027D01*
X247882Y82118D02*
Y95409D01*
Y82118D02*
X248932Y81068D01*
Y68852D02*
Y81068D01*
X233750Y53670D02*
X248932Y68852D01*
X233750Y34961D02*
Y53670D01*
Y34961D02*
X237100Y31611D01*
Y16422D02*
Y31611D01*
X55841Y151600D02*
X60441Y147000D01*
X55000Y151600D02*
X55841D01*
X60441Y147000D02*
X67750D01*
X97400Y34300D02*
X105600Y26100D01*
X97400Y34300D02*
Y100730D01*
X124099Y65516D02*
X124810Y66227D01*
X124099Y53479D02*
Y65516D01*
X113750Y43130D02*
X124099Y53479D01*
X109600Y68180D02*
X128000Y86580D01*
X113750Y34619D02*
Y43130D01*
X93750Y33000D02*
Y97500D01*
X76099Y115151D02*
X93750Y97500D01*
X67750Y147000D02*
X70000Y144750D01*
X69703Y140078D02*
X70874Y141250D01*
X96800D01*
X98250Y144750D02*
X106700Y136300D01*
X70000Y144750D02*
X98250D01*
X96800Y141250D02*
X105250Y132800D01*
X116699Y136300D02*
X117373Y136973D01*
X105250Y132800D02*
X110596D01*
X116646Y126750D01*
X106700Y136300D02*
X116699D01*
X130042Y134750D02*
X141750D01*
X122043Y126750D02*
X130042Y134750D01*
X128000Y86580D02*
Y113821D01*
X122043Y119778D02*
X128000Y113821D01*
X93750Y33000D02*
X106250Y20500D01*
X113750Y34619D02*
X120075Y28294D01*
Y25675D02*
Y28294D01*
Y25675D02*
X127750Y18000D01*
X108570Y26100D02*
X122270Y12400D01*
X105600Y26100D02*
X108570D01*
X122270Y12400D02*
X130070D01*
X222698Y216553D02*
X227196D01*
X200630Y238620D02*
X222698Y216553D01*
X227196D02*
X228000Y215749D01*
X259875Y186250D02*
X280875Y165250D01*
X304100D01*
X259500Y186250D02*
X259875D01*
X251542Y185625D02*
X290750Y146417D01*
X251542Y185625D02*
Y186292D01*
X290750Y145750D02*
Y146417D01*
X288970Y90970D02*
Y96226D01*
X280750Y82750D02*
X288970Y90970D01*
X290000Y97256D02*
Y98392D01*
X288970Y96226D02*
X290000Y97256D01*
X134508Y23958D02*
X139750Y29200D01*
X130070Y12400D02*
X134508Y16838D01*
Y23958D01*
X122043Y119778D02*
Y126750D01*
X116646D02*
X122043D01*
X370230Y86600D02*
Y93673D01*
X157250Y125750D02*
X168250D01*
X146250D02*
X157250D01*
X135250D02*
X146250D01*
X157250Y114750D02*
X168250D01*
X146250D02*
X157250D01*
X135250D02*
X146250D01*
X157250Y103750D02*
X168250D01*
X146250D02*
X157250D01*
X135250D02*
X146250D01*
X157250Y92750D02*
X168250D01*
X146250D02*
X157250D01*
X135250D02*
X146250D01*
X168250Y114750D02*
Y125750D01*
Y103750D02*
Y114750D01*
Y92750D02*
Y103750D01*
X157250Y114750D02*
Y125750D01*
Y103750D02*
Y114750D01*
Y92750D02*
Y103750D01*
X146250Y114750D02*
Y125750D01*
Y103750D02*
Y114750D01*
Y92750D02*
Y103750D01*
X135250Y114750D02*
Y125750D01*
Y103750D02*
Y114750D01*
Y92750D02*
Y103750D01*
X378000Y101442D02*
Y108515D01*
X370230Y93673D02*
X378000Y101442D01*
X322962Y59212D02*
X335480Y71730D01*
X280750Y75165D02*
Y82750D01*
X285959Y62122D02*
Y69956D01*
X280750Y75165D02*
X285959Y69956D01*
Y62122D02*
X288868Y59212D01*
X322962D01*
D98*
X343800Y147800D02*
D03*
X320600Y113000D02*
D03*
X309000D02*
D03*
X320600Y124600D02*
D03*
X309000D02*
D03*
Y147800D02*
D03*
X343800Y113000D02*
D03*
X320600Y147800D02*
D03*
X343800Y124600D02*
D03*
X332200D02*
D03*
Y113000D02*
D03*
Y147800D02*
D03*
X385750Y181500D02*
D03*
X396750D02*
D03*
X86250Y64750D02*
D03*
X86500Y46750D02*
D03*
X105850Y39464D02*
D03*
X108000Y31700D02*
D03*
X83572Y115714D02*
D03*
X77350Y120250D02*
D03*
X69701Y128022D02*
D03*
X77401Y127950D02*
D03*
X86350Y135000D02*
D03*
X230101Y158238D02*
D03*
X222230Y150270D02*
D03*
X200377Y141953D02*
D03*
X154850Y148900D02*
D03*
X212500Y170000D02*
D03*
X86750Y77000D02*
D03*
X55000Y151600D02*
D03*
X47400Y159900D02*
D03*
X29100Y145059D02*
D03*
X31400Y152800D02*
D03*
X115200Y52500D02*
D03*
X129699Y57756D02*
D03*
X88150Y90800D02*
D03*
X53533Y221150D02*
D03*
X46200Y218800D02*
D03*
X30250Y227500D02*
D03*
X29400Y198100D02*
D03*
X106250Y20500D02*
D03*
X135913Y62874D02*
D03*
X124810Y66227D02*
D03*
X107000Y73500D02*
D03*
X103166Y80177D02*
D03*
X109730Y90850D02*
D03*
X200630Y238620D02*
D03*
X228000Y215749D02*
D03*
X227814Y223447D02*
D03*
X188001Y230001D02*
D03*
X447661Y204569D02*
D03*
X451001Y228001D02*
D03*
Y212001D02*
D03*
Y196001D02*
D03*
Y52001D02*
D03*
X439001Y236001D02*
D03*
X423001Y108001D02*
D03*
X399001Y12001D02*
D03*
X231001Y236001D02*
D03*
X235001Y228001D02*
D03*
X304100Y165250D02*
D03*
X259500Y186250D02*
D03*
X251542Y186292D02*
D03*
X290750Y145750D02*
D03*
X273900Y139000D02*
D03*
X278647Y179102D02*
D03*
X290000Y98392D02*
D03*
X139750Y29200D02*
D03*
X352750Y214750D02*
D03*
X345911Y220616D02*
D03*
X307500Y212001D02*
D03*
X325645Y183000D02*
D03*
X265500Y62000D02*
D03*
X254300Y61500D02*
D03*
X261100Y55019D02*
D03*
X213750Y26850D02*
D03*
X237835Y8665D02*
D03*
X237100Y16422D02*
D03*
X127750Y18000D02*
D03*
X154956Y61136D02*
D03*
X149141Y67625D02*
D03*
X143756Y61961D02*
D03*
X160341Y66641D02*
D03*
X174044Y65275D02*
D03*
X167233Y61244D02*
D03*
X177714Y72044D02*
D03*
X187828Y68500D02*
D03*
X194890Y71570D02*
D03*
X394607Y206850D02*
D03*
X383915Y219900D02*
D03*
X318000Y197968D02*
D03*
X314296Y186768D02*
D03*
X353654Y183350D02*
D03*
X362784Y159744D02*
D03*
X357300Y165150D02*
D03*
X302000Y185500D02*
D03*
X308523Y181409D02*
D03*
X318250Y166000D02*
D03*
X326449Y166247D02*
D03*
X334194Y166034D02*
D03*
X341888Y165718D02*
D03*
X349517Y166758D02*
D03*
X362890Y150556D02*
D03*
X333266Y95400D02*
D03*
X361682Y103778D02*
D03*
X185400Y36900D02*
D03*
X186328Y179144D02*
D03*
X205072Y201100D02*
D03*
X152758Y182759D02*
D03*
X122014Y178850D02*
D03*
X117373Y136973D02*
D03*
X113446Y143597D02*
D03*
X122100Y152742D02*
D03*
X95500Y180500D02*
D03*
X406630Y216380D02*
D03*
X414095Y220025D02*
D03*
X406750Y209500D02*
D03*
X318015Y233839D02*
D03*
X416000Y208000D02*
D03*
X363201Y111327D02*
D03*
X361399Y118813D02*
D03*
X379426Y93243D02*
D03*
X370230Y86600D02*
D03*
X411605Y175395D02*
D03*
X389520Y149850D02*
D03*
X419250Y172500D02*
D03*
X387500Y172750D02*
D03*
X390270Y57311D02*
D03*
X306001Y13001D02*
D03*
X264400Y23835D02*
D03*
X93600Y197787D02*
D03*
X111080Y7580D02*
D03*
X169530Y220100D02*
D03*
X147000Y208100D02*
D03*
X167100Y207850D02*
D03*
X358502Y48001D02*
D03*
X341002Y13001D02*
D03*
X250001D02*
D03*
X243001Y55001D02*
D03*
X246501Y20001D02*
D03*
X204501Y34001D02*
D03*
X89001Y237002D02*
D03*
X82001D02*
D03*
X168250Y125750D02*
D03*
X157250D02*
D03*
X168250Y114750D02*
D03*
X157250D02*
D03*
X168250Y92750D02*
D03*
Y103750D02*
D03*
X157250D02*
D03*
Y92750D02*
D03*
X146250Y114750D02*
D03*
Y125750D02*
D03*
X135250D02*
D03*
Y114750D02*
D03*
X146250Y92750D02*
D03*
Y103750D02*
D03*
X135250Y92750D02*
D03*
Y103750D02*
D03*
X90686Y225235D02*
D03*
X167031Y24100D02*
D03*
X72250Y214050D02*
D03*
X243332Y77449D02*
D03*
X442412Y104678D02*
D03*
X386250Y30750D02*
D03*
X335480Y71730D02*
D03*
X328980Y78230D02*
D03*
X352706Y78800D02*
D03*
X297813Y79358D02*
D03*
X309500Y95800D02*
D03*
X438411Y143000D02*
D03*
X362250Y142600D02*
D03*
X272945Y75992D02*
D03*
X291559Y64812D02*
D03*
X286600Y78401D02*
D03*
X311441Y72196D02*
D03*
X378000Y108515D02*
D03*
X399500Y113869D02*
D03*
X291000Y17400D02*
D03*
X279233Y37133D02*
D03*
X351000Y16750D02*
D03*
X369500Y17250D02*
D03*
X337497Y64100D02*
D03*
X196855Y149355D02*
D03*
X201900Y85803D02*
D03*
Y77003D02*
D03*
Y100625D02*
D03*
X231500Y112000D02*
D03*
X216898Y102491D02*
D03*
X445250Y76250D02*
D03*
X445500Y88500D02*
D03*
X250250Y138000D02*
D03*
X9250Y215100D02*
D03*
X46250Y232000D02*
D03*
X83250Y182400D02*
D03*
X230521Y199095D02*
D03*
X366152Y68875D02*
D03*
X270750Y48830D02*
D03*
X276763Y64753D02*
D03*
X435250Y156000D02*
D03*
X434600Y173000D02*
D03*
X445250Y162250D02*
D03*
X438411Y125000D02*
D03*
X385719Y112751D02*
D03*
X221835Y108400D02*
D03*
X194760Y91504D02*
D03*
X192509Y102755D02*
D03*
D106*
X73000Y186250D02*
D03*
Y177250D02*
D03*
Y168250D02*
D03*
X63000Y186250D02*
D03*
Y177250D02*
D03*
Y168250D02*
D03*
D107*
X187407Y68921D02*
Y77001D01*
X184808Y79600D02*
Y137308D01*
Y79600D02*
X187407Y77001D01*
Y68921D02*
X187828Y68500D01*
X122100Y152742D02*
X131358Y162000D01*
X175754D01*
X178209Y159545D01*
X186069D02*
X196259Y149355D01*
X178209Y159545D02*
X186069D01*
X196259Y149355D02*
X196855D01*
X184808Y137308D02*
X196855Y149355D01*
D108*
X77551Y127800D02*
X106950D01*
X77401Y127950D02*
X77551Y127800D01*
X205392Y147875D02*
X222059Y131208D01*
X222333D02*
X239000Y114541D01*
Y102791D02*
Y114541D01*
X205392Y147875D02*
Y150858D01*
X180694Y165545D02*
X190706D01*
X205392Y150858D01*
X211892Y150568D02*
X224033Y138427D01*
X245500Y100098D02*
Y117233D01*
X224033Y138427D02*
X224307D01*
X222059Y131208D02*
X222333D01*
X224307Y138427D02*
X245500Y117233D01*
X211892Y150568D02*
Y153551D01*
X204792Y160650D02*
X211892Y153551D01*
X204792Y160650D02*
X206642Y162500D01*
X244500Y202000D02*
X251071D01*
X206642Y163817D02*
X212500Y169675D01*
Y170000D01*
X244500Y202000D01*
X206642Y162500D02*
Y163817D01*
X193398Y172045D02*
X204792Y160650D01*
X241767Y96365D02*
X245500Y100098D01*
X175400Y39191D02*
X239000Y102791D01*
X241767Y83075D02*
Y96365D01*
X254300Y61500D02*
X254500Y61700D01*
Y86250D01*
X279125Y110875D01*
X106950Y127800D02*
X120750Y114000D01*
X29400Y198100D02*
X44900D01*
X53500Y206700D01*
Y221150D01*
X116638Y82388D02*
X120750Y86500D01*
Y114000D01*
X107000Y73500D02*
X115888Y82388D01*
X116638D01*
X231231Y232096D02*
X235001Y228326D01*
X231231Y232096D02*
Y235772D01*
X231001Y236001D02*
X231231Y235772D01*
X235001Y228001D02*
Y228326D01*
X125750Y178850D02*
Y187000D01*
Y178250D02*
Y178850D01*
X278853Y179102D02*
X290565Y190815D01*
X278647Y179102D02*
X278853D01*
X337962Y210351D02*
Y222708D01*
X334960Y207350D02*
X337962Y210351D01*
X315059Y207350D02*
X334960D01*
X337962Y222708D02*
X346813Y231560D01*
X395190D01*
X290565Y190815D02*
Y193315D01*
X302151Y204901D01*
X213750Y26850D02*
X213971Y27071D01*
Y55279D01*
X406690Y209560D02*
Y216389D01*
X406665Y216415D02*
X406690Y216389D01*
X302151Y204901D02*
X312610D01*
X315059Y207350D01*
X175400Y32469D02*
Y39191D01*
X148283Y168000D02*
X178239D01*
X180694Y165545D01*
X180931Y174500D02*
X183387Y172045D01*
X150976Y174500D02*
X180931D01*
X147226Y178250D02*
X150976Y174500D01*
X144533Y171750D02*
X148283Y168000D01*
X183387Y172045D02*
X193398D01*
X116950Y170200D02*
X118500Y171750D01*
X122014Y178850D02*
X125750D01*
X112500Y166212D02*
X116488Y170200D01*
X116950D01*
X118500Y171750D02*
X144533D01*
X125750Y178250D02*
X147226D01*
X103000Y160929D02*
Y183981D01*
Y160929D02*
X106429Y157500D01*
X103063Y184045D02*
Y188187D01*
X93600Y197650D02*
X103063Y188187D01*
X106429Y157500D02*
X109500D01*
X112250Y154750D01*
X103000Y183981D02*
X103063Y184045D01*
X395190Y231560D02*
X401786Y224965D01*
Y221549D02*
X406630Y216704D01*
X406690Y209560D02*
X406750Y209500D01*
X401786Y221549D02*
Y224965D01*
X406630Y216380D02*
Y216704D01*
X317926Y233750D02*
X318015Y233839D01*
X269880Y233750D02*
X317926D01*
X366250Y135500D02*
X379929Y149179D01*
Y150299D01*
X393608Y163978D01*
X400188D02*
X411605Y175395D01*
X393608Y163978D02*
X400188D01*
X213971Y55279D02*
X241767Y83075D01*
X93600Y197650D02*
Y197787D01*
X256000Y219870D02*
X269880Y233750D01*
X251071Y202000D02*
X256000Y206929D01*
Y219870D01*
X167031Y24100D02*
X175400Y32469D01*
X241767Y79014D02*
Y83075D01*
Y79014D02*
X243332Y77449D01*
X318300Y87000D02*
X330500D01*
X386250Y30750D02*
Y31075D01*
X385650Y31675D02*
X386250Y31075D01*
X385650Y31675D02*
Y31850D01*
X330500Y87000D02*
X385650Y31850D01*
X309500Y95800D02*
X318300Y87000D01*
X279125Y110875D02*
X303750Y135500D01*
X279500Y110500D02*
X294800D01*
X279125Y110875D02*
X279500Y110500D01*
X294800D02*
X309500Y95800D01*
X366250Y135500D02*
X428750D01*
X303750D02*
X366250D01*
X436020Y142770D02*
X438181D01*
X438411Y143000D01*
X428750Y135500D02*
X436020Y142770D01*
X117750Y195000D02*
X125750Y187000D01*
X109250Y195000D02*
X117750D01*
X83100Y221150D02*
X109250Y195000D01*
X53500Y221150D02*
X83100D01*
D109*
X345911Y191093D02*
Y220616D01*
Y191093D02*
X353654Y183350D01*
D110*
X243250Y236500D02*
D03*
X219250D02*
D03*
X75000Y8500D02*
D03*
X99000D02*
D03*
D111*
X177950Y229750D02*
D03*
X165250D02*
D03*
X112250Y180150D02*
D03*
Y167450D02*
D03*
D112*
X152550Y229750D02*
D03*
D113*
X437500Y222000D02*
D03*
X317500D02*
D03*
X243500Y39000D02*
D03*
X123500D02*
D03*
D114*
X112250Y154750D02*
D03*
D115*
X39500Y213750D02*
D03*
Y172250D02*
D03*
D117*
X391250Y181500D02*
D03*
D118*
X275000Y212000D02*
D03*
X117500Y215250D02*
D03*
X425000Y32000D02*
D03*
M02*
