G04*
G04 #@! TF.GenerationSoftware,Altium Limited,Altium Designer,23.3.1 (30)*
G04*
G04 Layer_Color=16711935*
%FSLAX44Y44*%
%MOMM*%
G71*
G04*
G04 #@! TF.SameCoordinates,1BDB8193-2A7E-4E3D-832C-0021DEAB59C5*
G04*
G04*
G04 #@! TF.FilePolarity,Negative*
G04*
G01*
G75*
%ADD24R,0.5725X0.6153*%
%ADD26R,0.7000X0.7000*%
%ADD27R,0.7000X0.7000*%
%ADD28R,1.0621X1.2578*%
%ADD29R,0.5000X0.6000*%
%ADD33R,0.6000X0.5000*%
%ADD40R,0.9121X1.1311*%
%ADD41R,0.6000X0.5000*%
%ADD44R,0.5000X0.5000*%
%ADD47R,0.7154X0.6725*%
%ADD48R,1.1311X0.9121*%
%ADD60R,0.5000X0.5000*%
%ADD68C,1.9000*%
%ADD69C,1.2032*%
%ADD70R,0.8032X0.7532*%
%ADD82R,1.6032X1.2032*%
%ADD94R,0.7532X0.8032*%
%ADD96C,1.3032*%
%ADD97C,0.5000*%
%ADD98C,1.2532*%
%ADD99R,1.2532X1.2532*%
%ADD100C,1.6532*%
%ADD101R,1.2532X1.2532*%
%ADD102C,0.9032*%
%ADD103C,5.2032*%
%ADD104C,0.7032*%
%ADD105C,0.6000*%
%ADD122R,0.4100X0.6600*%
%ADD123R,1.1500X0.5700*%
%ADD131R,6.0000X6.0000*%
%ADD132R,0.6000X0.2400*%
%ADD133R,0.2400X0.6000*%
%ADD134R,1.5781X1.5562*%
%ADD135R,3.0988X1.4986*%
%ADD136R,3.0988X0.7112*%
%ADD140R,0.6725X0.7154*%
%ADD141R,0.8500X0.9500*%
%ADD145R,0.3500X0.6500*%
%ADD147R,1.0000X1.8000*%
%ADD156R,0.7632X0.8332*%
%ADD157R,1.4032X1.2032*%
%ADD158R,1.2032X1.2032*%
%ADD159R,1.4032X0.7032*%
%ADD160R,1.1032X1.8032*%
%ADD161R,0.7032X1.2032*%
%ADD162R,1.8032X1.1032*%
%ADD163R,1.2032X0.7032*%
%ADD164R,1.2954X2.1082*%
%ADD165R,0.8532X0.9032*%
%ADD166R,0.6532X0.6532*%
%ADD167O,1.1532X0.4032*%
%ADD168O,0.4032X1.1532*%
%ADD169R,4.8032X4.8032*%
%ADD170R,1.1732X1.1032*%
%ADD171R,1.2032X1.3532*%
%ADD172R,0.5032X1.2032*%
%ADD173R,1.3532X1.2032*%
%ADD174R,1.8032X1.4532*%
D24*
X63000Y66619D02*
D03*
Y75191D02*
D03*
X385750Y144286D02*
D03*
Y135714D02*
D03*
Y127036D02*
D03*
Y118464D02*
D03*
D26*
X38750Y232250D02*
D03*
X24750D02*
D03*
D27*
X80000Y193250D02*
D03*
Y207250D02*
D03*
D28*
X189750Y170794D02*
D03*
Y154750D02*
D03*
D29*
X71000Y195500D02*
D03*
X61000D02*
D03*
D33*
X38750Y224750D02*
D03*
Y214750D02*
D03*
D40*
X162000Y176500D02*
D03*
Y163689D02*
D03*
X385500Y71561D02*
D03*
Y58750D02*
D03*
X263750Y89155D02*
D03*
Y76345D02*
D03*
D41*
X101750Y125250D02*
D03*
X90751D02*
D03*
X101750Y133250D02*
D03*
X90751D02*
D03*
D44*
X194250Y76750D02*
D03*
X184250D02*
D03*
X122250Y145500D02*
D03*
X112250D02*
D03*
X199750Y132500D02*
D03*
X189750D02*
D03*
D47*
X444571Y97000D02*
D03*
X435000D02*
D03*
X327036Y17500D02*
D03*
X317464D02*
D03*
X96786Y171250D02*
D03*
X87214D02*
D03*
X444571Y67000D02*
D03*
X435000D02*
D03*
D48*
X373905Y183750D02*
D03*
X361095D02*
D03*
D60*
X24750Y225250D02*
D03*
Y215250D02*
D03*
X274000Y93000D02*
D03*
Y83000D02*
D03*
X371250Y79500D02*
D03*
Y69500D02*
D03*
X380250Y174500D02*
D03*
Y164500D02*
D03*
D68*
X284500Y212000D02*
G03*
X284500Y212000I-9500J0D01*
G01*
X127000Y215250D02*
G03*
X127000Y215250I-9500J0D01*
G01*
X434500Y32000D02*
G03*
X434500Y32000I-9500J0D01*
G01*
D69*
X94250Y24750D02*
D03*
X215500Y215500D02*
D03*
X197250Y215750D02*
D03*
X62750Y227000D02*
D03*
X81250D02*
D03*
D70*
X309250Y64250D02*
D03*
X300750D02*
D03*
D82*
X228000Y29750D02*
D03*
X154500Y29250D02*
D03*
D94*
X16500Y224250D02*
D03*
Y215750D02*
D03*
X386750Y98250D02*
D03*
Y89750D02*
D03*
D96*
X243250Y236500D02*
D03*
X219250D02*
D03*
X75000Y8500D02*
D03*
X99000D02*
D03*
D97*
X343800Y147800D02*
D03*
X320600Y113000D02*
D03*
X309000D02*
D03*
X320600Y124600D02*
D03*
X309000D02*
D03*
Y147800D02*
D03*
X343800Y113000D02*
D03*
X320600Y147800D02*
D03*
X343800Y124600D02*
D03*
X332200D02*
D03*
Y113000D02*
D03*
Y147800D02*
D03*
D98*
X177950Y229750D02*
D03*
X165250D02*
D03*
X112250Y180150D02*
D03*
Y167450D02*
D03*
D99*
X152550Y229750D02*
D03*
D100*
X437500Y222000D02*
D03*
X317500D02*
D03*
X243500Y39000D02*
D03*
X123500D02*
D03*
D101*
X112250Y154750D02*
D03*
D102*
X39500Y205750D02*
D03*
Y164250D02*
D03*
D103*
X275000Y212000D02*
D03*
X117500Y215250D02*
D03*
X425000Y32000D02*
D03*
D104*
X168250Y125750D02*
D03*
X157250D02*
D03*
X168250Y114750D02*
D03*
X157250D02*
D03*
X168250Y92750D02*
D03*
Y103750D02*
D03*
X157250D02*
D03*
Y92750D02*
D03*
X146250Y114750D02*
D03*
Y125750D02*
D03*
X135250D02*
D03*
Y114750D02*
D03*
X146250Y92750D02*
D03*
Y103750D02*
D03*
X135250Y92750D02*
D03*
Y103750D02*
D03*
D105*
X73000Y186250D02*
D03*
Y177250D02*
D03*
Y168250D02*
D03*
X63000Y186250D02*
D03*
Y177250D02*
D03*
Y168250D02*
D03*
D122*
X62950Y50000D02*
D03*
X73050D02*
D03*
D123*
X63000Y23207D02*
D03*
Y37507D02*
D03*
D131*
X326400Y130400D02*
D03*
D132*
X370400Y92891D02*
D03*
Y97892D02*
D03*
Y102893D02*
D03*
Y107894D02*
D03*
Y112896D02*
D03*
Y117897D02*
D03*
Y122898D02*
D03*
Y127899D02*
D03*
Y132901D02*
D03*
Y137902D02*
D03*
Y142903D02*
D03*
Y147904D02*
D03*
Y152906D02*
D03*
Y157907D02*
D03*
Y162908D02*
D03*
Y167909D02*
D03*
X282400D02*
D03*
Y162908D02*
D03*
Y157907D02*
D03*
Y152906D02*
D03*
Y147904D02*
D03*
Y142903D02*
D03*
Y137902D02*
D03*
Y132901D02*
D03*
Y127899D02*
D03*
Y122898D02*
D03*
Y117897D02*
D03*
Y112896D02*
D03*
Y107894D02*
D03*
Y102893D02*
D03*
Y97892D02*
D03*
Y92891D02*
D03*
D133*
X363900Y174400D02*
D03*
X358900D02*
D03*
X353900D02*
D03*
X348900D02*
D03*
X343900D02*
D03*
X338900D02*
D03*
X333900D02*
D03*
X328900D02*
D03*
X323900D02*
D03*
X318900D02*
D03*
X313900D02*
D03*
X308900D02*
D03*
X303900D02*
D03*
X298900D02*
D03*
X293900D02*
D03*
X288900D02*
D03*
Y86400D02*
D03*
X293900D02*
D03*
X298900D02*
D03*
X303900D02*
D03*
X308900D02*
D03*
X313900D02*
D03*
X318900D02*
D03*
X323900D02*
D03*
X328900D02*
D03*
X333900D02*
D03*
X338900D02*
D03*
X343900D02*
D03*
X348900D02*
D03*
X353900D02*
D03*
X358900D02*
D03*
X363900D02*
D03*
D134*
X402859Y126250D02*
D03*
X420141D02*
D03*
X420891Y160500D02*
D03*
X403609D02*
D03*
D135*
X412500Y82000D02*
D03*
D136*
Y97000D02*
D03*
Y67000D02*
D03*
D140*
X76000Y157036D02*
D03*
Y147464D02*
D03*
X211250Y156321D02*
D03*
Y146750D02*
D03*
X238500Y156321D02*
D03*
Y146750D02*
D03*
X278750Y52821D02*
D03*
Y43250D02*
D03*
X369750Y39500D02*
D03*
Y29929D02*
D03*
X349500Y30250D02*
D03*
Y39821D02*
D03*
X103500Y106114D02*
D03*
Y115686D02*
D03*
D141*
X97250Y161000D02*
D03*
Y146500D02*
D03*
X85750D02*
D03*
Y161000D02*
D03*
D145*
X179250Y182500D02*
D03*
X170750D02*
D03*
D147*
X237000Y129500D02*
D03*
X211500D02*
D03*
D156*
X86650Y106500D02*
D03*
X95350D02*
D03*
D157*
X27000Y8000D02*
D03*
D158*
X18000Y68000D02*
D03*
D159*
X27000Y20500D02*
D03*
X9000D02*
D03*
D160*
X396250Y223950D02*
D03*
X331250D02*
D03*
D161*
X383750Y204750D02*
D03*
X375750D02*
D03*
X367750D02*
D03*
X359750D02*
D03*
X351750D02*
D03*
X343750D02*
D03*
D162*
X12950Y203500D02*
D03*
Y170500D02*
D03*
D163*
X32150Y191000D02*
D03*
Y183000D02*
D03*
D164*
X371942Y54750D02*
D03*
X347558D02*
D03*
D165*
X156750Y218250D02*
D03*
Y208750D02*
D03*
D166*
X178250Y218500D02*
D03*
Y210500D02*
D03*
D167*
X181250Y127250D02*
D03*
Y131250D02*
D03*
Y111250D02*
D03*
Y115250D02*
D03*
Y107250D02*
D03*
Y123250D02*
D03*
Y119250D02*
D03*
Y103250D02*
D03*
Y95250D02*
D03*
Y99250D02*
D03*
Y87250D02*
D03*
Y91250D02*
D03*
X122250Y127250D02*
D03*
Y131250D02*
D03*
Y123250D02*
D03*
Y107250D02*
D03*
Y111250D02*
D03*
Y103250D02*
D03*
Y119250D02*
D03*
Y115250D02*
D03*
Y91250D02*
D03*
Y99250D02*
D03*
Y95250D02*
D03*
Y87250D02*
D03*
D168*
X169750Y138750D02*
D03*
X165750D02*
D03*
X173750D02*
D03*
X157750D02*
D03*
X153750D02*
D03*
X161750D02*
D03*
X149750D02*
D03*
X173750Y79750D02*
D03*
X165750D02*
D03*
X161750D02*
D03*
X157750D02*
D03*
X169750D02*
D03*
X149750D02*
D03*
X153750D02*
D03*
X141750Y138750D02*
D03*
X137750D02*
D03*
X145750D02*
D03*
X133750D02*
D03*
X129750D02*
D03*
X141750Y79750D02*
D03*
X137750D02*
D03*
X145750D02*
D03*
X129750D02*
D03*
X133750D02*
D03*
D169*
X151750Y109250D02*
D03*
D170*
X177250Y170450D02*
D03*
Y154750D02*
D03*
D171*
X251000Y89750D02*
D03*
Y66250D02*
D03*
X387500Y43750D02*
D03*
Y20250D02*
D03*
D172*
X203500Y56750D02*
D03*
X188500D02*
D03*
X183500D02*
D03*
X198500D02*
D03*
X193500D02*
D03*
X178500D02*
D03*
D173*
X425500Y143250D02*
D03*
X402000D02*
D03*
X410750Y192500D02*
D03*
X387250D02*
D03*
D174*
X293500Y30250D02*
D03*
X330500D02*
D03*
Y52250D02*
D03*
X293500D02*
D03*
M02*
