G04*
G04 #@! TF.GenerationSoftware,Altium Limited,Altium Designer,23.3.1 (30)*
G04*
G04 Layer_Color=8388736*
%FSLAX44Y44*%
%MOMM*%
G71*
G04*
G04 #@! TF.SameCoordinates,1BDB8193-2A7E-4E3D-832C-0021DEAB59C5*
G04*
G04*
G04 #@! TF.FilePolarity,Negative*
G04*
G01*
G75*
%ADD20R,0.7000X0.8000*%
%ADD21R,0.4750X0.5000*%
%ADD22R,0.4682X0.4725*%
%ADD24R,0.5725X0.6153*%
%ADD26R,0.7000X0.7000*%
%ADD27R,0.7000X0.7000*%
%ADD28R,1.0621X1.2578*%
%ADD29R,0.5000X0.6000*%
%ADD33R,0.6000X0.5000*%
%ADD38R,0.6000X0.6000*%
%ADD39R,0.8000X0.9000*%
%ADD40R,0.9121X1.1311*%
%ADD41R,0.6000X0.5000*%
%ADD43R,0.4000X0.6000*%
%ADD44R,0.5000X0.5000*%
%ADD47R,0.7154X0.6725*%
%ADD48R,1.1311X0.9121*%
%ADD57R,0.6000X0.4000*%
%ADD58R,0.7596X0.7621*%
%ADD60R,0.5000X0.5000*%
%ADD61R,0.3750X0.3500*%
%ADD62R,0.3500X0.3750*%
%ADD65R,0.8961X0.4572*%
%ADD68C,1.9000*%
%ADD69C,1.2032*%
%ADD70R,0.8032X0.7532*%
%ADD71R,0.7032X0.6532*%
%ADD72R,0.8632X0.5132*%
%ADD73R,0.7532X0.8532*%
%ADD74R,1.1432X1.9332*%
%ADD75R,0.5032X0.5532*%
%ADD76R,0.5032X1.7032*%
%ADD77R,1.0532X0.9032*%
G04:AMPARAMS|DCode=78|XSize=0.7532mm|YSize=1.0032mm|CornerRadius=0.1511mm|HoleSize=0mm|Usage=FLASHONLY|Rotation=270.000|XOffset=0mm|YOffset=0mm|HoleType=Round|Shape=RoundedRectangle|*
%AMROUNDEDRECTD78*
21,1,0.7532,0.7010,0,0,270.0*
21,1,0.4510,1.0032,0,0,270.0*
1,1,0.3022,-0.3505,-0.2255*
1,1,0.3022,-0.3505,0.2255*
1,1,0.3022,0.3505,0.2255*
1,1,0.3022,0.3505,-0.2255*
%
%ADD78ROUNDEDRECTD78*%
%ADD79R,1.0032X1.2032*%
%ADD80R,0.8032X1.0032*%
%ADD81R,0.5032X1.4032*%
%ADD82R,1.6032X1.2032*%
%ADD83C,0.4332*%
%ADD84R,1.9332X1.1432*%
%ADD85R,0.5532X0.5032*%
%ADD86R,1.5532X0.6032*%
%ADD87R,2.1032X2.0032*%
%ADD88R,2.1032X2.1032*%
%ADD89C,0.1800*%
%ADD90C,1.7550*%
%ADD91R,0.7232X0.5232*%
%ADD92R,0.8532X0.8532*%
%ADD93R,0.8532X0.8532*%
%ADD94R,0.7532X0.8032*%
%ADD95R,0.9032X1.1032*%
%ADD96C,1.3032*%
%ADD97C,0.5000*%
%ADD98C,1.2532*%
%ADD99R,1.2532X1.2532*%
%ADD100C,1.6532*%
%ADD101R,1.2532X1.2532*%
%ADD102C,0.9032*%
%ADD103C,5.2032*%
%ADD104C,0.7032*%
%ADD105C,0.6000*%
G36*
X58566Y161598D02*
X58848Y161317D01*
X59000Y160949D01*
Y160750D01*
Y153250D01*
X57000D01*
Y160750D01*
Y160949D01*
X57152Y161317D01*
X57434Y161598D01*
X57801Y161750D01*
X58199D01*
X58566Y161598D01*
D02*
G37*
G36*
X62566D02*
X62848Y161317D01*
X63000Y160949D01*
Y160750D01*
Y153250D01*
X61000D01*
X61000Y160750D01*
Y160949D01*
X61152Y161317D01*
X61434Y161598D01*
X61801Y161750D01*
X62199D01*
X62566Y161598D01*
D02*
G37*
G36*
X66566D02*
X66848Y161317D01*
X67000Y160949D01*
Y160750D01*
Y153250D01*
X65000D01*
Y160750D01*
Y160949D01*
X65152Y161317D01*
X65434Y161598D01*
X65801Y161750D01*
X66199D01*
X66566Y161598D01*
D02*
G37*
G36*
X70566D02*
X70848Y161317D01*
X71000Y160949D01*
Y160750D01*
Y153250D01*
X69000D01*
Y160750D01*
Y160949D01*
X69152Y161317D01*
X69433Y161598D01*
X69801Y161750D01*
X70199D01*
X70566Y161598D01*
D02*
G37*
G36*
X74566D02*
X74848Y161317D01*
X75000Y160949D01*
Y160750D01*
X75000D01*
Y153250D01*
X73000D01*
Y160750D01*
Y160949D01*
X73152Y161317D01*
X73433Y161598D01*
X73801Y161750D01*
X74199D01*
X74566Y161598D01*
D02*
G37*
G36*
X78566D02*
X78848Y161317D01*
X79000Y160949D01*
Y160750D01*
Y153250D01*
X77000D01*
Y160750D01*
Y160949D01*
X77152Y161317D01*
X77434Y161598D01*
X77801Y161750D01*
X78199D01*
X78566Y161598D01*
D02*
G37*
G36*
X79000Y193750D02*
Y193551D01*
X78848Y193183D01*
X78566Y192902D01*
X78199Y192750D01*
X77801D01*
X77434Y192902D01*
X77152Y193183D01*
X77000Y193551D01*
Y193750D01*
Y201250D01*
X79000D01*
Y193750D01*
D02*
G37*
G36*
X75000D02*
Y193551D01*
X74848Y193183D01*
X74566Y192902D01*
X74199Y192750D01*
X73801D01*
X73433Y192902D01*
X73152Y193183D01*
X73000Y193551D01*
Y193750D01*
Y201250D01*
X75000D01*
X75000Y193750D01*
D02*
G37*
G36*
X71000D02*
Y193551D01*
X70848Y193183D01*
X70566Y192902D01*
X70199Y192750D01*
X69801D01*
X69433Y192902D01*
X69152Y193183D01*
X69000Y193551D01*
Y193750D01*
Y201250D01*
X71000D01*
Y193750D01*
D02*
G37*
G36*
X67000D02*
Y193551D01*
X66848Y193183D01*
X66566Y192902D01*
X66199Y192750D01*
X65801D01*
X65434Y192902D01*
X65152Y193183D01*
X65000Y193551D01*
Y193750D01*
Y201250D01*
X67000D01*
Y193750D01*
D02*
G37*
G36*
X63000D02*
Y193551D01*
X62848Y193183D01*
X62566Y192902D01*
X62199Y192750D01*
X61801D01*
X61434Y192902D01*
X61152Y193183D01*
X61000Y193551D01*
Y193750D01*
X61000D01*
Y201250D01*
X63000D01*
Y193750D01*
D02*
G37*
G36*
X59000D02*
Y193551D01*
X58848Y193183D01*
X58566Y192902D01*
X58199Y192750D01*
X57801D01*
X57434Y192902D01*
X57152Y193183D01*
X57000Y193551D01*
Y193750D01*
Y201250D01*
X59000D01*
Y193750D01*
D02*
G37*
G36*
X84500Y187000D02*
X77750D01*
Y167500D01*
X84500D01*
Y165000D01*
X51500D01*
Y167500D01*
X58250D01*
Y187000D01*
X51500D01*
Y189500D01*
X84500D01*
Y187000D01*
D02*
G37*
D20*
X81000Y21000D02*
D03*
X96000D02*
D03*
X267500Y127500D02*
D03*
X252500D02*
D03*
D21*
X194875Y233000D02*
D03*
X205125D02*
D03*
X53000Y140000D02*
D03*
X42750D02*
D03*
X73500Y132250D02*
D03*
X63250D02*
D03*
D22*
X120543Y59500D02*
D03*
X112500D02*
D03*
X276021Y17500D02*
D03*
X267978D02*
D03*
D24*
X449750Y123786D02*
D03*
Y115214D02*
D03*
X448500Y151536D02*
D03*
Y142964D02*
D03*
X269500Y42286D02*
D03*
Y33714D02*
D03*
D26*
X166500Y157500D02*
D03*
X152500D02*
D03*
X113250Y105500D02*
D03*
X127250D02*
D03*
D27*
X236750Y214250D02*
D03*
Y200250D02*
D03*
X403750Y135500D02*
D03*
Y121500D02*
D03*
X378750Y80250D02*
D03*
Y66250D02*
D03*
D28*
X175750Y159528D02*
D03*
Y175572D02*
D03*
X191300Y216433D02*
D03*
Y200389D02*
D03*
D29*
X160000Y213250D02*
D03*
X150000D02*
D03*
X179750Y212500D02*
D03*
X169750D02*
D03*
X252500Y69250D02*
D03*
X242500D02*
D03*
X123000Y78750D02*
D03*
X113000D02*
D03*
X273250Y178500D02*
D03*
X263250D02*
D03*
D33*
X190750Y167000D02*
D03*
Y157000D02*
D03*
D38*
X415750Y164000D02*
D03*
X405250D02*
D03*
X410750Y155500D02*
D03*
X400250D02*
D03*
D39*
X416000Y139500D02*
D03*
Y122500D02*
D03*
D40*
X429250Y137810D02*
D03*
Y125000D02*
D03*
X364500Y88250D02*
D03*
Y75440D02*
D03*
D41*
X451750Y134250D02*
D03*
X440750D02*
D03*
D43*
X400250Y101000D02*
D03*
X391250D02*
D03*
D44*
X400750Y91500D02*
D03*
X390750D02*
D03*
X111500Y115750D02*
D03*
X101500D02*
D03*
D47*
X432500Y64500D02*
D03*
X422929D02*
D03*
D48*
X406905Y64750D02*
D03*
X394095D02*
D03*
D57*
X54000Y215250D02*
D03*
Y206250D02*
D03*
X62750Y215000D02*
D03*
Y206000D02*
D03*
D58*
X81512Y207250D02*
D03*
X71988D02*
D03*
D60*
X82250Y149000D02*
D03*
Y139000D02*
D03*
X99500Y108750D02*
D03*
Y98750D02*
D03*
D61*
X87625Y110375D02*
D03*
Y105375D02*
D03*
Y100375D02*
D03*
X72375D02*
D03*
X87625Y95375D02*
D03*
X72375D02*
D03*
Y105375D02*
D03*
Y110375D02*
D03*
D62*
X82500Y110500D02*
D03*
X77500D02*
D03*
X82500Y95250D02*
D03*
X77500D02*
D03*
D65*
X346500Y91250D02*
D03*
Y72250D02*
D03*
X320521D02*
D03*
Y81750D02*
D03*
Y91250D02*
D03*
D68*
X284500Y212000D02*
G03*
X284500Y212000I-9500J0D01*
G01*
X127000Y215250D02*
G03*
X127000Y215250I-9500J0D01*
G01*
X434500Y32000D02*
G03*
X434500Y32000I-9500J0D01*
G01*
D69*
X155250Y78500D02*
D03*
X137500D02*
D03*
X275500Y166000D02*
D03*
X257750Y166250D02*
D03*
X168750Y196250D02*
D03*
X147500Y196750D02*
D03*
X211500Y144250D02*
D03*
X229500Y144000D02*
D03*
X264500Y89750D02*
D03*
X246750Y89250D02*
D03*
X205750Y178000D02*
D03*
X235750Y166000D02*
D03*
X230000Y126250D02*
D03*
X212250D02*
D03*
X193750Y125750D02*
D03*
X141500Y140750D02*
D03*
X81250Y227000D02*
D03*
X62750D02*
D03*
D70*
X212750Y222750D02*
D03*
X221250D02*
D03*
X443500Y180250D02*
D03*
X435000D02*
D03*
D71*
X204250Y222750D02*
D03*
X197250D02*
D03*
D72*
X219150Y207250D02*
D03*
Y212250D02*
D03*
Y202250D02*
D03*
X204450Y212250D02*
D03*
Y207250D02*
D03*
Y202250D02*
D03*
D73*
X201750Y190250D02*
D03*
X191750D02*
D03*
D74*
X235100Y185000D02*
D03*
X219000D02*
D03*
D75*
X244750Y198750D02*
D03*
Y193250D02*
D03*
X355250Y86000D02*
D03*
Y91500D02*
D03*
D76*
X420000Y232000D02*
D03*
X425000D02*
D03*
X405000D02*
D03*
X415000D02*
D03*
X410000D02*
D03*
X380000D02*
D03*
X385000D02*
D03*
X370000D02*
D03*
X375000D02*
D03*
X395000D02*
D03*
X400000D02*
D03*
X390000D02*
D03*
X420000Y195000D02*
D03*
X425000D02*
D03*
X415000D02*
D03*
X405000D02*
D03*
X410000D02*
D03*
X380000D02*
D03*
X385000D02*
D03*
X370000D02*
D03*
X375000D02*
D03*
X395000D02*
D03*
X400000D02*
D03*
X390000D02*
D03*
X360000Y232000D02*
D03*
X365000D02*
D03*
X345000D02*
D03*
X350000D02*
D03*
X355000D02*
D03*
X335000D02*
D03*
X340000D02*
D03*
X330000D02*
D03*
X355000Y195000D02*
D03*
X360000D02*
D03*
X345000D02*
D03*
X350000D02*
D03*
X365000D02*
D03*
X335000D02*
D03*
X330000D02*
D03*
X340000D02*
D03*
X226000Y49000D02*
D03*
X231000D02*
D03*
X211000D02*
D03*
X221000D02*
D03*
X216000D02*
D03*
X186000D02*
D03*
X191000D02*
D03*
X176000D02*
D03*
X181000D02*
D03*
X201000D02*
D03*
X206000D02*
D03*
X196000D02*
D03*
X226000Y12000D02*
D03*
X231000D02*
D03*
X221000D02*
D03*
X211000D02*
D03*
X216000D02*
D03*
X186000D02*
D03*
X191000D02*
D03*
X176000D02*
D03*
X181000D02*
D03*
X201000D02*
D03*
X206000D02*
D03*
X196000D02*
D03*
X166000Y49000D02*
D03*
X171000D02*
D03*
X151000D02*
D03*
X156000D02*
D03*
X161000D02*
D03*
X141000D02*
D03*
X146000D02*
D03*
X136000D02*
D03*
X161000Y12000D02*
D03*
X166000D02*
D03*
X151000D02*
D03*
X156000D02*
D03*
X171000D02*
D03*
X141000D02*
D03*
X136000D02*
D03*
X146000D02*
D03*
D77*
X379000Y133750D02*
D03*
Y121250D02*
D03*
X391250Y133750D02*
D03*
Y121250D02*
D03*
D78*
X434250Y99500D02*
D03*
Y109000D02*
D03*
Y90000D02*
D03*
X408750Y99500D02*
D03*
Y109000D02*
D03*
Y90000D02*
D03*
D79*
X434500Y77000D02*
D03*
X419500D02*
D03*
D80*
X406750Y76000D02*
D03*
X393750D02*
D03*
D81*
X337000Y53500D02*
D03*
X347000D02*
D03*
X327000D02*
D03*
X322000D02*
D03*
X332000D02*
D03*
X342000D02*
D03*
X317000D02*
D03*
X312000D02*
D03*
D82*
X371500Y27000D02*
D03*
X288000D02*
D03*
D83*
X161500Y172250D02*
D03*
Y176250D02*
D03*
Y168250D02*
D03*
X157500Y176250D02*
D03*
Y172250D02*
D03*
Y168250D02*
D03*
D84*
X138750Y183250D02*
D03*
Y167150D02*
D03*
D85*
X145000Y156500D02*
D03*
X139500D02*
D03*
D86*
X41750Y198000D02*
D03*
Y191500D02*
D03*
Y178500D02*
D03*
Y185000D02*
D03*
Y172000D02*
D03*
D87*
X15000Y225000D02*
D03*
Y145000D02*
D03*
D88*
Y197000D02*
D03*
Y173000D02*
D03*
D89*
X78000Y197105D02*
D03*
X70000D02*
D03*
X74000D02*
D03*
X66000Y197000D02*
D03*
X78000Y157500D02*
D03*
X74000D02*
D03*
X70000D02*
D03*
X66000Y157395D02*
D03*
X62000Y197000D02*
D03*
X58000D02*
D03*
X62000Y157395D02*
D03*
X58000D02*
D03*
D90*
X68000Y177250D02*
D03*
D91*
X73250Y149000D02*
D03*
Y139000D02*
D03*
D92*
X92500Y40000D02*
D03*
Y30000D02*
D03*
D93*
X268500Y139750D02*
D03*
X258500D02*
D03*
D94*
X296500Y171250D02*
D03*
Y179750D02*
D03*
D95*
X295500Y89750D02*
D03*
X309500D02*
D03*
D96*
X243250Y236500D02*
D03*
X219250D02*
D03*
X75000Y8500D02*
D03*
X99000D02*
D03*
D97*
X343800Y147800D02*
D03*
X320600Y113000D02*
D03*
X309000D02*
D03*
X320600Y124600D02*
D03*
X309000D02*
D03*
Y147800D02*
D03*
X343800Y113000D02*
D03*
X320600Y147800D02*
D03*
X343800Y124600D02*
D03*
X332200D02*
D03*
Y113000D02*
D03*
Y147800D02*
D03*
D98*
X177950Y229750D02*
D03*
X165250D02*
D03*
X112250Y180150D02*
D03*
Y167450D02*
D03*
D99*
X152550Y229750D02*
D03*
D100*
X437500Y222000D02*
D03*
X317500D02*
D03*
X243500Y39000D02*
D03*
X123500D02*
D03*
D101*
X112250Y154750D02*
D03*
D102*
X39500Y205750D02*
D03*
Y164250D02*
D03*
D103*
X275000Y212000D02*
D03*
X117500Y215250D02*
D03*
X425000Y32000D02*
D03*
D104*
X168250Y125750D02*
D03*
X157250D02*
D03*
X168250Y114750D02*
D03*
X157250D02*
D03*
X168250Y92750D02*
D03*
Y103750D02*
D03*
X157250D02*
D03*
Y92750D02*
D03*
X146250Y114750D02*
D03*
Y125750D02*
D03*
X135250D02*
D03*
Y114750D02*
D03*
X146250Y92750D02*
D03*
Y103750D02*
D03*
X135250Y92750D02*
D03*
Y103750D02*
D03*
D105*
X73000Y186250D02*
D03*
Y177250D02*
D03*
Y168250D02*
D03*
X63000Y186250D02*
D03*
Y177250D02*
D03*
Y168250D02*
D03*
M02*
