G04*
G04 #@! TF.GenerationSoftware,Altium Limited,Altium Designer,23.3.1 (30)*
G04*
G04 Layer_Physical_Order=4*
G04 Layer_Color=16711680*
%FSLAX44Y44*%
%MOMM*%
G71*
G04*
G04 #@! TF.SameCoordinates,B5BEB57F-9CAB-4151-92A5-F0F3E31B6F9E*
G04*
G04*
G04 #@! TF.FilePolarity,Positive*
G04*
G01*
G75*
%ADD13C,0.2000*%
%ADD26C,1.0000*%
%ADD27R,0.5725X0.6153*%
%ADD28R,0.6000X0.5500*%
%ADD29R,0.7000X0.7000*%
%ADD30R,0.7000X0.7000*%
%ADD31R,1.0621X1.2578*%
%ADD32R,0.5000X0.6000*%
%ADD36R,0.6000X0.5000*%
%ADD43R,0.9121X1.1311*%
%ADD44R,0.6000X0.5000*%
%ADD47R,0.5000X0.5000*%
%ADD50R,0.7154X0.6725*%
%ADD51R,1.1311X0.9121*%
%ADD53R,1.4000X1.0000*%
%ADD63R,0.5000X0.5000*%
%ADD67R,0.5500X0.6000*%
%ADD98C,0.6200*%
%ADD106C,0.6000*%
%ADD107C,0.4000*%
%ADD108C,0.5000*%
%ADD109C,0.3000*%
%ADD110C,1.1000*%
%ADD111C,1.0500*%
%ADD112R,1.0500X1.0500*%
%ADD113C,1.4500*%
%ADD114R,1.0500X1.0500*%
%ADD115C,0.7000*%
%ADD116C,5.0000*%
%ADD117R,0.5500X0.2000*%
%ADD119C,0.3720*%
%ADD120C,1.0000*%
%ADD121R,1.0000X1.0000*%
%ADD122R,1.0000X1.0000*%
%ADD123R,2.3000X1.6500*%
%ADD124R,0.5000X0.4750*%
%ADD125R,0.5600X0.6300*%
%ADD126R,0.9000X1.6000*%
%ADD127R,0.5000X1.0000*%
%ADD128R,1.6000X0.9000*%
%ADD129R,1.0000X0.5000*%
%ADD130R,6.0000X6.0000*%
%ADD131R,0.6000X0.2400*%
%ADD132R,0.2400X0.6000*%
%ADD133R,1.5781X1.5562*%
%ADD134R,3.0988X1.4986*%
%ADD135R,3.0988X0.7112*%
%ADD136R,1.0922X1.9050*%
%ADD137R,0.6500X0.7000*%
%ADD138R,0.4500X0.4500*%
%ADD139R,0.6725X0.7154*%
%ADD140R,0.8500X0.9500*%
%ADD141O,0.9500X0.2000*%
%ADD142O,0.2000X0.9500*%
%ADD143R,4.6000X4.6000*%
%ADD144R,0.3500X0.6500*%
%ADD145R,0.9700X0.9000*%
%ADD146R,1.0000X1.8000*%
%ADD147R,1.0000X1.1500*%
%ADD148R,0.3000X1.0000*%
%ADD149R,1.1500X1.0000*%
%ADD150R,1.6000X1.2500*%
%ADD151C,0.1840*%
%ADD152C,0.1930*%
%ADD153C,0.6000*%
%ADD154C,0.8000*%
G36*
X237001Y241941D02*
X237628Y240671D01*
X237136Y240030D01*
X236430Y238327D01*
X236190Y236500D01*
X236430Y234673D01*
X237136Y232970D01*
X238258Y231508D01*
X239720Y230385D01*
X240701Y229979D01*
Y219200D01*
X239431Y218674D01*
X235948Y222157D01*
X235121Y222710D01*
X234146Y222903D01*
X233098D01*
X232491Y223511D01*
X232147Y225242D01*
X231130Y226763D01*
X229609Y227780D01*
X227814Y228137D01*
X226019Y227780D01*
X224497Y226763D01*
X223481Y225242D01*
X223124Y223447D01*
X223481Y221652D01*
X224497Y220130D01*
X224412Y218660D01*
X223667Y217544D01*
X223310Y215749D01*
X223667Y213954D01*
X224684Y212433D01*
X226205Y211416D01*
X228000Y211059D01*
X229795Y211416D01*
X231316Y212433D01*
X232333Y213954D01*
X232690Y215749D01*
X232534Y216536D01*
X232557Y216590D01*
X233697Y217199D01*
X235951Y214944D01*
Y208130D01*
X231426Y203605D01*
X230521Y203785D01*
X228726Y203428D01*
X227204Y202411D01*
X226930Y202000D01*
X209583D01*
X209405Y202895D01*
X208424Y204362D01*
Y204819D01*
X213074Y209469D01*
X213803Y209167D01*
X215500Y208944D01*
X217197Y209167D01*
X218778Y209822D01*
X220136Y210864D01*
X221178Y212222D01*
X221833Y213803D01*
X222056Y215500D01*
X221833Y217197D01*
X221178Y218778D01*
X220136Y220136D01*
X218778Y221178D01*
X217197Y221833D01*
X215500Y222056D01*
X213803Y221833D01*
X212222Y221178D01*
X210864Y220136D01*
X209822Y218778D01*
X209167Y217197D01*
X208944Y215500D01*
X209167Y213803D01*
X209469Y213074D01*
X204073Y207677D01*
X203520Y206851D01*
X203326Y205875D01*
Y205443D01*
X203277Y205433D01*
X201755Y204416D01*
X200738Y202895D01*
X199364Y202493D01*
X197804Y204052D01*
X196978Y204605D01*
X196002Y204799D01*
X192563D01*
X192077Y205972D01*
X195531Y209426D01*
X195553Y209417D01*
X197250Y209194D01*
X198947Y209417D01*
X200528Y210072D01*
X201886Y211114D01*
X202928Y212472D01*
X203583Y214053D01*
X203806Y215750D01*
X203583Y217447D01*
X202928Y219028D01*
X202608Y219445D01*
X203234Y220715D01*
X206014D01*
X206989Y220909D01*
X207816Y221462D01*
X216441Y230087D01*
X217423Y229680D01*
X219250Y229440D01*
X221077Y229680D01*
X222780Y230385D01*
X224242Y231508D01*
X225364Y232970D01*
X226070Y234673D01*
X226310Y236500D01*
X226070Y238327D01*
X225364Y240030D01*
X224872Y240671D01*
X225499Y241941D01*
X237001D01*
D02*
G37*
G36*
X178376Y241941D02*
Y236932D01*
X177950Y236558D01*
X176188Y236326D01*
X174546Y235646D01*
X173136Y234564D01*
X172357Y233549D01*
X172055Y233451D01*
X171145D01*
X170843Y233549D01*
X170064Y234564D01*
X168654Y235646D01*
X167012Y236326D01*
X165250Y236558D01*
X163488Y236326D01*
X161846Y235646D01*
X160570Y234667D01*
X160018Y234787D01*
X159300Y235170D01*
Y236500D01*
X145800D01*
Y223000D01*
X152000D01*
Y214790D01*
X150960D01*
Y212514D01*
X149690Y211835D01*
X148795Y212433D01*
X147000Y212790D01*
X146193Y212630D01*
X145002Y213688D01*
X145025Y213980D01*
X89975D01*
X90215Y210928D01*
X91227Y206713D01*
X92533Y203560D01*
X91813Y202122D01*
X91805Y202120D01*
X90638Y201341D01*
X90227Y201113D01*
X88911Y201335D01*
X87473Y202773D01*
X86315Y203547D01*
X85414Y203726D01*
X85069Y204071D01*
Y205750D01*
X85000Y206095D01*
Y212250D01*
X83799D01*
Y221020D01*
X84528Y221322D01*
X85886Y222364D01*
X86928Y223722D01*
X87583Y225303D01*
X87806Y227000D01*
X87583Y228697D01*
X86928Y230278D01*
X85886Y231636D01*
X84528Y232678D01*
X82947Y233333D01*
X81250Y233556D01*
X79553Y233333D01*
X77972Y232678D01*
X76614Y231636D01*
X75572Y230278D01*
X74917Y228697D01*
X74694Y227000D01*
X74917Y225303D01*
X75572Y223722D01*
X76614Y222364D01*
X77972Y221322D01*
X78701Y221020D01*
Y215976D01*
X77528Y215490D01*
X76313Y216704D01*
X75763Y217072D01*
X75566Y217366D01*
X74045Y218383D01*
X72250Y218740D01*
X70455Y218383D01*
X68934Y217366D01*
X67917Y215845D01*
X67560Y214050D01*
X67917Y212255D01*
X68934Y210734D01*
X70455Y209717D01*
X72091Y209392D01*
X74232Y207250D01*
X68116Y201134D01*
X67358Y200000D01*
X67000D01*
Y198644D01*
X66922Y198250D01*
X66922Y198250D01*
Y195500D01*
X67000Y195106D01*
Y191000D01*
X73960D01*
Y187210D01*
X79883D01*
X80268Y185940D01*
X79934Y185716D01*
X78917Y184195D01*
X78560Y182400D01*
X78917Y180605D01*
X79934Y179084D01*
X80990Y178378D01*
X81098Y177152D01*
X81098Y177152D01*
X81098Y177152D01*
Y172520D01*
X85944D01*
Y177211D01*
X85577Y178422D01*
X86566Y179084D01*
X87583Y180605D01*
X87940Y182400D01*
X87880Y182705D01*
X88399Y183482D01*
X88670Y184847D01*
Y184924D01*
X89523Y185777D01*
X90297Y186935D01*
X90569Y188300D01*
Y192757D01*
X91610Y193485D01*
X91839Y193447D01*
X93600Y193097D01*
X95395Y193454D01*
X96916Y194471D01*
X97125Y194783D01*
X98800Y195004D01*
X101262Y192901D01*
X104958Y190636D01*
X108963Y188977D01*
X112279Y188181D01*
X112250Y186958D01*
X110488Y186726D01*
X108846Y186046D01*
X107436Y184964D01*
X106354Y183554D01*
X105674Y181912D01*
X105442Y180150D01*
X105674Y178388D01*
X106354Y176746D01*
X107436Y175336D01*
X108451Y174557D01*
X108549Y174255D01*
Y173345D01*
X108451Y173043D01*
X107436Y172264D01*
X106354Y170854D01*
X105674Y169212D01*
X105442Y167450D01*
X105674Y165688D01*
X106354Y164046D01*
X107333Y162770D01*
X107213Y162218D01*
X106830Y161500D01*
X105500D01*
X105500Y161500D01*
Y161500D01*
X104230Y161375D01*
X103000Y162605D01*
Y167250D01*
X101862D01*
Y176112D01*
X93331D01*
Y177152D01*
X88484D01*
Y171250D01*
X87214D01*
Y169980D01*
X81098D01*
Y168290D01*
X78960D01*
Y163152D01*
X77270D01*
Y157036D01*
X76000D01*
Y155766D01*
X70098D01*
Y150919D01*
X71138D01*
Y144056D01*
X69964Y143569D01*
X66450Y147084D01*
X65127Y147968D01*
X63566Y148278D01*
X63566Y148278D01*
X59840D01*
X59162Y149548D01*
X59333Y149805D01*
X59690Y151600D01*
X59333Y153395D01*
X58316Y154916D01*
X57649Y155362D01*
Y160120D01*
X57455Y161095D01*
X56902Y161922D01*
X51522Y167302D01*
X50695Y167855D01*
X49720Y168049D01*
X44234D01*
X43555Y169319D01*
X44210Y170299D01*
X44598Y172250D01*
X44210Y174201D01*
X43105Y175855D01*
X41451Y176960D01*
X39500Y177348D01*
X37549Y176960D01*
X35895Y175855D01*
X34790Y174201D01*
X34402Y172250D01*
X34790Y170299D01*
X35895Y168645D01*
X37549Y167540D01*
X38709Y167309D01*
X39127Y165931D01*
X37595Y164400D01*
X33200D01*
Y158427D01*
X31930Y157385D01*
X31400Y157490D01*
X29605Y157133D01*
X28084Y156116D01*
X27067Y154595D01*
X26710Y152800D01*
X27067Y151005D01*
X28084Y149484D01*
X29605Y148467D01*
X30460Y148297D01*
X31366Y147391D01*
X31366Y147391D01*
X32689Y146507D01*
X33200Y146405D01*
Y146400D01*
X34250Y146197D01*
X34250Y146197D01*
X34386Y146197D01*
X40636D01*
X45516Y141316D01*
X46839Y140432D01*
X48400Y140122D01*
X61877D01*
X65825Y136173D01*
X65339Y135000D01*
X55000D01*
Y134792D01*
X3019D01*
Y163409D01*
X3450Y164500D01*
X4289Y164500D01*
X22450D01*
Y176500D01*
X4289D01*
X3019Y177591D01*
Y196409D01*
X3450Y197500D01*
X4289Y197500D01*
X22450D01*
Y209500D01*
X11185D01*
X11055Y210673D01*
X12063Y211350D01*
X12250Y211250D01*
Y211250D01*
X20750D01*
Y211250D01*
X20750Y211250D01*
X28750D01*
Y219250D01*
X29498Y220210D01*
X29790D01*
Y223980D01*
X24750D01*
Y226520D01*
X29790D01*
X29790Y230290D01*
X30932Y230600D01*
X34000D01*
X34300Y229600D01*
X38753D01*
X39600Y229431D01*
X40103Y229531D01*
X41836D01*
X42339Y228841D01*
X41707Y227600D01*
X34300D01*
Y219600D01*
X37143D01*
X37296Y219170D01*
X37355Y218330D01*
X35895Y217355D01*
X34790Y215701D01*
X34402Y213750D01*
X34790Y211799D01*
X35895Y210145D01*
X37549Y209040D01*
X39500Y208652D01*
X41451Y209040D01*
X43105Y210145D01*
X44210Y211799D01*
X44480Y213157D01*
X45703Y214209D01*
X46200Y214110D01*
X47995Y214467D01*
X49516Y215484D01*
X50112Y216376D01*
X51697Y216844D01*
X51738Y216817D01*
X53533Y216460D01*
X55327Y216817D01*
X56849Y217834D01*
X57866Y219355D01*
X58056Y220312D01*
X59326Y220187D01*
Y200000D01*
X57000D01*
Y198268D01*
X45811Y187078D01*
X39690D01*
Y189730D01*
X24610D01*
Y185960D01*
X25650D01*
Y179000D01*
X31756D01*
X32150Y178922D01*
X47500D01*
X47500Y178922D01*
X49061Y179232D01*
X50384Y180116D01*
X61268Y191000D01*
X65000D01*
Y195106D01*
X65078Y195500D01*
X65000Y195894D01*
Y200000D01*
X64424D01*
Y220664D01*
X64447Y220667D01*
X66028Y221322D01*
X67386Y222364D01*
X68428Y223722D01*
X69083Y225303D01*
X69306Y227000D01*
X69083Y228697D01*
X68428Y230278D01*
X67386Y231636D01*
X66028Y232678D01*
X64447Y233333D01*
X62750Y233556D01*
X61053Y233333D01*
X59472Y232678D01*
X58114Y231636D01*
X57072Y230278D01*
X56417Y228697D01*
X56194Y227000D01*
X56276Y226377D01*
X55862Y225987D01*
X55107Y225527D01*
X53533Y225840D01*
X51738Y225483D01*
X50216Y224466D01*
X49620Y223575D01*
X48035Y223106D01*
X47995Y223133D01*
X46200Y223490D01*
X46001Y223451D01*
X43828Y225623D01*
X43602Y225774D01*
X43605Y226868D01*
X44664Y227626D01*
X46250Y227310D01*
X48045Y227667D01*
X49566Y228684D01*
X50583Y230205D01*
X50940Y232000D01*
X50583Y233795D01*
X49566Y235316D01*
X48045Y236333D01*
X46250Y236690D01*
X45348Y236511D01*
X44555Y236669D01*
X43300D01*
Y237600D01*
X40447D01*
X39323Y238723D01*
X38166Y239497D01*
X36800Y239769D01*
X34000D01*
Y240600D01*
X24000D01*
X24000Y230600D01*
X22858Y230290D01*
X21040D01*
Y234330D01*
X15000D01*
X8960D01*
Y229560D01*
X11210D01*
Y225520D01*
X16500D01*
Y222980D01*
X11210D01*
Y220695D01*
X9940Y219653D01*
X9250Y219790D01*
X7455Y219433D01*
X5934Y218416D01*
X4917Y216895D01*
X4560Y215100D01*
X4917Y213305D01*
X5934Y211784D01*
X7455Y210767D01*
X7315Y209500D01*
X4289D01*
X3019Y210591D01*
Y242000D01*
X7839D01*
X8960Y241640D01*
X8960Y240730D01*
Y236870D01*
X15000D01*
X21040D01*
X21040Y241640D01*
X22161Y242000D01*
X106796D01*
X107049Y240730D01*
X104958Y239864D01*
X101262Y237599D01*
X97966Y234784D01*
X95151Y231488D01*
X92886Y227792D01*
X91227Y223787D01*
X90215Y219571D01*
X89975Y216520D01*
X145025D01*
X144785Y219571D01*
X143773Y223787D01*
X142114Y227792D01*
X139849Y231488D01*
X137034Y234784D01*
X133738Y237599D01*
X130042Y239864D01*
X127951Y240730D01*
X128204Y242000D01*
X178337D01*
X178376Y241941D01*
D02*
G37*
G36*
X195790Y241941D02*
X196468Y240671D01*
X196297Y240415D01*
X195940Y238620D01*
X196297Y236825D01*
X197314Y235304D01*
X198835Y234287D01*
X200630Y233930D01*
X202425Y234287D01*
X203946Y235304D01*
X204963Y236825D01*
X205320Y238620D01*
X204963Y240415D01*
X204792Y240671D01*
X205471Y241941D01*
X213001D01*
X213627Y240671D01*
X213136Y240030D01*
X212430Y238327D01*
X212190Y236500D01*
X212430Y234673D01*
X212837Y233691D01*
X204958Y225813D01*
X194157D01*
X193182Y225619D01*
X192355Y225066D01*
X183270Y215981D01*
X182000Y216507D01*
Y222250D01*
X180649D01*
Y223562D01*
X181354Y223854D01*
X182764Y224936D01*
X183846Y226346D01*
X184526Y227988D01*
X184758Y229750D01*
X184526Y231512D01*
X183846Y233154D01*
X182764Y234564D01*
X181354Y235646D01*
X180000Y236207D01*
Y241941D01*
X195790D01*
D02*
G37*
G36*
X455941Y241941D02*
X455941Y3059D01*
X380000D01*
Y12348D01*
X381000Y13000D01*
X381270Y13000D01*
X394000D01*
Y27500D01*
X390558D01*
Y28918D01*
X390583Y28955D01*
X390940Y30750D01*
X390583Y32545D01*
X389566Y34066D01*
X388045Y35083D01*
X387306Y35230D01*
X387431Y36500D01*
X394000D01*
Y45232D01*
X396249Y47481D01*
X396249Y47481D01*
X400884Y52116D01*
X401768Y53439D01*
X402078Y55000D01*
X402078Y55000D01*
Y58207D01*
X401768Y59768D01*
X401163Y60674D01*
X401720Y61944D01*
X429494D01*
Y61944D01*
X429923Y62138D01*
X438455D01*
Y61098D01*
X443301D01*
Y67000D01*
Y72902D01*
X438455D01*
Y71862D01*
X431761D01*
X430534Y71967D01*
X430534Y72879D01*
Y80730D01*
X412500D01*
Y83270D01*
X430534D01*
Y91121D01*
X430534Y92033D01*
X431761Y92138D01*
X438455D01*
Y91098D01*
X443301D01*
Y97000D01*
Y102902D01*
X438455D01*
Y101862D01*
X429923D01*
X429494Y102056D01*
Y102056D01*
X399111D01*
X394864Y106302D01*
X394037Y106855D01*
X393062Y107049D01*
X383399D01*
X382594Y108031D01*
X382690Y108515D01*
X382333Y110310D01*
X381486Y111578D01*
X381787Y112485D01*
X382049Y112848D01*
X384480D01*
Y118464D01*
X385750D01*
Y119734D01*
X391152D01*
Y124081D01*
X390112D01*
Y127807D01*
X392199Y129894D01*
X393469Y129367D01*
Y116969D01*
X409710D01*
Y115929D01*
X418871D01*
Y126250D01*
X420141D01*
Y127520D01*
X430571D01*
Y135480D01*
X430571Y136571D01*
X431767Y136750D01*
X432750D01*
Y139047D01*
X436048D01*
X436616Y138667D01*
X438411Y138310D01*
X440205Y138667D01*
X441727Y139684D01*
X442744Y141205D01*
X443101Y143000D01*
X442744Y144795D01*
X441727Y146316D01*
X440205Y147333D01*
X438411Y147690D01*
X436616Y147333D01*
X436422Y147203D01*
X432750D01*
Y149750D01*
X432413D01*
X431321Y150179D01*
X431321Y151020D01*
Y159230D01*
X420891D01*
Y160500D01*
X419621D01*
Y170821D01*
X415325D01*
X414921Y172078D01*
X415938Y173600D01*
X416295Y175395D01*
X415938Y177190D01*
X415454Y177915D01*
Y186000D01*
X418000D01*
Y199000D01*
X403500D01*
Y186000D01*
X407297D01*
Y177227D01*
X407272Y177190D01*
X406915Y175395D01*
X407272Y173600D01*
X408289Y172078D01*
X409810Y171062D01*
X409813Y171061D01*
X409865Y171050D01*
X409740Y169781D01*
X394219D01*
Y151219D01*
X396194D01*
Y149750D01*
X394750D01*
Y149307D01*
X393834Y148928D01*
X392477Y147886D01*
X392326Y147735D01*
X391152Y148221D01*
Y149902D01*
X387020D01*
Y144286D01*
X385750D01*
Y143016D01*
X380348D01*
Y138669D01*
X381388D01*
Y135963D01*
X375940D01*
Y136632D01*
X370400D01*
Y139172D01*
X375940D01*
Y141642D01*
X374900D01*
Y145204D01*
Y157000D01*
X390000D01*
Y168151D01*
X390376Y168713D01*
X390474Y169205D01*
X390816Y169434D01*
X391833Y170955D01*
X392190Y172750D01*
X391833Y174545D01*
X390816Y176066D01*
X390000Y176612D01*
Y178876D01*
X391720D01*
X392684Y177434D01*
X394549Y176187D01*
X395480Y176002D01*
Y180151D01*
X395624Y180499D01*
Y181500D01*
Y182500D01*
X395480Y182848D01*
Y187294D01*
X394500Y188098D01*
Y193412D01*
X394518Y193439D01*
X394828Y195000D01*
X394518Y196561D01*
X394500Y196588D01*
Y199000D01*
X391144D01*
X390750Y199078D01*
X390000D01*
Y202000D01*
X387750D01*
Y205454D01*
X387809Y205750D01*
X387809Y205750D01*
Y209476D01*
X388224Y209891D01*
X401739D01*
X402060Y209500D01*
X402417Y207705D01*
X403434Y206184D01*
X404955Y205167D01*
X406750Y204810D01*
X408545Y205167D01*
X410066Y206184D01*
X411083Y207705D01*
X411440Y209500D01*
X411083Y211295D01*
X410621Y211987D01*
X409946Y213063D01*
X410963Y214585D01*
X411320Y216380D01*
X410963Y218174D01*
X409946Y219696D01*
X408424Y220713D01*
X406630Y221070D01*
X404835Y220713D01*
X403520Y219834D01*
X402744Y220068D01*
X402250Y220391D01*
Y233450D01*
X390250D01*
Y216009D01*
X386957D01*
X385787Y215776D01*
X384795Y215113D01*
X384795Y215113D01*
X382587Y212906D01*
X381924Y211913D01*
X381792Y211250D01*
X379750Y211250D01*
Y211250D01*
X379750D01*
Y211250D01*
X373020D01*
X371750Y211250D01*
Y211250D01*
X371750D01*
Y211250D01*
X357471D01*
X356792Y212520D01*
X357083Y212955D01*
X357440Y214750D01*
X357083Y216545D01*
X356066Y218066D01*
X354545Y219083D01*
X352750Y219440D01*
X351617Y219215D01*
X350518Y220202D01*
X350601Y220616D01*
X350244Y222411D01*
X349227Y223933D01*
X347705Y224949D01*
X345911Y225306D01*
X344116Y224949D01*
X342594Y223933D01*
X341577Y222411D01*
X341221Y220616D01*
X341577Y218821D01*
X342594Y217300D01*
X344116Y216283D01*
X345911Y215926D01*
X347044Y216152D01*
X348142Y215164D01*
X348060Y214750D01*
X348417Y212955D01*
X348708Y212520D01*
X348534Y212195D01*
X347750Y211250D01*
X347750D01*
X347750Y211250D01*
X346366D01*
X346355Y211304D01*
X345802Y212131D01*
X342681Y215252D01*
X341854Y215805D01*
X340878Y215999D01*
X337250D01*
Y233450D01*
X325250D01*
Y228360D01*
X323980Y227929D01*
X323741Y228241D01*
X322073Y229520D01*
X321897Y229757D01*
X321716Y231099D01*
X322348Y232044D01*
X322705Y233839D01*
X322348Y235634D01*
X321331Y237155D01*
X319809Y238172D01*
X318015Y238529D01*
X316220Y238172D01*
X314698Y237155D01*
X313682Y235634D01*
X313325Y233839D01*
X313682Y232044D01*
X314090Y231433D01*
X313613Y229861D01*
X313087Y229643D01*
X311259Y228241D01*
X309857Y226413D01*
X308975Y224284D01*
X308675Y222000D01*
X308975Y219716D01*
X309857Y217587D01*
X310016Y217380D01*
X309432Y216534D01*
X309204Y216352D01*
X307500Y216691D01*
X305705Y216334D01*
X304184Y215318D01*
X303696Y214587D01*
X302395Y214926D01*
X302285Y216322D01*
X301273Y220537D01*
X299614Y224542D01*
X297349Y228238D01*
X294534Y231534D01*
X291238Y234349D01*
X287542Y236614D01*
X283537Y238273D01*
X279321Y239285D01*
X276270Y239525D01*
Y212000D01*
X275000D01*
Y210730D01*
X247475D01*
X247715Y207679D01*
X248705Y203556D01*
X248483Y203127D01*
X247929Y202364D01*
X247054Y202301D01*
X245799Y203556D01*
Y229979D01*
X246780Y230385D01*
X248242Y231508D01*
X249364Y232970D01*
X250070Y234673D01*
X250310Y236500D01*
X250070Y238327D01*
X249364Y240030D01*
X248873Y240671D01*
X249499Y241941D01*
X455941Y241941D01*
D02*
G37*
G36*
X240701Y203874D02*
Y202500D01*
X240895Y201525D01*
X241448Y200698D01*
X250146Y191999D01*
X249747Y190625D01*
X248225Y189608D01*
X247209Y188087D01*
X246852Y186292D01*
X247209Y184497D01*
X248225Y182976D01*
X249747Y181959D01*
X251542Y181602D01*
X253337Y181959D01*
X254699Y182869D01*
X255217Y182996D01*
X255874D01*
X256304Y182853D01*
X257705Y181917D01*
X259500Y181560D01*
X261295Y181917D01*
X262816Y182934D01*
X263833Y184455D01*
X264190Y186250D01*
X264118Y186612D01*
X265100Y187417D01*
X266786Y186719D01*
X270842Y185745D01*
X275000Y185418D01*
X279158Y185745D01*
X283214Y186719D01*
X287068Y188315D01*
X289116Y189570D01*
X289451Y189489D01*
X290351Y188838D01*
Y181731D01*
X290455Y181210D01*
X290170Y180744D01*
Y174400D01*
Y168860D01*
X292640D01*
Y169900D01*
X300494D01*
X300879Y168630D01*
X300784Y168566D01*
X299767Y167045D01*
X299410Y165250D01*
X299617Y164210D01*
X298700Y162940D01*
X293860D01*
Y150551D01*
X292740Y149953D01*
X292545Y150083D01*
X290750Y150440D01*
X288955Y150083D01*
X288170Y149558D01*
X286961Y150175D01*
X286900Y150237D01*
Y160208D01*
Y168860D01*
X287630D01*
Y173130D01*
X285160D01*
Y170609D01*
X277900D01*
Y170458D01*
X258596D01*
X249252Y179802D01*
X248425Y180355D01*
X247450Y180549D01*
X237855D01*
X222942Y195462D01*
X222115Y196015D01*
X221139Y196209D01*
X208317D01*
X207932Y197479D01*
X208388Y197784D01*
X209405Y199305D01*
X209618Y200376D01*
X225085D01*
X225890Y199395D01*
X225831Y199095D01*
X226188Y197300D01*
X227204Y195779D01*
X228726Y194762D01*
X230521Y194405D01*
X232316Y194762D01*
X233837Y195779D01*
X234854Y197300D01*
X235211Y199095D01*
X235031Y200000D01*
X239431Y204400D01*
X240701Y203874D01*
D02*
G37*
G36*
X154156Y177937D02*
X154258Y177886D01*
X154375Y177770D01*
X162000D01*
Y175230D01*
X154899D01*
Y168304D01*
X155939D01*
Y156534D01*
X165314D01*
X165561Y156485D01*
X165600D01*
X166779Y155306D01*
Y149121D01*
X163948Y146290D01*
X163485Y145598D01*
X163131Y145835D01*
X163020Y145857D01*
Y138750D01*
X160480D01*
Y145857D01*
X160369Y145835D01*
X159452Y145222D01*
X158576Y146099D01*
X158566Y146181D01*
X159183Y147105D01*
X159540Y148900D01*
X159183Y150695D01*
X158166Y152216D01*
X156645Y153233D01*
X154850Y153590D01*
X153055Y153233D01*
X151534Y152216D01*
X150159Y152445D01*
X147799Y154804D01*
Y172181D01*
X153629Y178012D01*
X154156Y177937D01*
D02*
G37*
G36*
X229198Y162198D02*
X230025Y161645D01*
X231000Y161451D01*
X232598D01*
Y157591D01*
X238500D01*
Y155051D01*
X232598D01*
Y150204D01*
X233638D01*
Y141673D01*
X234451D01*
Y140000D01*
X230500D01*
Y124049D01*
X221035D01*
X220060Y123855D01*
X219270Y123327D01*
X218714Y123433D01*
X218000Y123729D01*
Y140000D01*
X214049D01*
Y141673D01*
X216112D01*
Y149306D01*
X216250Y149444D01*
X216849Y149459D01*
X217853Y148696D01*
X217897Y148475D01*
X218914Y146953D01*
X220435Y145937D01*
X222230Y145580D01*
X224025Y145937D01*
X225547Y146953D01*
X226563Y148475D01*
X226920Y150270D01*
X226563Y152065D01*
X225547Y153586D01*
X224025Y154603D01*
X222230Y154960D01*
X220435Y154603D01*
X218914Y153586D01*
X218422Y152851D01*
X217152Y153236D01*
Y155051D01*
X211250D01*
X205348D01*
Y150204D01*
X206388D01*
Y141673D01*
X208951D01*
Y140000D01*
X205000D01*
Y138723D01*
X204790Y137540D01*
X201020D01*
Y132500D01*
X198480D01*
Y137540D01*
X194710D01*
Y137248D01*
X193750Y136500D01*
X185750D01*
Y133799D01*
X177500D01*
X177290Y133971D01*
Y134790D01*
X176471D01*
X176299Y135000D01*
Y137181D01*
X177250D01*
X178616Y137453D01*
X179773Y138227D01*
X180478Y138931D01*
X185750D01*
X187116Y139203D01*
X188273Y139977D01*
X191773Y143477D01*
X192547Y144634D01*
X192662Y145212D01*
X192692Y145240D01*
X194053Y145694D01*
X195060Y145021D01*
X196855Y144664D01*
X198649Y145021D01*
X200171Y146038D01*
X201188Y147560D01*
X201545Y149355D01*
X201188Y151149D01*
X200171Y152671D01*
X198649Y153688D01*
X196855Y154045D01*
X196561Y154286D01*
Y161965D01*
X197601D01*
Y169524D01*
X189750D01*
Y172064D01*
X197601D01*
Y177111D01*
X214284D01*
X229198Y162198D01*
D02*
G37*
G36*
X255589Y146102D02*
X256416Y145549D01*
X257391Y145355D01*
X277900D01*
Y143387D01*
X276630Y142708D01*
X275695Y143333D01*
X273900Y143690D01*
X272105Y143333D01*
X270584Y142316D01*
X269567Y140795D01*
X269210Y139000D01*
X269567Y137205D01*
X270584Y135684D01*
X272105Y134667D01*
X273900Y134310D01*
X275695Y134667D01*
X276630Y135292D01*
X276761Y135282D01*
X277900Y134659D01*
Y130201D01*
Y120446D01*
X249323D01*
X248347Y120252D01*
X247520Y119699D01*
X236020Y108199D01*
X235033Y109008D01*
X235833Y110205D01*
X236190Y112000D01*
X235833Y113795D01*
X234816Y115316D01*
X233295Y116333D01*
X231500Y116690D01*
X229705Y116333D01*
X228238Y115353D01*
X227091D01*
X226642Y115802D01*
X225815Y116355D01*
X224839Y116549D01*
X221349D01*
X220863Y117722D01*
X222091Y118951D01*
X233000D01*
X233246Y119000D01*
X243500D01*
Y140000D01*
X239549D01*
Y141673D01*
X243362D01*
Y150204D01*
X244402D01*
Y155629D01*
X245576Y156115D01*
X255589Y146102D01*
D02*
G37*
G36*
X244500Y92961D02*
Y83201D01*
X243384Y82129D01*
X243332Y82139D01*
X241537Y81782D01*
X240016Y80765D01*
X238999Y79244D01*
X238642Y77449D01*
X238999Y75654D01*
X240016Y74132D01*
X241537Y73116D01*
X243332Y72759D01*
X243518Y72796D01*
X244500Y71990D01*
Y59000D01*
X250438D01*
X250984Y58184D01*
X252505Y57167D01*
X254300Y56810D01*
X255519Y57052D01*
X256585Y56147D01*
X256620Y56075D01*
X256410Y55019D01*
X256535Y54390D01*
X251448Y49302D01*
X250895Y48475D01*
X250701Y47500D01*
Y45924D01*
X249431Y45478D01*
X247913Y46643D01*
X245784Y47525D01*
X243500Y47825D01*
X241216Y47525D01*
X239087Y46643D01*
X237259Y45241D01*
X235857Y43413D01*
X234975Y41284D01*
X234674Y39000D01*
X234869Y37520D01*
X233889Y36250D01*
X219500D01*
Y28031D01*
X218230Y27906D01*
X218083Y28645D01*
X217066Y30166D01*
X215545Y31183D01*
X213750Y31540D01*
X211955Y31183D01*
X210434Y30166D01*
X209417Y28645D01*
X209060Y26850D01*
X209417Y25055D01*
X210434Y23534D01*
X211955Y22517D01*
X213750Y22160D01*
X215545Y22517D01*
X217066Y23534D01*
X218083Y25055D01*
X218230Y25794D01*
X219500Y25669D01*
Y23250D01*
X230744D01*
X231230Y22077D01*
X228623Y19470D01*
X198262D01*
X197776Y20643D01*
X200552Y23419D01*
X201105Y24246D01*
X201299Y25222D01*
Y49210D01*
X202230D01*
Y56750D01*
Y64290D01*
X199460D01*
Y63250D01*
X190537D01*
X190151Y64520D01*
X191145Y65184D01*
X192161Y66705D01*
X192518Y68500D01*
X192161Y70295D01*
X191964Y70590D01*
X192563Y71710D01*
X192980D01*
Y76750D01*
X195520D01*
Y71710D01*
X199290D01*
Y71804D01*
X200560Y72580D01*
X201900Y72313D01*
X203695Y72670D01*
X205216Y73687D01*
X206233Y75209D01*
X206363Y75862D01*
X211802Y81301D01*
X212237Y81951D01*
X230775D01*
X231751Y82145D01*
X232577Y82698D01*
X243327Y93447D01*
X244500Y92961D01*
D02*
G37*
G36*
X361395Y81274D02*
X361948Y80448D01*
X362000Y80395D01*
X361922Y80000D01*
X362232Y78439D01*
X363116Y77116D01*
X363616Y76616D01*
X363616Y76616D01*
X364939Y75732D01*
X365671Y75587D01*
X366210Y74540D01*
X366210Y74283D01*
Y70770D01*
X371250D01*
Y68230D01*
X366210D01*
Y65824D01*
X360345D01*
X346483Y79687D01*
X346969Y80860D01*
X347640D01*
Y81900D01*
X361271D01*
X361395Y81274D01*
D02*
G37*
G36*
X150416Y61894D02*
X150266Y61136D01*
X150623Y59341D01*
X151639Y57820D01*
X153161Y56803D01*
X154956Y56446D01*
X156751Y56803D01*
X158272Y57820D01*
X159289Y59341D01*
X159580Y60807D01*
X160273Y61849D01*
X161559Y62062D01*
X162530Y61254D01*
X162553Y61194D01*
X162900Y59449D01*
X163917Y57927D01*
X165438Y56911D01*
X167233Y56554D01*
X169028Y56911D01*
X170549Y57927D01*
X171566Y59449D01*
X171661Y59924D01*
X173123Y60767D01*
X174044Y60584D01*
X174460Y60243D01*
Y58020D01*
X178500D01*
Y56750D01*
X179770D01*
Y49210D01*
X182540D01*
Y50250D01*
X185951D01*
Y46250D01*
X186145Y45275D01*
X186698Y44448D01*
X188451Y42694D01*
Y31256D01*
X187165Y29970D01*
X182820D01*
X158850Y53939D01*
X158023Y54492D01*
X157048Y54686D01*
X134527D01*
X133928Y55806D01*
X134032Y55961D01*
X134281Y57214D01*
X135483Y58270D01*
X135913Y58184D01*
X137708Y58541D01*
X138588Y59129D01*
X140235Y58950D01*
X140440Y58644D01*
X141961Y57628D01*
X143756Y57270D01*
X145551Y57628D01*
X147072Y58644D01*
X148089Y60166D01*
X148446Y61961D01*
X149413Y62898D01*
X150416Y61894D01*
D02*
G37*
G36*
X96138Y98538D02*
X96386Y97268D01*
X95920Y96570D01*
X95532Y94619D01*
Y88242D01*
X93961Y86671D01*
X92856Y85017D01*
X92468Y83066D01*
Y75015D01*
X92856Y73064D01*
X93961Y71410D01*
X99552Y65819D01*
Y48942D01*
X99142Y48668D01*
X84270Y33796D01*
X83000Y34322D01*
Y43660D01*
X83078Y44250D01*
Y48460D01*
X85230D01*
Y56000D01*
Y63540D01*
X83078D01*
Y64750D01*
X83000Y65340D01*
Y71250D01*
Y89250D01*
X79975D01*
Y97077D01*
X79946Y97221D01*
X80193Y98463D01*
X80786Y99350D01*
X95204D01*
X96138Y98538D01*
D02*
G37*
G36*
X320628Y68303D02*
X320755Y67092D01*
X318198Y64535D01*
X317645Y63708D01*
X317451Y62732D01*
Y44964D01*
X317645Y43989D01*
X318198Y43162D01*
X320951Y40409D01*
Y35500D01*
X321000Y35254D01*
Y23402D01*
X318734D01*
Y17500D01*
Y11598D01*
X323581D01*
Y12638D01*
X332112D01*
Y22362D01*
X333325Y22500D01*
X340000D01*
Y38000D01*
X326049D01*
Y41465D01*
X325905Y42190D01*
X326373Y43064D01*
X326701Y43460D01*
X329230D01*
Y52250D01*
X331770D01*
Y43460D01*
X341040D01*
Y43725D01*
X344638D01*
Y36367D01*
X343598D01*
Y31520D01*
X349500D01*
X355402D01*
Y36367D01*
X354362D01*
Y43725D01*
X354519D01*
Y62781D01*
X355692Y63267D01*
X357487Y61473D01*
X358314Y60920D01*
X359290Y60726D01*
X364981D01*
Y44577D01*
X364888D01*
Y36045D01*
X363848D01*
Y31199D01*
X369750D01*
X375652D01*
Y36045D01*
X374612D01*
Y43725D01*
X378903D01*
Y50547D01*
X379062Y50858D01*
X379742Y51028D01*
X381000Y50085D01*
Y36500D01*
X383609D01*
X384703Y35230D01*
X384688Y35129D01*
X384455Y35083D01*
X382934Y34066D01*
X381917Y32545D01*
X381560Y30750D01*
X381917Y28955D01*
X382041Y28770D01*
X381382Y27500D01*
X381000D01*
Y14624D01*
X381000D01*
X380570Y14446D01*
X380113Y14360D01*
X379114Y13708D01*
X379014Y13563D01*
X378852Y13496D01*
X378674Y13067D01*
X378411Y12683D01*
X378444Y12510D01*
X378376Y12348D01*
Y3059D01*
X239737Y3059D01*
X239612Y4329D01*
X239630Y4332D01*
X241151Y5349D01*
X242168Y6870D01*
X242525Y8665D01*
X242168Y10460D01*
X241151Y11982D01*
X240998Y12084D01*
X240748Y13603D01*
X241433Y14628D01*
X241790Y16422D01*
X241433Y18217D01*
X241217Y18541D01*
X241514Y19895D01*
X242341Y20448D01*
X255052Y33159D01*
X255605Y33986D01*
X255799Y34961D01*
Y46444D01*
X259605Y50250D01*
X260776Y49625D01*
X260701Y49250D01*
Y26578D01*
X260067Y25630D01*
X259710Y23835D01*
X260067Y22040D01*
X261084Y20519D01*
X262605Y19502D01*
X264400Y19145D01*
X266195Y19502D01*
X267717Y20519D01*
X268733Y22040D01*
X269090Y23835D01*
X268733Y25630D01*
X267717Y27151D01*
X266195Y28168D01*
X265799Y28247D01*
Y48194D01*
X272714Y55110D01*
X273888Y54623D01*
Y49367D01*
X272848D01*
Y44520D01*
X278750D01*
Y43250D01*
X280020D01*
Y37133D01*
X282960D01*
Y31520D01*
X292230D01*
Y39040D01*
X284652D01*
Y44500D01*
X303000D01*
Y57254D01*
X303049Y57500D01*
Y58441D01*
X303105Y58524D01*
X303299Y59500D01*
Y60000D01*
X313750D01*
Y62981D01*
X319517Y68748D01*
X320628Y68303D01*
D02*
G37*
G36*
X111798Y18411D02*
X112174Y18148D01*
X112224Y18040D01*
X112401Y17149D01*
X112954Y16322D01*
X123928Y5348D01*
X124755Y4795D01*
X125731Y4601D01*
X232777D01*
X233753Y4795D01*
X234527Y5313D01*
X234573D01*
X236040Y4332D01*
X236058Y4329D01*
X235933Y3059D01*
X106560Y3059D01*
X105933Y4329D01*
X106023Y4445D01*
X106833Y6401D01*
X107109Y8500D01*
X106833Y10599D01*
X106023Y12555D01*
X105500Y13236D01*
Y15194D01*
X106250Y15810D01*
X108045Y16167D01*
X109566Y17184D01*
X110167Y18082D01*
X111666Y18443D01*
X111798Y18411D01*
D02*
G37*
%LPC*%
G36*
X29400Y202790D02*
X27605Y202433D01*
X26084Y201416D01*
X25067Y199895D01*
X24710Y198100D01*
X24867Y197310D01*
X24610Y196040D01*
X24610D01*
X24610Y196040D01*
Y192270D01*
X39690D01*
Y196040D01*
X34967D01*
X33933Y197310D01*
X34090Y198100D01*
X33733Y199895D01*
X32716Y201416D01*
X31195Y202433D01*
X29400Y202790D01*
D02*
G37*
G36*
X74730Y163152D02*
X70098D01*
Y158306D01*
X74730D01*
Y163152D01*
D02*
G37*
G36*
X273730Y239525D02*
X270679Y239285D01*
X266463Y238273D01*
X262458Y236614D01*
X258762Y234349D01*
X255466Y231534D01*
X252651Y228238D01*
X250386Y224542D01*
X248727Y220537D01*
X247715Y216322D01*
X247475Y213270D01*
X273730D01*
Y239525D01*
D02*
G37*
G36*
X437500Y230826D02*
X435216Y230525D01*
X433087Y229643D01*
X431259Y228241D01*
X429857Y226413D01*
X428975Y224284D01*
X428675Y222000D01*
X428975Y219716D01*
X429857Y217587D01*
X431259Y215759D01*
X433087Y214357D01*
X435216Y213475D01*
X437500Y213174D01*
X439784Y213475D01*
X441913Y214357D01*
X443741Y215759D01*
X445143Y217587D01*
X446025Y219716D01*
X446325Y222000D01*
X446025Y224284D01*
X445143Y226413D01*
X443741Y228241D01*
X441913Y229643D01*
X439784Y230525D01*
X437500Y230826D01*
D02*
G37*
G36*
X398020Y186998D02*
Y182770D01*
X402248D01*
X402063Y183701D01*
X400816Y185566D01*
X398951Y186813D01*
X398020Y186998D01*
D02*
G37*
G36*
X402248Y180230D02*
X398020D01*
Y176002D01*
X398951Y176187D01*
X400816Y177434D01*
X402063Y179299D01*
X402248Y180230D01*
D02*
G37*
G36*
X434600Y177690D02*
X432805Y177333D01*
X431284Y176316D01*
X430267Y174795D01*
X429910Y173000D01*
X430091Y172091D01*
X429112Y170821D01*
X422161D01*
Y161770D01*
X431321D01*
Y168312D01*
X432441Y168910D01*
X432805Y168667D01*
X434600Y168310D01*
X435318Y168453D01*
X440719Y163051D01*
X440560Y162250D01*
X440917Y160455D01*
X441934Y158934D01*
X443455Y157917D01*
X445250Y157560D01*
X447045Y157917D01*
X448566Y158934D01*
X449583Y160455D01*
X449940Y162250D01*
X449583Y164045D01*
X448566Y165566D01*
X447045Y166583D01*
X445250Y166940D01*
X444240Y166739D01*
X439073Y171907D01*
X439290Y173000D01*
X438933Y174795D01*
X437916Y176316D01*
X436395Y177333D01*
X434600Y177690D01*
D02*
G37*
G36*
X384480Y149902D02*
X380348D01*
Y145556D01*
X384480D01*
Y149902D01*
D02*
G37*
G36*
X430571Y124980D02*
X421411D01*
Y115929D01*
X430571D01*
Y124980D01*
D02*
G37*
G36*
X391152Y117194D02*
X387020D01*
Y112848D01*
X391152D01*
Y117194D01*
D02*
G37*
G36*
X450688Y102902D02*
X445841D01*
Y98270D01*
X450688D01*
Y102902D01*
D02*
G37*
G36*
Y95730D02*
X445841D01*
Y91098D01*
X450688D01*
Y95730D01*
D02*
G37*
G36*
Y72902D02*
X445841D01*
Y68270D01*
X450688D01*
Y72902D01*
D02*
G37*
G36*
Y65730D02*
X445841D01*
Y61098D01*
X450688D01*
Y65730D01*
D02*
G37*
G36*
X426270Y59525D02*
Y33270D01*
X452525D01*
X452285Y36321D01*
X451273Y40537D01*
X449614Y44542D01*
X447349Y48238D01*
X444534Y51534D01*
X441238Y54349D01*
X437542Y56614D01*
X433537Y58273D01*
X429322Y59285D01*
X426270Y59525D01*
D02*
G37*
G36*
X423730D02*
X420678Y59285D01*
X416463Y58273D01*
X412458Y56614D01*
X408762Y54349D01*
X405466Y51534D01*
X402651Y48238D01*
X400386Y44542D01*
X398727Y40537D01*
X397715Y36321D01*
X397475Y33270D01*
X423730D01*
Y59525D01*
D02*
G37*
G36*
X452525Y30730D02*
X426270D01*
Y4475D01*
X429322Y4715D01*
X433537Y5727D01*
X437542Y7386D01*
X441238Y9651D01*
X444534Y12466D01*
X447349Y15762D01*
X449614Y19458D01*
X451273Y23463D01*
X452285Y27678D01*
X452525Y30730D01*
D02*
G37*
G36*
X423730D02*
X397475D01*
X397715Y27678D01*
X398727Y23463D01*
X400386Y19458D01*
X402651Y15762D01*
X405466Y12466D01*
X408762Y9651D01*
X412458Y7386D01*
X416463Y5727D01*
X420678Y4715D01*
X423730Y4475D01*
Y30730D01*
D02*
G37*
G36*
X287630Y179940D02*
X285160D01*
Y175670D01*
X287630D01*
Y179940D01*
D02*
G37*
G36*
X278647Y183793D02*
X276853Y183436D01*
X275331Y182419D01*
X274314Y180897D01*
X273957Y179102D01*
X274314Y177308D01*
X275331Y175786D01*
X276853Y174769D01*
X278647Y174412D01*
X280442Y174769D01*
X281964Y175786D01*
X282980Y177308D01*
X283338Y179102D01*
X282980Y180897D01*
X281964Y182419D01*
X280442Y183436D01*
X278647Y183793D01*
D02*
G37*
G36*
X212500Y174690D02*
X210705Y174333D01*
X209184Y173316D01*
X208167Y171795D01*
X207810Y170000D01*
X208167Y168205D01*
X209184Y166684D01*
X210705Y165667D01*
X212500Y165310D01*
X214295Y165667D01*
X215816Y166684D01*
X216833Y168205D01*
X217190Y170000D01*
X216833Y171795D01*
X215816Y173316D01*
X214295Y174333D01*
X212500Y174690D01*
D02*
G37*
G36*
X217152Y162438D02*
X212520D01*
Y157591D01*
X217152D01*
Y162438D01*
D02*
G37*
G36*
X209980D02*
X205348D01*
Y157591D01*
X209980D01*
Y162438D01*
D02*
G37*
G36*
X207540Y64290D02*
X204770D01*
Y58020D01*
X207540D01*
Y64290D01*
D02*
G37*
G36*
Y55480D02*
X204770D01*
Y49210D01*
X207540D01*
Y55480D01*
D02*
G37*
G36*
X177230D02*
X174460D01*
Y49210D01*
X177230D01*
Y55480D01*
D02*
G37*
G36*
X94040Y63540D02*
X87770D01*
Y57270D01*
X94040D01*
Y63540D01*
D02*
G37*
G36*
Y54730D02*
X87770D01*
Y48460D01*
X94040D01*
Y54730D01*
D02*
G37*
G36*
X277480Y41980D02*
X272848D01*
Y37133D01*
X277480D01*
Y41980D01*
D02*
G37*
G36*
X304040Y39040D02*
X294770D01*
Y31520D01*
X304040D01*
Y39040D01*
D02*
G37*
G36*
X355402Y28980D02*
X350770D01*
Y24133D01*
X355402D01*
Y28980D01*
D02*
G37*
G36*
X348230D02*
X343598D01*
Y24133D01*
X348230D01*
Y28980D01*
D02*
G37*
G36*
X375652Y28659D02*
X371020D01*
Y23812D01*
X375652D01*
Y28659D01*
D02*
G37*
G36*
X368480D02*
X363848D01*
Y23812D01*
X368480D01*
Y28659D01*
D02*
G37*
G36*
X304040Y28980D02*
X294770D01*
Y21460D01*
X304040D01*
Y28980D01*
D02*
G37*
G36*
X292230D02*
X282960D01*
Y21460D01*
X292230D01*
Y28980D01*
D02*
G37*
G36*
X316194Y23402D02*
X311348D01*
Y18770D01*
X316194D01*
Y23402D01*
D02*
G37*
G36*
Y16230D02*
X311348D01*
Y11598D01*
X316194D01*
Y16230D01*
D02*
G37*
%LPD*%
D13*
X105850Y39111D02*
Y39464D01*
X102400Y35661D02*
X105850Y39111D01*
X103478Y45064D02*
X104650Y46235D01*
Y67930D01*
X102747Y45064D02*
X103478D01*
X86750Y29067D02*
X102747Y45064D01*
X127180Y10650D02*
X231328D01*
X105680Y26100D02*
X108570D01*
X108000Y31700D02*
X118256Y21444D01*
X86750Y16750D02*
Y29067D01*
X80222Y10222D02*
X86750Y16750D01*
X102400Y29380D02*
X105680Y26100D01*
X75000Y8500D02*
X76722Y10222D01*
X102400Y29380D02*
Y35661D01*
X76722Y10222D02*
X80222D01*
X117550Y103250D02*
X122250D01*
X112750Y102250D02*
X116550D01*
X117550Y103250D01*
X116792Y112192D02*
X117734Y111250D01*
X131750D01*
X111757Y112192D02*
X116792D01*
X83579Y126422D02*
Y131093D01*
X86350Y133863D02*
Y135000D01*
X87054Y134196D02*
X89804D01*
X90751Y133250D01*
X83579Y131093D02*
X86350Y133863D01*
X86250Y135000D02*
X87054Y134196D01*
X238429Y156250D02*
X238500Y156321D01*
X231225Y158238D02*
X233213Y156250D01*
X238429D01*
X230101Y158238D02*
X231225D01*
X218306Y159592D02*
X221960D01*
X213612Y158898D02*
X217612D01*
X211250Y156321D02*
Y156536D01*
X213612Y158898D01*
X217612D02*
X218306Y159592D01*
X199625Y132625D02*
Y141202D01*
X200377Y141953D01*
X199625Y132625D02*
X199750Y132500D01*
X154046Y148096D02*
X154850Y148900D01*
X219690Y190160D02*
X235349Y174500D01*
X218240Y186660D02*
X233899Y171000D01*
X235349Y174500D02*
X246000D01*
X215340Y179660D02*
X231000Y164000D01*
X216790Y183160D02*
X232450Y167500D01*
X200243Y183160D02*
X216790D01*
X204592Y193660D02*
X221139D01*
X201693Y186660D02*
X218240D01*
X221139Y193660D02*
X236799Y178000D01*
X233899Y171000D02*
X244195D01*
X231000Y164000D02*
X241296D01*
X232450Y167500D02*
X242746D01*
X194419Y179660D02*
X215340D01*
X203143Y190160D02*
X219690D01*
X236799Y178000D02*
X247450D01*
X244195Y171000D02*
X253848Y161348D01*
X242746Y167500D02*
X257340Y152906D01*
X241296Y164000D02*
X246000Y159296D01*
X246000Y174500D02*
X257592Y162908D01*
X247450Y178000D02*
X257540Y167909D01*
X55000Y151600D02*
X55100Y151700D01*
Y160120D01*
X49720Y165500D02*
X55100Y160120D01*
X42300Y165500D02*
X49720D01*
X37325Y160525D02*
X42300Y165500D01*
X37200Y160525D02*
X37325D01*
X129629Y57826D02*
Y63127D01*
X127399Y52137D02*
X157048D01*
X119209Y61360D02*
X124300Y56269D01*
X120800Y53786D02*
Y54820D01*
Y53786D02*
X125949Y48637D01*
X130409Y63907D02*
Y66659D01*
X115709Y59910D02*
Y69731D01*
X125949Y48637D02*
X155363D01*
X129629Y57826D02*
X129699Y57756D01*
X119209Y61360D02*
Y68281D01*
X124300Y55236D02*
Y56269D01*
Y55236D02*
X127399Y52137D01*
X115709Y59910D02*
X120800Y54820D01*
X83579Y126422D02*
X84751Y125250D01*
X90751D01*
X24750Y225250D02*
X26196Y226696D01*
X29446D02*
X30250Y227500D01*
X26196Y226696D02*
X29446D01*
X97566Y75015D02*
Y83066D01*
Y75015D02*
X104650Y67930D01*
X108150Y47710D02*
Y58651D01*
X112210Y62710D01*
Y71180D01*
X108150Y47710D02*
X113600Y42260D01*
Y31319D02*
Y42260D01*
X129629Y63127D02*
X130409Y63907D01*
X115669Y29250D02*
X131881D01*
X113600Y31319D02*
X115669Y29250D01*
X114756Y18125D02*
Y19914D01*
X108570Y26100D02*
X114756Y19914D01*
X115709Y69731D02*
X116100Y70121D01*
X124810Y66227D02*
Y66309D01*
X119209Y68281D02*
X119600Y68671D01*
X135913Y63821D02*
X139484Y67392D01*
X112210Y71180D02*
X112600Y71571D01*
X130409Y66659D02*
X137750Y74000D01*
X124810Y66309D02*
X131000Y72500D01*
X135913Y62874D02*
Y63821D01*
X112600Y71571D02*
Y85671D01*
X119600Y68671D02*
Y68937D01*
X116100Y70121D02*
Y81850D01*
X131000Y72500D02*
X131200D01*
X100630Y94619D02*
X105961Y99950D01*
X100630Y86130D02*
Y94619D01*
X97566Y83066D02*
X100630Y86130D01*
X103631Y80642D02*
Y82716D01*
X103166Y80177D02*
X103631Y80642D01*
Y82716D02*
X104130Y83215D01*
X103500Y115786D02*
X108163D01*
X112053Y91654D02*
X115649Y95250D01*
X110450Y99950D02*
X112750Y102250D01*
X115649Y95250D02*
X122250D01*
X104130Y83215D02*
Y93170D01*
X109730Y90850D02*
X110533Y91654D01*
X104130Y93170D02*
X107410Y96450D01*
X111900D01*
X110533Y91654D02*
X112053D01*
X105961Y99950D02*
X110450D01*
X111900Y96450D02*
X114200Y98750D01*
X118000D01*
X115000Y88700D02*
X117550Y91250D01*
X112600Y85671D02*
X115000Y88071D01*
Y88700D01*
X118000Y98750D02*
X118500Y99250D01*
X122250D01*
X117550Y91250D02*
X122250D01*
X232043Y220355D02*
X234146D01*
X227814Y223447D02*
X228950D01*
X232043Y220355D01*
X234146D02*
X238500Y216000D01*
Y207074D02*
Y216000D01*
X230521Y199095D02*
X238500Y207074D01*
X116100Y81850D02*
X118500Y84250D01*
X126663Y76000D02*
X129750D01*
X119600Y68937D02*
X126663Y76000D01*
X139484Y67392D02*
Y70785D01*
X358104Y168328D02*
X358900Y169125D01*
Y174400D01*
X358104Y165954D02*
Y168328D01*
X357300Y165150D02*
X358104Y165954D01*
X303900Y172500D02*
Y174400D01*
X304000Y165350D02*
Y172400D01*
X303900Y172500D02*
X304000Y172400D01*
Y165350D02*
X304100Y165250D01*
X179500Y211750D02*
X182643D01*
X194157Y223264D02*
X206014D01*
X219250Y236500D01*
X178250Y210500D02*
X179500Y211750D01*
X182643D02*
X194157Y223264D01*
X243250Y202500D02*
Y236500D01*
Y202500D02*
X253000Y192750D01*
X253003D01*
X259500Y186250D02*
Y186253D01*
X253003Y192750D02*
X259500Y186253D01*
X257540Y167909D02*
X282400D01*
X257592Y162908D02*
X282400D01*
X273900Y139000D02*
X276637D01*
X290000Y98392D02*
Y120500D01*
X287602Y122898D02*
X290000Y120500D01*
X282400Y122898D02*
X287602D01*
X110620Y8040D02*
X111080Y7580D01*
X114000Y115750D02*
X118000D01*
X118500Y115250D01*
X122250D01*
X108163Y115786D02*
X111757Y112192D01*
X106000Y123750D02*
X114000Y115750D01*
X114756Y18125D02*
X125731Y7150D01*
X118256Y19574D02*
X127180Y10650D01*
X118256Y19574D02*
Y21444D01*
X125731Y7150D02*
X232777D01*
X139381Y36750D02*
X162535D01*
X131881Y29250D02*
X139381Y36750D01*
X167020Y218235D02*
X171505Y213750D01*
X156750Y175500D02*
X162095D01*
X86179Y171500D02*
X86224Y171129D01*
X86468Y169138D01*
X95125Y149125D02*
X99375D01*
X129750Y76000D02*
Y79750D01*
X118500Y84250D02*
Y87250D01*
X122250D01*
X307500Y212001D02*
X327551D01*
X329000Y213450D01*
X340878D01*
X344000Y205000D02*
Y210328D01*
X340878Y213450D02*
X344000Y210328D01*
X343750Y204750D02*
X344000Y205000D01*
X351750Y204750D02*
X352250Y205250D01*
Y214250D01*
X352750Y214750D01*
X321235Y182639D02*
X325284D01*
X325645Y183000D01*
X318900Y180304D02*
X321235Y182639D01*
X330727Y192573D02*
Y193952D01*
X326727Y191623D02*
X333900Y184450D01*
X318170Y191623D02*
X326727D01*
X321272Y195123D02*
X329555D01*
X330727Y192573D02*
X343400Y179900D01*
X333900Y174400D02*
Y184450D01*
X329555Y195123D02*
X330727Y193952D01*
X343400Y179900D02*
X346135D01*
X265500Y62000D02*
X273892Y70392D01*
X275264D01*
X339000Y196500D02*
X358578D01*
X359750Y197672D01*
Y204750D01*
X367750Y197710D02*
Y204750D01*
X363040Y193000D02*
X367750Y197710D01*
X328432Y207068D02*
X339000Y196500D01*
X292900Y189269D02*
X310699Y207068D01*
X328432D01*
X292900Y181731D02*
Y189269D01*
Y181731D02*
X293900Y180731D01*
Y174400D02*
Y180731D01*
X296400Y183180D02*
X298900Y180680D01*
X296400Y183180D02*
Y187820D01*
X337500Y193000D02*
X363040D01*
X326932Y203568D02*
X337500Y193000D01*
X312148Y203568D02*
X326932D01*
X296400Y187820D02*
X312148Y203568D01*
X298900Y174400D02*
Y180680D01*
X302000Y185500D02*
X308868Y192368D01*
X317425D01*
X253250Y47500D02*
X260769Y55019D01*
X261100D01*
X253250Y34961D02*
Y47500D01*
X235008Y22250D02*
X240539D01*
X229679Y16921D02*
X235008Y22250D01*
X161603Y18000D02*
X162682Y16921D01*
X240539Y22250D02*
X253250Y34961D01*
X127750Y18000D02*
X161603D01*
X162682Y16921D02*
X229679D01*
X180079Y23921D02*
X189671D01*
X181764Y27421D02*
X188221D01*
X191000Y30200D01*
X193949Y20421D02*
X198750Y25222D01*
X167500Y36500D02*
X180079Y23921D01*
X178629Y20421D02*
X193949D01*
X164000Y35050D02*
X178629Y20421D01*
X189671Y23921D02*
X194500Y28750D01*
X157048Y52137D02*
X181764Y27421D01*
X232777Y7150D02*
X233489Y7862D01*
X231328Y10650D02*
X237100Y16422D01*
X237031Y7862D02*
X237835Y8665D01*
X233489Y7862D02*
X237031D01*
X154741Y61351D02*
X154956Y61136D01*
X142984Y62732D02*
X143756Y61961D01*
X142984Y62732D02*
Y69335D01*
X154741Y61351D02*
Y69945D01*
X159537Y67444D02*
X160341Y66641D01*
X157750Y72000D02*
X159537Y70213D01*
Y67444D02*
Y70213D01*
X149141Y67625D02*
X149750Y68234D01*
X153750Y70936D02*
X154741Y69945D01*
X149750Y68234D02*
Y79750D01*
X133750Y75050D02*
Y79750D01*
X131200Y72500D02*
X133750Y75050D01*
X163750Y40250D02*
X163985D01*
X167500Y36735D01*
X155363Y48637D02*
X163750Y40250D01*
X157750Y72000D02*
Y79750D01*
X142984Y69335D02*
X144750Y71101D01*
Y71154D01*
X153750Y70936D02*
Y79750D01*
X141750Y73050D02*
Y79750D01*
X139484Y70785D02*
X141750Y73050D01*
X144750Y71154D02*
X145750Y72154D01*
X137750Y74000D02*
Y79750D01*
X145750Y72154D02*
Y79750D01*
X167233Y61244D02*
Y67668D01*
X161750Y73151D02*
X167233Y67668D01*
X161750Y73151D02*
Y79750D01*
X165750Y74100D02*
X174044Y65806D01*
Y65275D02*
Y65806D01*
X177257Y72500D02*
X177714Y72044D01*
X172300Y72500D02*
X177257D01*
X169750Y75050D02*
Y79750D01*
Y75050D02*
X172300Y72500D01*
X317425Y192368D02*
X318170Y191623D01*
X318427Y197968D02*
X321272Y195123D01*
X318000Y197968D02*
X318427D01*
X314100Y174600D02*
Y179066D01*
X313900Y174400D02*
X314100Y174600D01*
Y179066D02*
X314296Y179263D01*
Y186768D01*
X308712Y174588D02*
Y181221D01*
X308523Y181409D02*
X308712Y181221D01*
Y174588D02*
X308900Y174400D01*
X318250Y166000D02*
X322600Y170350D01*
Y170350D01*
X318900Y174400D02*
Y179368D01*
X318900Y179368D02*
Y180304D01*
X323700Y171450D02*
Y174200D01*
X322600Y170350D02*
X323700Y171450D01*
X318900Y179368D02*
X318900Y179368D01*
X323700Y174200D02*
X323900Y174400D01*
X326449Y166907D02*
X328900Y169358D01*
X326449Y166247D02*
Y166907D01*
X338700Y171414D02*
Y174200D01*
X334194Y166034D02*
X338700Y170540D01*
X338700Y174200D02*
X338900Y174400D01*
X338700Y170540D02*
Y171414D01*
X338700Y171414D01*
X341888Y165718D02*
Y167182D01*
X343900Y169194D01*
Y174400D01*
X349517Y166758D02*
Y167145D01*
X353750Y174250D02*
X353900Y174400D01*
X349517Y167145D02*
X353750Y171378D01*
Y174250D01*
X362890Y150556D02*
X364080D01*
X366532Y148104D01*
X370200D01*
X333266Y95400D02*
X333371Y95505D01*
X366387Y106593D02*
X366387Y106593D01*
X370200Y107694D02*
X370400Y107894D01*
X362819Y103778D02*
X364767Y105727D01*
X365498D01*
X366365Y106593D01*
X367299Y106593D02*
X368400Y107694D01*
X370200D01*
X361682Y103778D02*
X362819D01*
X366387Y106593D02*
X367299D01*
X333371Y95505D02*
X355410D01*
X366365Y106593D02*
X366387D01*
X181627Y37750D02*
X183414D01*
X184263Y36900D01*
X185400D01*
X178500Y40877D02*
X181627Y37750D01*
X188500Y46250D02*
X191000Y43750D01*
X193750Y49750D02*
X194500Y49000D01*
X193750Y49750D02*
Y56500D01*
X194500Y28750D02*
Y49000D01*
X191000Y30200D02*
Y43750D01*
X193500Y56750D02*
X193750Y56500D01*
X153750Y145764D02*
X154046Y146060D01*
Y148096D01*
X153750Y138750D02*
Y145764D01*
X145250Y153749D02*
X149250Y149749D01*
Y143000D02*
Y149749D01*
X138250Y150849D02*
X141750Y147349D01*
X149750Y138750D02*
Y142500D01*
X149250Y143000D02*
X149750Y142500D01*
X141750Y152299D02*
X145750Y148299D01*
Y138750D02*
Y148299D01*
X141750Y142500D02*
Y147349D01*
X137750Y138750D02*
Y146399D01*
X134750Y149399D02*
X137750Y146399D01*
X186328Y174216D02*
X189750Y170794D01*
X186328Y174216D02*
Y179144D01*
X205072Y201100D02*
X205875Y201904D01*
X158085Y195250D02*
X193103D01*
X159535Y198750D02*
X194552D01*
X160985Y202250D02*
X196002D01*
X191653Y191750D02*
X200243Y183160D01*
X205875Y201904D02*
Y205875D01*
X196002Y202250D02*
X204592Y193660D01*
X156636Y191750D02*
X191653D01*
X205875Y205875D02*
X215000Y215000D01*
X215440D01*
X193103Y195250D02*
X201693Y186660D01*
X194552Y198750D02*
X203143Y190160D01*
X155186Y188250D02*
X185829D01*
X194419Y179660D01*
X161466Y155534D02*
X165828Y151172D01*
X154939Y156998D02*
X156404Y155534D01*
X161466D01*
X154939Y156998D02*
Y173689D01*
X162000Y162594D02*
Y163689D01*
X165561Y159034D02*
X166655D01*
X162000Y162594D02*
X165561Y159034D01*
X166655D02*
X169328Y156361D01*
Y148066D02*
Y156361D01*
X161750Y130250D02*
Y138750D01*
Y145437D02*
X165828Y149515D01*
X161750Y138750D02*
Y145437D01*
X165828Y149515D02*
Y151172D01*
X165750Y144488D02*
X169328Y148066D01*
X169750Y138750D02*
Y143538D01*
X173400Y147188D02*
Y151250D01*
X169750Y143538D02*
X173400Y147188D01*
X165750Y138750D02*
Y144488D01*
X173400Y151250D02*
X176900Y154750D01*
X131250Y147950D02*
X133750Y145450D01*
Y138750D02*
Y145450D01*
X145250Y173237D02*
X151954Y179941D01*
X145250Y153749D02*
Y173237D01*
X141750Y179671D02*
X150438Y188359D01*
X141750Y152299D02*
Y179671D01*
X138250Y150849D02*
Y181121D01*
X148988Y191859D01*
X134750Y149399D02*
Y182570D01*
X147538Y195359D01*
X131250Y184020D02*
X146089Y198859D01*
X131250Y147950D02*
Y184020D01*
X127750Y146500D02*
Y185470D01*
Y146500D02*
X129750Y144500D01*
Y138750D02*
Y144500D01*
X104000Y144985D02*
X111773Y137212D01*
Y134654D02*
X115000Y131427D01*
Y129800D02*
Y131427D01*
X127750Y185470D02*
X144639Y202359D01*
X111773Y134654D02*
Y137212D01*
X77893Y159143D02*
X83893D01*
X85750Y161000D01*
X86543Y161309D02*
X89000Y158853D01*
Y155786D02*
X92914Y151871D01*
X89000Y155786D02*
Y158853D01*
X92914Y151422D02*
Y151871D01*
X94000Y150250D02*
Y150336D01*
X92914Y151422D02*
X94000Y150336D01*
Y150250D02*
X95125Y149125D01*
X73000Y168078D02*
Y168250D01*
X76000Y157036D02*
Y165078D01*
X73000Y168078D02*
X76000Y165078D01*
X92864Y179000D02*
X94363Y180500D01*
X92286Y179000D02*
X92864D01*
X94363Y180500D02*
X95500D01*
X97250Y161000D02*
Y172710D01*
X86468Y161509D02*
Y169138D01*
X87214Y171250D02*
X88250Y172286D01*
Y174964D02*
X92286Y179000D01*
X100536Y161464D02*
X103500Y158500D01*
Y152786D02*
X104000Y152285D01*
Y144985D02*
Y152285D01*
X103500Y152786D02*
Y158500D01*
X99375Y148625D02*
Y149125D01*
X93000Y139250D02*
X93625Y138625D01*
X90500Y140715D02*
X91965Y139250D01*
X93000D01*
X85750Y146000D02*
Y146500D01*
X89000Y142750D02*
X89328D01*
X79750Y147500D02*
X85750D01*
X90500Y140715D02*
Y141578D01*
X93625Y138625D02*
X101226D01*
X85750Y146000D02*
X89000Y142750D01*
X89328D02*
X90500Y141578D01*
X346135Y179900D02*
X347600Y178435D01*
X348900Y174400D02*
Y176200D01*
X347600Y177500D02*
X348900Y176200D01*
X347600Y177500D02*
Y178435D01*
X364338Y111327D02*
X365706Y112696D01*
X364500Y124422D02*
Y134736D01*
X366030Y122970D02*
X370328D01*
X365706Y112696D02*
X370200D01*
X362115Y118097D02*
X370200D01*
X365672Y123250D02*
X365750D01*
X370200Y118097D02*
X370400Y117897D01*
X364500Y124422D02*
X365672Y123250D01*
X365750D02*
X366030Y122970D01*
X363201Y111327D02*
X364338D01*
X370400Y122898D02*
X375572D01*
X370328Y122970D02*
X370400Y122898D01*
X370200Y112696D02*
X370400Y112896D01*
X361399Y118813D02*
X362115Y118097D01*
X376156Y97892D02*
X377107Y98843D01*
X381746D02*
X382172Y98418D01*
X386582D02*
X386750Y98250D01*
X379250Y93067D02*
X379426Y93243D01*
X377107Y98843D02*
X381746D01*
X382172Y98418D02*
X386582D01*
X370400Y92891D02*
X370576Y93067D01*
X379250D01*
X370400Y97892D02*
X376156D01*
X276637Y139000D02*
X277535Y138102D01*
X282200D01*
X282400Y137902D01*
X257340Y152906D02*
X282400D01*
X253848Y161348D02*
X257288Y157907D01*
X282400D01*
X388717Y147467D02*
Y149046D01*
X387281Y146031D02*
X388717Y147467D01*
X387281Y145817D02*
Y146031D01*
X388717Y149046D02*
X389520Y149850D01*
X385750Y144286D02*
X387281Y145817D01*
X61875Y196375D02*
Y226125D01*
X61000Y195500D02*
X61875Y196375D01*
Y226125D02*
X62750Y227000D01*
X438086Y125000D02*
X438411D01*
X421391D02*
X438086D01*
X263250Y26122D02*
Y49250D01*
X264400Y23835D02*
Y24971D01*
X263250Y26122D02*
X264400Y24971D01*
X166250Y219005D02*
X167020Y218235D01*
X168885Y220100D01*
X161035Y212250D02*
X167020Y218235D01*
X167345Y220100D02*
X168885D01*
X181250Y127250D02*
X209250D01*
X199715Y123750D02*
X205464Y118000D01*
X186200Y123500D02*
X186450Y123750D01*
X199715D01*
X181250Y123250D02*
X185000D01*
X185250Y123500D02*
X186200D01*
X185000Y123250D02*
X185250Y123500D01*
X185950Y119250D02*
X186450Y119750D01*
X198765D01*
X185000Y119250D02*
X185000Y119250D01*
X185950D01*
X198765Y119750D02*
X204515Y114000D01*
X181250Y119250D02*
X185000D01*
X197315Y116250D02*
X203065Y110500D01*
X187899Y116250D02*
X197315D01*
X186899Y115250D02*
X187899Y116250D01*
X293700Y83464D02*
Y86200D01*
X293900Y86400D01*
X289440Y79205D02*
X293700Y83464D01*
X307600Y76275D02*
Y80350D01*
X308900Y81650D02*
Y86400D01*
X307600Y80350D02*
X308900Y81650D01*
X345200Y82365D02*
Y82365D01*
X343900Y86400D02*
X344100Y86200D01*
Y83465D02*
Y86200D01*
Y83465D02*
X345200Y82365D01*
X370400Y167909D02*
X371870D01*
X372070Y168109D01*
Y169380D01*
X168885Y220100D02*
X169530D01*
X166250Y219005D02*
X167345Y220100D01*
X188250Y205750D02*
X197250Y214750D01*
X169986Y205750D02*
X188250D01*
X160876Y202359D02*
X160985Y202250D01*
X144639Y202359D02*
X160876D01*
X159426Y198859D02*
X159535Y198750D01*
X146089Y198859D02*
X159426D01*
X157977Y195359D02*
X158085Y195250D01*
X147538Y195359D02*
X157977D01*
X156527Y191859D02*
X156636Y191750D01*
X148988Y191859D02*
X156527D01*
X155077Y188359D02*
X155186Y188250D01*
X150438Y188359D02*
X155077D01*
X197250Y214750D02*
Y215750D01*
X175000Y213750D02*
X178250Y210500D01*
X171505Y213750D02*
X175000D01*
X178100Y218650D02*
Y229600D01*
X177950Y229750D02*
X178100Y229600D01*
Y218650D02*
X178250Y218500D01*
X156750Y209000D02*
X160000Y212250D01*
X161035D01*
X156750Y208750D02*
Y209000D01*
X154939Y173689D02*
X156750Y175500D01*
X282500Y91250D02*
Y92791D01*
X282400Y92891D02*
X282500Y92791D01*
X178500Y40877D02*
Y56750D01*
X188500Y46250D02*
Y56750D01*
X198750Y25222D02*
Y56500D01*
X198500Y56750D02*
X198750Y56500D01*
X164000Y35050D02*
Y35285D01*
X162535Y36750D02*
X164000Y35285D01*
X167500Y36500D02*
Y36735D01*
X88250Y172286D02*
Y174964D01*
X73000Y186250D02*
X80000Y193250D01*
X73000Y186250D02*
X73000D01*
X363750Y86250D02*
X363900Y86400D01*
X363750Y82250D02*
Y86250D01*
Y82250D02*
X366000Y80000D01*
X328980Y78230D02*
Y79030D01*
X323900Y81070D02*
Y86400D01*
X320000Y62732D02*
X323380Y66112D01*
Y80549D02*
X323900Y81070D01*
X323380Y66112D02*
Y80549D01*
X328980Y79030D02*
X329100Y79150D01*
Y86200D01*
X347961Y79604D02*
X351903D01*
X352706Y78800D01*
X297813Y79358D02*
X298700Y80244D01*
Y86200D01*
X298900Y86400D01*
X362250Y142600D02*
X362353Y142703D01*
X370200D01*
X345200Y82365D02*
X347961Y79604D01*
X281000Y80721D02*
X284680Y84400D01*
X281000Y76128D02*
Y80721D01*
X275264Y70392D02*
X281000Y76128D01*
X291417Y64671D02*
X291559Y64812D01*
X290044Y64671D02*
X291417D01*
X286373Y61000D02*
X290044Y64671D01*
X286600Y78401D02*
X287404Y79205D01*
X289440D01*
X367466Y137702D02*
X370200D01*
X364500Y134736D02*
X367466Y137702D01*
X370200D02*
X370400Y137902D01*
X355410Y95505D02*
X358900Y92014D01*
Y86400D02*
Y92014D01*
X334100Y82070D02*
X347558Y68612D01*
X334100Y82070D02*
Y86200D01*
X311414Y64250D02*
X318900Y71736D01*
X311441Y72196D02*
Y77390D01*
X305840Y74516D02*
X307600Y76275D01*
X305840Y74516D02*
Y74516D01*
X301475Y70150D02*
X305840Y74516D01*
X303900Y77525D02*
Y86400D01*
X302341Y75965D02*
X303900Y77525D01*
X302341Y75965D02*
Y75965D01*
X300125Y73750D02*
X302341Y75965D01*
X288900Y84600D02*
Y86400D01*
X288700Y84400D02*
X288900Y84600D01*
X284680Y84400D02*
X288700D01*
X381903Y104500D02*
X393062D01*
X380297Y102893D02*
X381903Y104500D01*
X370400Y102893D02*
X380297D01*
X375572Y122898D02*
X385719Y112751D01*
X293500Y21000D02*
Y30250D01*
X291000Y18500D02*
X293500Y21000D01*
X291000Y17400D02*
Y18500D01*
X278750Y43250D02*
X279233Y42767D01*
Y37133D02*
Y42767D01*
Y37133D02*
X280987D01*
X278750Y43036D02*
Y43250D01*
X115000Y129800D02*
X117550Y127250D01*
X111500Y128350D02*
X116601Y123250D01*
X111500Y128350D02*
Y129500D01*
X107250Y133750D02*
X111500Y129500D01*
X107250Y133750D02*
Y136785D01*
X105786Y138250D02*
X107250Y136785D01*
X108000Y126901D02*
X115651Y119250D01*
X108000Y126901D02*
Y128035D01*
X105786Y130250D02*
X108000Y128035D01*
X105250Y130250D02*
X105786D01*
X102250Y133250D02*
X105250Y130250D01*
X101601Y138250D02*
X105786D01*
X117550Y127250D02*
X122250D01*
X101226Y138625D02*
X101601Y138250D01*
X116601Y123250D02*
X122250D01*
X115651Y119250D02*
X122250D01*
X103250Y123750D02*
X106000D01*
X101750Y133250D02*
X102250D01*
X101750Y125250D02*
X103250Y123750D01*
X173750Y140750D02*
X174750D01*
X173750Y138750D02*
Y140750D01*
X201900Y100625D02*
Y101284D01*
X191950Y85250D02*
X201347D01*
X202457Y77560D02*
X203013Y77003D01*
X194829Y108355D02*
X201900Y101284D01*
X201347Y85250D02*
X201900Y85803D01*
X201153Y77751D02*
X201900Y77003D01*
X201153Y77751D02*
Y78633D01*
X202500Y85250D02*
X203000Y84750D01*
X230696Y112804D02*
X231500Y112000D01*
X226035Y112804D02*
X230696D01*
X216898Y102491D02*
X217533Y103125D01*
Y104782D01*
X445250Y67679D02*
Y76250D01*
X444571Y67000D02*
X445250Y67679D01*
X445500Y88500D02*
Y96071D01*
X444571Y97000D02*
X445500Y96071D01*
X157250Y125750D02*
X161750Y130250D01*
X131750Y111250D02*
X135250Y114750D01*
X156750Y218250D02*
Y225550D01*
X152550Y229750D02*
X156750Y225550D01*
X123000Y131250D02*
Y132500D01*
X122250Y131250D02*
X123000D01*
X15850Y215100D02*
X16500Y215750D01*
X9250Y215100D02*
X15850D01*
X17500Y225250D02*
X24750D01*
X16500Y224250D02*
X17500Y225250D01*
X17000Y215250D02*
X24750D01*
X16500Y215750D02*
X17000Y215250D01*
X81250Y208500D02*
Y227000D01*
X80000Y207250D02*
X81250Y208500D01*
X328900Y86400D02*
X329100Y86200D01*
X347558Y54750D02*
Y68612D01*
X333900Y86400D02*
X334100Y86200D01*
X370938Y69187D02*
X371250Y69500D01*
X366465Y69187D02*
X370938D01*
X366152Y68875D02*
X366465Y69187D01*
X292000Y73750D02*
X300125D01*
X284250Y66000D02*
X292000Y73750D01*
X296525Y70150D02*
X301475D01*
X291188Y64812D02*
X296525Y70150D01*
X320000Y44964D02*
Y62732D01*
X309250Y64250D02*
X311414D01*
X318900Y71736D02*
Y86400D01*
X311441Y77390D02*
X313700Y79650D01*
X273153Y59153D02*
X279083D01*
X263250Y49250D02*
X273153Y59153D01*
X280930Y61000D02*
X286373D01*
X279083Y59153D02*
X280930Y61000D01*
X275308Y66000D02*
X284250D01*
X275517D02*
X276763Y64753D01*
X275308Y66000D02*
X275517D01*
X430750Y160500D02*
X435250Y156000D01*
X434600Y172775D02*
Y173000D01*
Y172775D02*
X445125Y162250D01*
X445250D01*
X420891Y160500D02*
X430750D01*
X420141Y126250D02*
X421391Y125000D01*
X412500Y67000D02*
X435000D01*
X412500Y97000D02*
X435000D01*
X400562D02*
X412500D01*
X393062Y104500D02*
X400562Y97000D01*
Y67000D02*
X412500D01*
X393253Y74309D02*
X400562Y67000D01*
X393253Y74309D02*
Y82997D01*
X386750Y89500D02*
X393253Y82997D01*
X386750Y89500D02*
Y89750D01*
X370200Y148104D02*
X370400Y147904D01*
X370200Y142703D02*
X370400Y142903D01*
X328900Y169358D02*
Y174400D01*
X253848Y161348D02*
X253848D01*
X246000Y159296D02*
X257391Y147904D01*
X246000Y159296D02*
Y159296D01*
X257391Y147904D02*
X282400D01*
X162000Y163689D02*
X165561Y167250D01*
X167596D02*
X169061Y168714D01*
Y175146D02*
X170750Y176835D01*
Y182500D01*
X169061Y168714D02*
Y175146D01*
X165561Y167250D02*
X167596D01*
X249323Y117897D02*
X282400D01*
X226426Y95000D02*
X249323Y117897D01*
X249271Y112896D02*
X282400D01*
X227876Y91500D02*
X249271Y112896D01*
X249220Y107894D02*
X282400D01*
X229325Y88000D02*
X249220Y107894D01*
X199605Y95000D02*
X226426D01*
X210000Y83328D02*
X211172Y84500D01*
X230775D01*
X249168Y102893D02*
X282400D01*
X203900Y77003D02*
X210000Y83103D01*
X230775Y84500D02*
X249168Y102893D01*
X210000Y83103D02*
Y83328D01*
X203013Y77003D02*
X203900D01*
X282258Y97750D02*
X282400Y97892D01*
X277500Y97750D02*
X282258D01*
X370400Y127899D02*
X384886D01*
X385750Y127036D01*
X370400Y132901D02*
X383151D01*
X349500Y39821D02*
Y52808D01*
X347558Y54750D02*
X349500Y52808D01*
X369750Y39500D02*
Y52558D01*
X371942Y54750D01*
Y58814D01*
X367481Y63275D02*
X371942Y58814D01*
X359290Y63275D02*
X367481D01*
X339100Y83464D02*
X359290Y63275D01*
X339100Y83464D02*
Y86200D01*
X338900Y86400D02*
X339100Y86200D01*
X327036Y17500D02*
Y28536D01*
X328750Y30250D01*
X323500Y35500D02*
X328750Y30250D01*
X323500Y35500D02*
Y41465D01*
X320000Y44964D02*
X323500Y41465D01*
X313700Y79650D02*
Y86200D01*
X293500Y52250D02*
X295250D01*
X300500Y57500D01*
Y59250D01*
X300750Y59500D01*
Y64250D01*
X279321Y52250D02*
X293500D01*
X278750Y52821D02*
X279321Y52250D01*
X313700Y86200D02*
X313900Y86400D01*
X207386Y88000D02*
X229325D01*
X215315Y107000D02*
X217533Y104782D01*
X203000Y84750D02*
X204137D01*
X207386Y88000D01*
X221665Y108570D02*
Y109085D01*
X201615Y107000D02*
X215315D01*
X204515Y114000D02*
X224839D01*
X226035Y112804D01*
X221665Y108570D02*
X221835Y108400D01*
X220250Y110500D02*
X221665Y109085D01*
X233000Y121500D02*
X237000Y125500D01*
X205464Y118000D02*
X217535D01*
X221035Y121500D01*
X237000Y125500D02*
Y145250D01*
X221035Y121500D02*
X233000D01*
X203065Y110500D02*
X220250D01*
X197136Y89400D02*
X199237Y91500D01*
X196000Y89400D02*
X197136D01*
X190645Y91504D02*
X194760D01*
X198036Y81750D02*
X201153Y78633D01*
X190500Y81750D02*
X198036D01*
X185950Y91250D02*
X191950Y85250D01*
X185000Y87250D02*
X190500Y81750D01*
X186899Y95250D02*
X190645Y91504D01*
X197451Y97155D02*
X199605Y95000D01*
X189944Y97155D02*
X197451D01*
X181250Y87250D02*
X185000D01*
X187849Y99250D02*
X189944Y97155D01*
X192014Y103250D02*
X192509Y102755D01*
X181250Y99250D02*
X187849D01*
X181250Y115250D02*
X186899D01*
X188500Y131250D02*
X189750Y132500D01*
X181250Y131250D02*
X188500D01*
X181250Y103250D02*
X192014D01*
X187849Y111250D02*
X188454Y111855D01*
X196761D01*
X201615Y107000D01*
X181250Y111250D02*
X187849D01*
X189904Y108355D02*
X194829D01*
X188799Y107250D02*
X189904Y108355D01*
X181250Y107250D02*
X188799D01*
X181250Y91250D02*
X185950D01*
X199237Y91500D02*
X227876D01*
X173750Y79750D02*
X174250D01*
X237000Y145250D02*
X238500Y146750D01*
X211500Y129500D02*
Y146500D01*
X211250Y146750D02*
X211500Y146500D01*
X209250Y127250D02*
X211500Y129500D01*
X181250Y95250D02*
X186899D01*
X179250Y172450D02*
Y182500D01*
X177250Y170450D02*
X179250Y172450D01*
X176900Y154750D02*
X177250D01*
X165750Y74100D02*
Y79750D01*
D26*
X94250Y24750D02*
D03*
X215500Y215500D02*
D03*
X197250Y215750D02*
D03*
X62750Y227000D02*
D03*
X81250D02*
D03*
D27*
X385750Y144286D02*
D03*
Y135714D02*
D03*
Y127036D02*
D03*
Y118464D02*
D03*
D28*
X309250Y64250D02*
D03*
X300750D02*
D03*
D29*
X29000Y235600D02*
D03*
X15000D02*
D03*
D30*
X80000Y193250D02*
D03*
Y207250D02*
D03*
D31*
X189750Y170794D02*
D03*
Y154750D02*
D03*
D32*
X71000Y195500D02*
D03*
X61000D02*
D03*
D36*
X38800Y233600D02*
D03*
Y223600D02*
D03*
D43*
X162000Y176500D02*
D03*
Y163689D02*
D03*
X385500Y71561D02*
D03*
Y58750D02*
D03*
X263750Y89155D02*
D03*
Y76345D02*
D03*
D44*
X101750Y125250D02*
D03*
X90751D02*
D03*
X101750Y133250D02*
D03*
X90751D02*
D03*
D47*
X194250Y76750D02*
D03*
X184250D02*
D03*
X122250Y145500D02*
D03*
X112250D02*
D03*
X199750Y132500D02*
D03*
X189750D02*
D03*
D50*
X444571Y97000D02*
D03*
X435000D02*
D03*
X327036Y17500D02*
D03*
X317464D02*
D03*
X96786Y171250D02*
D03*
X87214D02*
D03*
X444571Y67000D02*
D03*
X435000D02*
D03*
D51*
X373905Y183750D02*
D03*
X361095D02*
D03*
D53*
X228000Y29750D02*
D03*
X154500Y29250D02*
D03*
D63*
X24750Y225250D02*
D03*
Y215250D02*
D03*
X274000Y93000D02*
D03*
Y83000D02*
D03*
X371250Y79500D02*
D03*
Y69500D02*
D03*
X380250Y174500D02*
D03*
Y164500D02*
D03*
D67*
X16500Y224250D02*
D03*
Y215750D02*
D03*
X386750Y98250D02*
D03*
Y89750D02*
D03*
D98*
X343800Y147800D02*
D03*
X320600Y113000D02*
D03*
X309000D02*
D03*
X320600Y124600D02*
D03*
X309000D02*
D03*
Y147800D02*
D03*
X343800Y113000D02*
D03*
X320600Y147800D02*
D03*
X343800Y124600D02*
D03*
X332200D02*
D03*
Y113000D02*
D03*
Y147800D02*
D03*
X385750Y181500D02*
D03*
X396750D02*
D03*
X86250Y64750D02*
D03*
X86500Y46750D02*
D03*
X105850Y39464D02*
D03*
X108000Y31700D02*
D03*
X83572Y115714D02*
D03*
X77350Y120250D02*
D03*
X69701Y128022D02*
D03*
X77401Y127950D02*
D03*
X86350Y135000D02*
D03*
X230101Y158238D02*
D03*
X222230Y150270D02*
D03*
X200377Y141953D02*
D03*
X154850Y148900D02*
D03*
X212500Y170000D02*
D03*
X86750Y77000D02*
D03*
X55000Y151600D02*
D03*
X47400Y159900D02*
D03*
X29100Y145059D02*
D03*
X31400Y152800D02*
D03*
X115200Y52500D02*
D03*
X129699Y57756D02*
D03*
X88150Y90800D02*
D03*
X53533Y221150D02*
D03*
X46200Y218800D02*
D03*
X30250Y227500D02*
D03*
X29400Y198100D02*
D03*
X106250Y20500D02*
D03*
X135913Y62874D02*
D03*
X124810Y66227D02*
D03*
X107000Y73500D02*
D03*
X103166Y80177D02*
D03*
X109730Y90850D02*
D03*
X200630Y238620D02*
D03*
X228000Y215749D02*
D03*
X227814Y223447D02*
D03*
X188001Y230001D02*
D03*
X447661Y204569D02*
D03*
X451001Y228001D02*
D03*
Y212001D02*
D03*
Y196001D02*
D03*
Y52001D02*
D03*
X439001Y236001D02*
D03*
X423001Y108001D02*
D03*
X399001Y12001D02*
D03*
X231001Y236001D02*
D03*
X235001Y228001D02*
D03*
X304100Y165250D02*
D03*
X259500Y186250D02*
D03*
X251542Y186292D02*
D03*
X290750Y145750D02*
D03*
X273900Y139000D02*
D03*
X278647Y179102D02*
D03*
X290000Y98392D02*
D03*
X139750Y29200D02*
D03*
X352750Y214750D02*
D03*
X345911Y220616D02*
D03*
X307500Y212001D02*
D03*
X325645Y183000D02*
D03*
X265500Y62000D02*
D03*
X254300Y61500D02*
D03*
X261100Y55019D02*
D03*
X213750Y26850D02*
D03*
X237835Y8665D02*
D03*
X237100Y16422D02*
D03*
X127750Y18000D02*
D03*
X154956Y61136D02*
D03*
X149141Y67625D02*
D03*
X143756Y61961D02*
D03*
X160341Y66641D02*
D03*
X174044Y65275D02*
D03*
X167233Y61244D02*
D03*
X177714Y72044D02*
D03*
X187828Y68500D02*
D03*
X194890Y71570D02*
D03*
X394607Y206850D02*
D03*
X383915Y219900D02*
D03*
X318000Y197968D02*
D03*
X314296Y186768D02*
D03*
X353654Y183350D02*
D03*
X362784Y159744D02*
D03*
X357300Y165150D02*
D03*
X302000Y185500D02*
D03*
X308523Y181409D02*
D03*
X318250Y166000D02*
D03*
X326449Y166247D02*
D03*
X334194Y166034D02*
D03*
X341888Y165718D02*
D03*
X349517Y166758D02*
D03*
X362890Y150556D02*
D03*
X333266Y95400D02*
D03*
X361682Y103778D02*
D03*
X185400Y36900D02*
D03*
X186328Y179144D02*
D03*
X205072Y201100D02*
D03*
X152758Y182759D02*
D03*
X122014Y178850D02*
D03*
X117373Y136973D02*
D03*
X113446Y143597D02*
D03*
X122100Y152742D02*
D03*
X95500Y180500D02*
D03*
X406630Y216380D02*
D03*
X414095Y220025D02*
D03*
X406750Y209500D02*
D03*
X318015Y233839D02*
D03*
X416000Y208000D02*
D03*
X363201Y111327D02*
D03*
X361399Y118813D02*
D03*
X379426Y93243D02*
D03*
X370230Y86600D02*
D03*
X411605Y175395D02*
D03*
X389520Y149850D02*
D03*
X419250Y172500D02*
D03*
X387500Y172750D02*
D03*
X390270Y57311D02*
D03*
X306001Y13001D02*
D03*
X264400Y23835D02*
D03*
X93600Y197787D02*
D03*
X111080Y7580D02*
D03*
X169530Y220100D02*
D03*
X147000Y208100D02*
D03*
X167100Y207850D02*
D03*
X358502Y48001D02*
D03*
X341002Y13001D02*
D03*
X250001D02*
D03*
X243001Y55001D02*
D03*
X246501Y20001D02*
D03*
X204501Y34001D02*
D03*
X89001Y237002D02*
D03*
X82001D02*
D03*
X168250Y125750D02*
D03*
X157250D02*
D03*
X168250Y114750D02*
D03*
X157250D02*
D03*
X168250Y92750D02*
D03*
Y103750D02*
D03*
X157250D02*
D03*
Y92750D02*
D03*
X146250Y114750D02*
D03*
Y125750D02*
D03*
X135250D02*
D03*
Y114750D02*
D03*
X146250Y92750D02*
D03*
Y103750D02*
D03*
X135250Y92750D02*
D03*
Y103750D02*
D03*
X90686Y225235D02*
D03*
X167031Y24100D02*
D03*
X72250Y214050D02*
D03*
X243332Y77449D02*
D03*
X442412Y104678D02*
D03*
X386250Y30750D02*
D03*
X335480Y71730D02*
D03*
X328980Y78230D02*
D03*
X352706Y78800D02*
D03*
X297813Y79358D02*
D03*
X309500Y95800D02*
D03*
X438411Y143000D02*
D03*
X362250Y142600D02*
D03*
X272945Y75992D02*
D03*
X291559Y64812D02*
D03*
X286600Y78401D02*
D03*
X311441Y72196D02*
D03*
X378000Y108515D02*
D03*
X399500Y113869D02*
D03*
X291000Y17400D02*
D03*
X279233Y37133D02*
D03*
X351000Y16750D02*
D03*
X369500Y17250D02*
D03*
X337497Y64100D02*
D03*
X196855Y149355D02*
D03*
X201900Y85803D02*
D03*
Y77003D02*
D03*
Y100625D02*
D03*
X231500Y112000D02*
D03*
X216898Y102491D02*
D03*
X445250Y76250D02*
D03*
X445500Y88500D02*
D03*
X250250Y138000D02*
D03*
X9250Y215100D02*
D03*
X46250Y232000D02*
D03*
X83250Y182400D02*
D03*
X230521Y199095D02*
D03*
X366152Y68875D02*
D03*
X270750Y48830D02*
D03*
X276763Y64753D02*
D03*
X435250Y156000D02*
D03*
X434600Y173000D02*
D03*
X445250Y162250D02*
D03*
X438411Y125000D02*
D03*
X385719Y112751D02*
D03*
X221835Y108400D02*
D03*
X194760Y91504D02*
D03*
X192509Y102755D02*
D03*
D106*
X73000Y186250D02*
D03*
Y177250D02*
D03*
Y168250D02*
D03*
X63000Y186250D02*
D03*
Y177250D02*
D03*
Y168250D02*
D03*
D107*
X84334Y106586D02*
G03*
X84350Y106585I124J2905D01*
G01*
X84292Y106587D02*
X84350D01*
X86587D01*
X84292D02*
X84334Y106586D01*
X84350Y106585D02*
X84351D01*
X86587Y106587D02*
X86800Y106800D01*
X84351Y106585D02*
X86650Y106500D01*
X36800Y236200D02*
X39600Y233400D01*
Y233100D02*
Y233400D01*
Y233000D02*
Y233100D01*
X44555D01*
X39300D02*
X39600D01*
X46250Y232000D02*
X46400D01*
X45655D02*
X46250D01*
X38800Y233600D02*
X39300Y233100D01*
X44555D02*
X45655Y232000D01*
X29600Y236200D02*
X36800D01*
X29000Y235600D02*
X29600Y236200D01*
X45805Y218600D02*
X46800D01*
X39300Y223100D02*
X41305D01*
X45805Y218600D01*
X38800Y223600D02*
X39300Y223100D01*
X363900Y161900D02*
Y174400D01*
X363884Y161440D02*
Y161884D01*
X362556Y160556D02*
X362999D01*
X363884Y161884D02*
X363900Y161900D01*
X362999Y160556D02*
X363884Y161440D01*
X181250Y79750D02*
X184750Y76250D01*
X187828Y67905D02*
Y68500D01*
X184750Y72174D02*
X187407Y69516D01*
X183500Y56750D02*
Y63576D01*
X184750Y72174D02*
Y76250D01*
X183500Y63576D02*
X187828Y67905D01*
X186812Y68500D02*
X187407Y69095D01*
Y69516D01*
X194570Y71890D02*
X194890Y71570D01*
X194570Y71890D02*
Y76430D01*
X194250Y76750D02*
X194570Y76430D01*
X356101Y153657D02*
X362188Y159744D01*
X349928Y153657D02*
X356101D01*
X362188Y159744D02*
X362784D01*
X344071Y147800D02*
X349928Y153657D01*
X343800Y147800D02*
X344071D01*
X363600Y174700D02*
X363900Y174400D01*
X326400Y130400D02*
X343800Y147800D01*
X122100Y145650D02*
X122750Y145000D01*
X123000Y132500D02*
X123973Y133473D01*
X122750Y140930D02*
X123973Y139707D01*
X122750Y140930D02*
Y145000D01*
X123973Y133473D02*
Y139707D01*
X122100Y145650D02*
Y152742D01*
X85102Y186402D02*
X87000Y188300D01*
X85102Y184847D02*
Y186402D01*
X87000Y188300D02*
Y198200D01*
X83250Y182400D02*
Y182995D01*
X85102Y184847D01*
X387079Y172329D02*
X387500Y172750D01*
X387079Y170079D02*
Y172329D01*
X380750Y165000D02*
X382000D01*
X380250Y164500D02*
X380750Y165000D01*
X382000D02*
X387079Y170079D01*
X63000Y168250D02*
X73000D01*
X63000Y177250D02*
X73000D01*
X84950Y200250D02*
X87000Y198200D01*
X81500Y202593D02*
X83843Y200250D01*
X81500Y202593D02*
Y205750D01*
X80000Y207250D02*
X81500Y205750D01*
X83843Y200250D02*
X84950D01*
X372070Y169380D02*
X376690Y174000D01*
X189250Y154250D02*
X193039Y150461D01*
X376690Y174000D02*
X379500D01*
X380000Y174500D01*
X375000Y183750D02*
X377561Y181189D01*
Y180095D02*
Y181189D01*
Y180095D02*
X379500Y178155D01*
Y175000D02*
Y178155D01*
Y175000D02*
X380000Y174500D01*
X363600Y174700D02*
Y181245D01*
X361095Y183750D02*
X363600Y181245D01*
X193039Y150461D02*
X195153D01*
X196259Y149355D01*
X196855D01*
X274000Y93000D02*
X275900Y94900D01*
Y96150D01*
X277500Y97750D01*
X385750Y127036D02*
Y131375D01*
X174250Y79750D02*
X181250D01*
X174750Y140750D02*
X177250D01*
X189250Y146000D02*
Y154250D01*
X185750Y142500D02*
X189250Y146000D01*
X177250Y140750D02*
X179000Y142500D01*
X185750D01*
D108*
X34250Y150275D02*
X37200D01*
X42325D01*
X77171Y128179D02*
X77401Y127950D01*
X77171Y128179D02*
Y130595D01*
X63566Y144200D02*
X77171Y130595D01*
X31725Y152800D02*
X34250Y150275D01*
X31400Y152800D02*
X31725D01*
X42325Y150275D02*
X48400Y144200D01*
X63566D01*
X227500Y231250D02*
X228750Y232500D01*
Y233426D01*
X231001Y235676D01*
Y236001D01*
X231231Y232096D02*
X235001Y228326D01*
X231001Y236001D02*
X231231Y235772D01*
X235001Y228001D02*
Y228326D01*
X231231Y232096D02*
Y235772D01*
X263926Y76168D02*
X272768D01*
X263750Y76345D02*
X263926Y76168D01*
X272768D02*
X272945Y75992D01*
X113000Y167750D02*
X113250Y167500D01*
X112750Y167750D02*
X113000D01*
X390500Y195000D02*
X390750D01*
X389500D02*
X390500D01*
X388500Y192250D02*
Y193000D01*
X390500Y195000D01*
X387500Y192250D02*
X388500D01*
X387250Y192500D02*
X387500Y192250D01*
X411376Y175625D02*
Y191875D01*
X410750Y192500D02*
X411376Y191875D01*
Y175625D02*
X411605Y175395D01*
X420891Y160500D02*
Y173627D01*
X419248Y175270D02*
X420891Y173627D01*
X373905Y183750D02*
X375000D01*
X382000Y190750D01*
X46500Y196500D02*
X54250Y204250D01*
Y204500D01*
X46500Y194679D02*
Y196500D01*
X43571Y191750D02*
X46500Y194679D01*
X32150Y191000D02*
X42250D01*
X43000Y191750D02*
X43571D01*
X42250Y191000D02*
X43000Y191750D01*
X47500Y183000D02*
X60000Y195500D01*
X32150Y183000D02*
X47500D01*
X420141Y126250D02*
X436836D01*
X438086Y125000D01*
X393365Y50365D02*
X398000Y55000D01*
Y58207D01*
X63000Y186250D02*
X73000D01*
X371250Y79500D02*
X378655D01*
X73430Y213820D02*
X80000Y207250D01*
X72480Y213820D02*
X73430D01*
X72250Y214050D02*
X72480Y213820D01*
X71000Y195500D02*
Y198250D01*
X80000Y207250D01*
X60000Y195500D02*
X61000D01*
X273174Y82174D02*
X274000Y83000D01*
X273174Y76222D02*
Y82174D01*
X272945Y75992D02*
X273174Y76222D01*
X274000Y83000D02*
X274250D01*
X277000Y85750D01*
X277407D01*
X282500Y90843D02*
Y91250D01*
X277407Y85750D02*
X282500Y90843D01*
X387500Y44500D02*
X393365Y50365D01*
X378655Y79500D02*
X385500Y72655D01*
X366500Y79500D02*
X371250D01*
X366000Y80000D02*
X366500Y79500D01*
X373905Y183750D02*
X374203Y184047D01*
X386480Y21270D02*
X387500Y20250D01*
X386480Y21270D02*
Y30520D01*
X386250Y30750D02*
X386480Y30520D01*
X425500Y143250D02*
X425625Y143125D01*
X438286D01*
X438411Y143000D01*
D109*
X99750Y13500D02*
Y17356D01*
X94250Y22856D02*
Y24750D01*
Y22856D02*
X99750Y17356D01*
X309000Y147800D02*
X326400Y130400D01*
X289200Y167600D02*
X309000Y147800D01*
X289200Y167600D02*
Y174100D01*
X288900Y174400D02*
X289200Y174100D01*
X365250Y189553D02*
X368697Y193000D01*
X373993D01*
X361095Y183750D02*
X362189D01*
X365250Y186811D01*
Y189553D01*
X373993Y193000D02*
X375750Y194757D01*
Y204750D01*
X384750Y205750D02*
Y210743D01*
X405764Y216380D02*
X406630D01*
X384750Y210743D02*
X386957Y212950D01*
X402334D01*
X405764Y216380D01*
X383750Y204750D02*
X384750Y205750D01*
X387500Y43750D02*
Y44500D01*
X393365Y50365D02*
X393642D01*
X394006Y62201D02*
Y64703D01*
X388561Y67405D02*
X391303D01*
X394006Y62201D02*
X398000Y58207D01*
X385500Y70466D02*
X388561Y67405D01*
X391303D02*
X394006Y64703D01*
X385500Y70466D02*
Y71561D01*
X351000Y16750D02*
Y28750D01*
X349500Y30250D02*
X351000Y28750D01*
X369500Y17250D02*
Y29679D01*
X369750Y29929D01*
X330500Y52250D02*
X332250D01*
X337000Y57000D01*
Y63603D01*
X337497Y64100D01*
D110*
X243250Y236500D02*
D03*
X219250D02*
D03*
X75000Y8500D02*
D03*
X99000D02*
D03*
D111*
X177950Y229750D02*
D03*
X165250D02*
D03*
X112250Y180150D02*
D03*
Y167450D02*
D03*
D112*
X152550Y229750D02*
D03*
D113*
X437500Y222000D02*
D03*
X317500D02*
D03*
X243500Y39000D02*
D03*
X123500D02*
D03*
D114*
X112250Y154750D02*
D03*
D115*
X39500Y213750D02*
D03*
Y172250D02*
D03*
D116*
X275000Y212000D02*
D03*
X117500Y215250D02*
D03*
X425000Y32000D02*
D03*
D117*
X391250Y181500D02*
D03*
D119*
X84292Y106587D02*
G03*
X74000Y97077I-752J-9511D01*
G01*
X74000Y80250D02*
Y97077D01*
X95000Y106750D02*
X102864D01*
X104386Y107000D02*
X115000D01*
D120*
X64000Y19750D02*
G03*
X74000Y29750I0J10000D01*
G01*
Y54000D02*
Y64750D01*
Y44250D02*
Y54000D01*
X64000Y19750D02*
X64400D01*
X18400D02*
X64000D01*
X74000Y29750D02*
Y31000D01*
X402430Y126680D02*
Y143250D01*
X402750D02*
Y159641D01*
X397112Y143250D02*
X402000D01*
X395112Y141250D02*
X397112Y143250D01*
X402430D02*
X402750D01*
X402430Y126680D02*
X402859Y126250D01*
X402000Y143250D02*
X402430D01*
X402750Y159641D02*
X403609Y160500D01*
D121*
X86500Y56000D02*
D03*
X74000D02*
D03*
D122*
Y31750D02*
D03*
Y44250D02*
D03*
Y67750D02*
D03*
Y80250D02*
D03*
D123*
X18400Y19750D02*
D03*
Y66250D02*
D03*
D124*
X37200Y150275D02*
D03*
Y160525D02*
D03*
D125*
X86650Y106500D02*
D03*
X95350D02*
D03*
D126*
X396250Y223950D02*
D03*
X331250D02*
D03*
D127*
X383750Y204750D02*
D03*
X375750D02*
D03*
X367750D02*
D03*
X359750D02*
D03*
X351750D02*
D03*
X343750D02*
D03*
D128*
X12950Y203500D02*
D03*
Y170500D02*
D03*
D129*
X32150Y191000D02*
D03*
Y183000D02*
D03*
D130*
X326400Y130400D02*
D03*
D131*
X370400Y92891D02*
D03*
Y97892D02*
D03*
Y102893D02*
D03*
Y107894D02*
D03*
Y112896D02*
D03*
Y117897D02*
D03*
Y122898D02*
D03*
Y127899D02*
D03*
Y132901D02*
D03*
Y137902D02*
D03*
Y142903D02*
D03*
Y147904D02*
D03*
Y152906D02*
D03*
Y157907D02*
D03*
Y162908D02*
D03*
Y167909D02*
D03*
X282400D02*
D03*
Y162908D02*
D03*
Y157907D02*
D03*
Y152906D02*
D03*
Y147904D02*
D03*
Y142903D02*
D03*
Y137902D02*
D03*
Y132901D02*
D03*
Y127899D02*
D03*
Y122898D02*
D03*
Y117897D02*
D03*
Y112896D02*
D03*
Y107894D02*
D03*
Y102893D02*
D03*
Y97892D02*
D03*
Y92891D02*
D03*
D132*
X363900Y174400D02*
D03*
X358900D02*
D03*
X353900D02*
D03*
X348900D02*
D03*
X343900D02*
D03*
X338900D02*
D03*
X333900D02*
D03*
X328900D02*
D03*
X323900D02*
D03*
X318900D02*
D03*
X313900D02*
D03*
X308900D02*
D03*
X303900D02*
D03*
X298900D02*
D03*
X293900D02*
D03*
X288900D02*
D03*
Y86400D02*
D03*
X293900D02*
D03*
X298900D02*
D03*
X303900D02*
D03*
X308900D02*
D03*
X313900D02*
D03*
X318900D02*
D03*
X323900D02*
D03*
X328900D02*
D03*
X333900D02*
D03*
X338900D02*
D03*
X343900D02*
D03*
X348900D02*
D03*
X353900D02*
D03*
X358900D02*
D03*
X363900D02*
D03*
D133*
X402859Y126250D02*
D03*
X420141D02*
D03*
X420891Y160500D02*
D03*
X403609D02*
D03*
D134*
X412500Y82000D02*
D03*
D135*
Y97000D02*
D03*
Y67000D02*
D03*
D136*
X371942Y54750D02*
D03*
X347558D02*
D03*
D137*
X156750Y218250D02*
D03*
Y208750D02*
D03*
D138*
X178250Y218500D02*
D03*
Y210500D02*
D03*
D139*
X76000Y157036D02*
D03*
Y147464D02*
D03*
X211250Y156321D02*
D03*
Y146750D02*
D03*
X238500Y156321D02*
D03*
Y146750D02*
D03*
X278750Y52821D02*
D03*
Y43250D02*
D03*
X369750Y39500D02*
D03*
Y29929D02*
D03*
X349500Y30250D02*
D03*
Y39821D02*
D03*
X103500Y106114D02*
D03*
Y115686D02*
D03*
D140*
X97250Y161000D02*
D03*
Y146500D02*
D03*
X85750D02*
D03*
Y161000D02*
D03*
D141*
X181250Y127250D02*
D03*
Y131250D02*
D03*
Y111250D02*
D03*
Y115250D02*
D03*
Y107250D02*
D03*
Y123250D02*
D03*
Y119250D02*
D03*
Y103250D02*
D03*
Y95250D02*
D03*
Y99250D02*
D03*
Y87250D02*
D03*
Y91250D02*
D03*
X122250Y127250D02*
D03*
Y131250D02*
D03*
Y123250D02*
D03*
Y107250D02*
D03*
Y111250D02*
D03*
Y103250D02*
D03*
Y119250D02*
D03*
Y115250D02*
D03*
Y91250D02*
D03*
Y99250D02*
D03*
Y95250D02*
D03*
Y87250D02*
D03*
D142*
X169750Y138750D02*
D03*
X165750D02*
D03*
X173750D02*
D03*
X157750D02*
D03*
X153750D02*
D03*
X161750D02*
D03*
X149750D02*
D03*
X173750Y79750D02*
D03*
X165750D02*
D03*
X161750D02*
D03*
X157750D02*
D03*
X169750D02*
D03*
X149750D02*
D03*
X153750D02*
D03*
X141750Y138750D02*
D03*
X137750D02*
D03*
X145750D02*
D03*
X133750D02*
D03*
X129750D02*
D03*
X141750Y79750D02*
D03*
X137750D02*
D03*
X145750D02*
D03*
X129750D02*
D03*
X133750D02*
D03*
D143*
X151750Y109250D02*
D03*
D144*
X179250Y182500D02*
D03*
X170750D02*
D03*
D145*
X177250Y170450D02*
D03*
Y154750D02*
D03*
D146*
X237000Y129500D02*
D03*
X211500D02*
D03*
D147*
X251000Y89750D02*
D03*
Y66250D02*
D03*
X387500Y43750D02*
D03*
Y20250D02*
D03*
D148*
X203500Y56750D02*
D03*
X188500D02*
D03*
X183500D02*
D03*
X198500D02*
D03*
X193500D02*
D03*
X178500D02*
D03*
D149*
X425500Y143250D02*
D03*
X402000D02*
D03*
X410750Y192500D02*
D03*
X387250D02*
D03*
D150*
X293500Y30250D02*
D03*
X330500D02*
D03*
Y52250D02*
D03*
X293500D02*
D03*
D151*
X104386Y107000D02*
X104636Y107250D01*
X103500Y106114D02*
X104386Y107000D01*
X102864Y106750D02*
X103500Y106114D01*
D152*
X104636Y107250D02*
X122250D01*
D153*
X383151Y131375D02*
X385750D01*
X263000Y89405D02*
Y90500D01*
X264561Y92061D01*
X265655D01*
X266595Y93000D01*
X274000D01*
X251000Y89750D02*
X251172Y89578D01*
X262828D01*
X263000Y89405D01*
X371125Y131375D02*
X383151D01*
X370000Y130250D02*
X371125Y131375D01*
D154*
X387920Y133545D02*
X390084Y135709D01*
X385750Y131375D02*
X387920Y133545D01*
X394112Y138931D02*
Y140250D01*
X390084Y135709D02*
X390891D01*
X394112Y138931D01*
Y140250D02*
X395112Y141250D01*
M02*
