G04*
G04 #@! TF.GenerationSoftware,Altium Limited,Altium Designer,24.6.1 (21)*
G04*
G04 Layer_Color=65535*
%FSLAX44Y44*%
%MOMM*%
G71*
G04*
G04 #@! TF.SameCoordinates,340E5364-9303-4016-BB23-8A8C63BE460F*
G04*
G04*
G04 #@! TF.FilePolarity,Positive*
G04*
G01*
G75*
%ADD10C,0.1000*%
%ADD11C,0.2500*%
%ADD12C,0.1800*%
%ADD13C,0.2000*%
%ADD14C,0.1270*%
%ADD15C,0.0500*%
%ADD16C,0.1524*%
%ADD17C,0.1300*%
G36*
X49090Y78990D02*
Y77150D01*
X47810Y77430D01*
X48350Y76970D01*
X48770Y76550D01*
X49090Y75990D01*
X49250Y75350D01*
Y74710D01*
X49170Y74390D01*
X48930Y73990D01*
X48610Y73670D01*
X48130Y73510D01*
X47570Y73430D01*
X46970Y73460D01*
X45650Y73750D01*
X42110Y74520D01*
Y76300D01*
X46730Y75270D01*
X47010Y75230D01*
X47330D01*
X47570Y75270D01*
X47730Y75430D01*
X47810Y75670D01*
Y75910D01*
X47650Y76230D01*
X47430Y76550D01*
X47010Y76950D01*
X46370Y77350D01*
X45650Y77750D01*
X44840Y78090D01*
X42110Y78690D01*
Y80540D01*
X49090Y78990D01*
D02*
G37*
G36*
X40690Y73380D02*
X47430Y68210D01*
Y71880D01*
X49090Y71510D01*
Y65470D01*
X48020Y65700D01*
X41310Y70850D01*
Y67190D01*
X39650Y67560D01*
Y73610D01*
X40690Y73380D01*
D02*
G37*
G36*
X49250Y63850D02*
Y56470D01*
X41580Y58270D01*
Y53150D01*
X49250Y51350D01*
Y43970D01*
X34450Y47440D01*
Y40850D01*
X49250Y37370D01*
Y29550D01*
X34450Y33040D01*
Y15840D01*
X36810Y15280D01*
Y25910D01*
X41610Y24780D01*
Y14160D01*
X44050Y13590D01*
Y24690D01*
X49250Y23470D01*
Y12360D01*
Y4550D01*
X29250Y9250D01*
Y56040D01*
X36780Y54280D01*
Y59400D01*
X29250Y61170D01*
Y68550D01*
X49250Y63850D01*
D02*
G37*
G36*
X49090Y87470D02*
Y85830D01*
X42110Y87380D01*
Y89020D01*
X49090Y87470D01*
D02*
G37*
G36*
X43720Y85780D02*
X43650Y85510D01*
Y85310D01*
X43770Y85030D01*
X43970Y84750D01*
X44310Y84410D01*
X44970Y83910D01*
X45650Y83550D01*
X46730Y83110D01*
X47960Y82730D01*
X49090Y82480D01*
Y80840D01*
X42110Y82390D01*
Y84030D01*
X44050Y83600D01*
X43410Y83910D01*
X42930Y84230D01*
X42650Y84510D01*
X42370Y84830D01*
X42210Y85070D01*
X42050Y85430D01*
X42010Y85670D01*
Y85910D01*
X42050Y86150D01*
X43720Y85780D01*
D02*
G37*
G36*
X44230Y102180D02*
X45550Y101890D01*
X49090Y101120D01*
Y99340D01*
X44470Y100370D01*
X44190Y100410D01*
X43870D01*
X43630Y100370D01*
X43470Y100210D01*
X43390Y99970D01*
Y99730D01*
X43550Y99410D01*
X43770Y99090D01*
X44190Y98690D01*
X44830Y98290D01*
X45550Y97890D01*
X46360Y97550D01*
X49090Y96950D01*
Y95310D01*
X38840Y97580D01*
Y99220D01*
X43390Y98210D01*
X42850Y98670D01*
X42430Y99090D01*
X42110Y99650D01*
X41950Y100290D01*
Y100930D01*
X42030Y101250D01*
X42270Y101650D01*
X42590Y101970D01*
X43070Y102130D01*
X43630Y102210D01*
X44230Y102180D01*
D02*
G37*
G36*
X43690Y94990D02*
X43610Y94710D01*
X43570Y94510D01*
X43530Y94070D01*
Y93590D01*
X43570Y93270D01*
X43690Y92950D01*
X43890Y92630D01*
X44330Y92270D01*
X44690Y92030D01*
X45130Y91830D01*
X45650Y91670D01*
X46170Y91590D01*
X46530D01*
X46810Y91630D01*
X47090Y91710D01*
X47330Y91830D01*
X47490Y91990D01*
X47650Y92270D01*
X47730Y92590D01*
Y92870D01*
X47690Y93270D01*
X47570Y93790D01*
X47440Y94160D01*
X49010Y93990D01*
X49060Y93800D01*
X49170Y93350D01*
X49250Y92630D01*
Y92230D01*
X49170Y91430D01*
X49090Y91070D01*
X48930Y90710D01*
X48690Y90390D01*
X48370Y90150D01*
X47970Y89950D01*
X47570Y89830D01*
X46970Y89750D01*
X46290D01*
X45770Y89830D01*
X45250Y89950D01*
X44690Y90150D01*
X44210Y90350D01*
X43730Y90630D01*
X43330Y90950D01*
X43010Y91270D01*
X42610Y91790D01*
X42290Y92430D01*
X42110Y93190D01*
X42050Y93910D01*
Y94550D01*
X42110Y94950D01*
X42240Y95310D01*
X43690Y94990D01*
D02*
G37*
D10*
X78500Y15000D02*
G03*
X77500Y15000I-500J0D01*
G01*
D02*
G03*
X78434Y14752I500J0D01*
G01*
X253250Y236500D02*
G03*
X254250Y236500I500J0D01*
G01*
D02*
G03*
X253250Y236500I-500J0D01*
G01*
X165900Y163850D02*
G03*
X165900Y163850I-500J0D01*
G01*
X130250Y85500D02*
X162500D01*
X130250Y71750D02*
Y85500D01*
Y71750D02*
X162500D01*
Y85500D01*
X56750Y220500D02*
X88000D01*
X134541Y133500D02*
X148500D01*
Y146302D01*
X134541Y133500D02*
Y146302D01*
X186541Y133250D02*
X237000D01*
X186541Y118500D02*
X237000D01*
Y133250D01*
X186541Y118500D02*
Y133250D01*
X141750Y202500D02*
X174500D01*
X239500Y83250D02*
X271750D01*
X239500D02*
Y96750D01*
X271750Y83250D02*
Y96750D01*
X239500D02*
X271750D01*
X141750Y190500D02*
Y202500D01*
X174500Y190500D02*
Y202500D01*
X141750Y190500D02*
X174500D01*
X250000Y159250D02*
Y173250D01*
X283250Y159250D02*
Y173250D01*
X250000Y159250D02*
X283250D01*
X250000Y173250D02*
X283250D01*
X204291Y138000D02*
Y150802D01*
X236541Y138000D02*
Y150802D01*
X204291Y138000D02*
X236541D01*
X204291Y150802D02*
X236541D01*
X56750Y220500D02*
Y233750D01*
X88000Y220500D02*
Y233750D01*
X56750D02*
X88000D01*
X150750Y139998D02*
Y135833D01*
X151583Y135000D01*
X153249D01*
X154082Y135833D01*
Y139998D01*
X160747Y135000D02*
Y139998D01*
X162413Y138332D01*
X164079Y139998D01*
Y135000D01*
X169077Y139165D02*
X168244Y139998D01*
X166578D01*
X165745Y139165D01*
Y135833D01*
X166578Y135000D01*
X168244D01*
X169077Y135833D01*
X170743Y139998D02*
Y135833D01*
X171576Y135000D01*
X173243D01*
X174076Y135833D01*
Y139998D01*
X176582Y127415D02*
X175749Y128248D01*
X174083D01*
X173250Y127415D01*
Y126582D01*
X174083Y125749D01*
X175749D01*
X176582Y124916D01*
Y124083D01*
X175749Y123250D01*
X174083D01*
X173250Y124083D01*
X178248Y123250D02*
Y128248D01*
X180748D01*
X181581Y127415D01*
Y125749D01*
X180748Y124916D01*
X178248D01*
X183247Y128248D02*
X184913D01*
X184080D01*
Y123250D01*
X183247D01*
X184913D01*
X229835Y105332D02*
X229002Y104499D01*
Y102833D01*
X229835Y102000D01*
X230668D01*
X231501Y102833D01*
Y104499D01*
X232334Y105332D01*
X233167D01*
X234000Y104499D01*
Y102833D01*
X233167Y102000D01*
X229835Y110331D02*
X229002Y109497D01*
Y107831D01*
X229835Y106998D01*
X233167D01*
X234000Y107831D01*
Y109497D01*
X233167Y110331D01*
X229002Y111997D02*
X234000D01*
X232334D01*
X229002Y115329D01*
X231501Y112830D01*
X234000Y115329D01*
X214750Y97250D02*
X209752D01*
X211418Y98916D01*
X209752Y100582D01*
X214750D01*
X209752Y102248D02*
Y103914D01*
Y103081D01*
X214750D01*
Y102248D01*
Y103914D01*
X210585Y109746D02*
X209752Y108913D01*
Y107247D01*
X210585Y106414D01*
X211418D01*
X212251Y107247D01*
Y108913D01*
X213084Y109746D01*
X213917D01*
X214750Y108913D01*
Y107247D01*
X213917Y106414D01*
X209752Y113911D02*
Y112245D01*
X210585Y111412D01*
X213917D01*
X214750Y112245D01*
Y113911D01*
X213917Y114744D01*
X210585D01*
X209752Y113911D01*
X197000Y98250D02*
X192002D01*
X193668Y99916D01*
X192002Y101582D01*
X197000D01*
X192002Y105747D02*
Y104081D01*
X192835Y103248D01*
X196167D01*
X197000Y104081D01*
Y105747D01*
X196167Y106581D01*
X192835D01*
X192002Y105747D01*
X192835Y111579D02*
X192002Y110746D01*
Y109080D01*
X192835Y108247D01*
X193668D01*
X194501Y109080D01*
Y110746D01*
X195334Y111579D01*
X196167D01*
X197000Y110746D01*
Y109080D01*
X196167Y108247D01*
X192002Y113245D02*
Y114911D01*
Y114078D01*
X197000D01*
Y113245D01*
Y114911D01*
X239000Y104248D02*
X240666D01*
X239833D01*
Y99250D01*
X239000D01*
X240666D01*
X248164D02*
Y104248D01*
X249830Y102582D01*
X251496Y104248D01*
Y99250D01*
X256494Y103415D02*
X255661Y104248D01*
X253995D01*
X253162Y103415D01*
Y102582D01*
X253995Y101749D01*
X255661D01*
X256494Y100916D01*
Y100083D01*
X255661Y99250D01*
X253995D01*
X253162Y100083D01*
X258160Y99250D02*
Y104248D01*
X260660D01*
X261493Y103415D01*
Y101749D01*
X260660Y100916D01*
X258160D01*
X265658Y99250D02*
Y104248D01*
X263159Y101749D01*
X266491D01*
X268157Y103415D02*
X268990Y104248D01*
X270656D01*
X271489Y103415D01*
Y102582D01*
X270656Y101749D01*
X269823D01*
X270656D01*
X271489Y100916D01*
Y100083D01*
X270656Y99250D01*
X268990D01*
X268157Y100083D01*
X273155Y103415D02*
X273989Y104248D01*
X275655D01*
X276488Y103415D01*
Y100083D01*
X275655Y99250D01*
X273989D01*
X273155Y100083D01*
Y103415D01*
X140250Y69248D02*
X141916D01*
X141083D01*
Y64250D01*
X140250D01*
X141916D01*
X149414Y69248D02*
X151080D01*
X150247D01*
Y64250D01*
X149414D01*
X151080D01*
X153579D02*
Y69248D01*
X155245Y67582D01*
X156911Y69248D01*
Y64250D01*
X158577Y69248D02*
Y65083D01*
X159410Y64250D01*
X161077D01*
X161910Y65083D01*
Y69248D01*
X149500Y189248D02*
X151166D01*
X150333D01*
Y184250D01*
X149500D01*
X151166D01*
X158664D02*
Y189248D01*
X160330Y187582D01*
X161996Y189248D01*
Y184250D01*
X166994Y188415D02*
X166161Y189248D01*
X164495D01*
X163662Y188415D01*
Y185083D01*
X164495Y184250D01*
X166161D01*
X166994Y185083D01*
X168660Y189248D02*
Y185083D01*
X169494Y184250D01*
X171160D01*
X171993Y185083D01*
Y189248D01*
X250250Y157914D02*
X251916D01*
X251083D01*
Y152916D01*
X250250D01*
X251916D01*
X259414D02*
Y156248D01*
X261080Y157914D01*
X262746Y156248D01*
Y152916D01*
Y155415D01*
X259414D01*
X267744Y157914D02*
X264412D01*
Y155415D01*
X266078D01*
X264412D01*
Y152916D01*
X272743Y157914D02*
X269410D01*
Y152916D01*
X272743D01*
X269410Y155415D02*
X271077D01*
X280240Y156248D02*
X281906D01*
X282739Y155415D01*
Y152916D01*
X280240D01*
X279407Y153749D01*
X280240Y154582D01*
X282739D01*
X285239Y152916D02*
Y157081D01*
Y155415D01*
X284405D01*
X286072D01*
X285239D01*
Y157081D01*
X286072Y157914D01*
X289404Y157081D02*
Y156248D01*
X288571D01*
X290237D01*
X289404D01*
Y153749D01*
X290237Y152916D01*
X292736D02*
Y153749D01*
X293569D01*
Y152916D01*
X292736D01*
X301900Y156248D02*
Y152916D01*
Y154582D01*
X302733Y155415D01*
X303566Y156248D01*
X304399D01*
X309397Y152916D02*
X307731D01*
X306898Y153749D01*
Y155415D01*
X307731Y156248D01*
X309397D01*
X310230Y155415D01*
Y154582D01*
X306898D01*
X313563Y151250D02*
X314396D01*
X315229Y152083D01*
Y156248D01*
X312730D01*
X311897Y155415D01*
Y153749D01*
X312730Y152916D01*
X315229D01*
X316895D02*
Y153749D01*
X317728D01*
Y152916D01*
X316895D01*
X204250Y157248D02*
X205916D01*
X205083D01*
Y152250D01*
X204250D01*
X205916D01*
X213414D02*
Y155582D01*
X215913D01*
X216746Y154749D01*
Y152250D01*
X218412D02*
Y157248D01*
X220911D01*
X221744Y156415D01*
Y154749D01*
X220911Y153916D01*
X218412D01*
X220078D02*
X221744Y152250D01*
X226743Y157248D02*
X223410D01*
Y154749D01*
X225077D01*
X223410D01*
Y152250D01*
X231741Y157248D02*
X228409D01*
Y154749D01*
X230075Y155582D01*
X230908D01*
X231741Y154749D01*
Y153083D01*
X230908Y152250D01*
X229242D01*
X228409Y153083D01*
X236739Y152250D02*
X233407D01*
X236739Y155582D01*
Y156415D01*
X235906Y157248D01*
X234240D01*
X233407Y156415D01*
X60500Y241248D02*
X62166D01*
X61333D01*
Y236250D01*
X60500D01*
X62166D01*
X69664Y241248D02*
Y237083D01*
X70497Y236250D01*
X72163D01*
X72996Y237083D01*
Y241248D01*
X77994Y240415D02*
X77161Y241248D01*
X75495D01*
X74662Y240415D01*
Y239582D01*
X75495Y238749D01*
X77161D01*
X77994Y237916D01*
Y237083D01*
X77161Y236250D01*
X75495D01*
X74662Y237083D01*
X79660Y241248D02*
Y236250D01*
X82160D01*
X82993Y237083D01*
Y237916D01*
X82160Y238749D01*
X79660D01*
X82160D01*
X82993Y239582D01*
Y240415D01*
X82160Y241248D01*
X79660D01*
X314806Y98717D02*
X318138Y95385D01*
X314806D02*
X318138Y98717D01*
X314806Y97051D02*
X318138D01*
X316472Y95385D02*
Y98717D01*
X195585Y236751D02*
Y241749D01*
X198084D01*
X198917Y240916D01*
Y239250D01*
X198084Y238417D01*
X195585D01*
X197251D02*
X198917Y236751D01*
X203915D02*
X200583D01*
X203915Y240083D01*
Y240916D01*
X203082Y241749D01*
X201416D01*
X200583Y240916D01*
X258667Y241666D02*
X257834Y242499D01*
X256168D01*
X255335Y241666D01*
Y240833D01*
X256168Y240000D01*
X257834D01*
X258667Y239167D01*
Y238334D01*
X257834Y237501D01*
X256168D01*
X255335Y238334D01*
X263665Y237501D02*
X260333D01*
X263665Y240833D01*
Y241666D01*
X262832Y242499D01*
X261166D01*
X260333Y241666D01*
X89000Y16666D02*
X88167Y17499D01*
X86501D01*
X85668Y16666D01*
Y15833D01*
X86501Y15000D01*
X88167D01*
X89000Y14167D01*
Y13334D01*
X88167Y12501D01*
X86501D01*
X85668Y13334D01*
X90666Y12501D02*
X92332D01*
X91499D01*
Y17499D01*
X90666Y16666D01*
X250335Y176001D02*
Y180999D01*
X252834D01*
X253667Y180166D01*
Y178500D01*
X252834Y177667D01*
X250335D01*
X252001D02*
X253667Y176001D01*
X255333Y180166D02*
X256166Y180999D01*
X257832D01*
X258665Y180166D01*
Y179333D01*
X257832Y178500D01*
X258665Y177667D01*
Y176834D01*
X257832Y176001D01*
X256166D01*
X255333Y176834D01*
Y177667D01*
X256166Y178500D01*
X255333Y179333D01*
Y180166D01*
X256166Y178500D02*
X257832D01*
X326335Y105749D02*
Y101584D01*
X327168Y100751D01*
X328834D01*
X329667Y101584D01*
Y105749D01*
X334665D02*
X332999Y104916D01*
X331333Y103250D01*
Y101584D01*
X332166Y100751D01*
X333832D01*
X334665Y101584D01*
Y102417D01*
X333832Y103250D01*
X331333D01*
X352501Y100418D02*
Y97086D01*
X355000D01*
Y98752D01*
Y97086D01*
X357499D01*
X352501Y102084D02*
X357499D01*
Y104583D01*
X356666Y105416D01*
X355833D01*
X355000Y104583D01*
Y102084D01*
Y104583D01*
X354167Y105416D01*
X353334D01*
X352501Y104583D01*
Y102084D01*
X353334Y107082D02*
X352501Y107915D01*
Y109581D01*
X353334Y110414D01*
X354167D01*
X355000Y109581D01*
Y108748D01*
Y109581D01*
X355833Y110414D01*
X356666D01*
X357499Y109581D01*
Y107915D01*
X356666Y107082D01*
X363584Y99918D02*
X362751Y99085D01*
Y97419D01*
X363584Y96586D01*
X366916D01*
X367749Y97419D01*
Y99085D01*
X366916Y99918D01*
X367749Y104083D02*
X362751D01*
X365250Y101584D01*
Y104916D01*
X363584Y106582D02*
X362751Y107415D01*
Y109081D01*
X363584Y109915D01*
X366916D01*
X367749Y109081D01*
Y107415D01*
X366916Y106582D01*
X363584D01*
X298668Y101916D02*
X297835Y102749D01*
X296169D01*
X295336Y101916D01*
Y98584D01*
X296169Y97751D01*
X297835D01*
X298668Y98584D01*
X300334Y101916D02*
X301167Y102749D01*
X302833D01*
X303666Y101916D01*
Y101083D01*
X302833Y100250D01*
X302000D01*
X302833D01*
X303666Y99417D01*
Y98584D01*
X302833Y97751D01*
X301167D01*
X300334Y98584D01*
X305332D02*
X306165Y97751D01*
X307831D01*
X308664Y98584D01*
Y101916D01*
X307831Y102749D01*
X306165D01*
X305332Y101916D01*
Y101083D01*
X306165Y100250D01*
X308664D01*
X337417Y182999D02*
X335751D01*
X336584D01*
Y178834D01*
X335751Y178001D01*
X334918D01*
X334085Y178834D01*
X339083Y182166D02*
X339916Y182999D01*
X341582D01*
X342415Y182166D01*
Y181333D01*
X341582Y180500D01*
X340749D01*
X341582D01*
X342415Y179667D01*
Y178834D01*
X341582Y178001D01*
X339916D01*
X339083Y178834D01*
X265585Y8251D02*
Y13249D01*
X268085D01*
X268918Y12416D01*
Y10750D01*
X268085Y9917D01*
X265585D01*
X267252D02*
X268918Y8251D01*
X273916D02*
X270584D01*
X273916Y11583D01*
Y12416D01*
X273083Y13249D01*
X271417D01*
X270584Y12416D01*
X275582Y9084D02*
X276415Y8251D01*
X278081D01*
X278915Y9084D01*
Y12416D01*
X278081Y13249D01*
X276415D01*
X275582Y12416D01*
Y11583D01*
X276415Y10750D01*
X278915D01*
X275084Y34418D02*
X274251Y33585D01*
Y31919D01*
X275084Y31086D01*
X278416D01*
X279249Y31919D01*
Y33585D01*
X278416Y34418D01*
X275084Y36084D02*
X274251Y36917D01*
Y38583D01*
X275084Y39416D01*
X275917D01*
X276750Y38583D01*
Y37750D01*
Y38583D01*
X277583Y39416D01*
X278416D01*
X279249Y38583D01*
Y36917D01*
X278416Y36084D01*
X274251Y44415D02*
Y41082D01*
X276750D01*
X275917Y42748D01*
Y43581D01*
X276750Y44415D01*
X278416D01*
X279249Y43581D01*
Y41915D01*
X278416Y41082D01*
X57251Y95585D02*
X61416D01*
X62249Y96418D01*
Y98084D01*
X61416Y98917D01*
X57251D01*
X58084Y100583D02*
X57251Y101416D01*
Y103082D01*
X58084Y103915D01*
X58917D01*
X59750Y103082D01*
X60583Y103915D01*
X61416D01*
X62249Y103082D01*
Y101416D01*
X61416Y100583D01*
X60583D01*
X59750Y101416D01*
X58917Y100583D01*
X58084D01*
X59750Y101416D02*
Y103082D01*
X441001Y90835D02*
X445166D01*
X445999Y91668D01*
Y93334D01*
X445166Y94167D01*
X441001D01*
Y95833D02*
Y99165D01*
X441834D01*
X445166Y95833D01*
X445999D01*
X47001Y158085D02*
X51166D01*
X51999Y158918D01*
Y160584D01*
X51166Y161417D01*
X47001D01*
X47834Y163083D02*
X47001Y163916D01*
Y165582D01*
X47834Y166415D01*
X48667D01*
X49500Y165582D01*
Y164749D01*
Y165582D01*
X50333Y166415D01*
X51166D01*
X51999Y165582D01*
Y163916D01*
X51166Y163083D01*
X148501Y167585D02*
X152666D01*
X153499Y168418D01*
Y170084D01*
X152666Y170917D01*
X148501D01*
X153499Y175915D02*
Y172583D01*
X150167Y175915D01*
X149334D01*
X148501Y175082D01*
Y173416D01*
X149334Y172583D01*
X206168Y195999D02*
Y191834D01*
X207001Y191001D01*
X208667D01*
X209500Y191834D01*
Y195999D01*
X211166Y191001D02*
X212832D01*
X211999D01*
Y195999D01*
X211166Y195166D01*
X127001Y131335D02*
Y134668D01*
Y133002D01*
X131999D01*
Y136334D02*
X127001D01*
Y138833D01*
X127834Y139666D01*
X129500D01*
X130333Y138833D01*
Y136334D01*
X127001Y141332D02*
Y144664D01*
X127834D01*
X131166Y141332D01*
X131999D01*
X198836Y169999D02*
X202168D01*
X200502D01*
Y165001D01*
X203834D02*
Y169999D01*
X206333D01*
X207166Y169166D01*
Y167500D01*
X206333Y166667D01*
X203834D01*
X212164Y169999D02*
X210498Y169166D01*
X208832Y167500D01*
Y165834D01*
X209665Y165001D01*
X211331D01*
X212164Y165834D01*
Y166667D01*
X211331Y167500D01*
X208832D01*
X218419Y166249D02*
X221751D01*
X220085D01*
Y161251D01*
X223417D02*
Y166249D01*
X225916D01*
X226749Y165416D01*
Y163750D01*
X225916Y162917D01*
X223417D01*
X228415Y161251D02*
X230081D01*
X229248D01*
Y166249D01*
X228415Y165416D01*
X394249Y138835D02*
X389251D01*
Y141335D01*
X390084Y142168D01*
X391750D01*
X392583Y141335D01*
Y138835D01*
Y140502D02*
X394249Y142168D01*
X390084Y143834D02*
X389251Y144667D01*
Y146333D01*
X390084Y147166D01*
X390917D01*
X391750Y146333D01*
Y145500D01*
Y146333D01*
X392583Y147166D01*
X393416D01*
X394249Y146333D01*
Y144667D01*
X393416Y143834D01*
X390084Y148832D02*
X389251Y149665D01*
Y151331D01*
X390084Y152164D01*
X390917D01*
X391750Y151331D01*
X392583Y152164D01*
X393416D01*
X394249Y151331D01*
Y149665D01*
X393416Y148832D01*
X392583D01*
X391750Y149665D01*
X390917Y148832D01*
X390084D01*
X391750Y149665D02*
Y151331D01*
X381499Y139586D02*
X376501D01*
Y142085D01*
X377334Y142918D01*
X379000D01*
X379833Y142085D01*
Y139586D01*
Y141252D02*
X381499Y142918D01*
X377334Y144584D02*
X376501Y145417D01*
Y147083D01*
X377334Y147916D01*
X378167D01*
X379000Y147083D01*
Y146250D01*
Y147083D01*
X379833Y147916D01*
X380666D01*
X381499Y147083D01*
Y145417D01*
X380666Y144584D01*
X376501Y149582D02*
Y152914D01*
X377334D01*
X380666Y149582D01*
X381499D01*
X420499Y145336D02*
X415501D01*
Y147835D01*
X416334Y148668D01*
X418000D01*
X418833Y147835D01*
Y145336D01*
Y147002D02*
X420499Y148668D01*
X416334Y150334D02*
X415501Y151167D01*
Y152833D01*
X416334Y153666D01*
X417167D01*
X418000Y152833D01*
Y152000D01*
Y152833D01*
X418833Y153666D01*
X419666D01*
X420499Y152833D01*
Y151167D01*
X419666Y150334D01*
X415501Y158665D02*
X416334Y156998D01*
X418000Y155332D01*
X419666D01*
X420499Y156165D01*
Y157831D01*
X419666Y158665D01*
X418833D01*
X418000Y157831D01*
Y155332D01*
X452999Y96586D02*
X448001D01*
Y99085D01*
X448834Y99918D01*
X450500D01*
X451333Y99085D01*
Y96586D01*
Y98252D02*
X452999Y99918D01*
X448834Y101584D02*
X448001Y102417D01*
Y104083D01*
X448834Y104916D01*
X449667D01*
X450500Y104083D01*
Y103250D01*
Y104083D01*
X451333Y104916D01*
X452166D01*
X452999Y104083D01*
Y102417D01*
X452166Y101584D01*
X448001Y109915D02*
Y106582D01*
X450500D01*
X449667Y108248D01*
Y109081D01*
X450500Y109915D01*
X452166D01*
X452999Y109081D01*
Y107415D01*
X452166Y106582D01*
X307249Y169086D02*
X302251D01*
Y171585D01*
X303084Y172418D01*
X304750D01*
X305583Y171585D01*
Y169086D01*
Y170752D02*
X307249Y172418D01*
X303084Y174084D02*
X302251Y174917D01*
Y176583D01*
X303084Y177416D01*
X303917D01*
X304750Y176583D01*
Y175750D01*
Y176583D01*
X305583Y177416D01*
X306416D01*
X307249Y176583D01*
Y174917D01*
X306416Y174084D01*
X307249Y181581D02*
X302251D01*
X304750Y179082D01*
Y182414D01*
X389585Y105751D02*
Y110749D01*
X392085D01*
X392918Y109916D01*
Y108250D01*
X392085Y107417D01*
X389585D01*
X391252D02*
X392918Y105751D01*
X394584Y109916D02*
X395417Y110749D01*
X397083D01*
X397916Y109916D01*
Y109083D01*
X397083Y108250D01*
X396250D01*
X397083D01*
X397916Y107417D01*
Y106584D01*
X397083Y105751D01*
X395417D01*
X394584Y106584D01*
X402915Y105751D02*
X399582D01*
X402915Y109083D01*
Y109916D01*
X402081Y110749D01*
X400415D01*
X399582Y109916D01*
X441669Y74251D02*
Y79249D01*
X444168D01*
X445001Y78416D01*
Y76750D01*
X444168Y75917D01*
X441669D01*
X443335D02*
X445001Y74251D01*
X446667Y78416D02*
X447500Y79249D01*
X449166D01*
X449999Y78416D01*
Y77583D01*
X449166Y76750D01*
X448333D01*
X449166D01*
X449999Y75917D01*
Y75084D01*
X449166Y74251D01*
X447500D01*
X446667Y75084D01*
X451665Y74251D02*
X453331D01*
X452498D01*
Y79249D01*
X451665Y78416D01*
X388335Y52751D02*
Y57749D01*
X390835D01*
X391668Y56916D01*
Y55250D01*
X390835Y54417D01*
X388335D01*
X390002D02*
X391668Y52751D01*
X393334Y56916D02*
X394167Y57749D01*
X395833D01*
X396666Y56916D01*
Y56083D01*
X395833Y55250D01*
X395000D01*
X395833D01*
X396666Y54417D01*
Y53584D01*
X395833Y52751D01*
X394167D01*
X393334Y53584D01*
X398332Y56916D02*
X399165Y57749D01*
X400831D01*
X401665Y56916D01*
Y53584D01*
X400831Y52751D01*
X399165D01*
X398332Y53584D01*
Y56916D01*
X257586Y146001D02*
Y150999D01*
X260085D01*
X260918Y150166D01*
Y148500D01*
X260085Y147667D01*
X257586D01*
X259252D02*
X260918Y146001D01*
X265916D02*
X262584D01*
X265916Y149333D01*
Y150166D01*
X265083Y150999D01*
X263417D01*
X262584Y150166D01*
X267582Y150999D02*
X270914D01*
Y150166D01*
X267582Y146834D01*
Y146001D01*
X387836Y163501D02*
Y168499D01*
X390335D01*
X391168Y167666D01*
Y166000D01*
X390335Y165167D01*
X387836D01*
X389502D02*
X391168Y163501D01*
X396166D02*
X392834D01*
X396166Y166833D01*
Y167666D01*
X395333Y168499D01*
X393667D01*
X392834Y167666D01*
X401165Y168499D02*
X397832D01*
Y166000D01*
X399498Y166833D01*
X400331D01*
X401165Y166000D01*
Y164334D01*
X400331Y163501D01*
X398665D01*
X397832Y164334D01*
X416335Y177501D02*
Y182499D01*
X418835D01*
X419668Y181666D01*
Y180000D01*
X418835Y179167D01*
X416335D01*
X418002D02*
X419668Y177501D01*
X421334Y181666D02*
X422167Y182499D01*
X423833D01*
X424666Y181666D01*
Y180833D01*
X423833Y180000D01*
X423000D01*
X423833D01*
X424666Y179167D01*
Y178334D01*
X423833Y177501D01*
X422167D01*
X421334Y178334D01*
X426332Y181666D02*
X427165Y182499D01*
X428831D01*
X429664Y181666D01*
Y180833D01*
X428831Y180000D01*
X427998D01*
X428831D01*
X429664Y179167D01*
Y178334D01*
X428831Y177501D01*
X427165D01*
X426332Y178334D01*
X383086Y153501D02*
Y158499D01*
X385585D01*
X386418Y157666D01*
Y156000D01*
X385585Y155167D01*
X383086D01*
X384752D02*
X386418Y153501D01*
X391416D02*
X388084D01*
X391416Y156833D01*
Y157666D01*
X390583Y158499D01*
X388917D01*
X388084Y157666D01*
X395581Y153501D02*
Y158499D01*
X393082Y156000D01*
X396414D01*
X124603Y60093D02*
Y65092D01*
X127102D01*
X127935Y64258D01*
Y62592D01*
X127102Y61759D01*
X124603D01*
X126269D02*
X127935Y60093D01*
X132934D02*
X129602D01*
X132934Y63425D01*
Y64258D01*
X132101Y65092D01*
X130435D01*
X129602Y64258D01*
X134600Y60093D02*
X136266D01*
X135433D01*
Y65092D01*
X134600Y64258D01*
X86249Y29086D02*
X81251D01*
Y31585D01*
X82084Y32418D01*
X83750D01*
X84583Y31585D01*
Y29086D01*
Y30752D02*
X86249Y32418D01*
Y37416D02*
Y34084D01*
X82917Y37416D01*
X82084D01*
X81251Y36583D01*
Y34917D01*
X82084Y34084D01*
Y39082D02*
X81251Y39915D01*
Y41581D01*
X82084Y42414D01*
X82917D01*
X83750Y41581D01*
Y40748D01*
Y41581D01*
X84583Y42414D01*
X85416D01*
X86249Y41581D01*
Y39915D01*
X85416Y39082D01*
X61835Y123001D02*
Y127999D01*
X64335D01*
X65168Y127166D01*
Y125500D01*
X64335Y124667D01*
X61835D01*
X63502D02*
X65168Y123001D01*
X70166D02*
X66834D01*
X70166Y126333D01*
Y127166D01*
X69333Y127999D01*
X67667D01*
X66834Y127166D01*
X71832D02*
X72665Y127999D01*
X74331D01*
X75164Y127166D01*
Y123834D01*
X74331Y123001D01*
X72665D01*
X71832Y123834D01*
Y127166D01*
X41502Y130501D02*
Y135499D01*
X44001D01*
X44834Y134666D01*
Y133000D01*
X44001Y132167D01*
X41502D01*
X43168D02*
X44834Y130501D01*
X46500D02*
X48166D01*
X47333D01*
Y135499D01*
X46500Y134666D01*
X50666Y131334D02*
X51499Y130501D01*
X53165D01*
X53998Y131334D01*
Y134666D01*
X53165Y135499D01*
X51499D01*
X50666Y134666D01*
Y133833D01*
X51499Y133000D01*
X53998D01*
X70502Y212501D02*
Y217499D01*
X73001D01*
X73834Y216666D01*
Y215000D01*
X73001Y214167D01*
X70502D01*
X72168D02*
X73834Y212501D01*
X75500D02*
X77167D01*
X76333D01*
Y217499D01*
X75500Y216666D01*
X79666D02*
X80499Y217499D01*
X82165D01*
X82998Y216666D01*
Y215833D01*
X82165Y215000D01*
X82998Y214167D01*
Y213334D01*
X82165Y212501D01*
X80499D01*
X79666Y213334D01*
Y214167D01*
X80499Y215000D01*
X79666Y215833D01*
Y216666D01*
X80499Y215000D02*
X82165D01*
X54749Y225502D02*
X49751D01*
Y228001D01*
X50584Y228834D01*
X52250D01*
X53083Y228001D01*
Y225502D01*
Y227168D02*
X54749Y228834D01*
Y230500D02*
Y232167D01*
Y231334D01*
X49751D01*
X50584Y230500D01*
X49751Y234666D02*
Y237998D01*
X50584D01*
X53916Y234666D01*
X54749D01*
X46749Y225252D02*
X41751D01*
Y227751D01*
X42584Y228584D01*
X44250D01*
X45083Y227751D01*
Y225252D01*
Y226918D02*
X46749Y228584D01*
Y230250D02*
Y231917D01*
Y231084D01*
X41751D01*
X42584Y230250D01*
X41751Y237748D02*
X42584Y236082D01*
X44250Y234416D01*
X45916D01*
X46749Y235249D01*
Y236915D01*
X45916Y237748D01*
X45083D01*
X44250Y236915D01*
Y234416D01*
X112252Y69251D02*
Y74249D01*
X114751D01*
X115584Y73416D01*
Y71750D01*
X114751Y70917D01*
X112252D01*
X113918D02*
X115584Y69251D01*
X117250D02*
X118917D01*
X118083D01*
Y74249D01*
X117250Y73416D01*
X121416D02*
X122249Y74249D01*
X123915D01*
X124748Y73416D01*
Y72583D01*
X123915Y71750D01*
X123082D01*
X123915D01*
X124748Y70917D01*
Y70084D01*
X123915Y69251D01*
X122249D01*
X121416Y70084D01*
X227585Y67251D02*
Y72249D01*
X230084D01*
X230917Y71416D01*
Y69750D01*
X230084Y68917D01*
X227585D01*
X229251D02*
X230917Y67251D01*
X232584D02*
X234250D01*
X233417D01*
Y72249D01*
X232584Y71416D01*
X236749Y67251D02*
X238415D01*
X237582D01*
Y72249D01*
X236749Y71416D01*
X192999Y140002D02*
X188001D01*
Y142501D01*
X188834Y143334D01*
X190500D01*
X191333Y142501D01*
Y140002D01*
Y141668D02*
X192999Y143334D01*
Y145000D02*
Y146666D01*
Y145834D01*
X188001D01*
X188834Y145000D01*
Y149166D02*
X188001Y149999D01*
Y151665D01*
X188834Y152498D01*
X192166D01*
X192999Y151665D01*
Y149999D01*
X192166Y149166D01*
X188834D01*
X151335Y204251D02*
Y209249D01*
X153834D01*
X154667Y208416D01*
Y206750D01*
X153834Y205917D01*
X151335D01*
X153001D02*
X154667Y204251D01*
X156333Y205084D02*
X157166Y204251D01*
X158832D01*
X159665Y205084D01*
Y208416D01*
X158832Y209249D01*
X157166D01*
X156333Y208416D01*
Y207583D01*
X157166Y206750D01*
X159665D01*
X208918Y227001D02*
Y230999D01*
X210917D01*
X211583Y230333D01*
Y229000D01*
X210917Y228334D01*
X208918D01*
X210251D02*
X211583Y227001D01*
X212916Y230999D02*
X215582D01*
Y230333D01*
X212916Y227667D01*
Y227001D01*
X171335Y203751D02*
Y208749D01*
X173834D01*
X174667Y207916D01*
Y206250D01*
X173834Y205417D01*
X171335D01*
X173001D02*
X174667Y203751D01*
X179665Y208749D02*
X177999Y207916D01*
X176333Y206250D01*
Y204584D01*
X177166Y203751D01*
X178832D01*
X179665Y204584D01*
Y205417D01*
X178832Y206250D01*
X176333D01*
X226335Y220501D02*
Y225499D01*
X228834D01*
X229667Y224666D01*
Y223000D01*
X228834Y222167D01*
X226335D01*
X228001D02*
X229667Y220501D01*
X233832D02*
Y225499D01*
X231333Y223000D01*
X234665D01*
X191335Y179501D02*
Y184499D01*
X193834D01*
X194667Y183666D01*
Y182000D01*
X193834Y181167D01*
X191335D01*
X193001D02*
X194667Y179501D01*
X196333Y183666D02*
X197166Y184499D01*
X198832D01*
X199665Y183666D01*
Y182833D01*
X198832Y182000D01*
X197999D01*
X198832D01*
X199665Y181167D01*
Y180334D01*
X198832Y179501D01*
X197166D01*
X196333Y180334D01*
X293419Y60501D02*
Y65499D01*
X295918D01*
X296751Y64666D01*
Y63000D01*
X295918Y62167D01*
X293419D01*
X301749Y65499D02*
X300083D01*
X300916D01*
Y61334D01*
X300083Y60501D01*
X299250D01*
X298417Y61334D01*
X303415Y60501D02*
X305081D01*
X304248D01*
Y65499D01*
X303415Y64666D01*
X107749Y137535D02*
X102751D01*
Y140034D01*
X103584Y140867D01*
X105250D01*
X106083Y140034D01*
Y137535D01*
X107749Y145865D02*
Y142533D01*
X104417Y145865D01*
X103584D01*
X102751Y145032D01*
Y143366D01*
X103584Y142533D01*
X137668Y235001D02*
Y239999D01*
X140167D01*
X141000Y239166D01*
Y237500D01*
X140167Y236667D01*
X137668D01*
X142666Y235001D02*
X144332D01*
X143499D01*
Y239999D01*
X142666Y239166D01*
X130251Y151835D02*
X135249D01*
Y155167D01*
Y160165D02*
Y156833D01*
X131917Y160165D01*
X131084D01*
X130251Y159332D01*
Y157666D01*
X131084Y156833D01*
X222918Y173749D02*
Y168751D01*
X226250D01*
X227916D02*
X229582D01*
X228749D01*
Y173749D01*
X227916Y172916D01*
X208917Y66749D02*
X207251D01*
X208084D01*
Y62584D01*
X207251Y61751D01*
X206418D01*
X205585Y62584D01*
X213082Y61751D02*
Y66749D01*
X210583Y64250D01*
X213915D01*
X33500Y234749D02*
X31834D01*
X32667D01*
Y230584D01*
X31834Y229751D01*
X31001D01*
X30168Y230584D01*
X35166Y229751D02*
X36832D01*
X35999D01*
Y234749D01*
X35166Y233916D01*
X140668Y152999D02*
X137336D01*
Y150500D01*
X139002D01*
X137336D01*
Y148001D01*
X142334Y152999D02*
Y148001D01*
X144833D01*
X145666Y148834D01*
Y149667D01*
X144833Y150500D01*
X142334D01*
X144833D01*
X145666Y151333D01*
Y152166D01*
X144833Y152999D01*
X142334D01*
X150665Y148001D02*
X147332D01*
X150665Y151333D01*
Y152166D01*
X149831Y152999D01*
X148165D01*
X147332Y152166D01*
X248001Y187751D02*
Y184419D01*
X250500D01*
Y186085D01*
Y184419D01*
X252999D01*
X248001Y189417D02*
X252999D01*
Y191916D01*
X252166Y192749D01*
X251333D01*
X250500Y191916D01*
Y189417D01*
Y191916D01*
X249667Y192749D01*
X248834D01*
X248001Y191916D01*
Y189417D01*
X252999Y194415D02*
Y196081D01*
Y195248D01*
X248001D01*
X248834Y194415D01*
X256335Y119999D02*
Y115001D01*
X258834D01*
X259667Y115834D01*
Y119166D01*
X258834Y119999D01*
X256335D01*
X264665Y115001D02*
X261333D01*
X264665Y118333D01*
Y119166D01*
X263832Y119999D01*
X262166D01*
X261333Y119166D01*
X68668Y23499D02*
Y18501D01*
X71167D01*
X72000Y19334D01*
Y22666D01*
X71167Y23499D01*
X68668D01*
X73666Y18501D02*
X75332D01*
X74499D01*
Y23499D01*
X73666Y22666D01*
X104251Y123916D02*
X103418Y124749D01*
X101752D01*
X100919Y123916D01*
Y120584D01*
X101752Y119751D01*
X103418D01*
X104251Y120584D01*
X109249Y124749D02*
X105917D01*
Y122250D01*
X107583Y123083D01*
X108416D01*
X109249Y122250D01*
Y120584D01*
X108416Y119751D01*
X106750D01*
X105917Y120584D01*
X110915Y119751D02*
X112581D01*
X111748D01*
Y124749D01*
X110915Y123916D01*
X118918Y115416D02*
X118085Y116249D01*
X116419D01*
X115585Y115416D01*
Y112084D01*
X116419Y111251D01*
X118085D01*
X118918Y112084D01*
X123916Y116249D02*
X120584D01*
Y113750D01*
X122250Y114583D01*
X123083D01*
X123916Y113750D01*
Y112084D01*
X123083Y111251D01*
X121417D01*
X120584Y112084D01*
X125582Y115416D02*
X126415Y116249D01*
X128081D01*
X128914Y115416D01*
Y112084D01*
X128081Y111251D01*
X126415D01*
X125582Y112084D01*
Y115416D01*
X97834Y84418D02*
X97001Y83585D01*
Y81919D01*
X97834Y81086D01*
X101166D01*
X101999Y81919D01*
Y83585D01*
X101166Y84418D01*
X101999Y88583D02*
X97001D01*
X99500Y86084D01*
Y89416D01*
X101166Y91082D02*
X101999Y91915D01*
Y93581D01*
X101166Y94415D01*
X97834D01*
X97001Y93581D01*
Y91915D01*
X97834Y91082D01*
X98667D01*
X99500Y91915D01*
Y94415D01*
X400418Y144666D02*
X399585Y145499D01*
X397919D01*
X397085Y144666D01*
Y141334D01*
X397919Y140501D01*
X399585D01*
X400418Y141334D01*
X404583Y140501D02*
Y145499D01*
X402084Y143000D01*
X405416D01*
X407082Y144666D02*
X407915Y145499D01*
X409581D01*
X410415Y144666D01*
Y143833D01*
X409581Y143000D01*
X410415Y142167D01*
Y141334D01*
X409581Y140501D01*
X407915D01*
X407082Y141334D01*
Y142167D01*
X407915Y143000D01*
X407082Y143833D01*
Y144666D01*
X407915Y143000D02*
X409581D01*
X377749Y89922D02*
X376916Y89089D01*
Y87423D01*
X377749Y86590D01*
X381081D01*
X381914Y87423D01*
Y89089D01*
X381081Y89922D01*
X381914Y94087D02*
X376916D01*
X379415Y91588D01*
Y94921D01*
X376916Y96587D02*
Y99919D01*
X377749D01*
X381081Y96587D01*
X381914D01*
X441918Y160666D02*
X441085Y161499D01*
X439419D01*
X438586Y160666D01*
Y157334D01*
X439419Y156501D01*
X441085D01*
X441918Y157334D01*
X446083Y156501D02*
Y161499D01*
X443584Y159000D01*
X446916D01*
X451914Y161499D02*
X450248Y160666D01*
X448582Y159000D01*
Y157334D01*
X449415Y156501D01*
X451081D01*
X451914Y157334D01*
Y158167D01*
X451081Y159000D01*
X448582D01*
X427834Y148418D02*
X427001Y147585D01*
Y145919D01*
X427834Y145085D01*
X431166D01*
X431999Y145919D01*
Y147585D01*
X431166Y148418D01*
X431999Y152583D02*
X427001D01*
X429500Y150084D01*
Y153416D01*
X427001Y158414D02*
Y155082D01*
X429500D01*
X428667Y156748D01*
Y157581D01*
X429500Y158414D01*
X431166D01*
X431999Y157581D01*
Y155915D01*
X431166Y155082D01*
X448834Y168168D02*
X448001Y167335D01*
Y165669D01*
X448834Y164835D01*
X452166D01*
X452999Y165669D01*
Y167335D01*
X452166Y168168D01*
X452999Y172333D02*
X448001D01*
X450500Y169834D01*
Y173166D01*
X452999Y177331D02*
X448001D01*
X450500Y174832D01*
Y178165D01*
X391418Y49916D02*
X390585Y50749D01*
X388919D01*
X388086Y49916D01*
Y46584D01*
X388919Y45751D01*
X390585D01*
X391418Y46584D01*
X395583Y45751D02*
Y50749D01*
X393084Y48250D01*
X396416D01*
X398082Y49916D02*
X398915Y50749D01*
X400581D01*
X401414Y49916D01*
Y49083D01*
X400581Y48250D01*
X399748D01*
X400581D01*
X401414Y47417D01*
Y46584D01*
X400581Y45751D01*
X398915D01*
X398082Y46584D01*
X392668Y86666D02*
X391835Y87499D01*
X390169D01*
X389336Y86666D01*
Y83334D01*
X390169Y82501D01*
X391835D01*
X392668Y83334D01*
X396833Y82501D02*
Y87499D01*
X394334Y85000D01*
X397666D01*
X402664Y82501D02*
X399332D01*
X402664Y85833D01*
Y86666D01*
X401831Y87499D01*
X400165D01*
X399332Y86666D01*
X441251Y65916D02*
X440418Y66749D01*
X438752D01*
X437919Y65916D01*
Y62584D01*
X438752Y61751D01*
X440418D01*
X441251Y62584D01*
X445416Y61751D02*
Y66749D01*
X442917Y64250D01*
X446249D01*
X447915Y61751D02*
X449581D01*
X448748D01*
Y66749D01*
X447915Y65916D01*
X88334Y142417D02*
X87501Y141584D01*
Y139918D01*
X88334Y139085D01*
X91666D01*
X92499Y139918D01*
Y141584D01*
X91666Y142417D01*
X87501Y144083D02*
Y147415D01*
X88334D01*
X91666Y144083D01*
X92499D01*
X64334Y144167D02*
X63501Y143334D01*
Y141668D01*
X64334Y140835D01*
X67666D01*
X68499Y141668D01*
Y143334D01*
X67666Y144167D01*
X63501Y149165D02*
X64334Y147499D01*
X66000Y145833D01*
X67666D01*
X68499Y146666D01*
Y148332D01*
X67666Y149165D01*
X66833D01*
X66000Y148332D01*
Y145833D01*
X157917Y151166D02*
X157084Y151999D01*
X155418D01*
X154585Y151166D01*
Y147834D01*
X155418Y147001D01*
X157084D01*
X157917Y147834D01*
X162082Y147001D02*
Y151999D01*
X159583Y149500D01*
X162915D01*
X174084Y146417D02*
X173251Y145584D01*
Y143918D01*
X174084Y143085D01*
X177416D01*
X178249Y143918D01*
Y145584D01*
X177416Y146417D01*
X174084Y148083D02*
X173251Y148916D01*
Y150582D01*
X174084Y151415D01*
X174917D01*
X175750Y150582D01*
Y149749D01*
Y150582D01*
X176583Y151415D01*
X177416D01*
X178249Y150582D01*
Y148916D01*
X177416Y148083D01*
X179834Y194917D02*
X179001Y194084D01*
Y192418D01*
X179834Y191585D01*
X183166D01*
X183999Y192418D01*
Y194084D01*
X183166Y194917D01*
X183999Y199915D02*
Y196583D01*
X180667Y199915D01*
X179834D01*
X179001Y199082D01*
Y197416D01*
X179834Y196583D01*
X238584Y223000D02*
X237751Y222167D01*
Y220501D01*
X238584Y219668D01*
X241916D01*
X242749Y220501D01*
Y222167D01*
X241916Y223000D01*
X242749Y224666D02*
Y226332D01*
Y225499D01*
X237751D01*
X238584Y224666D01*
D11*
X101000Y28500D02*
G03*
X101000Y28500I-1250J0D01*
G01*
X143050Y229750D02*
G03*
X143050Y229750I-1250J0D01*
G01*
X428500Y79750D02*
G03*
X428500Y79750I-1250J0D01*
G01*
X244500Y127750D02*
G03*
X244500Y127750I-1250J0D01*
G01*
X113500Y144000D02*
G03*
X113500Y144000I-1250J0D01*
G01*
X54250Y152000D02*
G03*
X54250Y152000I-1250J0D01*
G01*
X61250Y110375D02*
G03*
X61250Y110375I-1250J0D01*
G01*
D12*
X40000Y76310D02*
G03*
X40000Y76310I-10J0D01*
G01*
Y79170D02*
G03*
X40000Y79170I-10J0D01*
G01*
D13*
X40110Y88540D02*
G03*
X40110Y88540I-10J0D01*
G01*
X201923Y217385D02*
G03*
X202000Y217000I-923J-385D01*
G01*
X300000Y236000D02*
G03*
X300000Y236000I-1000J0D01*
G01*
X106250Y36750D02*
G03*
X106250Y36750I-1000J0D01*
G01*
X227250Y234500D02*
X235250D01*
X83000Y10500D02*
X91000D01*
X184300Y236480D02*
Y240450D01*
Y219050D02*
Y223020D01*
X146200Y240450D02*
X184300D01*
X146200Y238850D02*
Y240450D01*
Y219050D02*
X184300D01*
X146200D02*
Y220650D01*
X430000Y238400D02*
X451000D01*
Y188600D02*
Y238400D01*
X430000Y188600D02*
X451000D01*
X304000Y238400D02*
X325000D01*
X304000Y188600D02*
Y238400D01*
Y188600D02*
X325000D01*
X416500Y115000D02*
X426500D01*
Y84000D02*
Y115000D01*
X416500Y84000D02*
Y115000D01*
Y84000D02*
X426500D01*
X350500Y56500D02*
Y61500D01*
Y56500D02*
X373000D01*
Y34500D02*
Y56500D01*
Y3000D02*
Y19500D01*
X308500Y56500D02*
Y61500D01*
X350500D01*
X287000Y56500D02*
X287000Y34500D01*
X287000Y56500D02*
X308500D01*
X287000Y3000D02*
X373000D01*
X287000D02*
X287000Y19500D01*
X118980Y186500D02*
X122950D01*
Y148400D02*
Y186500D01*
X121350Y148400D02*
X122950D01*
X101550Y186500D02*
X105520D01*
X101550Y148400D02*
X103150D01*
X101550D02*
Y186500D01*
X43500Y219250D02*
Y222000D01*
Y148000D02*
Y151500D01*
X27500Y222000D02*
X43500D01*
X27500Y148000D02*
X43500D01*
X82000Y172250D02*
Y182250D01*
X54000Y172250D02*
Y182250D01*
X93750Y89125D02*
Y116625D01*
X66250D02*
X93750D01*
X66250Y89125D02*
X93750D01*
X66250D02*
Y116625D01*
X236000Y55400D02*
X257000D01*
Y5600D02*
Y55400D01*
X236000Y5600D02*
X257000D01*
X110000Y55400D02*
X131000D01*
X110000Y5600D02*
Y55400D01*
Y5600D02*
X131000D01*
D14*
X205800Y217000D02*
X217800D01*
X205800Y197500D02*
X217800D01*
D15*
X164350Y164900D02*
Y179600D01*
X154650Y164900D02*
Y179600D01*
X164350D01*
X154650Y164900D02*
X164350D01*
D16*
X323731Y97498D02*
X343289D01*
Y77863D02*
Y85637D01*
X323731Y66002D02*
X343289D01*
D17*
X6369Y14132D02*
X5286Y13049D01*
Y10883D01*
X6369Y9800D01*
X7452D01*
X8535Y10883D01*
Y13049D01*
X9618Y14132D01*
X10701D01*
X11784Y13049D01*
Y10883D01*
X10701Y9800D01*
X11784Y19547D02*
Y17381D01*
X10701Y16298D01*
X8535D01*
X7452Y17381D01*
Y19547D01*
X8535Y20630D01*
X9618D01*
Y16298D01*
X5286Y22796D02*
X11784D01*
Y26045D01*
X10701Y27128D01*
X9618D01*
X8535D01*
X7452Y26045D01*
Y22796D01*
Y30377D02*
Y32543D01*
X8535Y33626D01*
X11784D01*
Y30377D01*
X10701Y29294D01*
X9618Y30377D01*
Y33626D01*
X11784Y35792D02*
Y39041D01*
X10701Y40124D01*
X9618Y39041D01*
Y36875D01*
X8535Y35792D01*
X7452Y36875D01*
Y40124D01*
X6369Y43373D02*
X7452D01*
Y42290D01*
Y44455D01*
Y43373D01*
X10701D01*
X11784Y44455D01*
Y47704D02*
Y49870D01*
Y48787D01*
X7452D01*
Y47704D01*
Y54202D02*
Y56368D01*
X8535Y57451D01*
X11784D01*
Y54202D01*
X10701Y53119D01*
X9618Y54202D01*
Y57451D01*
X11784Y59617D02*
X7452D01*
Y62866D01*
X8535Y63949D01*
X11784D01*
X5286Y76945D02*
Y72613D01*
X8535D01*
Y74779D01*
Y72613D01*
X11784D01*
X7452Y79111D02*
X11784D01*
X9618D01*
X8535Y80194D01*
X7452Y81277D01*
Y82360D01*
X11784Y88858D02*
Y86692D01*
X10701Y85609D01*
X8535D01*
X7452Y86692D01*
Y88858D01*
X8535Y89941D01*
X9618D01*
Y85609D01*
X7452Y92107D02*
X10701D01*
X11784Y93190D01*
Y96439D01*
X12867D01*
X13950Y95356D01*
Y94273D01*
X11784Y96439D02*
X7452D01*
X17286Y9800D02*
X22701D01*
X23784Y10883D01*
Y13049D01*
X22701Y14132D01*
X17286D01*
Y16298D02*
X23784D01*
Y20630D01*
Y22796D02*
X17286D01*
Y26045D01*
X18369Y27128D01*
X20535D01*
X21618Y26045D01*
Y22796D01*
X17286Y35792D02*
X22701D01*
X23784Y36875D01*
Y39041D01*
X22701Y40124D01*
X17286D01*
X18369Y46621D02*
X17286Y45539D01*
Y43373D01*
X18369Y42290D01*
X19452D01*
X20535Y43373D01*
Y45539D01*
X21618Y46621D01*
X22701D01*
X23784Y45539D01*
Y43373D01*
X22701Y42290D01*
X25950Y55285D02*
X19452D01*
Y58534D01*
X20535Y59617D01*
X22701D01*
X23784Y58534D01*
Y55285D01*
X19452Y61783D02*
X23784D01*
X21618D01*
X20535Y62866D01*
X19452Y63949D01*
Y65032D01*
X23784Y69364D02*
Y71530D01*
X22701Y72613D01*
X20535D01*
X19452Y71530D01*
Y69364D01*
X20535Y68281D01*
X22701D01*
X23784Y69364D01*
X17286Y74779D02*
X23784D01*
Y78028D01*
X22701Y79111D01*
X21618D01*
X20535D01*
X19452Y78028D01*
Y74779D01*
X23784Y84526D02*
Y82360D01*
X22701Y81277D01*
X20535D01*
X19452Y82360D01*
Y84526D01*
X20535Y85609D01*
X21618D01*
Y81277D01*
X19452Y94273D02*
X23784Y96439D01*
X19452Y98605D01*
X23784Y100771D02*
Y102937D01*
Y101854D01*
X17286D01*
X18369Y100771D01*
X23784Y106186D02*
X22701D01*
Y107268D01*
X23784D01*
Y106186D01*
Y115932D02*
Y111601D01*
X19452Y115932D01*
X18369D01*
X17286Y114850D01*
Y112683D01*
X18369Y111601D01*
X23784Y118098D02*
X22701D01*
Y119181D01*
X23784D01*
Y118098D01*
Y123513D02*
Y125679D01*
Y124596D01*
X17286D01*
X18369Y123513D01*
M02*
