G04*
G04 #@! TF.GenerationSoftware,Altium Limited,Altium Designer,23.3.1 (30)*
G04*
G04 Layer_Physical_Order=1*
G04 Layer_Color=255*
%FSLAX44Y44*%
%MOMM*%
G71*
G04*
G04 #@! TF.SameCoordinates,5A8DE77E-9EC6-4288-B882-F7E8B62C2B11*
G04*
G04*
G04 #@! TF.FilePolarity,Positive*
G04*
G01*
G75*
%ADD12C,0.2000*%
%ADD20R,0.4682X0.4725*%
%ADD21C,1.0000*%
%ADD22R,0.5725X0.6153*%
%ADD23R,0.6000X0.5500*%
%ADD24R,0.7000X0.7000*%
%ADD25R,0.7000X0.7000*%
%ADD26R,1.0621X1.2578*%
%ADD27R,0.5000X0.6000*%
%ADD28R,0.5000X0.4500*%
%ADD29R,0.6600X0.3100*%
%ADD30R,0.5500X0.6000*%
%ADD31R,0.5500X0.6500*%
%ADD32R,0.6000X0.5000*%
%ADD33R,0.9400X1.7300*%
%ADD34R,0.3000X0.3500*%
%ADD35R,0.3000X1.5000*%
%ADD36R,0.8500X0.7000*%
%ADD37R,0.6000X0.6000*%
%ADD38R,0.8000X0.9000*%
%ADD39R,0.9121X1.1311*%
%ADD40R,0.6000X0.5000*%
G04:AMPARAMS|DCode=41|XSize=0.55mm|YSize=0.8mm|CornerRadius=0.0495mm|HoleSize=0mm|Usage=FLASHONLY|Rotation=270.000|XOffset=0mm|YOffset=0mm|HoleType=Round|Shape=RoundedRectangle|*
%AMROUNDEDRECTD41*
21,1,0.5500,0.7010,0,0,270.0*
21,1,0.4510,0.8000,0,0,270.0*
1,1,0.0990,-0.3505,-0.2255*
1,1,0.0990,-0.3505,0.2255*
1,1,0.0990,0.3505,0.2255*
1,1,0.0990,0.3505,-0.2255*
%
%ADD41ROUNDEDRECTD41*%
%ADD42R,0.4000X0.6000*%
%ADD43R,0.5000X0.5000*%
%ADD44R,0.8000X1.0000*%
%ADD45R,0.6000X0.8000*%
%ADD46R,0.7154X0.6725*%
%ADD47R,1.1311X0.9121*%
%ADD48R,0.3000X1.2000*%
%ADD49R,1.4000X1.0000*%
%ADD50R,0.7000X0.8000*%
%ADD51C,0.2300*%
%ADD52R,1.7300X0.9400*%
%ADD53R,0.3500X0.3000*%
%ADD54R,1.3500X0.4000*%
%ADD55R,1.9000X1.8000*%
%ADD56R,1.9000X1.9000*%
%ADD57R,0.6000X0.4000*%
%ADD58R,0.7596X0.7621*%
%ADD59R,0.5200X0.3200*%
%ADD60R,0.4750X0.5000*%
%ADD61R,0.5000X0.5000*%
%ADD62R,0.3750X0.3500*%
%ADD63R,0.3500X0.3750*%
%ADD64R,0.6500X0.6500*%
%ADD65R,0.8961X0.4572*%
%ADD66R,0.7000X0.9000*%
%ADD89C,0.1800*%
%ADD90C,1.7550*%
%ADD95C,0.5000*%
%ADD103C,0.6000*%
%ADD104C,0.5000*%
%ADD105C,0.3000*%
%ADD106C,0.4000*%
%ADD107C,1.1000*%
%ADD108C,0.6200*%
%ADD109C,1.0500*%
%ADD110R,1.0500X1.0500*%
%ADD111C,1.4500*%
%ADD112R,1.0500X1.0500*%
%ADD113C,0.7000*%
%ADD114C,5.0000*%
%ADD115R,0.5500X0.2000*%
G36*
X76447Y240856D02*
X77045Y239736D01*
X76688Y239202D01*
X76307Y237285D01*
X75475Y236782D01*
X75025Y236655D01*
X74725Y236855D01*
X73750Y237049D01*
X49886D01*
X48911Y236855D01*
X48087Y236305D01*
X48045Y236333D01*
X46250Y236690D01*
X44455Y236333D01*
X42934Y235316D01*
X41917Y233795D01*
X41560Y232000D01*
X41917Y230205D01*
X42934Y228684D01*
X44455Y227667D01*
X45132Y227532D01*
X45550Y226154D01*
X45083Y225688D01*
X44531Y224861D01*
X44337Y223886D01*
Y218688D01*
X43051Y217828D01*
X42034Y216307D01*
X41677Y214512D01*
X42034Y212717D01*
X42331Y212273D01*
X42142Y211314D01*
X40927Y210564D01*
X39500Y210848D01*
X37549Y210460D01*
X35895Y209355D01*
X34790Y207701D01*
X34402Y205750D01*
X34790Y203799D01*
X35017Y203459D01*
X34360Y202157D01*
X33693Y202126D01*
X33566Y202316D01*
X32045Y203333D01*
X30250Y203690D01*
X28455Y203333D01*
X27270Y202541D01*
X26000Y203031D01*
Y208000D01*
X17549D01*
Y214500D01*
X26000D01*
Y222029D01*
X27270Y222708D01*
X28049Y222187D01*
X28980Y222002D01*
Y227500D01*
Y232998D01*
X28049Y232813D01*
X27270Y232292D01*
X26000Y232971D01*
Y235500D01*
X4103D01*
Y240856D01*
X76447D01*
D02*
G37*
G36*
X327000Y240856D02*
Y235059D01*
X322462D01*
X322348Y235634D01*
X321331Y237155D01*
X319809Y238172D01*
X318015Y238529D01*
X316220Y238172D01*
X314698Y237155D01*
X313682Y235634D01*
X313325Y233839D01*
X313682Y232044D01*
X314090Y231433D01*
X313613Y229861D01*
X313087Y229643D01*
X311259Y228241D01*
X309857Y226413D01*
X308975Y224284D01*
X308675Y222000D01*
X308975Y219716D01*
X309857Y217587D01*
X310016Y217380D01*
X309432Y216534D01*
X309204Y216352D01*
X307500Y216691D01*
X305705Y216334D01*
X304184Y215318D01*
X303696Y214587D01*
X302395Y214926D01*
X302285Y216322D01*
X301273Y220537D01*
X299614Y224542D01*
X297349Y228238D01*
X294534Y231534D01*
X291238Y234349D01*
X287542Y236614D01*
X283537Y238273D01*
X279321Y239285D01*
X275492Y239587D01*
X275541Y240856D01*
X327000D01*
D02*
G37*
G36*
X177106D02*
X178376Y240856D01*
Y236932D01*
X177950Y236558D01*
X176188Y236326D01*
X174546Y235646D01*
X173136Y234564D01*
X172357Y233549D01*
X172055Y233451D01*
X171145D01*
X170843Y233549D01*
X170064Y234564D01*
X168654Y235646D01*
X167012Y236326D01*
X165250Y236558D01*
X163488Y236326D01*
X161846Y235646D01*
X160570Y234667D01*
X160018Y234787D01*
X159300Y235170D01*
Y236500D01*
X145800D01*
Y223000D01*
X154571D01*
X155057Y221827D01*
X153198Y219967D01*
X152645Y219140D01*
X152451Y218165D01*
Y217750D01*
X146000D01*
Y217750D01*
X144897Y218153D01*
X144785Y219571D01*
X143773Y223787D01*
X142114Y227792D01*
X139849Y231488D01*
X137034Y234784D01*
X133738Y237599D01*
X130495Y239587D01*
X130853Y240856D01*
X177106D01*
D02*
G37*
G36*
X274459D02*
X274508Y239587D01*
X270679Y239285D01*
X266463Y238273D01*
X262458Y236614D01*
X258762Y234349D01*
X255466Y231534D01*
X252651Y228238D01*
X250386Y224542D01*
X248727Y220537D01*
X247715Y216322D01*
X247475Y213270D01*
X275000D01*
Y210730D01*
X247475D01*
X247690Y207996D01*
X246592Y207299D01*
X245838Y208052D01*
X245011Y208605D01*
X244035Y208799D01*
X242790D01*
Y212980D01*
X236750D01*
Y214250D01*
X235480D01*
Y220290D01*
X232883D01*
X232289Y221325D01*
X232678Y222638D01*
X232800Y222688D01*
X233731Y222503D01*
Y228001D01*
X235001D01*
Y229271D01*
X241221D01*
X241720Y229641D01*
X243250Y229440D01*
X245077Y229680D01*
X246780Y230385D01*
X248242Y231508D01*
X249364Y232970D01*
X250070Y234673D01*
X250310Y236500D01*
X250070Y238327D01*
X249548Y239587D01*
X250198Y240856D01*
X274459D01*
D02*
G37*
G36*
X194004D02*
X194613Y239587D01*
X193688Y238202D01*
X193503Y237271D01*
X204499D01*
X204314Y238202D01*
X203388Y239587D01*
X203998Y240856D01*
X212302D01*
X212952Y239587D01*
X212430Y238327D01*
X212190Y236500D01*
X212430Y234673D01*
X213136Y232970D01*
X214258Y231508D01*
X215720Y230385D01*
X217423Y229680D01*
X219250Y229440D01*
X221077Y229680D01*
X222780Y230385D01*
X224242Y231508D01*
X225018Y232518D01*
X226483Y232611D01*
X226935Y231935D01*
X228800Y230688D01*
X229516Y229337D01*
X229382Y228660D01*
X228131Y227614D01*
X227750Y227690D01*
X225955Y227333D01*
X225457Y227000D01*
X208250D01*
Y226500D01*
X202290D01*
Y227540D01*
X199710D01*
X199750Y227500D01*
Y215300D01*
X199650D01*
Y210900D01*
X199250Y210500D01*
X197000Y208250D01*
X188000D01*
X186000Y210250D01*
Y225250D01*
X185988Y225262D01*
X184615D01*
X184182Y225873D01*
X183923Y226532D01*
X184526Y227988D01*
X184758Y229750D01*
X184526Y231512D01*
X183846Y233154D01*
X182764Y234564D01*
X181354Y235646D01*
X180000Y236207D01*
Y240856D01*
X194004D01*
D02*
G37*
G36*
X183467Y224114D02*
X184376Y223270D01*
Y218011D01*
X183750Y217000D01*
X175750D01*
Y210798D01*
X175626Y210500D01*
Y203750D01*
X176102Y202602D01*
X177376Y201327D01*
Y196250D01*
X177500Y195952D01*
Y184750D01*
X181210D01*
X181288Y184631D01*
X180601Y183361D01*
X176186D01*
X170803Y188744D01*
X171139Y190204D01*
X172028Y190572D01*
X173386Y191614D01*
X174428Y192972D01*
X175083Y194553D01*
X175306Y196250D01*
X175083Y197947D01*
X174428Y199528D01*
X173386Y200886D01*
X172028Y201928D01*
X170447Y202583D01*
X169892Y202656D01*
X169584Y203977D01*
X170416Y204534D01*
X171433Y206055D01*
X171790Y207850D01*
X171913Y208000D01*
X173750D01*
Y211606D01*
X173828Y212000D01*
X173828Y212000D01*
Y212500D01*
X173750Y212894D01*
Y216264D01*
X174843Y217899D01*
X175028Y218830D01*
X169530D01*
Y221370D01*
X175028D01*
X174843Y222301D01*
X174791Y222378D01*
X175633Y223403D01*
X176188Y223174D01*
X177950Y222942D01*
X179712Y223174D01*
X181354Y223854D01*
X181819Y224211D01*
X182241Y224243D01*
X183467Y224114D01*
D02*
G37*
G36*
X396270Y221960D02*
X396941D01*
Y220478D01*
X396941Y220478D01*
X397174Y219307D01*
X397837Y218315D01*
X399329Y216823D01*
X399788Y216136D01*
X401095Y214829D01*
X401095Y214829D01*
X402088Y214166D01*
X402651Y214054D01*
X402759Y213893D01*
X403434Y212816D01*
X402417Y211295D01*
X402275Y210580D01*
X402212Y210538D01*
X401051Y209377D01*
X399523Y209645D01*
X398673Y210916D01*
X396807Y212163D01*
X395877Y212348D01*
Y206850D01*
X394607D01*
Y205580D01*
X389109D01*
X389171Y205270D01*
X388317Y204000D01*
X372165D01*
X371994Y204857D01*
X371442Y205684D01*
X368824Y208302D01*
X367997Y208855D01*
X367021Y209049D01*
X354178D01*
X354053Y210319D01*
X354545Y210417D01*
X356066Y211434D01*
X357083Y212955D01*
X357440Y214750D01*
X357083Y216545D01*
X356066Y218066D01*
X354545Y219083D01*
X352750Y219440D01*
X351617Y219215D01*
X350518Y220202D01*
X350601Y220616D01*
X350379Y221730D01*
X351261Y223000D01*
X377792D01*
X378529Y221730D01*
X378417Y221170D01*
X389608D01*
X390257Y221960D01*
X393730D01*
Y232000D01*
X396270D01*
Y221960D01*
D02*
G37*
G36*
X75219Y229426D02*
X74917Y228697D01*
X74694Y227000D01*
X74917Y225303D01*
X75572Y223722D01*
X76614Y222364D01*
X77972Y221322D01*
X79553Y220667D01*
X81250Y220444D01*
X82947Y220667D01*
X84528Y221322D01*
X85106Y221766D01*
X86359Y221559D01*
X86620Y221168D01*
X88486Y219922D01*
X90210Y219579D01*
X90215Y219571D01*
X89975Y216520D01*
X117500D01*
Y213980D01*
X89975D01*
X90215Y210928D01*
X91227Y206713D01*
X92377Y203937D01*
X91300Y203217D01*
X86811Y207707D01*
Y212561D01*
X77645D01*
X76839Y213542D01*
X76940Y214050D01*
X76583Y215845D01*
X75566Y217366D01*
X74045Y218383D01*
X72250Y218740D01*
X70455Y218383D01*
X69560Y217785D01*
X68290Y218464D01*
Y219540D01*
X65044D01*
X64791Y220810D01*
X66028Y221322D01*
X67386Y222364D01*
X68428Y223722D01*
X69083Y225303D01*
X69306Y227000D01*
X69083Y228697D01*
X68428Y230278D01*
X68119Y230681D01*
X68745Y231951D01*
X72694D01*
X75219Y229426D01*
D02*
G37*
G36*
X79000Y193750D02*
Y193551D01*
X78848Y193183D01*
X78566Y192902D01*
X78199Y192750D01*
X77801D01*
X77434Y192902D01*
X77152Y193183D01*
X77000Y193551D01*
Y193750D01*
Y201250D01*
X79000D01*
Y193750D01*
D02*
G37*
G36*
X75000D02*
Y193551D01*
X74848Y193183D01*
X74566Y192902D01*
X74199Y192750D01*
X73801D01*
X73433Y192902D01*
X73152Y193183D01*
X73000Y193551D01*
Y193750D01*
Y201250D01*
X75000D01*
X75000Y193750D01*
D02*
G37*
G36*
X71000D02*
Y193551D01*
X70848Y193183D01*
X70566Y192902D01*
X70199Y192750D01*
X69801D01*
X69433Y192902D01*
X69152Y193183D01*
X69000Y193551D01*
Y193750D01*
Y201250D01*
X71000D01*
Y193750D01*
D02*
G37*
G36*
X67000D02*
Y193551D01*
X66848Y193183D01*
X66566Y192902D01*
X66199Y192750D01*
X65801D01*
X65434Y192902D01*
X65152Y193183D01*
X65000Y193551D01*
Y193750D01*
Y201250D01*
X67000D01*
Y193750D01*
D02*
G37*
G36*
X63000D02*
Y193551D01*
X62848Y193183D01*
X62566Y192902D01*
X62199Y192750D01*
X61801D01*
X61434Y192902D01*
X61152Y193183D01*
X61000Y193551D01*
Y193750D01*
X61000D01*
Y201250D01*
X63000D01*
Y193750D01*
D02*
G37*
G36*
X59000D02*
Y193551D01*
X58848Y193183D01*
X58566Y192902D01*
X58199Y192750D01*
X57801D01*
X57434Y192902D01*
X57152Y193183D01*
X57000Y193551D01*
Y193750D01*
Y201250D01*
X59000D01*
Y193750D01*
D02*
G37*
G36*
X452271Y190503D02*
X453202Y190688D01*
X453736Y191046D01*
X454856Y190447D01*
Y142175D01*
X453632Y141740D01*
X452862Y142389D01*
Y146959D01*
Y156112D01*
X451049D01*
Y157864D01*
X450855Y158839D01*
X450302Y159666D01*
X449555Y160413D01*
X449583Y160455D01*
X449940Y162250D01*
X449583Y164045D01*
X448566Y165566D01*
X447045Y166583D01*
X445250Y166940D01*
X443455Y166583D01*
X441934Y165566D01*
X440917Y164045D01*
X440560Y162250D01*
X440917Y160455D01*
X441934Y158934D01*
X443455Y157917D01*
X444165Y157776D01*
X444375Y157382D01*
X444138Y156112D01*
X444138D01*
Y144297D01*
X442868Y144172D01*
X442744Y144795D01*
X441727Y146316D01*
X440205Y147333D01*
X438411Y147690D01*
X436616Y147333D01*
X435094Y146316D01*
X434192Y144966D01*
X431799D01*
Y150176D01*
X432919Y150774D01*
X433049Y150687D01*
X433980Y150502D01*
Y156000D01*
X435250D01*
Y157270D01*
X440748D01*
X440563Y158201D01*
X439316Y160066D01*
X437451Y161313D01*
X436659Y161470D01*
X436290Y162686D01*
X445052Y171448D01*
X445605Y172275D01*
X445799Y173250D01*
Y176000D01*
X448000D01*
Y184500D01*
X445799D01*
Y191523D01*
X447069Y191845D01*
X448801Y190688D01*
X449731Y190503D01*
Y196001D01*
X452271D01*
Y190503D01*
D02*
G37*
G36*
X245000Y199000D02*
X245073Y198823D01*
X242750Y196500D01*
X241750D01*
Y195500D01*
X239750Y193500D01*
X238500Y190250D01*
X233500D01*
X230500Y193250D01*
Y195000D01*
X228000Y197500D01*
Y200750D01*
X230951Y203701D01*
X240299D01*
X245000Y199000D01*
D02*
G37*
G36*
X222401Y200849D02*
Y199781D01*
X222372Y199636D01*
Y195965D01*
X222500Y195321D01*
Y194750D01*
X223651Y193599D01*
Y193401D01*
X220500Y190250D01*
X219250D01*
X214500Y193000D01*
Y199000D01*
X217500Y202000D01*
X221250D01*
X222401Y200849D01*
D02*
G37*
G36*
X182000Y210250D02*
Y209750D01*
X183750D01*
X184489Y209011D01*
Y208644D01*
X184856D01*
X187250Y206250D01*
X194750D01*
X197250Y203750D01*
X201500D01*
X205028Y201986D01*
X204736Y200750D01*
X203250D01*
X194500Y192000D01*
Y187000D01*
X191250D01*
X186250Y192000D01*
Y194250D01*
X181000D01*
X179000Y196250D01*
Y202000D01*
X177250Y203750D01*
Y210500D01*
X178250D01*
X180000Y212250D01*
X182000Y210250D01*
D02*
G37*
G36*
X440701Y200063D02*
Y184500D01*
X431549D01*
Y204500D01*
X431355Y205476D01*
X430802Y206302D01*
X422549Y214556D01*
Y216420D01*
X423819Y216946D01*
X440701Y200063D01*
D02*
G37*
G36*
X321609Y180760D02*
X322329Y179684D01*
X323850Y178667D01*
X325240Y178391D01*
X325787Y177142D01*
X319155Y170510D01*
X318250Y170690D01*
X316455Y170333D01*
X314934Y169316D01*
X313917Y167795D01*
X313560Y166000D01*
X313917Y164205D01*
X314934Y162684D01*
X316455Y161667D01*
X318250Y161310D01*
X320045Y161667D01*
X321566Y162684D01*
X321797Y163028D01*
X322841D01*
X323220Y162872D01*
X324654Y161914D01*
X326449Y161556D01*
X328244Y161914D01*
X329380Y162673D01*
X330878Y162718D01*
X332399Y161701D01*
X334194Y161344D01*
X335989Y161701D01*
X337042Y162404D01*
X338571Y162402D01*
X340093Y161385D01*
X341888Y161028D01*
X343682Y161385D01*
X345204Y162402D01*
X345344Y162612D01*
X347048Y162875D01*
X347722Y162425D01*
X349517Y162068D01*
X351312Y162425D01*
X351910Y162825D01*
X352917Y163330D01*
X353538Y162501D01*
X353984Y161834D01*
X355505Y160817D01*
X356477Y160624D01*
X356682Y159717D01*
X355802Y158624D01*
X355000D01*
X353852Y158148D01*
X353376Y157000D01*
Y105604D01*
X353586Y105098D01*
X353671Y104819D01*
X353068Y103549D01*
X322129D01*
X318742Y106936D01*
X319330Y108037D01*
Y111730D01*
X315077D01*
X314902Y111437D01*
X314716Y111329D01*
X313951Y112058D01*
X314139Y113000D01*
X313748Y114966D01*
X312634Y116634D01*
X310966Y117748D01*
X310270Y117886D01*
Y113000D01*
X309000D01*
Y111730D01*
X304041D01*
X303958Y111596D01*
X302569Y111286D01*
X301049Y112806D01*
Y160409D01*
X302169Y161008D01*
X302305Y160917D01*
X304100Y160560D01*
X305895Y160917D01*
X307416Y161934D01*
X308433Y163455D01*
X308790Y165250D01*
X308433Y167045D01*
X307416Y168566D01*
X305895Y169583D01*
X304100Y169940D01*
X302305Y169583D01*
X302069Y169425D01*
X301682Y169448D01*
X301484Y169512D01*
X300750Y170071D01*
Y179809D01*
X301947Y180820D01*
X302000Y180810D01*
X302633Y180936D01*
X304119Y179972D01*
X304190Y179614D01*
X305207Y178093D01*
X306729Y177076D01*
X308523Y176719D01*
X310318Y177076D01*
X311840Y178093D01*
X312192Y178619D01*
X316616D01*
X317591Y178813D01*
X318418Y179366D01*
X320139Y181087D01*
X321609Y180760D01*
D02*
G37*
G36*
X53451Y201250D02*
X53645Y200275D01*
X54198Y199448D01*
X55376Y198269D01*
Y193551D01*
X55500Y193253D01*
X55500Y192930D01*
X55652Y192562D01*
X55881Y192334D01*
X56004Y192036D01*
X56286Y191754D01*
X56584Y191631D01*
X56812Y191402D01*
X57180Y191250D01*
X57503Y191250D01*
X57801Y191126D01*
X58184D01*
X58344Y190955D01*
X58788Y190155D01*
X58833Y189985D01*
X58509Y189500D01*
X77491D01*
X77167Y189985D01*
X77212Y190155D01*
X77656Y190955D01*
X77816Y191126D01*
X78199D01*
X78497Y191250D01*
X78820Y191250D01*
X79188Y191402D01*
X79416Y191631D01*
X79714Y191754D01*
X79996Y192036D01*
X80119Y192334D01*
X80348Y192562D01*
X80500Y192930D01*
Y193253D01*
X80624Y193551D01*
Y198797D01*
X81069Y199464D01*
X81178Y200009D01*
X82439Y200543D01*
X87849Y195133D01*
X87849Y195133D01*
X89172Y194249D01*
X90733Y193938D01*
X91080D01*
X91805Y193454D01*
X93600Y193097D01*
X95395Y193454D01*
X96916Y194471D01*
X97125Y194783D01*
X98800Y195004D01*
X101262Y192901D01*
X104958Y190636D01*
X108963Y188977D01*
X112279Y188181D01*
X112250Y186958D01*
X110488Y186726D01*
X108846Y186046D01*
X107436Y184964D01*
X106354Y183554D01*
X105674Y181912D01*
X105442Y180150D01*
X105674Y178388D01*
X106354Y176746D01*
X107436Y175336D01*
X108451Y174557D01*
X108549Y174255D01*
Y173345D01*
X108451Y173043D01*
X107436Y172264D01*
X106354Y170854D01*
X105674Y169212D01*
X105442Y167450D01*
X105674Y165688D01*
X106354Y164046D01*
X107333Y162770D01*
X107213Y162218D01*
X106830Y161500D01*
X105500D01*
Y148000D01*
X108077D01*
X108756Y146730D01*
X108133Y145797D01*
X107948Y144867D01*
X118944D01*
X118759Y145797D01*
X118135Y146730D01*
X118292Y147023D01*
X119000Y148000D01*
Y148000D01*
X120065Y148569D01*
X120305Y148409D01*
X122100Y148052D01*
X123895Y148409D01*
X125416Y149425D01*
X126433Y150947D01*
X126790Y152742D01*
X126653Y153433D01*
X127733Y154513D01*
X128443Y154372D01*
X133000D01*
X134561Y154682D01*
X134670Y154755D01*
X135087Y154337D01*
X136080Y153674D01*
X136250Y153640D01*
X136250Y153500D01*
X137250Y153441D01*
X137250Y153441D01*
X137496Y153441D01*
X139500D01*
X139796Y153500D01*
X141517D01*
X142043Y152230D01*
X140365Y150552D01*
X139813Y149726D01*
X139619Y148750D01*
Y147006D01*
X138222Y146428D01*
X136864Y145386D01*
X135822Y144028D01*
X135167Y142447D01*
X134944Y140750D01*
X135167Y139053D01*
X135822Y137472D01*
X136864Y136114D01*
X136923Y136069D01*
X136492Y134799D01*
X123500D01*
X122799Y134660D01*
X122709Y134702D01*
X122074Y135252D01*
X121799Y135648D01*
X122063Y136973D01*
X121706Y138768D01*
X120689Y140290D01*
X119168Y141307D01*
X119040Y142327D01*
X107948D01*
X108133Y141396D01*
X109380Y139530D01*
X111245Y138284D01*
X111998Y138134D01*
X112704Y137078D01*
X112683Y136973D01*
X113040Y135179D01*
X114057Y133657D01*
X115578Y132640D01*
X117373Y132283D01*
X118321Y132472D01*
X118947Y131304D01*
X118947Y131302D01*
X118395Y130476D01*
X118201Y129500D01*
Y111587D01*
X117810Y111295D01*
X116874Y111645D01*
X116540Y111933D01*
Y114480D01*
X111500D01*
Y115750D01*
X110230D01*
Y120790D01*
X106460D01*
Y120498D01*
X105500Y119750D01*
X105190Y119750D01*
X101894D01*
X101500Y119828D01*
X101106Y119750D01*
X97500D01*
Y118299D01*
X93125D01*
X92149Y118105D01*
X91323Y117552D01*
X88445Y114675D01*
X87274Y115300D01*
X87315Y115505D01*
X86958Y117300D01*
X85941Y118822D01*
X84420Y119838D01*
X82625Y120196D01*
X80830Y119838D01*
X79309Y118822D01*
X78292Y117300D01*
X78206Y116867D01*
X76854Y116583D01*
X76261Y116980D01*
X75920Y117048D01*
X75275Y118368D01*
X75333Y118455D01*
X75690Y120250D01*
X75333Y122045D01*
X74316Y123566D01*
X73316Y124235D01*
Y124684D01*
X74333Y126205D01*
X74690Y128000D01*
X74895Y128250D01*
X77375D01*
Y133960D01*
X79668D01*
X79925Y132670D01*
X81172Y130804D01*
X83037Y129558D01*
X83968Y129373D01*
Y134870D01*
X85238D01*
Y136140D01*
X90736D01*
X90550Y137071D01*
X89304Y138937D01*
X87438Y140183D01*
X87290Y140213D01*
Y144040D01*
X86998D01*
X86250Y145000D01*
Y148276D01*
X87000Y149422D01*
X88561Y149732D01*
X89884Y150616D01*
X91384Y152116D01*
X92268Y153439D01*
X92578Y155000D01*
X92578Y155000D01*
Y174258D01*
X93848Y175078D01*
X94230Y175002D01*
Y180500D01*
Y185998D01*
X93299Y185813D01*
X91434Y184566D01*
X90187Y182701D01*
X90152Y182525D01*
X88937Y182156D01*
X87753Y183340D01*
X87583Y184195D01*
X86566Y185716D01*
X85045Y186733D01*
X83703Y187000D01*
X82797D01*
X81455Y186733D01*
X79934Y185716D01*
X79796Y185511D01*
X78600Y186007D01*
X78649Y186250D01*
X78499Y187000D01*
X77750D01*
Y167500D01*
X84500D01*
Y165000D01*
X58509D01*
X58833Y164515D01*
X58788Y164345D01*
X58344Y163545D01*
X58184Y163374D01*
X57801D01*
X57503Y163250D01*
X57180D01*
X56812Y163098D01*
X56771Y163056D01*
X55810Y162965D01*
X55080Y163300D01*
X54567Y164068D01*
X53172Y165000D01*
X51771D01*
Y160002D01*
X49231D01*
Y165499D01*
X48300Y165314D01*
X46435Y164068D01*
X45612Y162836D01*
X44415Y163331D01*
X44598Y164250D01*
X44210Y166201D01*
X44117Y166340D01*
X44716Y167460D01*
X51040D01*
Y170730D01*
X41750D01*
Y173270D01*
X51040D01*
Y176540D01*
X50000D01*
Y188000D01*
Y196890D01*
X50768Y198039D01*
X51078Y199600D01*
Y202750D01*
X53451D01*
Y201250D01*
D02*
G37*
G36*
X187598Y173647D02*
X188528Y173832D01*
X190394Y175078D01*
X191403Y176588D01*
X192838Y176949D01*
X193465Y176322D01*
X193965Y175573D01*
X198429Y171110D01*
X197803Y169940D01*
X197155Y170068D01*
X195250D01*
Y171000D01*
X186250D01*
Y163000D01*
X190905D01*
X191250Y162931D01*
X195676D01*
X196127Y162481D01*
X197284Y161708D01*
X198650Y161436D01*
X204654D01*
X205955Y160567D01*
X206005Y160557D01*
Y159010D01*
X206199Y158035D01*
X206751Y157208D01*
X211928Y152031D01*
X211623Y151158D01*
X211373Y150789D01*
X209803Y150583D01*
X208222Y149928D01*
X206864Y148886D01*
X205822Y147528D01*
X205520Y146799D01*
X203975D01*
X201524Y149250D01*
X201545Y149355D01*
X201188Y151149D01*
X200171Y152671D01*
X199780Y152932D01*
X199731Y153182D01*
X198957Y154340D01*
X195250Y158047D01*
Y161000D01*
X186250D01*
Y153000D01*
X190203D01*
X192444Y150759D01*
X192164Y149355D01*
X192521Y147560D01*
X193538Y146038D01*
X195060Y145021D01*
X195111Y145011D01*
X195337Y143671D01*
X194187Y141951D01*
X194002Y141020D01*
X199500D01*
Y138480D01*
X194002D01*
X194104Y137969D01*
X193344Y136699D01*
X191543D01*
X190568Y136505D01*
X189741Y135952D01*
X188588Y134799D01*
X146508D01*
X146077Y136069D01*
X146136Y136114D01*
X147178Y137472D01*
X147833Y139053D01*
X148056Y140750D01*
X147833Y142447D01*
X147178Y144028D01*
X146136Y145386D01*
X144778Y146428D01*
X144717Y146453D01*
Y147694D01*
X146802Y149780D01*
X147355Y150607D01*
X147549Y151582D01*
Y152500D01*
X150196D01*
X150875Y151230D01*
X150517Y150695D01*
X150160Y148900D01*
X150517Y147105D01*
X151534Y145584D01*
X153055Y144567D01*
X154850Y144210D01*
X156645Y144567D01*
X157508Y145143D01*
D01*
X158166Y145584D01*
X159183Y147105D01*
X159540Y148900D01*
X159183Y150695D01*
X158166Y152216D01*
X157965Y152351D01*
X157500Y152662D01*
Y159254D01*
X157549Y159500D01*
Y162226D01*
D01*
Y162549D01*
X157750Y162750D01*
Y163034D01*
X157874Y163333D01*
Y164824D01*
X158474Y165300D01*
X158886Y165558D01*
X159889Y164889D01*
X160750Y165750D01*
Y167500D01*
X161500Y168250D01*
X164750D01*
X165000Y168500D01*
X167750Y165750D01*
X182476D01*
X183601Y164625D01*
Y160798D01*
D01*
Y168357D01*
X182561D01*
Y173531D01*
X183681Y174130D01*
X184127Y173832D01*
X185058Y173647D01*
Y179144D01*
X187598D01*
Y173647D01*
D02*
G37*
G36*
X149234Y185766D02*
X148424Y184554D01*
X148067Y182759D01*
X148424Y180964D01*
X149441Y179443D01*
X150963Y178426D01*
X152758Y178069D01*
X153018Y178121D01*
X154000Y177315D01*
Y175750D01*
X154000D01*
X155954Y173797D01*
X155718Y172549D01*
X152750Y171250D01*
X148900D01*
Y173350D01*
X146650D01*
X145000Y175000D01*
Y186000D01*
X147000Y188000D01*
X149234Y185766D01*
D02*
G37*
G36*
X174750Y180250D02*
Y171750D01*
X173000D01*
X170500Y169250D01*
X168000D01*
X162000Y175250D01*
Y175750D01*
X162250Y176750D01*
X164000Y178500D01*
Y189250D01*
X165750D01*
X174750Y180250D01*
D02*
G37*
G36*
X156250Y166332D02*
Y163333D01*
X155925Y162549D01*
Y161675D01*
X151750Y157500D01*
X143500D01*
X142750Y158250D01*
Y159500D01*
X141500D01*
X139000Y162000D01*
Y164500D01*
X146750D01*
X147000Y164750D01*
X149680Y162070D01*
X150250Y161500D01*
X150250Y160750D01*
X155052Y166752D01*
X156250Y166332D01*
D02*
G37*
G36*
X246477Y176977D02*
X247634Y176203D01*
X249000Y175931D01*
X259250D01*
Y174000D01*
X259250D01*
X259167Y172764D01*
X259039Y172636D01*
X257750Y172806D01*
X256053Y172583D01*
X254472Y171928D01*
X253114Y170886D01*
X252072Y169528D01*
X251417Y167947D01*
X251194Y166250D01*
X251417Y164553D01*
X252072Y162972D01*
X253114Y161614D01*
X254472Y160572D01*
X256053Y159917D01*
X256242Y159893D01*
X256697Y158552D01*
X234844Y136699D01*
X232178D01*
X231925Y137969D01*
X232778Y138322D01*
X234136Y139364D01*
X235178Y140722D01*
X235833Y142303D01*
X236056Y144000D01*
X235833Y145697D01*
X235178Y147278D01*
X234136Y148636D01*
X233366Y149226D01*
X233683Y150584D01*
X234201Y150687D01*
X236066Y151934D01*
X237313Y153799D01*
X237498Y154730D01*
X226502D01*
X226687Y153799D01*
X227934Y151934D01*
X228054Y151853D01*
X227802Y150586D01*
X226829Y150276D01*
X225451Y151654D01*
X224624Y152206D01*
X224461Y152239D01*
X223870Y153641D01*
X224304Y154291D01*
X224489Y155222D01*
X218992D01*
Y156492D01*
X217722D01*
Y161989D01*
X216791Y161804D01*
X214925Y160558D01*
X213916Y159048D01*
X212481Y158687D01*
X211103Y160066D01*
Y161638D01*
X212083Y163105D01*
X212440Y164900D01*
X212083Y166695D01*
X211992Y166831D01*
X212591Y167951D01*
X221385D01*
X222361Y168145D01*
X223188Y168698D01*
X228002Y173512D01*
X228232Y173857D01*
X228900Y174850D01*
X233201D01*
Y171980D01*
X232472Y171678D01*
X231114Y170636D01*
X230072Y169278D01*
X229417Y167697D01*
X229194Y166000D01*
X229417Y164303D01*
X230072Y162722D01*
X230245Y162497D01*
X229942Y161690D01*
X229636Y161204D01*
X227934Y160066D01*
X226687Y158201D01*
X226502Y157270D01*
X237498D01*
X237313Y158201D01*
X237117Y158494D01*
X237771Y159801D01*
X239028Y160322D01*
X240386Y161364D01*
X241428Y162722D01*
X242083Y164303D01*
X242306Y166000D01*
X242083Y167697D01*
X241428Y169278D01*
X240386Y170636D01*
X239028Y171678D01*
X238299Y171980D01*
Y174850D01*
X241300D01*
Y180398D01*
X242570Y180883D01*
X246477Y176977D01*
D02*
G37*
G36*
X78566Y161598D02*
X78848Y161317D01*
X79000Y160949D01*
Y160750D01*
Y153250D01*
X77000D01*
Y160750D01*
Y160949D01*
X77152Y161317D01*
X77434Y161598D01*
X77801Y161750D01*
X78199D01*
X78566Y161598D01*
D02*
G37*
G36*
X74566D02*
X74848Y161317D01*
X75000Y160949D01*
Y160750D01*
X75000D01*
Y153250D01*
X73000D01*
Y160750D01*
Y160949D01*
X73152Y161317D01*
X73433Y161598D01*
X73801Y161750D01*
X74199D01*
X74566Y161598D01*
D02*
G37*
G36*
X70566D02*
X70848Y161317D01*
X71000Y160949D01*
Y160750D01*
Y153250D01*
X69000D01*
Y160750D01*
Y160949D01*
X69152Y161317D01*
X69433Y161598D01*
X69801Y161750D01*
X70199D01*
X70566Y161598D01*
D02*
G37*
G36*
X66566D02*
X66848Y161317D01*
X67000Y160949D01*
Y160750D01*
Y153250D01*
X65000D01*
Y160750D01*
Y160949D01*
X65152Y161317D01*
X65434Y161598D01*
X65801Y161750D01*
X66199D01*
X66566Y161598D01*
D02*
G37*
G36*
X62566D02*
X62848Y161317D01*
X63000Y160949D01*
Y160750D01*
Y153250D01*
X61000D01*
X61000Y160750D01*
Y160949D01*
X61152Y161317D01*
X61434Y161598D01*
X61801Y161750D01*
X62199D01*
X62566Y161598D01*
D02*
G37*
G36*
X58566D02*
X58848Y161317D01*
X59000Y160949D01*
Y160750D01*
Y153250D01*
X57000D01*
Y160750D01*
Y160949D01*
X57152Y161317D01*
X57434Y161598D01*
X57801Y161750D01*
X58199D01*
X58566Y161598D01*
D02*
G37*
G36*
X292250Y179256D02*
Y166750D01*
X295951D01*
Y148532D01*
X294681Y148146D01*
X294066Y149066D01*
X292545Y150083D01*
X290750Y150440D01*
X288955Y150083D01*
X287434Y149066D01*
X286417Y147545D01*
X286060Y145750D01*
X286417Y143955D01*
X287434Y142434D01*
X287951Y142088D01*
Y114000D01*
X288145Y113025D01*
X288698Y112198D01*
X299471Y101424D01*
X300298Y100872D01*
X301273Y100678D01*
X306234D01*
X306620Y99408D01*
X306184Y99116D01*
X305848Y98614D01*
X305833Y98597D01*
X305531Y98360D01*
X304192Y98286D01*
X303969Y98257D01*
X303761Y98341D01*
X301531Y98329D01*
X300963Y98090D01*
X300392Y97853D01*
X300390Y97849D01*
X300386Y97847D01*
X300153Y97276D01*
X299916Y96705D01*
Y95750D01*
X295178D01*
X294417Y97020D01*
X294690Y98392D01*
X294333Y100187D01*
X293316Y101709D01*
X291795Y102726D01*
X290000Y103083D01*
X288205Y102726D01*
X286684Y101709D01*
X285667Y100187D01*
X285310Y98392D01*
X285667Y96598D01*
X286684Y95076D01*
X288205Y94059D01*
X290000Y93702D01*
X290500Y93292D01*
Y83750D01*
X293821D01*
X294147Y83231D01*
X294367Y82480D01*
X293480Y81153D01*
X293123Y79358D01*
X293304Y78453D01*
X292419Y77569D01*
X291249Y78194D01*
X291290Y78401D01*
X290933Y80196D01*
X289916Y81717D01*
X288395Y82734D01*
X286600Y83091D01*
X284805Y82734D01*
X283284Y81717D01*
X282267Y80196D01*
X281910Y78401D01*
X282090Y77496D01*
X279842Y75248D01*
X278671Y75873D01*
X278695Y75992D01*
X278257Y78193D01*
X277011Y80058D01*
X275501Y81067D01*
X275140Y82502D01*
X276835Y84198D01*
X277388Y85024D01*
X277582Y86000D01*
Y90289D01*
X281302Y94010D01*
X281855Y94837D01*
X282049Y95812D01*
Y153388D01*
X289550Y160889D01*
X290102Y161716D01*
X290296Y162691D01*
Y179128D01*
X291081Y179764D01*
X292250Y179256D01*
D02*
G37*
G36*
X276951Y154444D02*
Y143841D01*
X275831Y143242D01*
X275695Y143333D01*
X273900Y143690D01*
X273250Y144224D01*
Y144500D01*
X263750D01*
X263750Y144500D01*
X263250D01*
Y144500D01*
X262480Y144500D01*
X253750D01*
Y143792D01*
X252630Y143193D01*
X252451Y143313D01*
X250793Y143642D01*
X250314Y144960D01*
X260376Y155021D01*
X276477D01*
X276951Y154444D01*
D02*
G37*
G36*
X423189Y142551D02*
Y130655D01*
Y125049D01*
X421500D01*
Y128500D01*
X410500D01*
Y128500D01*
X409790Y127540D01*
X405020D01*
Y121500D01*
X402480D01*
Y127540D01*
X397710D01*
Y127290D01*
X392520D01*
Y121250D01*
X389980D01*
Y127290D01*
X384460D01*
Y126250D01*
X373250D01*
Y116250D01*
X375451D01*
Y112344D01*
X374684Y111832D01*
X373667Y110310D01*
X373310Y108515D01*
X373667Y106720D01*
X374684Y105199D01*
X376205Y104182D01*
X378000Y103825D01*
X378905Y104005D01*
X383713Y99198D01*
X384540Y98645D01*
X385515Y98451D01*
X387750D01*
Y96540D01*
X385710D01*
Y96277D01*
X384440Y95892D01*
X383493Y97309D01*
X381627Y98556D01*
X380696Y98741D01*
Y93243D01*
X378157D01*
Y98741D01*
X377226Y98556D01*
X376569Y98117D01*
X375299Y98796D01*
Y99828D01*
X375105Y100804D01*
X374552Y101631D01*
X373381Y102802D01*
X372554Y103355D01*
X371578Y103549D01*
X367621D01*
X367433Y103778D01*
X366995Y105978D01*
X365909Y107604D01*
X366517Y108010D01*
X367534Y109532D01*
X367891Y111327D01*
X367649Y112544D01*
X370383Y115278D01*
X370935Y116105D01*
X371129Y117080D01*
Y134325D01*
X372077Y135272D01*
X373250Y134786D01*
Y128750D01*
X384750D01*
Y128750D01*
X385500D01*
Y128750D01*
X397000D01*
Y131201D01*
X398750D01*
Y130500D01*
X408750D01*
Y132951D01*
X412500D01*
X413475Y133145D01*
X414007Y133500D01*
X421500D01*
Y143333D01*
X421957Y143475D01*
X423189Y142551D01*
D02*
G37*
G36*
X244608Y137457D02*
X244937Y135799D01*
X246184Y133934D01*
X246460Y133749D01*
Y128770D01*
X258540D01*
Y131559D01*
X259810Y132085D01*
X262500Y129395D01*
Y122000D01*
X272500D01*
Y133000D01*
X266111D01*
X265376Y133891D01*
X265850Y135000D01*
X271607D01*
X272105Y134667D01*
X273900Y134310D01*
X275695Y134667D01*
X275831Y134758D01*
X276951Y134159D01*
Y96868D01*
X273231Y93147D01*
X272678Y92320D01*
X272484Y91345D01*
Y87056D01*
X271207Y85778D01*
X270178Y86472D01*
X270833Y88053D01*
X271056Y89750D01*
X270833Y91447D01*
X270178Y93028D01*
X269136Y94386D01*
X267778Y95428D01*
X266197Y96083D01*
X264500Y96306D01*
X262803Y96083D01*
X261222Y95428D01*
X259864Y94386D01*
X258822Y93028D01*
X258167Y91447D01*
X257944Y89750D01*
X258167Y88053D01*
X258469Y87324D01*
X250698Y79552D01*
X250145Y78725D01*
X249951Y77750D01*
Y73750D01*
X248680D01*
X248500Y73750D01*
X247714Y74064D01*
X247469Y75360D01*
X247665Y75654D01*
X248022Y77449D01*
X247665Y79244D01*
X247637Y79285D01*
X247799Y79448D01*
X248352Y80275D01*
X248546Y81250D01*
Y82958D01*
X250028Y83572D01*
X251386Y84614D01*
X252428Y85972D01*
X253083Y87553D01*
X253306Y89250D01*
X253083Y90947D01*
X252428Y92528D01*
X251386Y93886D01*
X250028Y94928D01*
X248447Y95583D01*
X246750Y95806D01*
X245053Y95583D01*
X243472Y94928D01*
X242114Y93886D01*
X241072Y92528D01*
X240417Y90947D01*
X240194Y89250D01*
X240417Y87553D01*
X241072Y85972D01*
X242114Y84614D01*
X243448Y83591D01*
Y82306D01*
X243268Y82126D01*
X241537Y81782D01*
X240016Y80765D01*
X238999Y79244D01*
X238642Y77449D01*
X238999Y75654D01*
X239254Y75273D01*
Y73750D01*
X238500D01*
Y71609D01*
X238422Y71214D01*
X238422Y71214D01*
Y69250D01*
X238500Y68856D01*
Y64750D01*
X246500D01*
Y68856D01*
X246578Y69250D01*
Y69705D01*
X247100Y70486D01*
X247230Y71139D01*
X248500Y71014D01*
Y69644D01*
X248422Y69250D01*
Y63825D01*
X248732Y62264D01*
X249616Y60941D01*
X249737Y60860D01*
X249967Y59705D01*
X250931Y58262D01*
Y45645D01*
X250197Y45395D01*
X249661Y45301D01*
X247913Y46643D01*
X245784Y47525D01*
X243500Y47825D01*
X241216Y47525D01*
X239087Y46643D01*
X237259Y45241D01*
X235857Y43413D01*
X235270Y41996D01*
X234000Y42249D01*
Y58000D01*
X232528D01*
X232041Y59173D01*
X232552Y59684D01*
X233105Y60511D01*
X233299Y61487D01*
Y80750D01*
X233299Y80750D01*
Y92026D01*
X236302Y95029D01*
X236855Y95856D01*
X237049Y96832D01*
Y104200D01*
X236855Y105175D01*
X236302Y106002D01*
X234853Y107452D01*
Y108738D01*
X235833Y110205D01*
X236190Y112000D01*
X235833Y113795D01*
X234816Y115316D01*
X233295Y116333D01*
X231500Y116690D01*
X229705Y116333D01*
X228184Y115316D01*
X227167Y113795D01*
X226810Y112000D01*
X226946Y111316D01*
X225749Y110821D01*
X225151Y111716D01*
X223630Y112733D01*
X222174Y113023D01*
X221593Y114238D01*
X227574Y120219D01*
X228303Y119917D01*
X230000Y119694D01*
X231697Y119917D01*
X233278Y120572D01*
X234636Y121614D01*
X235678Y122972D01*
X236333Y124553D01*
X236556Y126250D01*
X236333Y127947D01*
X235678Y129528D01*
X235062Y130331D01*
X235688Y131601D01*
X235900D01*
X236875Y131795D01*
X237702Y132348D01*
X243290Y137936D01*
X244608Y137457D01*
D02*
G37*
G36*
X207188Y130331D02*
X206572Y129528D01*
X205917Y127947D01*
X205694Y126250D01*
X205917Y124553D01*
X206572Y122972D01*
X207614Y121614D01*
X208972Y120572D01*
X209701Y120270D01*
Y118806D01*
X206444Y115549D01*
X189885D01*
X188910Y115355D01*
X188445Y115044D01*
X187636Y116031D01*
X191324Y119719D01*
X192053Y119417D01*
X193750Y119194D01*
X195447Y119417D01*
X197028Y120072D01*
X198386Y121114D01*
X199428Y122472D01*
X200083Y124053D01*
X200306Y125750D01*
X200083Y127447D01*
X199428Y129028D01*
X198428Y130331D01*
X198468Y130583D01*
X198888Y131601D01*
X206562D01*
X207188Y130331D01*
D02*
G37*
G36*
X359467Y156428D02*
X360290Y155878D01*
X360293Y154353D01*
X359574Y153873D01*
X358557Y152351D01*
X358200Y150556D01*
X358557Y148761D01*
X359282Y147676D01*
X359188Y146086D01*
X358934Y145916D01*
X357917Y144395D01*
X357560Y142600D01*
X357917Y140805D01*
X358934Y139284D01*
X360455Y138267D01*
X361006Y138157D01*
X361424Y136779D01*
X361178Y136533D01*
X361178Y136533D01*
X360965Y136320D01*
X360413Y135493D01*
X360219Y134518D01*
Y126969D01*
X359965Y126715D01*
X359413Y125888D01*
X359219Y124913D01*
Y122888D01*
X358083Y122129D01*
X357066Y120608D01*
X356709Y118813D01*
X357066Y117018D01*
X358083Y115497D01*
X359604Y114480D01*
X359670Y114322D01*
X358868Y113121D01*
X358511Y111327D01*
X358868Y109532D01*
X359261Y108943D01*
X357616Y107844D01*
X356369Y105978D01*
X356270Y105479D01*
X355000Y105604D01*
Y157000D01*
X359085D01*
X359467Y156428D01*
D02*
G37*
G36*
X357560Y96376D02*
X357620Y96336D01*
X357973Y95935D01*
X357625Y94750D01*
X352481D01*
Y95036D01*
X340519D01*
Y87464D01*
X352250D01*
Y84460D01*
X350506Y84113D01*
X348640Y82866D01*
X347393Y81001D01*
X347208Y80070D01*
X352706D01*
Y77530D01*
X347208D01*
X347253Y77306D01*
X346359Y76036D01*
X340519D01*
Y74752D01*
X339249Y74367D01*
X338796Y75046D01*
X337274Y76063D01*
X335480Y76420D01*
X335445Y76413D01*
X334899Y76960D01*
X328980D01*
Y78230D01*
X327710D01*
Y84557D01*
X327542Y84695D01*
Y86576D01*
X327404D01*
X326502Y87464D01*
Y93487D01*
X329012D01*
X329950Y92084D01*
X331471Y91067D01*
X333266Y90710D01*
X335061Y91067D01*
X336583Y92084D01*
X337599Y93605D01*
X337956Y95400D01*
X337852Y95926D01*
X338655Y96910D01*
X355000Y97000D01*
Y97140D01*
X356270Y97666D01*
X357560Y96376D01*
D02*
G37*
G36*
X187825Y128431D02*
X187417Y127447D01*
X187194Y125750D01*
X187417Y124053D01*
X187719Y123324D01*
X178107Y113712D01*
X177554Y112885D01*
X177360Y111909D01*
Y93341D01*
X177554Y92365D01*
X178107Y91538D01*
X191817Y77828D01*
X191656Y76193D01*
X190823Y75637D01*
X189577Y73771D01*
X189574Y73758D01*
X188518Y73053D01*
X187828Y73190D01*
X186033Y72833D01*
X184512Y71816D01*
X183495Y70295D01*
X183446Y70046D01*
X182861Y69580D01*
X182441Y69492D01*
X182047Y70249D01*
X182404Y72044D01*
X182047Y73839D01*
X181030Y75360D01*
X179508Y76377D01*
X177714Y76734D01*
X175919Y76377D01*
X174397Y75360D01*
X173380Y73839D01*
X173023Y72044D01*
X173212Y71094D01*
X172381Y69634D01*
X172249Y69608D01*
X170728Y68591D01*
X169711Y67069D01*
X169617Y66595D01*
X168154Y65750D01*
X167233Y65934D01*
X166142Y65717D01*
X165044Y66630D01*
X165021Y66690D01*
X164674Y68435D01*
X163657Y69957D01*
X162136Y70974D01*
X160341Y71331D01*
X158546Y70974D01*
X157025Y69957D01*
X156008Y68435D01*
X155716Y66970D01*
X155580Y66764D01*
X154916Y66604D01*
X153831Y67625D01*
X153474Y69420D01*
X152457Y70941D01*
X150936Y71958D01*
X149141Y72315D01*
X147346Y71958D01*
X145825Y70941D01*
X144808Y69420D01*
X144451Y67625D01*
X143365Y66573D01*
X141961Y66294D01*
X141081Y65706D01*
X139434Y65884D01*
X139230Y66191D01*
X137708Y67207D01*
X135913Y67564D01*
X134119Y67207D01*
X132597Y66191D01*
X131580Y64669D01*
X131325Y63385D01*
X130435Y62592D01*
X129428Y62697D01*
X128778Y63887D01*
X129143Y64432D01*
X129500Y66227D01*
X129143Y68021D01*
X128201Y69431D01*
X128330Y69970D01*
X128679Y70701D01*
X131436D01*
X132412Y70895D01*
X133239Y71448D01*
X134499Y72708D01*
X135803Y72167D01*
X137500Y71944D01*
X139197Y72167D01*
X140778Y72822D01*
X142136Y73864D01*
X143178Y75222D01*
X143833Y76803D01*
X143899Y77307D01*
X145240Y77762D01*
X145448Y77554D01*
X146275Y77002D01*
X147250Y76808D01*
X148917D01*
X148917Y76803D01*
X149572Y75222D01*
X150614Y73864D01*
X151972Y72822D01*
X153553Y72167D01*
X155250Y71944D01*
X156947Y72167D01*
X158528Y72822D01*
X159886Y73864D01*
X160928Y75222D01*
X161583Y76803D01*
X161806Y78500D01*
X161583Y80197D01*
X160928Y81778D01*
X159886Y83136D01*
X158528Y84178D01*
X156947Y84833D01*
X155250Y85056D01*
X153553Y84833D01*
X151972Y84178D01*
X150614Y83136D01*
X149670Y81906D01*
X148306D01*
X142635Y87577D01*
X143444Y88563D01*
X144284Y88002D01*
X144980Y87864D01*
Y92750D01*
X147520D01*
Y87864D01*
X148216Y88002D01*
X149884Y89116D01*
X150998Y90784D01*
X151103Y91311D01*
X152397D01*
X152502Y90784D01*
X153616Y89116D01*
X155283Y88002D01*
X155980Y87864D01*
Y92750D01*
X158520D01*
Y87864D01*
X159216Y88002D01*
X160884Y89116D01*
X161998Y90784D01*
X162103Y91311D01*
X163397D01*
X163502Y90784D01*
X164616Y89116D01*
X166283Y88002D01*
X166980Y87864D01*
Y92750D01*
X168250D01*
Y94020D01*
X173136D01*
X172998Y94717D01*
X171884Y96384D01*
X170217Y97498D01*
X169689Y97603D01*
Y98897D01*
X170217Y99002D01*
X171884Y100116D01*
X172998Y101784D01*
X173136Y102480D01*
X168250D01*
Y105020D01*
X173136D01*
X172998Y105716D01*
X171884Y107384D01*
X170217Y108497D01*
X169689Y108603D01*
Y109897D01*
X170217Y110002D01*
X171884Y111116D01*
X172998Y112783D01*
X173136Y113480D01*
X168250D01*
Y116020D01*
X173136D01*
X172998Y116716D01*
X171884Y118384D01*
X170217Y119498D01*
X169689Y119603D01*
Y120897D01*
X170217Y121002D01*
X171884Y122116D01*
X172998Y123784D01*
X173136Y124480D01*
X168250D01*
Y127020D01*
X173136D01*
X172998Y127717D01*
X172520Y128431D01*
X173199Y129701D01*
X187086D01*
X187825Y128431D01*
D02*
G37*
G36*
X128520Y99460D02*
X132599D01*
X133284Y99002D01*
X133811Y98897D01*
Y97603D01*
X133284Y97498D01*
X131616Y96384D01*
X130502Y94717D01*
X130364Y94020D01*
X135250D01*
Y91480D01*
X130364D01*
X130495Y90819D01*
X130531Y90591D01*
X129813Y89549D01*
X128500D01*
X127525Y89355D01*
X126698Y88802D01*
X125283Y87388D01*
X124731Y86561D01*
X124537Y85586D01*
Y85239D01*
X123390Y84095D01*
X122477Y84099D01*
X119663Y86913D01*
X118671Y87576D01*
X117500Y87809D01*
X117500Y87809D01*
X114178D01*
X113793Y89079D01*
X114695Y89682D01*
X115712Y91203D01*
X116069Y92998D01*
X115889Y93903D01*
X121446Y99460D01*
X125980D01*
Y105500D01*
X128520D01*
Y99460D01*
D02*
G37*
G36*
X304500Y95452D02*
Y83750D01*
X313500D01*
Y83020D01*
X320521D01*
Y80480D01*
X313500D01*
Y77763D01*
X312318Y76712D01*
X311441Y76886D01*
X309646Y76529D01*
X308124Y75512D01*
X307107Y73991D01*
X306750Y72196D01*
X307107Y70401D01*
X308124Y68880D01*
X309451Y67993D01*
Y62000D01*
X296739D01*
X296369Y62444D01*
X295931Y63212D01*
X296249Y64812D01*
X295892Y66607D01*
X294875Y68129D01*
X293354Y69145D01*
X292883Y69239D01*
X292515Y70454D01*
X296908Y74848D01*
X297813Y74668D01*
X299608Y75025D01*
X301130Y76041D01*
X302147Y77563D01*
X302504Y79358D01*
X302147Y81153D01*
X301865Y81574D01*
X301540Y82710D01*
X301540Y82710D01*
X301540D01*
X301540Y82710D01*
Y88480D01*
X295500D01*
Y91020D01*
X301540D01*
Y96705D01*
X303770Y96718D01*
X304500Y95452D01*
D02*
G37*
G36*
X454856Y109676D02*
Y57555D01*
X453736Y56957D01*
X453202Y57314D01*
X452271Y57499D01*
Y52001D01*
Y46503D01*
X453202Y46688D01*
X453736Y47045D01*
X454856Y46447D01*
Y4144D01*
X432381D01*
X432231Y5414D01*
X433537Y5727D01*
X437542Y7386D01*
X441238Y9651D01*
X444534Y12466D01*
X447349Y15762D01*
X449614Y19458D01*
X451273Y23463D01*
X452285Y27678D01*
X452525Y30730D01*
X397475D01*
X397715Y27678D01*
X398727Y23463D01*
X400386Y19458D01*
X400866Y18675D01*
X400271Y17823D01*
Y12001D01*
Y6503D01*
X401202Y6688D01*
X403067Y7935D01*
X404314Y9800D01*
X404650Y11492D01*
X405887Y12044D01*
X405957Y12047D01*
X408762Y9651D01*
X412458Y7386D01*
X416463Y5727D01*
X417769Y5414D01*
X417618Y4144D01*
X380000D01*
Y52000D01*
X373060Y58940D01*
X373586Y60210D01*
X377480D01*
Y66250D01*
X380020D01*
Y60210D01*
X383900D01*
X384103Y60076D01*
X384848Y58964D01*
X384772Y58581D01*
X390270D01*
Y57311D01*
X391540D01*
Y51813D01*
X392471Y51998D01*
X394336Y53245D01*
X395583Y55110D01*
X396020Y57311D01*
X396298Y57649D01*
X402290D01*
Y58689D01*
X414061D01*
Y70500D01*
X417533D01*
X417852Y69362D01*
X417852D01*
Y59638D01*
X417852D01*
X417487Y58519D01*
X416463Y58273D01*
X412458Y56614D01*
X408762Y54349D01*
X405466Y51534D01*
X402651Y48238D01*
X400386Y44542D01*
X398727Y40537D01*
X397715Y36321D01*
X397475Y33270D01*
X452525D01*
X452285Y36321D01*
X451273Y40537D01*
X449614Y44542D01*
X449133Y45327D01*
X449731Y46186D01*
Y52001D01*
Y57499D01*
X448801Y57314D01*
X446935Y56067D01*
X445688Y54202D01*
X445351Y52506D01*
X444120Y51955D01*
X444045Y51952D01*
X441238Y54349D01*
X437542Y56614D01*
X433537Y58273D01*
X433143Y58368D01*
X433293Y59638D01*
X437577D01*
Y69362D01*
X437577D01*
X437896Y70500D01*
X440000D01*
Y71825D01*
X440234Y71895D01*
X441270Y72126D01*
X443049Y70937D01*
X443980Y70752D01*
Y76250D01*
X445250D01*
Y77520D01*
X450748D01*
X450563Y78451D01*
X449316Y80316D01*
X447451Y81563D01*
X446747Y81703D01*
Y82998D01*
X447701Y83187D01*
X449566Y84434D01*
X450813Y86299D01*
X450998Y87230D01*
X445500D01*
Y89770D01*
X450998D01*
X450813Y90701D01*
X449566Y92566D01*
X447701Y93813D01*
X445500Y94250D01*
X445256Y94202D01*
X444631Y95372D01*
X451552Y102294D01*
X452105Y103121D01*
X452299Y104097D01*
Y110638D01*
X453587D01*
X454856Y109676D01*
D02*
G37*
G36*
X428045Y103177D02*
X427886Y102939D01*
X427651Y101755D01*
Y100770D01*
X434250D01*
Y98230D01*
X427651D01*
Y97245D01*
X427886Y96061D01*
X428557Y95057D01*
X428809Y94888D01*
X429272Y93776D01*
X429053Y93314D01*
X428866Y93033D01*
X428711Y92255D01*
Y87745D01*
X428866Y86967D01*
X429307Y86307D01*
X429967Y85866D01*
X430745Y85711D01*
X431701D01*
Y83500D01*
X429000D01*
Y70500D01*
X429000D01*
X428680Y69362D01*
X425478D01*
Y72571D01*
X425284Y73547D01*
X425000Y73971D01*
Y83500D01*
X422049D01*
Y101469D01*
X423001Y102250D01*
X425202Y102688D01*
X427067Y103935D01*
X428045Y103177D01*
D02*
G37*
G36*
X67662Y94323D02*
X68489Y93770D01*
X69000Y93668D01*
Y92125D01*
X70744D01*
X70895Y91364D01*
X71448Y90537D01*
X76747Y85238D01*
X76352Y83837D01*
X72963Y83023D01*
X68958Y81364D01*
X65262Y79099D01*
X61966Y76284D01*
X59151Y72988D01*
X57295Y69959D01*
X56025Y70317D01*
Y78046D01*
X56225Y78211D01*
Y84505D01*
Y90800D01*
X56025Y90964D01*
Y104164D01*
X57295Y104690D01*
X67662Y94323D01*
D02*
G37*
G36*
X113770Y54598D02*
X117381D01*
Y55638D01*
X124384D01*
X124384Y55638D01*
X125595Y55495D01*
X126313Y54421D01*
X127835Y53404D01*
X129629Y53047D01*
X131424Y53404D01*
X131649Y53554D01*
X132261Y53145D01*
X132951Y53008D01*
Y49500D01*
X133000Y49254D01*
Y42249D01*
X131730Y41996D01*
X131143Y43413D01*
X129741Y45241D01*
X127913Y46643D01*
X125784Y47525D01*
X123500Y47825D01*
X121216Y47525D01*
X119087Y46643D01*
X117259Y45241D01*
X115857Y43413D01*
X114975Y41284D01*
X114675Y39000D01*
X114975Y36716D01*
X115857Y34587D01*
X117259Y32759D01*
X119087Y31357D01*
X121216Y30475D01*
X123500Y30175D01*
X125784Y30475D01*
X127913Y31357D01*
X129741Y32759D01*
X131143Y34587D01*
X132025Y36716D01*
X132325Y39000D01*
X132324Y39010D01*
X133475Y40000D01*
X159271D01*
X159757Y38827D01*
X152680Y31749D01*
X143579D01*
X143066Y32516D01*
X141545Y33533D01*
X139750Y33890D01*
X137955Y33533D01*
X136434Y32516D01*
X135417Y30995D01*
X135060Y29200D01*
X135417Y27405D01*
X135508Y27269D01*
X134909Y26149D01*
X119469D01*
X118494Y25955D01*
X117667Y25402D01*
X112713Y20449D01*
X111042D01*
X110927Y20564D01*
X110583Y22295D01*
X109566Y23816D01*
X108045Y24833D01*
X106250Y25190D01*
X104455Y24833D01*
X103310Y24068D01*
X102040Y24591D01*
Y27540D01*
X97270D01*
Y21000D01*
Y14460D01*
X102040D01*
Y16409D01*
X103310Y16932D01*
X104455Y16167D01*
X106250Y15810D01*
X108045Y16167D01*
X108087Y16195D01*
X108184Y16098D01*
X109011Y15545D01*
X109987Y15351D01*
X113769D01*
X114745Y15545D01*
X115572Y16098D01*
X120525Y21051D01*
X122909D01*
X123508Y19931D01*
X123417Y19795D01*
X123060Y18000D01*
X123417Y16205D01*
X124434Y14684D01*
X125955Y13667D01*
X127750Y13310D01*
X129545Y13667D01*
X131066Y14684D01*
X131730Y15677D01*
X133000Y15292D01*
Y4144D01*
X117089D01*
X116362Y5185D01*
X116400Y5414D01*
X116578Y6310D01*
X105582D01*
X105761Y5414D01*
X105798Y5185D01*
X105071Y4144D01*
X96272D01*
X95424Y5414D01*
X95833Y6401D01*
X95942Y7230D01*
X88000D01*
Y8500D01*
X86730D01*
Y16669D01*
X86000Y17309D01*
Y26500D01*
X76000D01*
Y24049D01*
X71250D01*
Y26250D01*
X62637D01*
X61958Y27520D01*
X62583Y28455D01*
X62940Y30250D01*
X62583Y32045D01*
X61566Y33566D01*
X60045Y34583D01*
X58250Y34940D01*
X57295Y34750D01*
X56025Y35707D01*
Y43183D01*
X57295Y43541D01*
X59151Y40512D01*
X61966Y37216D01*
X65262Y34401D01*
X68958Y32136D01*
X72963Y30477D01*
X77179Y29465D01*
X80230Y29225D01*
Y56750D01*
X82770D01*
Y29225D01*
X85822Y29465D01*
X90037Y30477D01*
X94042Y32136D01*
X97738Y34401D01*
X101034Y37216D01*
X103029Y39552D01*
X104287Y39477D01*
X105808Y38461D01*
X107603Y38104D01*
X109398Y38461D01*
X110920Y39477D01*
X111936Y40999D01*
X112293Y42794D01*
X111936Y44589D01*
X110920Y46110D01*
X109398Y47127D01*
X108751Y47256D01*
X108427Y47573D01*
X107895Y48721D01*
X108785Y52428D01*
X108956Y54598D01*
X111230D01*
Y59500D01*
X113770D01*
Y54598D01*
D02*
G37*
G36*
X177270Y38960D02*
X178764D01*
X179413Y38170D01*
X190898D01*
X190786Y38730D01*
X191523Y40000D01*
X196960D01*
Y38960D01*
X199659D01*
X200183Y37690D01*
X199188Y36202D01*
X199003Y35271D01*
X209999D01*
X209814Y36202D01*
X208568Y38068D01*
X207576Y38730D01*
X207961Y40000D01*
X233525D01*
X234676Y39010D01*
X234674Y39000D01*
X234975Y36716D01*
X235857Y34587D01*
X237259Y32759D01*
X239087Y31357D01*
X241216Y30475D01*
X243500Y30175D01*
X245784Y30475D01*
X247913Y31357D01*
X249661Y32699D01*
X250197Y32604D01*
X250931Y32355D01*
Y25352D01*
X249661Y24673D01*
X248702Y25314D01*
X247771Y25499D01*
Y20001D01*
X245231D01*
Y25499D01*
X244301Y25314D01*
X242435Y24067D01*
X241189Y22202D01*
X240934Y20921D01*
X239522Y20336D01*
X238895Y20756D01*
X237448Y21043D01*
X237355Y21511D01*
X236802Y22338D01*
X235338Y23802D01*
X234511Y24355D01*
X233535Y24549D01*
X228465D01*
X227489Y24355D01*
X226662Y23802D01*
X225329Y22469D01*
X224980Y22478D01*
X223977Y22913D01*
X223826Y23670D01*
X223163Y24663D01*
X219525Y28301D01*
X218533Y28964D01*
X217768Y29116D01*
X217066Y30166D01*
X215545Y31183D01*
X213750Y31540D01*
X211955Y31183D01*
X210434Y30166D01*
X209417Y28645D01*
X209060Y26850D01*
X209417Y25055D01*
X210434Y23534D01*
X210768Y23310D01*
X210383Y22040D01*
X207270D01*
Y12000D01*
X204730D01*
Y22040D01*
X202270D01*
Y12000D01*
X199730D01*
Y22040D01*
X197270D01*
Y12000D01*
X194730D01*
Y22040D01*
X192270D01*
Y12000D01*
X189730D01*
Y22040D01*
X187270D01*
Y12000D01*
X184730D01*
Y22040D01*
X184059D01*
Y23493D01*
X184059Y23493D01*
X183826Y24663D01*
X183273Y25491D01*
X183011Y26811D01*
X182127Y28134D01*
X180803Y29018D01*
X179243Y29328D01*
X176000D01*
X174439Y29018D01*
X173781Y28578D01*
X168095D01*
X167031Y28790D01*
X165236Y28433D01*
X163714Y27416D01*
X162698Y25895D01*
X162341Y24100D01*
X162698Y22305D01*
X162821Y22120D01*
X162223Y21000D01*
X155936D01*
X155410Y22270D01*
X172100Y38960D01*
X174730D01*
Y49000D01*
X177270D01*
Y38960D01*
D02*
G37*
G36*
X358439Y77534D02*
Y68284D01*
X361580D01*
X361819Y67080D01*
X362836Y65559D01*
X364357Y64542D01*
X366152Y64185D01*
X367947Y64542D01*
X369469Y65559D01*
X370065Y66451D01*
X373750D01*
Y62789D01*
X372965Y61710D01*
X372736Y61482D01*
X372438Y61358D01*
X372314Y61060D01*
X372086Y60831D01*
X371560Y59561D01*
Y59238D01*
X371436Y58940D01*
X371560Y58642D01*
Y58319D01*
X371788Y58090D01*
X371912Y57792D01*
X378376Y51328D01*
Y33500D01*
X363000D01*
Y20500D01*
X363477D01*
X364143Y19230D01*
X364002Y18520D01*
X374998D01*
X374857Y19230D01*
X375523Y20500D01*
X378376D01*
Y4144D01*
X241633Y4144D01*
X241270Y5053D01*
X241194Y5414D01*
X242168Y6870D01*
X242525Y8665D01*
X242168Y10460D01*
X241151Y11982D01*
X240998Y12084D01*
X240829Y13724D01*
X241433Y14628D01*
X241532Y15127D01*
X241592Y15180D01*
X242923Y15609D01*
X244301Y14689D01*
X244576Y14634D01*
X244503Y14271D01*
X250001D01*
Y13001D01*
X251271D01*
Y7503D01*
X252202Y7689D01*
X254067Y8935D01*
X255314Y10801D01*
X255752Y13001D01*
X255695Y13288D01*
X256865Y13914D01*
X261665Y9114D01*
X262822Y8341D01*
X264188Y8069D01*
X273337D01*
X274703Y8341D01*
X275861Y9114D01*
X278204Y11457D01*
X278978Y12615D01*
X278999Y12725D01*
X279862Y13638D01*
X281056Y13454D01*
X281077Y13434D01*
X281103Y13301D01*
X281877Y12143D01*
X285743Y8277D01*
X286901Y7503D01*
X288266Y7231D01*
X294300D01*
X295666Y7503D01*
X296823Y8277D01*
X299468Y10921D01*
X300871Y10528D01*
X301935Y8935D01*
X303801Y7689D01*
X304731Y7503D01*
Y13001D01*
X306001D01*
Y14271D01*
X311499D01*
X311314Y15202D01*
X310068Y17068D01*
X308475Y18132D01*
X308081Y19534D01*
X311228Y22681D01*
X323000D01*
X324366Y22953D01*
X325523Y23727D01*
X336228Y34431D01*
X342500D01*
X343866Y34703D01*
X345023Y35477D01*
X349523Y39977D01*
X350297Y41134D01*
X350569Y42500D01*
X350297Y43866D01*
X349719Y44730D01*
X350000Y46000D01*
X350000D01*
Y61000D01*
X346040D01*
Y62040D01*
X343839D01*
X343190Y62830D01*
X337497D01*
Y65370D01*
X342995D01*
X342810Y66301D01*
X342213Y67194D01*
X342892Y68464D01*
X352481D01*
Y73925D01*
X352706Y74110D01*
X354501Y74467D01*
X356023Y75484D01*
X357039Y77005D01*
X357169Y77659D01*
X358439Y77534D01*
D02*
G37*
%LPC*%
G36*
X31520Y232998D02*
Y228770D01*
X35748D01*
X35563Y229701D01*
X34316Y231566D01*
X32451Y232813D01*
X31520Y232998D01*
D02*
G37*
G36*
X35748Y226230D02*
X31520D01*
Y222002D01*
X32451Y222187D01*
X34316Y223434D01*
X35563Y225299D01*
X35748Y226230D01*
D02*
G37*
G36*
X240499Y226731D02*
X236271D01*
Y222503D01*
X237201Y222688D01*
X239067Y223935D01*
X240314Y225801D01*
X240499Y226731D01*
D02*
G37*
G36*
X242790Y220290D02*
X238020D01*
Y215520D01*
X242790D01*
Y220290D01*
D02*
G37*
G36*
X204499Y234731D02*
X200271D01*
Y230503D01*
X201201Y230688D01*
X203067Y231935D01*
X204314Y233801D01*
X204499Y234731D01*
D02*
G37*
G36*
X197731D02*
X193503D01*
X193688Y233801D01*
X194935Y231935D01*
X196800Y230688D01*
X197731Y230503D01*
Y234731D01*
D02*
G37*
G36*
X195980Y227540D02*
X192210D01*
Y227500D01*
X195980D01*
Y227540D01*
D02*
G37*
G36*
X389413Y218630D02*
X385185D01*
Y214402D01*
X386116Y214587D01*
X387981Y215834D01*
X389228Y217699D01*
X389413Y218630D01*
D02*
G37*
G36*
X382645D02*
X378417D01*
X378602Y217699D01*
X379849Y215834D01*
X381714Y214587D01*
X382645Y214402D01*
Y218630D01*
D02*
G37*
G36*
X393337Y212348D02*
X392406Y212163D01*
X390541Y210916D01*
X389294Y209051D01*
X389109Y208120D01*
X393337D01*
Y212348D01*
D02*
G37*
G36*
X440748Y154730D02*
X436520D01*
Y150502D01*
X437451Y150687D01*
X439316Y151934D01*
X440563Y153799D01*
X440748Y154730D01*
D02*
G37*
G36*
X310270Y152686D02*
Y149070D01*
X313886D01*
X313748Y149767D01*
X312634Y151434D01*
X310966Y152548D01*
X310270Y152686D01*
D02*
G37*
G36*
X307730Y152686D02*
X307034Y152548D01*
X305366Y151434D01*
X304252Y149767D01*
X304114Y149070D01*
X307730D01*
Y152686D01*
D02*
G37*
G36*
X345070Y152686D02*
Y149070D01*
X348686D01*
X348548Y149767D01*
X347434Y151434D01*
X345766Y152548D01*
X345070Y152686D01*
D02*
G37*
G36*
X342530Y152686D02*
X341833Y152548D01*
X340166Y151434D01*
X339052Y149767D01*
X338914Y149070D01*
X342530D01*
Y152686D01*
D02*
G37*
G36*
X333470D02*
Y149070D01*
X337086D01*
X336948Y149767D01*
X335834Y151434D01*
X334166Y152548D01*
X333470Y152686D01*
D02*
G37*
G36*
X321870D02*
Y149070D01*
X325486D01*
X325348Y149767D01*
X324234Y151434D01*
X322566Y152548D01*
X321870Y152686D01*
D02*
G37*
G36*
X330930D02*
X330233Y152548D01*
X328566Y151434D01*
X327452Y149767D01*
X327314Y149070D01*
X330930D01*
Y152686D01*
D02*
G37*
G36*
X319330D02*
X318633Y152548D01*
X316966Y151434D01*
X315853Y149767D01*
X315714Y149070D01*
X319330D01*
Y152686D01*
D02*
G37*
G36*
X307730Y146530D02*
X304114D01*
X304252Y145834D01*
X305366Y144166D01*
X307034Y143052D01*
X307730Y142914D01*
Y146530D01*
D02*
G37*
G36*
X342530Y146530D02*
X338914D01*
X339052Y145834D01*
X340166Y144166D01*
X341833Y143052D01*
X342530Y142914D01*
Y146530D01*
D02*
G37*
G36*
X337086Y146530D02*
X333470D01*
Y142914D01*
X334166Y143052D01*
X335834Y144166D01*
X336948Y145834D01*
X337086Y146530D01*
D02*
G37*
G36*
X325486D02*
X321870D01*
Y142914D01*
X322566Y143052D01*
X324234Y144166D01*
X325348Y145834D01*
X325486Y146530D01*
D02*
G37*
G36*
X330930D02*
X327314D01*
X327452Y145834D01*
X328566Y144166D01*
X330233Y143052D01*
X330930Y142914D01*
Y146530D01*
D02*
G37*
G36*
X319330D02*
X315714D01*
X315853Y145834D01*
X316966Y144166D01*
X318633Y143052D01*
X319330Y142914D01*
Y146530D01*
D02*
G37*
G36*
X348686Y146530D02*
X345070D01*
Y142914D01*
X345766Y143052D01*
X347434Y144166D01*
X348548Y145834D01*
X348686Y146530D01*
D02*
G37*
G36*
X313886Y146530D02*
X310270D01*
Y142914D01*
X310966Y143052D01*
X312634Y144166D01*
X313748Y145834D01*
X313886Y146530D01*
D02*
G37*
G36*
X310270Y129486D02*
Y125870D01*
X313886D01*
X313748Y126566D01*
X312634Y128234D01*
X310966Y129348D01*
X310270Y129486D01*
D02*
G37*
G36*
X307730Y129486D02*
X307034Y129348D01*
X305366Y128234D01*
X304252Y126566D01*
X304114Y125870D01*
X307730D01*
Y129486D01*
D02*
G37*
G36*
X345070D02*
Y125870D01*
X348686D01*
X348548Y126566D01*
X347434Y128234D01*
X345766Y129348D01*
X345070Y129486D01*
D02*
G37*
G36*
X342530D02*
X341833Y129348D01*
X340166Y128234D01*
X339052Y126566D01*
X338914Y125870D01*
X342530D01*
Y129486D01*
D02*
G37*
G36*
X333470D02*
Y125870D01*
X337086D01*
X336948Y126566D01*
X335834Y128234D01*
X334166Y129348D01*
X333470Y129486D01*
D02*
G37*
G36*
X321870D02*
Y125870D01*
X325486D01*
X325348Y126566D01*
X324234Y128234D01*
X322566Y129348D01*
X321870Y129486D01*
D02*
G37*
G36*
X330930Y129486D02*
X330233Y129348D01*
X328566Y128234D01*
X327452Y126566D01*
X327314Y125870D01*
X330930D01*
Y129486D01*
D02*
G37*
G36*
X319330D02*
X318633Y129348D01*
X316966Y128234D01*
X315853Y126566D01*
X315714Y125870D01*
X319330D01*
Y129486D01*
D02*
G37*
G36*
X307730Y123330D02*
X304114D01*
X304252Y122633D01*
X305366Y120966D01*
X307034Y119852D01*
X307730Y119714D01*
Y123330D01*
D02*
G37*
G36*
X337086Y123330D02*
X333470D01*
Y119714D01*
X334166Y119852D01*
X335834Y120966D01*
X336948Y122633D01*
X337086Y123330D01*
D02*
G37*
G36*
X325486D02*
X321870D01*
Y119714D01*
X322566Y119852D01*
X324234Y120966D01*
X325348Y122633D01*
X325486Y123330D01*
D02*
G37*
G36*
X348686Y123330D02*
X345070D01*
Y119714D01*
X345766Y119852D01*
X347434Y120966D01*
X348548Y122633D01*
X348686Y123330D01*
D02*
G37*
G36*
X342530D02*
X338914D01*
X339052Y122633D01*
X340166Y120966D01*
X341833Y119852D01*
X342530Y119714D01*
Y123330D01*
D02*
G37*
G36*
X330930Y123330D02*
X327314D01*
X327452Y122633D01*
X328566Y120966D01*
X330233Y119852D01*
X330930Y119714D01*
Y123330D01*
D02*
G37*
G36*
X319330D02*
X315714D01*
X315853Y122633D01*
X316966Y120966D01*
X318633Y119852D01*
X319330Y119714D01*
Y123330D01*
D02*
G37*
G36*
X313886Y123330D02*
X310270D01*
Y119714D01*
X310966Y119852D01*
X312634Y120966D01*
X313748Y122633D01*
X313886Y123330D01*
D02*
G37*
G36*
X307730Y117886D02*
X307034Y117748D01*
X305366Y116634D01*
X304252Y114966D01*
X304114Y114270D01*
X307730D01*
Y117886D01*
D02*
G37*
G36*
X345070D02*
Y114270D01*
X348686D01*
X348548Y114966D01*
X347434Y116634D01*
X345766Y117748D01*
X345070Y117886D01*
D02*
G37*
G36*
X342530Y117886D02*
X341833Y117748D01*
X340166Y116634D01*
X339052Y114966D01*
X338914Y114270D01*
X342530D01*
Y117886D01*
D02*
G37*
G36*
X333470Y117886D02*
Y114270D01*
X337086D01*
X336948Y114966D01*
X335834Y116634D01*
X334166Y117748D01*
X333470Y117886D01*
D02*
G37*
G36*
X321870D02*
Y114270D01*
X325486D01*
X325348Y114966D01*
X324234Y116634D01*
X322566Y117748D01*
X321870Y117886D01*
D02*
G37*
G36*
X330930Y117886D02*
X330233Y117748D01*
X328566Y116634D01*
X327452Y114966D01*
X327314Y114270D01*
X330930D01*
Y117886D01*
D02*
G37*
G36*
X319330D02*
X318633Y117748D01*
X316966Y116634D01*
X315853Y114966D01*
X315714Y114270D01*
X319330D01*
Y117886D01*
D02*
G37*
G36*
X337086Y111730D02*
X333470D01*
Y108114D01*
X334166Y108252D01*
X335834Y109366D01*
X336948Y111033D01*
X337086Y111730D01*
D02*
G37*
G36*
X325486D02*
X321870D01*
Y108114D01*
X322566Y108252D01*
X324234Y109366D01*
X325348Y111033D01*
X325486Y111730D01*
D02*
G37*
G36*
X348686Y111730D02*
X345070D01*
Y108114D01*
X345766Y108252D01*
X347434Y109366D01*
X348548Y111033D01*
X348686Y111730D01*
D02*
G37*
G36*
X342530D02*
X338914D01*
X339052Y111033D01*
X340166Y109366D01*
X341833Y108252D01*
X342530Y108114D01*
Y111730D01*
D02*
G37*
G36*
X330930Y111730D02*
X327314D01*
X327452Y111033D01*
X328566Y109366D01*
X330233Y108252D01*
X330930Y108114D01*
Y111730D01*
D02*
G37*
G36*
X58250Y184980D02*
X57604D01*
X57781Y184088D01*
X58250Y183387D01*
Y184980D01*
D02*
G37*
G36*
X96770Y185998D02*
Y181770D01*
X100998D01*
X100813Y182701D01*
X99566Y184566D01*
X97701Y185813D01*
X96770Y185998D01*
D02*
G37*
G36*
X58250Y183130D02*
X58116Y182956D01*
X56976Y180204D01*
X56755Y178520D01*
X58250D01*
Y183130D01*
D02*
G37*
G36*
X100998Y179230D02*
X96770D01*
Y175002D01*
X97701Y175187D01*
X99566Y176434D01*
X100813Y178299D01*
X100998Y179230D01*
D02*
G37*
G36*
X58250Y175980D02*
X56755D01*
X56976Y174296D01*
X58116Y171544D01*
X58250Y171370D01*
Y175980D01*
D02*
G37*
G36*
Y171113D02*
X57781Y170412D01*
X57604Y169520D01*
X58250D01*
Y171113D01*
D02*
G37*
G36*
X90736Y133600D02*
X86508D01*
Y129373D01*
X87438Y129558D01*
X89304Y130804D01*
X90550Y132670D01*
X90736Y133600D01*
D02*
G37*
G36*
X116540Y120790D02*
X112770D01*
Y117020D01*
X116540D01*
Y120790D01*
D02*
G37*
G36*
X183601Y158258D02*
D01*
Y150699D01*
D01*
Y158258D01*
D02*
G37*
G36*
X220262Y161989D02*
Y157762D01*
X224489D01*
X224304Y158692D01*
X223058Y160558D01*
X221192Y161804D01*
X220262Y161989D01*
D02*
G37*
G36*
X258540Y126230D02*
X253770D01*
Y120960D01*
X258540D01*
Y126230D01*
D02*
G37*
G36*
X251230D02*
X246460D01*
Y120960D01*
X251230D01*
Y126230D01*
D02*
G37*
G36*
X244271Y60499D02*
Y56271D01*
X248499D01*
X248314Y57202D01*
X247068Y59068D01*
X245202Y60314D01*
X244271Y60499D01*
D02*
G37*
G36*
X241731D02*
X240801Y60314D01*
X238935Y59068D01*
X237689Y57202D01*
X237503Y56271D01*
X241731D01*
Y60499D01*
D02*
G37*
G36*
X248499Y53731D02*
X244271D01*
Y49503D01*
X245202Y49689D01*
X247068Y50935D01*
X248314Y52801D01*
X248499Y53731D01*
D02*
G37*
G36*
X241731D02*
X237503D01*
X237689Y52801D01*
X238935Y50935D01*
X240801Y49689D01*
X241731Y49503D01*
Y53731D01*
D02*
G37*
G36*
X330250Y83727D02*
Y79500D01*
X334477D01*
X334292Y80430D01*
X333046Y82296D01*
X331180Y83542D01*
X330250Y83727D01*
D02*
G37*
G36*
X173136Y91480D02*
X169520D01*
Y87864D01*
X170217Y88002D01*
X171884Y89116D01*
X172998Y90784D01*
X173136Y91480D01*
D02*
G37*
G36*
X450748Y74980D02*
X446520D01*
Y70752D01*
X447451Y70937D01*
X449316Y72184D01*
X450563Y74049D01*
X450748Y74980D01*
D02*
G37*
G36*
X389000Y56041D02*
X384772D01*
X384957Y55110D01*
X386204Y53245D01*
X388069Y51998D01*
X389000Y51813D01*
Y56041D01*
D02*
G37*
G36*
X386250Y35440D02*
X384455Y35083D01*
X382934Y34066D01*
X381917Y32545D01*
X381560Y30750D01*
X381917Y28955D01*
X382934Y27434D01*
X384455Y26417D01*
X386250Y26060D01*
X388045Y26417D01*
X389566Y27434D01*
X390583Y28955D01*
X390940Y30750D01*
X390583Y32545D01*
X389566Y34066D01*
X388045Y35083D01*
X386250Y35440D01*
D02*
G37*
G36*
X397731Y17499D02*
X396800Y17314D01*
X394935Y16067D01*
X393688Y14202D01*
X393503Y13271D01*
X397731D01*
Y17499D01*
D02*
G37*
G36*
Y10731D02*
X393503D01*
X393688Y9800D01*
X394935Y7935D01*
X396800Y6688D01*
X397731Y6503D01*
Y10731D01*
D02*
G37*
G36*
X58765Y90003D02*
Y85775D01*
X62993D01*
X62808Y86706D01*
X61561Y88571D01*
X59696Y89818D01*
X58765Y90003D01*
D02*
G37*
G36*
X62993Y83235D02*
X58765D01*
Y79007D01*
X59696Y79192D01*
X61561Y80439D01*
X62808Y82304D01*
X62993Y83235D01*
D02*
G37*
G36*
X108000Y36390D02*
X106205Y36033D01*
X104684Y35016D01*
X103667Y33495D01*
X103310Y31700D01*
X103667Y29905D01*
X104684Y28384D01*
X106205Y27367D01*
X108000Y27010D01*
X109795Y27367D01*
X111316Y28384D01*
X112333Y29905D01*
X112690Y31700D01*
X112333Y33495D01*
X111316Y35016D01*
X109795Y36033D01*
X108000Y36390D01*
D02*
G37*
G36*
X94730Y27540D02*
X89960D01*
Y22270D01*
X94730D01*
Y27540D01*
D02*
G37*
G36*
Y19730D02*
X89960D01*
Y17314D01*
X89270Y16709D01*
Y9770D01*
X95942D01*
X95833Y10599D01*
X95023Y12555D01*
X94535Y13190D01*
X94730Y13585D01*
Y19730D01*
D02*
G37*
G36*
X112350Y13078D02*
Y8850D01*
X116578D01*
X116393Y9781D01*
X115146Y11647D01*
X113281Y12893D01*
X112350Y13078D01*
D02*
G37*
G36*
X109810D02*
X108880Y12893D01*
X107014Y11647D01*
X105767Y9781D01*
X105582Y8850D01*
X109810D01*
Y13078D01*
D02*
G37*
G36*
X190898Y35630D02*
X186670D01*
Y31402D01*
X187601Y31587D01*
X189466Y32834D01*
X190713Y34699D01*
X190898Y35630D01*
D02*
G37*
G36*
X184130D02*
X179902D01*
X180087Y34699D01*
X181334Y32834D01*
X183199Y31587D01*
X184130Y31402D01*
Y35630D01*
D02*
G37*
G36*
X209999Y32731D02*
X205771D01*
Y28503D01*
X206702Y28688D01*
X208568Y29935D01*
X209814Y31801D01*
X209999Y32731D01*
D02*
G37*
G36*
X203231D02*
X199003D01*
X199188Y31801D01*
X200435Y29935D01*
X202301Y28688D01*
X203231Y28503D01*
Y32731D01*
D02*
G37*
G36*
X359771Y53499D02*
Y49271D01*
X363999D01*
X363814Y50202D01*
X362568Y52067D01*
X360702Y53314D01*
X359771Y53499D01*
D02*
G37*
G36*
X357231D02*
X356301Y53314D01*
X354435Y52067D01*
X353189Y50202D01*
X353004Y49271D01*
X357231D01*
Y53499D01*
D02*
G37*
G36*
X363999Y46731D02*
X359771D01*
Y42503D01*
X360702Y42689D01*
X362568Y43935D01*
X363814Y45801D01*
X363999Y46731D01*
D02*
G37*
G36*
X357231D02*
X353004D01*
X353189Y45801D01*
X354435Y43935D01*
X356301Y42689D01*
X357231Y42503D01*
Y46731D01*
D02*
G37*
G36*
X352270Y22248D02*
Y18020D01*
X356498D01*
X356313Y18951D01*
X355066Y20816D01*
X353201Y22063D01*
X352270Y22248D01*
D02*
G37*
G36*
X349730D02*
X348799Y22063D01*
X346934Y20816D01*
X345687Y18951D01*
X345552Y18271D01*
X344141Y17687D01*
X343202Y18314D01*
X342271Y18499D01*
Y13001D01*
Y7503D01*
X343202Y7689D01*
X345068Y8935D01*
X346314Y10801D01*
X346449Y11480D01*
X347860Y12065D01*
X348799Y11437D01*
X349730Y11252D01*
Y16750D01*
Y22248D01*
D02*
G37*
G36*
X339731Y18499D02*
X338801Y18314D01*
X336935Y17068D01*
X335689Y15202D01*
X335504Y14271D01*
X339731D01*
Y18499D01*
D02*
G37*
G36*
X374998Y15980D02*
X370770D01*
Y11752D01*
X371701Y11937D01*
X373566Y13184D01*
X374813Y15049D01*
X374998Y15980D01*
D02*
G37*
G36*
X368230D02*
X364002D01*
X364187Y15049D01*
X365434Y13184D01*
X367299Y11937D01*
X368230Y11752D01*
Y15980D01*
D02*
G37*
G36*
X356498Y15480D02*
X352270D01*
Y11252D01*
X353201Y11437D01*
X355066Y12684D01*
X356313Y14549D01*
X356498Y15480D01*
D02*
G37*
G36*
X339731Y11731D02*
X335504D01*
X335689Y10801D01*
X336935Y8935D01*
X338801Y7689D01*
X339731Y7503D01*
Y11731D01*
D02*
G37*
G36*
X311499D02*
X307271D01*
Y7503D01*
X308202Y7689D01*
X310068Y8935D01*
X311314Y10801D01*
X311499Y11731D01*
D02*
G37*
G36*
X248731D02*
X244503D01*
X244689Y10801D01*
X245935Y8935D01*
X247801Y7689D01*
X248731Y7503D01*
Y11731D01*
D02*
G37*
%LPD*%
D12*
X358104Y165954D02*
X360424D01*
X357300Y165150D02*
X358104Y165954D01*
X360424D02*
X360572Y166102D01*
X377809D01*
X120543Y59500D02*
X126730D01*
X128493Y57737D02*
X129629D01*
X126730Y59500D02*
X128493Y57737D01*
X298250Y168328D02*
Y169500D01*
X298500Y111750D02*
X302250Y108000D01*
X296500Y171250D02*
X298250Y169500D01*
Y168328D02*
X298500Y168078D01*
Y111750D02*
Y168078D01*
X277677Y157570D02*
X284247Y164141D01*
X287747Y162691D02*
Y180283D01*
X284247Y164141D02*
Y181733D01*
X279500Y154444D02*
X287747Y162691D01*
X259321Y157570D02*
X277677D01*
X429000Y170200D02*
Y204500D01*
X420000Y213500D02*
Y232000D01*
Y213500D02*
X429000Y204500D01*
X425100Y219269D02*
X443250Y201119D01*
Y180250D02*
Y201119D01*
X56500Y21500D02*
X58250Y23250D01*
Y30250D01*
X249250Y189564D02*
Y195114D01*
X248750Y195614D02*
X249250Y195114D01*
X251542Y186292D02*
Y187272D01*
X249250Y189564D02*
X251542Y187272D01*
X248750Y195614D02*
Y201535D01*
X257500Y166500D02*
X257750D01*
X263250Y178500D02*
X263500Y178250D01*
X257750Y166500D02*
X263500Y172250D01*
Y178250D01*
X290500Y145500D02*
X290750Y145750D01*
X290500Y114000D02*
Y145500D01*
Y114000D02*
X301273Y103227D01*
X309993D01*
X315720Y97500D01*
X321342D01*
X322806Y96036D01*
X332630D02*
X333266Y95400D01*
X322806Y96036D02*
X332630D01*
X302250Y108000D02*
X314073D01*
X321073Y101000D01*
X279500Y95812D02*
Y154444D01*
X284247Y181733D02*
X306507Y203993D01*
X235900Y134150D02*
X259321Y157570D01*
X269250Y139000D02*
X273900D01*
X287747Y180283D02*
X311033Y203568D01*
X275033Y91345D02*
X279500Y95812D01*
X275033Y86000D02*
Y91345D01*
X82500Y95125D02*
X83471Y94154D01*
X85651D02*
X86455Y93350D01*
X83471Y94154D02*
X85651D01*
X111379Y92998D02*
X120750Y102369D01*
Y129500D01*
X97871Y81662D02*
X98676Y80857D01*
X97486Y81662D02*
X97871D01*
X82500Y95125D02*
Y95250D01*
X81340Y84250D02*
X90809D01*
X97486Y81662D01*
X66500Y21500D02*
X80500D01*
X81000Y21000D01*
X101150Y15180D02*
Y15350D01*
X107946Y8384D02*
X110277D01*
X96000Y20500D02*
Y21000D01*
Y20500D02*
X101150Y15350D01*
Y15180D02*
X107946Y8384D01*
X110277D02*
X111080Y7580D01*
X109987Y17900D02*
X113769D01*
X106250Y20500D02*
X107387D01*
X109987Y17900D01*
X139750Y29200D02*
X153736D01*
X165500Y40964D01*
X113769Y17900D02*
X119469Y23600D01*
X153136D01*
X170500Y40964D01*
X95000Y98750D02*
X95176Y98574D01*
X99324D02*
X99500Y98750D01*
X92500Y99829D02*
X93579Y98750D01*
X88171Y99829D02*
X92500D01*
X95176Y98574D02*
X99324D01*
X93579Y98750D02*
X95000D01*
X93821Y98398D02*
X94852D01*
X91047Y95625D02*
X93821Y98398D01*
X87625Y100375D02*
X88171Y99829D01*
X87875Y95625D02*
X91047D01*
X87625Y95375D02*
X87875Y95625D01*
X173250Y158050D02*
X175750Y160550D01*
X166500Y157000D02*
X167550Y158050D01*
X81000Y57000D02*
X87388Y63388D01*
X135913Y61884D02*
Y62874D01*
Y61884D02*
X140500Y57297D01*
X327315Y214750D02*
X352750D01*
X316133Y203568D02*
X327315Y214750D01*
X335985Y206500D02*
X367021D01*
X369639Y203882D01*
X320100Y202585D02*
X326015Y208500D01*
X327899D01*
X333985D01*
X335985Y206500D01*
X369639Y195361D02*
X370000Y195000D01*
X369639Y195361D02*
Y203882D01*
X306507Y203993D02*
Y204901D01*
X307500Y205894D02*
Y212001D01*
X306507Y204901D02*
X307500Y205894D01*
X311033Y203568D02*
X316133D01*
X339035Y181500D02*
X344500Y186964D01*
X349000Y186465D02*
Y186750D01*
X338500Y181500D02*
X339035D01*
X349000Y186750D02*
X349500Y187250D01*
X337177Y176975D02*
X339225D01*
X340536Y178000D02*
X349000Y186465D01*
X326449Y166247D02*
X337177Y176975D01*
X349500Y187250D02*
Y194500D01*
X340250Y178000D02*
X340536D01*
X332725Y180475D02*
X337475D01*
X328637Y185000D02*
X337536D01*
X326637Y183000D02*
X328637Y185000D01*
X339225Y176975D02*
X340250Y178000D01*
X318250Y166000D02*
X332725Y180475D01*
X337536Y185000D02*
X339500Y186964D01*
X325645Y183000D02*
X326637D01*
X337475Y180475D02*
X338500Y181500D01*
X327464Y205000D02*
X329349D01*
X323600Y201136D02*
X327464Y205000D01*
X323600Y195648D02*
Y201136D01*
X329349Y205000D02*
X332536D01*
X318000Y199105D02*
X320100Y201205D01*
Y202585D01*
X318000Y197968D02*
Y199105D01*
X189643Y132250D02*
X191543Y134150D01*
X235900D01*
X123500Y132250D02*
X189643D01*
X146250Y125750D02*
X157250D01*
X146250Y103750D02*
X157250D01*
X168250D02*
Y114750D01*
X135250D02*
X146250D01*
X135250Y125750D02*
X146250D01*
X168250Y92750D02*
Y103750D01*
X135250D02*
X146250D01*
Y114750D02*
X157250D01*
X168250D02*
Y125750D01*
X146250Y114750D02*
Y125750D01*
X157250D02*
X168250D01*
X120750Y129500D02*
X123500Y132250D01*
X142168Y148750D02*
X145000Y151582D01*
X142168Y141418D02*
Y148750D01*
X141500Y140750D02*
X142168Y141418D01*
X145000Y151582D02*
Y156500D01*
X204501Y26749D02*
X207191Y24059D01*
X204501Y26749D02*
Y34001D01*
X260296Y55823D02*
X261100Y55019D01*
X259900Y59680D02*
Y65900D01*
Y59680D02*
X260296Y59284D01*
X265500Y62000D02*
X275000Y52500D01*
X259900Y65900D02*
X266063Y72063D01*
X275000Y52500D02*
X278800D01*
X260296Y55823D02*
Y59284D01*
X266063Y77030D02*
X275033Y86000D01*
X266063Y72063D02*
Y77030D01*
X228465Y22000D02*
X233535D01*
X235000Y20536D01*
X231500Y8665D02*
X237835D01*
X235000Y19659D02*
Y20536D01*
X231000Y9165D02*
X231500Y8665D01*
X237100Y16422D02*
Y17559D01*
X235000Y19659D02*
X237100Y17559D01*
X231000Y9165D02*
Y12000D01*
X226500Y20036D02*
X228465Y22000D01*
X226500Y12500D02*
Y20036D01*
X226000Y12000D02*
X226500Y12500D01*
X139607Y87000D02*
X147250Y79357D01*
X154393D01*
X128500Y87000D02*
X139607D01*
X131436Y73250D02*
X136686Y78500D01*
X123000Y79250D02*
X127086Y83336D01*
Y85586D01*
X128500Y87000D01*
X160656Y49344D02*
Y66325D01*
X160341Y66641D02*
X160656Y66325D01*
Y49344D02*
X161000Y49000D01*
X154956Y61136D02*
X155500Y60592D01*
X143756Y60824D02*
X145500Y59080D01*
X149356Y58816D02*
Y67410D01*
X143756Y60824D02*
Y61961D01*
X145500Y49500D02*
Y59080D01*
X149356Y58816D02*
X150500Y57672D01*
X149141Y67625D02*
X149356Y67410D01*
X155500Y49500D02*
Y60592D01*
Y49500D02*
X156000Y49000D01*
X150500Y49500D02*
Y57672D01*
X140500Y49500D02*
Y57297D01*
X87388Y63388D02*
X109987D01*
X111159Y60841D02*
Y62216D01*
X109987Y63388D02*
X111159Y62216D01*
Y60841D02*
X112500Y59500D01*
X133237Y55500D02*
X135500D01*
Y49500D02*
Y55500D01*
X129750Y57850D02*
X130886D01*
X133237Y55500D01*
X135500Y49500D02*
X136000Y49000D01*
X166500Y60511D02*
X167233Y61244D01*
X173240Y59357D02*
Y64471D01*
X171500Y57617D02*
X173240Y59357D01*
X166500Y49500D02*
Y60511D01*
X165500Y48500D02*
X166500Y49500D01*
X173240Y64471D02*
X174044Y65275D01*
X171500Y49500D02*
Y57617D01*
X177714Y70907D02*
Y72044D01*
X179209Y67538D02*
X181000Y65747D01*
Y49000D02*
Y65747D01*
X179209Y67538D02*
Y69412D01*
X177714Y70907D02*
X179209Y69412D01*
X332536Y205000D02*
X334500Y203036D01*
X314720Y186768D02*
X323600Y195648D01*
X314296Y186768D02*
X314720D01*
X319971Y184523D02*
Y185245D01*
X323326Y188600D02*
X329500D01*
X319971Y185245D02*
X323326Y188600D01*
X308764Y181168D02*
X316616D01*
X308523Y181409D02*
X308764Y181168D01*
X316616D02*
X319971Y184523D01*
X361000Y186465D02*
X361293Y186172D01*
X358250Y177750D02*
X361293Y180793D01*
Y186172D01*
X360000Y189000D02*
X361000Y188000D01*
Y186465D02*
Y188000D01*
X360000Y189000D02*
Y195000D01*
X349500Y194500D02*
X350000Y195000D01*
X344500Y186964D02*
Y194500D01*
X345000Y195000D01*
X339500Y186964D02*
Y194500D01*
X349089Y174250D02*
X362871D01*
X360571Y170750D02*
X361200Y170121D01*
X347250Y177750D02*
X358250D01*
X354152Y170750D02*
X360571D01*
X362871Y174250D02*
X364793Y176172D01*
X350160Y166758D02*
X354152Y170750D01*
X343917Y169078D02*
X349089Y174250D01*
X342250Y172750D02*
X347250Y177750D01*
X349517Y166758D02*
X350160D01*
X364793Y176172D02*
Y194793D01*
X330000Y189100D02*
Y195000D01*
X329500Y188600D02*
X330000Y189100D01*
X334194Y166034D02*
Y166256D01*
X340688Y172750D01*
X342250D01*
X341888Y165718D02*
Y166855D01*
X343917Y168884D02*
Y169078D01*
X341888Y166855D02*
X343917Y168884D01*
X377809Y166102D02*
X379500Y167793D01*
X361200Y170121D02*
X373828D01*
X375000Y171293D02*
Y195000D01*
X373828Y170121D02*
X375000Y171293D01*
X379500Y167793D02*
Y194500D01*
X380000Y195000D01*
X296500Y180000D02*
X302000Y185500D01*
X296500Y179750D02*
Y180000D01*
X356540Y101000D02*
X359363Y98178D01*
X364002D02*
X366824Y101000D01*
X321073D02*
X356540D01*
X359363Y98178D02*
X364002D01*
X372750Y92000D02*
Y99828D01*
X366824Y101000D02*
X371578D01*
X372750Y99828D01*
X176500Y40964D02*
X179761Y37704D01*
X184596D01*
X185400Y36900D01*
X150500Y49500D02*
X151000Y49000D01*
X170500Y48500D02*
X171500Y49500D01*
X170500Y40964D02*
Y48500D01*
X84434Y135674D02*
Y136816D01*
Y135674D02*
X85238Y134870D01*
X82250Y139000D02*
X84434Y136816D01*
X188892Y184500D02*
X195768Y177624D01*
X202643Y170500D02*
X221385D01*
X187720Y184744D02*
X187964Y184500D01*
X188892D01*
X195768Y177376D02*
Y177624D01*
Y177376D02*
X202643Y170500D01*
X186005Y184744D02*
X187720D01*
X181750Y189000D02*
X186005Y184744D01*
X211500Y199609D02*
Y210528D01*
X207391Y195500D02*
X211500Y199609D01*
X201750Y190750D02*
X206500Y195500D01*
X191300Y200389D02*
X192011Y201100D01*
X201300Y190750D02*
X201750D01*
X192011Y201100D02*
X205072D01*
X206500Y195500D02*
X207391D01*
X113446Y142460D02*
Y143597D01*
X111773Y140787D02*
X113446Y142460D01*
X111773Y131796D02*
X115828Y127741D01*
Y120078D02*
Y127741D01*
X111773Y131796D02*
Y140787D01*
X425100Y219269D02*
Y231900D01*
X443250Y173250D02*
Y180250D01*
X425000Y232000D02*
X425100Y231900D01*
X334500Y200000D02*
Y203036D01*
Y200000D02*
X335000Y199500D01*
X362768Y125913D02*
Y134518D01*
X363201Y111327D02*
Y111701D01*
X361768Y119181D02*
Y124913D01*
X362768Y125913D01*
X363201Y111701D02*
X368580Y117080D01*
X361399Y118813D02*
X361768Y119181D01*
X379426Y93243D02*
X380230Y92439D01*
X378250Y86500D02*
X394286D01*
X365325Y87425D02*
X366150Y86600D01*
X362250Y86000D02*
X364500Y88250D01*
X380230Y92439D02*
X389810D01*
X366150Y86600D02*
X370230D01*
X372750Y92000D02*
X378250Y86500D01*
X389810Y92439D02*
X390750Y91500D01*
X405250Y164000D02*
X410750Y169500D01*
X418114Y172500D02*
X419250D01*
X415113Y169500D02*
X418114Y172500D01*
X410750Y169500D02*
X415113D01*
X399500Y156250D02*
Y170978D01*
X376040Y147750D02*
X399384Y171094D01*
X409790Y181500D01*
X408170Y185000D02*
X417536D01*
X374420Y151250D02*
X408170Y185000D01*
X368003Y147750D02*
X376040D01*
X363584Y151250D02*
X374420D01*
X417536Y185000D02*
X419500Y186964D01*
X409790Y181500D02*
X422750D01*
X419500Y186964D02*
Y194500D01*
X420000Y195000D01*
X157250Y114750D02*
Y125750D01*
Y103750D02*
Y114750D01*
Y92750D02*
Y103750D01*
X146250D02*
Y114750D01*
Y92750D02*
Y103750D01*
X135250Y114750D02*
Y125750D01*
Y103750D02*
Y114750D01*
Y92750D02*
Y103750D01*
X157250Y114750D02*
X168250D01*
X157250Y103750D02*
X168250D01*
X157250Y92750D02*
X168250D01*
X146250D02*
X157250D01*
X135250D02*
X146250D01*
X56500Y171500D02*
Y182500D01*
X56750Y182750D01*
X58000Y168000D02*
Y186250D01*
X57500Y186750D02*
X58000Y186250D01*
X425000Y183750D02*
Y195000D01*
X422750Y181500D02*
X425000Y183750D01*
X393831Y64750D02*
X394095D01*
X390270Y61189D02*
X393831Y64750D01*
X390270Y57311D02*
Y61189D01*
X364500Y88250D02*
X365325Y87425D01*
X347000Y42500D02*
Y53500D01*
X282491Y17500D02*
X284862Y15129D01*
X282057Y17500D02*
X282491D01*
X263250Y25750D02*
X264400Y24600D01*
X264054Y21446D02*
Y23835D01*
X264400D02*
Y24600D01*
X264054Y28054D02*
X269500Y33500D01*
X101187Y108687D02*
X101250Y108750D01*
X53000Y140125D02*
Y146250D01*
Y140000D02*
Y140125D01*
X72500Y95375D02*
X73250Y94625D01*
X72375Y95375D02*
X72500D01*
X73250Y92339D02*
X81340Y84250D01*
X73250Y92339D02*
Y94625D01*
X176500Y40964D02*
Y48500D01*
X176000Y49000D02*
X176500Y48500D01*
X165500Y40964D02*
Y48500D01*
X334586Y195414D02*
X335000Y195000D01*
X212672Y211700D02*
X218600D01*
X211500Y210528D02*
X212672Y211700D01*
X218600D02*
X219150Y212250D01*
X204450Y207250D02*
X205000Y207800D01*
X158357Y179189D02*
Y189072D01*
X147250Y197000D02*
Y207850D01*
X157557Y178389D02*
X158357Y179189D01*
X155000Y192429D02*
X158357Y189072D01*
X174050Y176250D02*
X175500Y174800D01*
X174500Y180000D02*
X175500Y179000D01*
Y174800D02*
Y179000D01*
X157557Y176307D02*
Y178389D01*
X155000Y192429D02*
Y218165D01*
X274375Y167125D02*
X275500Y166000D01*
X274375Y167125D02*
Y177375D01*
X273250Y178500D02*
X274375Y177375D01*
X160000Y203875D02*
X160375D01*
X168000Y196250D02*
X168750D01*
X160375Y203875D02*
X168000Y196250D01*
X196434Y149775D02*
X197394D01*
X202920Y144250D02*
X211500D01*
X197394Y149775D02*
X202920Y144250D01*
X207645Y165005D02*
X207750Y164900D01*
X223649Y149851D02*
X229500Y144000D01*
X217712Y149851D02*
X223649D01*
X208554Y159010D02*
X217712Y149851D01*
X208554Y159010D02*
Y164096D01*
X252500Y77750D02*
X264500Y89750D01*
X252500Y69250D02*
Y77750D01*
X245997Y88497D02*
X246750Y89250D01*
X245997Y81250D02*
Y88497D01*
X243332Y78585D02*
X245997Y81250D01*
X243332Y77449D02*
Y78585D01*
X154393Y79357D02*
X155250Y78500D01*
X136686D02*
X137500D01*
X118000Y73250D02*
X131436D01*
X113000Y78250D02*
X118000Y73250D01*
X155000Y218165D02*
X160300Y223465D01*
Y224470D01*
X162430Y226600D01*
X163435D02*
X165250Y228414D01*
X162430Y226600D02*
X163435D01*
X166250Y157750D02*
X166500Y157500D01*
X166250Y157750D02*
Y163500D01*
X161500Y168250D02*
X166250Y163500D01*
X81750Y114630D02*
X82625Y115505D01*
X81750Y111250D02*
Y114630D01*
X75286Y114625D02*
X76750Y113160D01*
Y111250D02*
Y113160D01*
Y111250D02*
X77500Y110500D01*
X72950Y114625D02*
X75286D01*
X71804Y115771D02*
X72950Y114625D01*
X71804Y115771D02*
Y119446D01*
X71000Y120250D02*
X71804Y119446D01*
X63250Y119375D02*
X72250Y110375D01*
X63250Y119375D02*
Y132250D01*
X58375Y107214D02*
Y134500D01*
X394286Y86500D02*
X395750Y87964D01*
X62750Y215000D02*
X63750D01*
X68400Y219650D01*
X76303D01*
X76453Y219500D01*
X84952D01*
X90686Y225235D01*
X208521Y24059D02*
X211000Y21580D01*
X207191Y24059D02*
X208521D01*
X211000Y12000D02*
Y21580D01*
X81750Y111250D02*
X82500Y110500D01*
X71988Y207250D02*
X72250Y207512D01*
X370096Y83595D02*
X371561Y82130D01*
Y81422D02*
Y82130D01*
Y81422D02*
X372732Y80250D01*
X378750D01*
X161500Y172250D02*
Y176250D01*
X66000Y157395D02*
Y164168D01*
X63000Y167168D02*
X66000Y164168D01*
X63000Y167168D02*
Y168250D01*
X235100Y199800D02*
X235550Y200250D01*
X234395Y199095D02*
X235100Y199800D01*
X237050Y198750D02*
X244750D01*
X235550Y200250D02*
X237050Y198750D01*
X201300Y190250D02*
Y190750D01*
X264054Y21446D02*
X267978Y17522D01*
X264054Y26554D02*
Y28054D01*
X263250Y25750D02*
X264054Y26554D01*
X267978Y17500D02*
Y17522D01*
X434250Y90000D02*
X436000Y91750D01*
X437403D01*
X449750Y104097D01*
Y114479D01*
X439874Y103875D02*
X441608D01*
X442412Y104678D01*
X435500Y99500D02*
X439874Y103875D01*
X451750Y126521D02*
Y134250D01*
X449750Y124522D02*
X451750Y126521D01*
X440750Y128476D02*
Y134250D01*
X438411Y126137D02*
X440750Y128476D01*
X438411Y125000D02*
Y126137D01*
X326650Y80464D02*
X328884Y78230D01*
X328980D01*
X320646Y72125D02*
X335084D01*
X335480Y71730D01*
X320521Y72250D02*
X320646Y72125D01*
X284750Y66294D02*
X297813Y79358D01*
X362250Y142600D02*
X362853D01*
X368003Y147750D01*
X231000Y98582D02*
Y102750D01*
X227250Y94832D02*
X231000Y98582D01*
X230750Y80750D02*
X230750Y80750D01*
X230750Y61487D02*
Y80750D01*
X221500Y57186D02*
X227250Y62936D01*
Y94832D01*
X230750Y93082D02*
X234500Y96832D01*
X226500Y57237D02*
X230750Y61487D01*
X230750Y80750D02*
Y93082D01*
X291434Y63031D02*
X309464Y45000D01*
X291434Y63031D02*
X291559Y63156D01*
Y64812D01*
X278591Y70392D02*
X286600Y78401D01*
X311441Y72196D02*
X312000Y71637D01*
X378000Y108515D02*
X385515Y101000D01*
X378000Y108515D02*
Y120250D01*
X362768Y134518D02*
X362980Y134731D01*
X372500Y144250D01*
X368580Y117080D02*
Y135381D01*
X373950Y140750D01*
X398464D01*
X372500Y144250D02*
X397015D01*
X409500Y231500D02*
X410000Y232000D01*
X390750Y121500D02*
X403750D01*
X401250Y119000D02*
X403750Y121500D01*
X401250Y116756D02*
Y119000D01*
X399500Y115006D02*
X401250Y116756D01*
X399500Y113869D02*
Y115006D01*
X226050Y206750D02*
X226550Y206250D01*
X244035D01*
X248750Y201535D01*
X152500Y157500D02*
Y157800D01*
Y157000D02*
Y157500D01*
Y157000D02*
X155000Y159500D01*
X142450Y160300D02*
X150000D01*
X138750Y164000D02*
X142450Y160300D01*
X150000D02*
X152500Y157800D01*
X111500Y115750D02*
X115828Y120078D01*
X146400Y178692D02*
X152842Y172250D01*
X157500D01*
X145850Y180100D02*
X146400Y179550D01*
X138750Y180100D02*
X145850D01*
X146400Y178692D02*
Y179550D01*
X53500Y215750D02*
X54000Y215250D01*
X53500Y215750D02*
Y221150D01*
X46886Y214750D02*
Y223886D01*
X41750Y198000D02*
X45400D01*
X46400Y199000D01*
X46886Y223886D02*
X49750Y226750D01*
X62500D02*
X62750Y227000D01*
X49750Y226750D02*
X62500D01*
X201921Y100604D02*
X208600D01*
X193594Y84750D02*
X201900D01*
Y85803D01*
Y100625D02*
X201921Y100604D01*
X201900Y84750D02*
X203000D01*
X208600Y100604D02*
X213034Y96170D01*
X232304Y106396D02*
Y111196D01*
X231500Y112000D02*
X232304Y111196D01*
X216898Y102491D02*
X223500Y95889D01*
X362890Y150556D02*
X363584Y151250D01*
X203157Y77003D02*
X203900Y76261D01*
X196246Y77003D02*
X203157D01*
X183409Y94935D02*
X193594Y84750D01*
X179909Y111909D02*
X193750Y125750D01*
X179909Y93341D02*
Y111909D01*
Y93341D02*
X196246Y77003D01*
X183409Y94935D02*
Y106524D01*
X189885Y113000D01*
X213034Y92535D02*
Y96170D01*
X189885Y113000D02*
X207500D01*
X212250Y117750D01*
Y126250D01*
X186909Y99354D02*
X194760Y91504D01*
X190835Y109000D02*
X212750D01*
X186909Y99354D02*
Y105074D01*
X190835Y109000D01*
X212750D02*
X230000Y126250D01*
X258500Y139750D02*
X260750Y137500D01*
Y134750D02*
Y137500D01*
Y134750D02*
X267500Y128000D01*
Y127500D02*
Y128000D01*
X268500Y139750D02*
X269250Y139000D01*
X252500Y127500D02*
Y134614D01*
X250250Y136863D02*
X252500Y134614D01*
X250250Y136863D02*
Y138000D01*
X65750Y140250D02*
Y140650D01*
X63250Y137750D02*
X65750Y140250D01*
X62000Y133500D02*
Y157395D01*
X63250Y132250D02*
Y137750D01*
X62000Y133500D02*
X63250Y132250D01*
X69465Y96125D02*
X71625D01*
X58375Y107214D02*
X69465Y96125D01*
X71625D02*
X72375Y95375D01*
X53000Y139875D02*
Y140000D01*
Y139875D02*
X58375Y134500D01*
X58000Y145125D02*
Y157395D01*
X53000Y140125D02*
X58000Y145125D01*
X72250Y110375D02*
X72375D01*
Y100375D02*
X73125Y99625D01*
X75286D01*
X76750Y98160D01*
Y96000D02*
Y98160D01*
Y96000D02*
X77500Y95250D01*
X82500D01*
X72375Y105375D02*
X87625D01*
X87688Y105437D02*
X101438D01*
X87625Y105375D02*
X87688Y105437D01*
X93125Y115750D02*
X101500D01*
X87750Y110375D02*
X93125Y115750D01*
X87625Y110375D02*
X87750D01*
X175500Y174800D02*
X175750Y174550D01*
X181750Y198000D02*
X181875Y198125D01*
X165250Y228414D02*
Y229750D01*
X155000Y159500D02*
Y165669D01*
X157500Y168169D01*
Y168250D01*
X167550Y158050D02*
X173250D01*
X161500Y176250D02*
X174050D01*
X157500D02*
X157557Y176307D01*
X9250Y219250D02*
X15000Y225000D01*
X9250Y215100D02*
Y219250D01*
X15000Y197000D02*
Y225000D01*
Y173000D02*
Y197000D01*
Y145000D02*
Y173000D01*
X73750Y234500D02*
X81250Y227000D01*
X49886Y234500D02*
X73750D01*
X47386Y232000D02*
X49886Y234500D01*
X46250Y232000D02*
X47386D01*
X66000Y197000D02*
Y201786D01*
X64750Y203036D02*
X66000Y201786D01*
X64750Y203036D02*
Y205000D01*
X63750Y206000D02*
X64750Y205000D01*
X62750Y206000D02*
X63750D01*
X82250Y149000D02*
X86750Y153500D01*
X87000D01*
X73250Y139000D02*
X82250D01*
X82250Y139000D01*
X81000Y150250D02*
X82250Y149000D01*
X81000Y150250D02*
Y154500D01*
X78000Y157500D02*
X81000Y154500D01*
X73250Y149000D02*
X73400D01*
X74000Y149600D01*
Y157500D01*
X78000Y197105D02*
Y199725D01*
X78714Y200439D01*
Y204452D01*
X81512Y207250D01*
X74000Y197105D02*
Y205238D01*
X71988Y207250D02*
X74000Y205238D01*
X58000Y197000D02*
Y199250D01*
X56000Y201250D02*
X58000Y199250D01*
X56000Y201250D02*
Y205250D01*
X55000Y206250D02*
X56000Y205250D01*
X54000Y206250D02*
X55000D01*
X181750Y189000D02*
Y189250D01*
Y197750D02*
Y198000D01*
X225746Y202240D02*
Y205446D01*
X224921Y195965D02*
Y199636D01*
X224950Y201444D02*
X225746Y202240D01*
X224921Y195965D02*
X226200Y194685D01*
X224921Y199636D02*
X224950Y199664D01*
X221385Y170500D02*
X226200Y175315D01*
X230521Y199095D02*
X234395D01*
X224950Y199664D02*
Y201444D01*
X226200Y175315D02*
Y194685D01*
X205750Y178000D02*
Y179550D01*
X201300Y184000D02*
X205750Y179550D01*
X201300Y184000D02*
Y190250D01*
X219150Y185150D02*
Y202250D01*
X219000Y185000D02*
X219150Y185150D01*
X235750Y166000D02*
Y184350D01*
X235100Y185000D02*
X235750Y184350D01*
X235100Y185000D02*
Y199800D01*
X219650Y206750D02*
X226050D01*
X221500Y222750D02*
X221625Y222875D01*
X227625D01*
X227750Y223000D01*
X204250Y222750D02*
X212500D01*
X204250Y212450D02*
X204450Y212250D01*
X204250Y212450D02*
Y222750D01*
X219150Y207250D02*
X219650Y206750D01*
X321807Y80464D02*
X326650D01*
X320521Y81750D02*
X321807Y80464D01*
X366152Y68875D02*
X366277Y69000D01*
X374750D01*
X376250Y68750D02*
X378750Y66250D01*
X375000Y68750D02*
X376250D01*
X374750Y69000D02*
X375000Y68750D01*
X364500Y75440D02*
X366152Y73787D01*
Y68875D02*
Y73787D01*
X355250Y86000D02*
X362250D01*
X346500Y91250D02*
X346625Y91375D01*
X355125D01*
X355250Y91500D01*
X312000Y53500D02*
Y71637D01*
X269500Y33500D02*
Y33714D01*
Y42286D02*
X270125Y42911D01*
Y48205D01*
X270750Y48830D01*
X271164Y67073D02*
X274483Y70392D01*
X271164Y62434D02*
Y67073D01*
Y62434D02*
X277597Y56000D01*
X274483Y70392D02*
X278591D01*
X277597Y56000D02*
X280250D01*
X275517Y66000D02*
X276763Y64753D01*
X275250Y66000D02*
X275517D01*
X275250D02*
X303250Y38000D01*
X317485D01*
X409422Y156828D02*
X410750Y155500D01*
X409422Y156828D02*
Y159828D01*
X405250Y164000D02*
X409422Y159828D01*
X399500Y156250D02*
X400250Y155500D01*
X424800Y166000D02*
X429000Y170200D01*
X421500Y162700D02*
X424800Y166000D01*
X417750D02*
X424800D01*
X415750Y164000D02*
X417750Y166000D01*
X421500Y151172D02*
Y162700D01*
X410965Y146500D02*
X422500D01*
X397765Y145000D02*
X404515D01*
X409515Y150000D01*
X420328D01*
X405965Y141500D02*
X410965Y146500D01*
X420328Y150000D02*
X421500Y151172D01*
X399215Y141500D02*
X405965D01*
X425000Y149000D02*
Y161250D01*
X433446Y169696D01*
Y171846D02*
X434600Y173000D01*
X433446Y169696D02*
Y171846D01*
X429250Y137810D02*
Y159250D01*
X443250Y173250D01*
X422500Y146500D02*
X425000Y149000D01*
X397015Y144250D02*
X397765Y145000D01*
X398464Y140750D02*
X399215Y141500D01*
X434250Y179500D02*
X435000Y180250D01*
X434250Y173000D02*
Y179500D01*
X448500Y151536D02*
Y157864D01*
X445250Y161113D02*
X448500Y157864D01*
X445250Y161113D02*
Y162250D01*
X451750Y134250D02*
Y139715D01*
X450577Y140888D02*
X451750Y139715D01*
X450362Y140888D02*
X450577D01*
X448500Y142750D02*
X450362Y140888D01*
X448500Y142750D02*
Y142964D01*
X434250Y99500D02*
X435500D01*
X391250Y133750D02*
X402000D01*
X403750Y135500D01*
X379000Y133750D02*
X391250D01*
X388000Y118750D02*
X390750Y121500D01*
X388000Y116169D02*
Y118750D01*
X385719Y113888D02*
X388000Y116169D01*
X385719Y112751D02*
Y113888D01*
X403750Y135500D02*
X412500D01*
X416000Y139000D01*
Y139500D01*
Y122500D02*
X426750D01*
X429250Y125000D01*
Y118500D02*
Y125000D01*
Y118500D02*
X431750Y116000D01*
X433500Y109000D02*
X434250D01*
X431750Y110750D02*
X433500Y109000D01*
X431750Y110750D02*
Y116000D01*
X434250Y77250D02*
X434500Y77000D01*
X434250Y77250D02*
Y90000D01*
X432500Y64500D02*
Y75000D01*
X434500Y77000D01*
X419500Y78000D02*
Y102750D01*
Y77000D02*
Y78000D01*
X415000Y107250D02*
X419500Y102750D01*
X408750Y109000D02*
X410500Y107250D01*
X415000D01*
X422929Y64500D02*
Y72571D01*
X419500Y76000D02*
X422929Y72571D01*
X419500Y76000D02*
Y77000D01*
X393750Y76000D02*
X399750D01*
X401232Y77482D01*
Y81018D01*
X402715Y82500D01*
X415000D01*
X419500Y78000D01*
X406905Y64750D02*
Y75845D01*
X406750Y76000D02*
X406905Y75845D01*
X395528Y82500D02*
X399250Y86222D01*
X395750Y87964D02*
Y95500D01*
X381000Y82500D02*
X395528D01*
X399250Y86222D02*
Y90000D01*
X378750Y80250D02*
X381000Y82500D01*
X400250Y100500D02*
Y101000D01*
Y100000D02*
Y100500D01*
X395750Y95500D02*
X400250Y100000D01*
X401250Y99500D02*
X408750D01*
X400250Y100500D02*
X401250Y99500D01*
X399250Y90000D02*
X400750Y91500D01*
X385515Y101000D02*
X391250D01*
X378000Y120250D02*
X379000Y121250D01*
X400750Y91500D02*
X401500Y90750D01*
X408000D01*
X408750Y90000D01*
X339500Y194500D02*
X340000Y195000D01*
X364793Y194793D02*
X365000Y195000D01*
X336500Y53000D02*
X337000Y53500D01*
X336500Y46965D02*
Y53000D01*
X320285Y30750D02*
X336500Y46965D01*
X300550Y30750D02*
X320285D01*
X278800Y52500D02*
X300550Y30750D01*
X301750Y34500D02*
X319035D01*
X280250Y56000D02*
X301750Y34500D01*
X319035D02*
X331500Y46965D01*
Y53000D02*
X332000Y53500D01*
X331500Y46965D02*
Y53000D01*
X326500D02*
X327000Y53500D01*
X326500Y46965D02*
Y53000D01*
X319168Y39632D02*
X326500Y46965D01*
X319118Y39632D02*
X319168D01*
X317485Y38000D02*
X319118Y39632D01*
X284750Y63000D02*
Y66294D01*
Y63000D02*
X306250Y41500D01*
X316035D01*
X321500Y53000D02*
X322000Y53500D01*
X321500Y46965D02*
Y53000D01*
X316035Y41500D02*
X321500Y46965D01*
X316500Y53000D02*
X317000Y53500D01*
X316500Y46965D02*
Y53000D01*
X314536Y45000D02*
X316500Y46965D01*
X309464Y45000D02*
X314536D01*
X216500Y57136D02*
X223500Y64136D01*
Y95889D01*
X203346Y70346D02*
Y75707D01*
X203250Y59000D02*
X213000Y68750D01*
X203346Y75707D02*
X203900Y76261D01*
X213000Y68750D02*
Y82669D01*
X209500Y71000D02*
Y79323D01*
X205615Y95004D02*
X216500Y84119D01*
X204165Y91504D02*
X213000Y82669D01*
X201000Y62500D02*
X209500Y71000D01*
X220000Y65586D02*
Y85569D01*
X213034Y92535D02*
X220000Y85569D01*
X211500Y57086D02*
X220000Y65586D01*
X216500Y67035D02*
Y84119D01*
X206500Y57035D02*
X216500Y67035D01*
X204073Y84750D02*
X209500Y79323D01*
X203000Y84750D02*
X204073D01*
X226000Y49000D02*
X226500Y49500D01*
Y57237D01*
X232304Y106396D02*
X234500Y104200D01*
Y96832D02*
Y104200D01*
X221000Y49000D02*
X221500Y49500D01*
Y57186D01*
X222638Y107596D02*
X226154D01*
X221835Y108400D02*
X222638Y107596D01*
X226154D02*
X231000Y102750D01*
X216000Y49000D02*
X216500Y49500D01*
Y57136D01*
X211000Y49000D02*
X211500Y49500D01*
Y57086D01*
X199601Y95004D02*
X205615D01*
X192509Y102096D02*
Y102755D01*
Y102096D02*
X199601Y95004D01*
X194760Y91504D02*
X204165D01*
X195464Y66000D02*
X199000D01*
X203346Y70346D01*
X187000Y57536D02*
X195464Y66000D01*
X187000Y56000D02*
Y57536D01*
X186000Y55000D02*
X187000Y56000D01*
X186000Y49000D02*
Y55000D01*
X197000Y57536D02*
X198465Y59000D01*
X203250D01*
X192000Y56934D02*
Y57536D01*
X196964Y62500D01*
X191500Y56434D02*
X192000Y56934D01*
X196500Y56171D02*
X197000Y56672D01*
Y57536D01*
X196964Y62500D02*
X201000D01*
X196500Y49500D02*
Y56171D01*
X191500Y49500D02*
Y56434D01*
X191000Y49000D02*
X191500Y49500D01*
X206500D02*
Y57035D01*
X206000Y49000D02*
X206500Y49500D01*
X196000Y49000D02*
X196500Y49500D01*
X145500D02*
X146000Y49000D01*
X140500Y49500D02*
X141000Y49000D01*
D20*
X120543Y59500D02*
D03*
X112500D02*
D03*
X276021Y17500D02*
D03*
X267978D02*
D03*
D21*
X155250Y78500D02*
D03*
X137500D02*
D03*
X275500Y166000D02*
D03*
X257750Y166250D02*
D03*
X168750Y196250D02*
D03*
X147500Y196750D02*
D03*
X211500Y144250D02*
D03*
X229500Y144000D02*
D03*
X264500Y89750D02*
D03*
X246750Y89250D02*
D03*
X205750Y178000D02*
D03*
X235750Y166000D02*
D03*
X230000Y126250D02*
D03*
X212250D02*
D03*
X193750Y125750D02*
D03*
X141500Y140750D02*
D03*
X81250Y227000D02*
D03*
X62750D02*
D03*
D22*
X449750Y123786D02*
D03*
Y115214D02*
D03*
X448500Y151536D02*
D03*
Y142964D02*
D03*
X269500Y42286D02*
D03*
Y33714D02*
D03*
D23*
X212750Y222750D02*
D03*
X221250D02*
D03*
X443500Y180250D02*
D03*
X435000D02*
D03*
D24*
X166500Y157500D02*
D03*
X152500D02*
D03*
X113250Y105500D02*
D03*
X127250D02*
D03*
D25*
X236750Y214250D02*
D03*
Y200250D02*
D03*
X403750Y135500D02*
D03*
Y121500D02*
D03*
X378750Y80250D02*
D03*
Y66250D02*
D03*
D26*
X175750Y159528D02*
D03*
Y175572D02*
D03*
X191300Y216433D02*
D03*
Y200389D02*
D03*
D27*
X160000Y213250D02*
D03*
X150000D02*
D03*
X179750Y212500D02*
D03*
X169750D02*
D03*
X252500Y69250D02*
D03*
X242500D02*
D03*
X123000Y78750D02*
D03*
X113000D02*
D03*
X273250Y178500D02*
D03*
X263250D02*
D03*
D28*
X204250Y222750D02*
D03*
X197250D02*
D03*
D29*
X219150Y207250D02*
D03*
Y212250D02*
D03*
Y202250D02*
D03*
X204450Y212250D02*
D03*
Y207250D02*
D03*
Y202250D02*
D03*
D30*
X181750Y197750D02*
D03*
Y189250D02*
D03*
X296500Y171250D02*
D03*
Y179750D02*
D03*
D31*
X201750Y190250D02*
D03*
X191750D02*
D03*
D32*
X190750Y167000D02*
D03*
Y157000D02*
D03*
D33*
X235100Y185000D02*
D03*
X219000D02*
D03*
D34*
X244750Y198750D02*
D03*
Y193250D02*
D03*
X355250Y86000D02*
D03*
Y91500D02*
D03*
D35*
X420000Y232000D02*
D03*
X425000D02*
D03*
X405000D02*
D03*
X415000D02*
D03*
X410000D02*
D03*
X380000D02*
D03*
X385000D02*
D03*
X370000D02*
D03*
X375000D02*
D03*
X395000D02*
D03*
X400000D02*
D03*
X390000D02*
D03*
X420000Y195000D02*
D03*
X425000D02*
D03*
X415000D02*
D03*
X405000D02*
D03*
X410000D02*
D03*
X380000D02*
D03*
X385000D02*
D03*
X370000D02*
D03*
X375000D02*
D03*
X395000D02*
D03*
X400000D02*
D03*
X390000D02*
D03*
X360000Y232000D02*
D03*
X365000D02*
D03*
X345000D02*
D03*
X350000D02*
D03*
X355000D02*
D03*
X335000D02*
D03*
X340000D02*
D03*
X330000D02*
D03*
X355000Y195000D02*
D03*
X360000D02*
D03*
X345000D02*
D03*
X350000D02*
D03*
X365000D02*
D03*
X335000D02*
D03*
X330000D02*
D03*
X340000D02*
D03*
X226000Y49000D02*
D03*
X231000D02*
D03*
X211000D02*
D03*
X221000D02*
D03*
X216000D02*
D03*
X186000D02*
D03*
X191000D02*
D03*
X176000D02*
D03*
X181000D02*
D03*
X201000D02*
D03*
X206000D02*
D03*
X196000D02*
D03*
X226000Y12000D02*
D03*
X231000D02*
D03*
X221000D02*
D03*
X211000D02*
D03*
X216000D02*
D03*
X186000D02*
D03*
X191000D02*
D03*
X176000D02*
D03*
X181000D02*
D03*
X201000D02*
D03*
X206000D02*
D03*
X196000D02*
D03*
X166000Y49000D02*
D03*
X171000D02*
D03*
X151000D02*
D03*
X156000D02*
D03*
X161000D02*
D03*
X141000D02*
D03*
X146000D02*
D03*
X136000D02*
D03*
X161000Y12000D02*
D03*
X166000D02*
D03*
X151000D02*
D03*
X156000D02*
D03*
X171000D02*
D03*
X141000D02*
D03*
X136000D02*
D03*
X146000D02*
D03*
D36*
X379000Y133750D02*
D03*
Y121250D02*
D03*
X391250Y133750D02*
D03*
Y121250D02*
D03*
D37*
X415750Y164000D02*
D03*
X405250D02*
D03*
X410750Y155500D02*
D03*
X400250D02*
D03*
D38*
X416000Y139500D02*
D03*
Y122500D02*
D03*
D39*
X429250Y137810D02*
D03*
Y125000D02*
D03*
X364500Y88250D02*
D03*
Y75440D02*
D03*
D40*
X451750Y134250D02*
D03*
X440750D02*
D03*
D41*
X434250Y99500D02*
D03*
Y109000D02*
D03*
Y90000D02*
D03*
X408750Y99500D02*
D03*
Y109000D02*
D03*
Y90000D02*
D03*
D42*
X400250Y101000D02*
D03*
X391250D02*
D03*
D43*
X400750Y91500D02*
D03*
X390750D02*
D03*
X111500Y115750D02*
D03*
X101500D02*
D03*
D44*
X434500Y77000D02*
D03*
X419500D02*
D03*
D45*
X406750Y76000D02*
D03*
X393750D02*
D03*
D46*
X432500Y64500D02*
D03*
X422929D02*
D03*
D47*
X406905Y64750D02*
D03*
X394095D02*
D03*
D48*
X337000Y53500D02*
D03*
X347000D02*
D03*
X327000D02*
D03*
X322000D02*
D03*
X332000D02*
D03*
X342000D02*
D03*
X317000D02*
D03*
X312000D02*
D03*
D49*
X371500Y27000D02*
D03*
X288000D02*
D03*
D50*
X267500Y127500D02*
D03*
X252500D02*
D03*
X96000Y21000D02*
D03*
X81000D02*
D03*
D51*
X161500Y172250D02*
D03*
Y176250D02*
D03*
Y168250D02*
D03*
X157500Y176250D02*
D03*
Y172250D02*
D03*
Y168250D02*
D03*
D52*
X138750Y183250D02*
D03*
Y167150D02*
D03*
D53*
X145000Y156500D02*
D03*
X139500D02*
D03*
D54*
X41750Y198000D02*
D03*
Y191500D02*
D03*
Y178500D02*
D03*
Y185000D02*
D03*
Y172000D02*
D03*
D55*
X15000Y225000D02*
D03*
Y145000D02*
D03*
D56*
Y197000D02*
D03*
Y173000D02*
D03*
D57*
X54000Y215250D02*
D03*
Y206250D02*
D03*
X62750Y215000D02*
D03*
Y206000D02*
D03*
D58*
X81512Y207250D02*
D03*
X71988D02*
D03*
D59*
X73250Y149000D02*
D03*
Y139000D02*
D03*
D60*
X53000Y140000D02*
D03*
X42750D02*
D03*
X73500Y132250D02*
D03*
X63250D02*
D03*
D61*
X82250Y149000D02*
D03*
Y139000D02*
D03*
X99500Y108750D02*
D03*
Y98750D02*
D03*
D62*
X87625Y110375D02*
D03*
Y105375D02*
D03*
Y100375D02*
D03*
X72375D02*
D03*
X87625Y95375D02*
D03*
X72375D02*
D03*
Y105375D02*
D03*
Y110375D02*
D03*
D63*
X82500Y110500D02*
D03*
X77500D02*
D03*
X82500Y95250D02*
D03*
X77500D02*
D03*
D64*
X66500Y21500D02*
D03*
X56500D02*
D03*
X268500Y139750D02*
D03*
X258500D02*
D03*
D65*
X346500Y91250D02*
D03*
Y72250D02*
D03*
X320521D02*
D03*
Y81750D02*
D03*
Y91250D02*
D03*
D66*
X295500Y89750D02*
D03*
X309500D02*
D03*
D89*
X78000Y197105D02*
D03*
X70000D02*
D03*
X74000D02*
D03*
X66000Y197000D02*
D03*
X78000Y157500D02*
D03*
X74000D02*
D03*
X70000D02*
D03*
X66000Y157395D02*
D03*
X62000Y197000D02*
D03*
X58000D02*
D03*
X62000Y157395D02*
D03*
X58000D02*
D03*
D90*
X68000Y177250D02*
D03*
D95*
X343800Y147800D02*
D03*
X320600Y113000D02*
D03*
X309000D02*
D03*
X320600Y124600D02*
D03*
X309000D02*
D03*
Y147800D02*
D03*
X343800Y113000D02*
D03*
X320600Y147800D02*
D03*
X343800Y124600D02*
D03*
X332200D02*
D03*
Y113000D02*
D03*
Y147800D02*
D03*
X168250Y125750D02*
D03*
X157250D02*
D03*
X168250Y114750D02*
D03*
X157250D02*
D03*
X168250Y92750D02*
D03*
Y103750D02*
D03*
X157250D02*
D03*
Y92750D02*
D03*
X146250Y114750D02*
D03*
Y125750D02*
D03*
X135250D02*
D03*
Y114750D02*
D03*
X146250Y92750D02*
D03*
Y103750D02*
D03*
X135250Y92750D02*
D03*
Y103750D02*
D03*
D103*
X73000Y186250D02*
D03*
Y177250D02*
D03*
Y168250D02*
D03*
X63000Y186250D02*
D03*
Y177250D02*
D03*
Y168250D02*
D03*
D104*
X231231Y232096D02*
X235001Y228326D01*
X231231Y232096D02*
Y235772D01*
X235001Y228001D02*
Y228326D01*
X231001Y236001D02*
X231231Y235772D01*
X122014Y178525D02*
X126100Y174439D01*
X122014Y178525D02*
Y178850D01*
X108480Y73730D02*
X113000Y78250D01*
X107000Y73500D02*
X107230Y73730D01*
X108480D01*
X123000Y78750D02*
Y79250D01*
X101500Y105500D02*
X113250D01*
X147230Y207870D02*
Y209980D01*
X88500Y155000D02*
Y176825D01*
X83250Y182075D02*
X88500Y176825D01*
X29500Y180784D02*
X30250Y181534D01*
Y199000D01*
X29500Y163643D02*
Y180784D01*
X299500Y87750D02*
X301750Y85500D01*
X302000D01*
X295500Y88750D02*
Y89750D01*
Y88750D02*
X296500Y87750D01*
X299500D01*
X101500Y105500D02*
Y115750D01*
X113000Y78250D02*
Y78750D01*
X150000Y212750D02*
Y213250D01*
X147230Y209980D02*
X150000Y212750D01*
X147230Y207870D02*
X147250Y207850D01*
X169750Y212000D02*
Y212500D01*
X167330Y209580D02*
X169750Y212000D01*
X167330Y208079D02*
Y209580D01*
X167100Y207850D02*
X167330Y208079D01*
X82811Y205939D02*
Y205952D01*
Y205939D02*
X90733Y198017D01*
X93370D01*
X81512Y207250D02*
X82811Y205952D01*
X93370Y198017D02*
X93600Y197787D01*
X87000Y153500D02*
X88500Y155000D01*
X83250Y182075D02*
Y182400D01*
X46367Y214512D02*
X46597Y214282D01*
Y209260D02*
Y214282D01*
Y209260D02*
X47000Y208857D01*
Y199600D02*
Y208857D01*
X46400Y199000D02*
X47000Y199600D01*
X147250Y197000D02*
X147500Y196750D01*
X167431Y24500D02*
X174866D01*
X176000Y25250D02*
X179243D01*
X72250Y207512D02*
Y214050D01*
X309500Y89750D02*
X309500Y89750D01*
X309500Y89750D02*
Y95800D01*
X309500Y89750D02*
Y90036D01*
X310500Y91036D01*
X320307D01*
X320521Y91250D01*
X242500Y69250D02*
Y71214D01*
X243332Y72047D02*
Y77449D01*
X242500Y71214D02*
X243332Y72047D01*
X252500Y63825D02*
Y69250D01*
X128443Y158450D02*
X133000D01*
X126100Y160793D02*
X128443Y158450D01*
X126100Y160793D02*
Y174439D01*
X36980Y140020D02*
X42730D01*
X36750Y140250D02*
X36875Y140375D01*
Y156268D01*
X29500Y163643D02*
X36875Y156268D01*
X42730Y140020D02*
X42750Y140000D01*
X36750Y140250D02*
X36980Y140020D01*
D105*
X414070Y219184D02*
Y220000D01*
X414787Y220238D02*
Y221423D01*
X415000Y221636D01*
X105250Y90500D02*
Y97500D01*
X113250Y105500D01*
X105250Y90500D02*
X111000Y84750D01*
X117500D01*
X123000Y79250D01*
X345298Y221228D02*
X345911Y220616D01*
X345000Y222393D02*
Y232000D01*
X345587Y220940D02*
Y221806D01*
X345000Y222393D02*
X345587Y221806D01*
X343387Y221228D02*
X345298D01*
X340000Y224616D02*
X343387Y221228D01*
X394607Y206850D02*
X395000Y206457D01*
Y195000D02*
Y206457D01*
X383915Y219900D02*
X384527Y219288D01*
X387201D01*
X387377Y219112D01*
X353654Y184216D02*
X355000Y185562D01*
Y195000D01*
X353654Y183350D02*
Y184216D01*
X340000Y224616D02*
Y232000D01*
X411636Y220000D02*
X414070D01*
X415000Y221636D02*
Y232000D01*
X401951Y218299D02*
X403258Y216992D01*
X406017D02*
X406630Y216380D01*
X403258Y216992D02*
X406017D01*
X405000Y195000D02*
Y207750D01*
X406750Y209500D01*
X400000Y204000D02*
X404375Y208375D01*
X410000Y221636D02*
X411636Y220000D01*
X387377Y219112D02*
X390000Y221736D01*
X387377Y219112D02*
X391112D01*
X400000Y195000D02*
Y204000D01*
X395000Y223000D02*
Y232000D01*
X391112Y219112D02*
X395000Y223000D01*
X390000Y221736D02*
Y232000D01*
X318015Y233839D02*
X318881D01*
X320719Y232000D02*
X335000D01*
X318881Y233839D02*
X320719Y232000D01*
X401757Y218721D02*
X402373D01*
X400000Y220478D02*
Y232000D01*
Y220478D02*
X401757Y218721D01*
X410000Y221636D02*
Y232000D01*
X402373Y218721D02*
X404500Y220848D01*
Y222846D01*
X405000Y223346D01*
X415000Y206134D02*
X416000Y207134D01*
X413388Y207388D02*
X415388D01*
X410000Y204000D02*
X413388Y207388D01*
X410000Y195000D02*
Y204000D01*
X416000Y207134D02*
Y208000D01*
X415388Y207388D02*
X416000Y208000D01*
X415000Y195000D02*
Y206134D01*
X342000Y60243D02*
Y62000D01*
Y53500D02*
Y60243D01*
Y62000D02*
X345500Y65500D01*
X405000Y223346D02*
Y232000D01*
X191750Y215005D02*
Y217861D01*
X197000Y222750D02*
X197250D01*
X195472Y221222D02*
X197000Y222750D01*
X195111Y221222D02*
X195472D01*
X191750Y217861D02*
X195111Y221222D01*
X204400Y207300D02*
X204450Y207250D01*
X200231Y207300D02*
X204400D01*
X197853Y209678D02*
X200231Y207300D01*
X197365Y209678D02*
X197853D01*
X195399Y211644D02*
X197365Y209678D01*
X195111Y211644D02*
X195399D01*
X191750Y215005D02*
X195111Y211644D01*
X201000Y37503D02*
Y49000D01*
Y37503D02*
X204501Y34001D01*
X167031Y24100D02*
X167431Y24500D01*
X176000Y12000D02*
Y25250D01*
X181000Y12000D02*
Y23493D01*
X179243Y25250D02*
X181000Y23493D01*
X385138Y182112D02*
X385750Y181500D01*
X385138Y182112D02*
Y188862D01*
X385000Y189000D02*
X385138Y188862D01*
X385000Y189000D02*
Y195000D01*
X338143Y64100D02*
X342000Y60243D01*
X337497Y64100D02*
X338143D01*
X145000Y156500D02*
X152000D01*
X152500Y157000D01*
X133000Y158450D02*
X135300D01*
X137250Y156500D01*
X139500D01*
X221000Y12000D02*
Y22500D01*
X217362Y26138D02*
X221000Y22500D01*
X216000Y12000D02*
Y23634D01*
D106*
X275681Y17159D02*
X276021Y17500D01*
X275681Y13981D02*
Y17159D01*
X273337Y11638D02*
X275681Y13981D01*
X264188Y11638D02*
X273337D01*
X244750Y183750D02*
Y193250D01*
X249000Y179500D02*
X262750D01*
X244750Y183750D02*
X249000Y179500D01*
X263250Y178500D02*
Y179000D01*
X262750Y179500D02*
X263250Y179000D01*
X273551Y178801D02*
X278346D01*
X278647Y179102D01*
X273250Y178500D02*
X273551Y178801D01*
X254500Y21326D02*
Y61300D01*
X254300Y61500D02*
X254500Y61300D01*
X367061Y84595D02*
X370510D01*
X365325Y86331D02*
Y87425D01*
X377250Y81750D02*
X378750Y80250D01*
X373355Y81750D02*
X377250D01*
X370510Y84595D02*
X373355Y81750D01*
X365325Y86331D02*
X367061Y84595D01*
X323000Y26250D02*
X334750Y38000D01*
X284400Y14666D02*
X288266Y10800D01*
X342500Y38000D02*
X347000Y42500D01*
X334750Y38000D02*
X342500D01*
X294300Y10800D02*
X309750Y26250D01*
X323000D01*
X288266Y10800D02*
X294300D01*
X276021Y17500D02*
X282057D01*
X284400Y15157D01*
Y14666D02*
Y15157D01*
X254500Y21326D02*
X264188Y11638D01*
X54000Y172000D02*
X54250Y172250D01*
X41750Y172000D02*
X54000D01*
X197155Y166500D02*
X198650Y165005D01*
X191250Y166500D02*
X197155D01*
X160000Y208563D02*
Y213250D01*
Y203875D02*
Y208563D01*
Y194500D02*
X174500Y180000D01*
X160000Y194500D02*
Y203875D01*
X198650Y165005D02*
X207645D01*
X196434Y149775D02*
Y151816D01*
X191250Y156500D02*
X191750D01*
X196434Y151816D01*
X190750Y157000D02*
X191250Y156500D01*
X190750Y167000D02*
X191250Y166500D01*
D107*
X243250Y236500D02*
D03*
X219250D02*
D03*
X64000Y8500D02*
D03*
X88000D02*
D03*
D108*
X385750Y181500D02*
D03*
X396750D02*
D03*
X304100Y165250D02*
D03*
X447661Y204569D02*
D03*
X58250Y30250D02*
D03*
X259500Y186250D02*
D03*
X251542Y186292D02*
D03*
X290750Y145750D02*
D03*
X273900Y139000D02*
D03*
X278647Y179102D02*
D03*
X290000Y98392D02*
D03*
X57495Y84505D02*
D03*
X86455Y93350D02*
D03*
X111379Y92998D02*
D03*
X98676Y80857D02*
D03*
X106250Y20500D02*
D03*
X108000Y31700D02*
D03*
X139750Y29200D02*
D03*
X107603Y42794D02*
D03*
X94852Y98398D02*
D03*
X107000Y73500D02*
D03*
X135913Y62874D02*
D03*
X124810Y66227D02*
D03*
X352750Y214750D02*
D03*
X345911Y220616D02*
D03*
X307500Y212001D02*
D03*
X325645Y183000D02*
D03*
X265500Y62000D02*
D03*
X254300Y61500D02*
D03*
X261100Y55019D02*
D03*
X213750Y26850D02*
D03*
X237835Y8665D02*
D03*
X237100Y16422D02*
D03*
X127750Y18000D02*
D03*
X154956Y61136D02*
D03*
X149141Y67625D02*
D03*
X143756Y61961D02*
D03*
X160341Y66641D02*
D03*
X129629Y57737D02*
D03*
X174044Y65275D02*
D03*
X167233Y61244D02*
D03*
X177714Y72044D02*
D03*
X187828Y68500D02*
D03*
X194890Y71570D02*
D03*
X394607Y206850D02*
D03*
X383915Y219900D02*
D03*
X318000Y197968D02*
D03*
X314296Y186768D02*
D03*
X353654Y183350D02*
D03*
X362784Y159744D02*
D03*
X357300Y165150D02*
D03*
X302000Y185500D02*
D03*
X308523Y181409D02*
D03*
X318250Y166000D02*
D03*
X326449Y166247D02*
D03*
X334194Y166034D02*
D03*
X341888Y165718D02*
D03*
X349517Y166758D02*
D03*
X362890Y150556D02*
D03*
X333266Y95400D02*
D03*
X361682Y103778D02*
D03*
X185400Y36900D02*
D03*
X85238Y134870D02*
D03*
X154850Y148900D02*
D03*
X186328Y179144D02*
D03*
X205072Y201100D02*
D03*
X152758Y182759D02*
D03*
X122014Y178850D02*
D03*
X117373Y136973D02*
D03*
X113446Y143597D02*
D03*
X122100Y152742D02*
D03*
X95500Y180500D02*
D03*
X406630Y216380D02*
D03*
X414095Y220025D02*
D03*
X406750Y209500D02*
D03*
X318015Y233839D02*
D03*
X416000Y208000D02*
D03*
X363201Y111327D02*
D03*
X361399Y118813D02*
D03*
X379426Y93243D02*
D03*
X370230Y86600D02*
D03*
X411605Y175395D02*
D03*
X389520Y149850D02*
D03*
X419250Y172500D02*
D03*
X387500Y172750D02*
D03*
X30250Y199000D02*
D03*
X390270Y57311D02*
D03*
X306001Y13001D02*
D03*
X264400Y23835D02*
D03*
X93600Y197787D02*
D03*
X111080Y7580D02*
D03*
X169530Y220100D02*
D03*
X147000Y208100D02*
D03*
X167100Y207850D02*
D03*
X218992Y156492D02*
D03*
X451001Y228001D02*
D03*
Y212001D02*
D03*
Y196001D02*
D03*
Y52001D02*
D03*
X439001Y236001D02*
D03*
X423001Y108001D02*
D03*
X399001Y12001D02*
D03*
X231001Y236001D02*
D03*
X235001Y228001D02*
D03*
X199001Y236001D02*
D03*
X358502Y48001D02*
D03*
X341002Y13001D02*
D03*
X250001D02*
D03*
X243001Y55001D02*
D03*
X246501Y20001D02*
D03*
X204501Y34001D02*
D03*
X89001Y237002D02*
D03*
X82001D02*
D03*
X50501Y160002D02*
D03*
X47001Y153001D02*
D03*
X29501Y146002D02*
D03*
X82625Y115505D02*
D03*
X70000Y128000D02*
D03*
X90686Y225235D02*
D03*
X167031Y24100D02*
D03*
X72250Y214050D02*
D03*
X243332Y77449D02*
D03*
X442412Y104678D02*
D03*
X386250Y30750D02*
D03*
X335480Y71730D02*
D03*
X328980Y78230D02*
D03*
X352706Y78800D02*
D03*
X297813Y79358D02*
D03*
X309500Y95800D02*
D03*
X438411Y143000D02*
D03*
X362250Y142600D02*
D03*
X272945Y75992D02*
D03*
X291559Y64812D02*
D03*
X286600Y78401D02*
D03*
X311441Y72196D02*
D03*
X378000Y108515D02*
D03*
X399500Y113869D02*
D03*
X291000Y17400D02*
D03*
X279233Y37133D02*
D03*
X351000Y16750D02*
D03*
X369500Y17250D02*
D03*
X337497Y64100D02*
D03*
X207750Y164900D02*
D03*
X196855Y149355D02*
D03*
X199500Y139750D02*
D03*
X232000Y156000D02*
D03*
X46367Y214512D02*
D03*
X71000Y120250D02*
D03*
X53000Y146250D02*
D03*
X53500Y221150D02*
D03*
X36750Y140250D02*
D03*
X201900Y85803D02*
D03*
Y77003D02*
D03*
Y100625D02*
D03*
X231500Y112000D02*
D03*
X216898Y102491D02*
D03*
X445250Y76250D02*
D03*
X445500Y88500D02*
D03*
X250250Y138000D02*
D03*
X65750Y140650D02*
D03*
X30250Y227500D02*
D03*
X9250Y215100D02*
D03*
X46250Y232000D02*
D03*
X83250Y182400D02*
D03*
X230521Y199095D02*
D03*
X226550Y206250D02*
D03*
X227750Y223000D02*
D03*
X366152Y68875D02*
D03*
X270750Y48830D02*
D03*
X276763Y64753D02*
D03*
X435250Y156000D02*
D03*
X434600Y173000D02*
D03*
X445250Y162250D02*
D03*
X438411Y125000D02*
D03*
X385719Y112751D02*
D03*
X221835Y108400D02*
D03*
X194760Y91504D02*
D03*
X192509Y102755D02*
D03*
D109*
X177950Y229750D02*
D03*
X165250D02*
D03*
X112250Y180150D02*
D03*
Y167450D02*
D03*
D110*
X152550Y229750D02*
D03*
D111*
X437500Y222000D02*
D03*
X317500D02*
D03*
X243500Y39000D02*
D03*
X123500D02*
D03*
D112*
X112250Y154750D02*
D03*
D113*
X39500Y205750D02*
D03*
Y164250D02*
D03*
D114*
X275000Y212000D02*
D03*
X117500Y215250D02*
D03*
X425000Y32000D02*
D03*
X81500Y56750D02*
D03*
D115*
X391250Y181500D02*
D03*
M02*
