G04*
G04 #@! TF.GenerationSoftware,Altium Limited,Altium Designer,23.3.1 (30)*
G04*
G04 Layer_Physical_Order=1*
G04 Layer_Color=255*
%FSLAX43Y43*%
%MOMM*%
G71*
G04*
G04 #@! TF.SameCoordinates,EF6148DA-A470-40B2-B036-D2E06F8B8601*
G04*
G04*
G04 #@! TF.FilePolarity,Positive*
G04*
G01*
G75*
%ADD10C,0.254*%
%ADD13R,1.400X1.000*%
%ADD14R,0.300X1.000*%
%ADD19R,1.500X1.500*%
%ADD20C,1.500*%
G36*
X26769Y282D02*
X282D01*
Y13688D01*
X26769D01*
Y282D01*
D02*
G37*
%LPC*%
G36*
X19817Y12684D02*
X19582Y12653D01*
X19363Y12562D01*
X19175Y12418D01*
X19031Y12230D01*
X18960Y12058D01*
X18134D01*
X18063Y12230D01*
X17919Y12418D01*
X17731Y12562D01*
X17512Y12653D01*
X17277Y12684D01*
X17042Y12653D01*
X16823Y12562D01*
X16635Y12418D01*
X16491Y12230D01*
X16420Y12058D01*
X15594D01*
X15523Y12230D01*
X15379Y12418D01*
X15191Y12562D01*
X14972Y12653D01*
X14737Y12684D01*
X14502Y12653D01*
X14283Y12562D01*
X14095Y12418D01*
X13951Y12230D01*
X13880Y12058D01*
X13054D01*
X12983Y12230D01*
X12839Y12418D01*
X12651Y12562D01*
X12432Y12653D01*
X12197Y12684D01*
X11962Y12653D01*
X11743Y12562D01*
X11555Y12418D01*
X11411Y12230D01*
X11340Y12058D01*
X10514D01*
X10443Y12230D01*
X10299Y12418D01*
X10111Y12562D01*
X9892Y12653D01*
X9657Y12684D01*
X9422Y12653D01*
X9203Y12562D01*
X9015Y12418D01*
X8871Y12230D01*
X8800Y12058D01*
X7974D01*
X7903Y12230D01*
X7759Y12418D01*
X7571Y12562D01*
X7352Y12653D01*
X7117Y12684D01*
X6882Y12653D01*
X6663Y12562D01*
X6475Y12418D01*
X6331Y12230D01*
X6260Y12058D01*
X5434D01*
X5363Y12230D01*
X5219Y12418D01*
X5031Y12562D01*
X4812Y12653D01*
X4577Y12684D01*
X4342Y12653D01*
X4123Y12562D01*
X3935Y12418D01*
X3791Y12230D01*
X3700Y12011D01*
X3669Y11776D01*
X3700Y11541D01*
X3791Y11322D01*
X3935Y11134D01*
X4123Y10990D01*
X4218Y10950D01*
X4193Y10823D01*
X3810D01*
X3810Y10823D01*
X3702Y10802D01*
X3610Y10741D01*
X3610Y10741D01*
X2959Y10089D01*
X2902Y10101D01*
X2787Y10148D01*
X1287D01*
X1172Y10101D01*
X1125Y9986D01*
Y8486D01*
X1172Y8371D01*
X1287Y8324D01*
X2787D01*
X2902Y8371D01*
X2949Y8486D01*
Y9281D01*
X3927Y10259D01*
X4476D01*
X4484Y10132D01*
X4342Y10113D01*
X4123Y10022D01*
X3935Y9878D01*
X3791Y9690D01*
X3700Y9471D01*
X3669Y9236D01*
X3700Y9001D01*
X3791Y8782D01*
X3935Y8594D01*
X4123Y8450D01*
X4342Y8359D01*
X4577Y8328D01*
X4812Y8359D01*
X5031Y8450D01*
X5219Y8594D01*
X5363Y8782D01*
X5454Y9001D01*
X5476Y9171D01*
X5477Y9177D01*
X5548Y9172D01*
X5604Y9068D01*
Y9014D01*
X5604Y9014D01*
X5626Y8906D01*
X5687Y8814D01*
X7485Y7016D01*
X7485Y7016D01*
X7577Y6955D01*
X7685Y6934D01*
X11744D01*
X12212Y6466D01*
X12163Y6348D01*
X12035D01*
X11920Y6301D01*
X11873Y6186D01*
Y5186D01*
X11903Y5114D01*
Y4325D01*
X11903Y4325D01*
X11924Y4217D01*
X11985Y4125D01*
X11992Y4118D01*
X11992Y4118D01*
X12084Y4057D01*
X12192Y4036D01*
X12192Y4036D01*
X14732D01*
X14840Y4057D01*
X14932Y4118D01*
X14993Y4210D01*
X15014Y4318D01*
Y4544D01*
X19304D01*
X19304Y4544D01*
X19412Y4565D01*
X19504Y4626D01*
X21282Y6404D01*
X21282Y6404D01*
X21343Y6496D01*
X21364Y6604D01*
Y8949D01*
X21491Y8974D01*
X21571Y8782D01*
X21715Y8594D01*
X21903Y8450D01*
X22122Y8359D01*
X22357Y8328D01*
X22592Y8359D01*
X22811Y8450D01*
X22999Y8594D01*
X23143Y8782D01*
X23234Y9001D01*
X23265Y9236D01*
X23234Y9471D01*
X23143Y9690D01*
X22999Y9878D01*
X22811Y10022D01*
X22592Y10113D01*
X22357Y10144D01*
X22122Y10113D01*
X21903Y10022D01*
X21715Y9878D01*
X21571Y9690D01*
X21491Y9498D01*
X21364Y9523D01*
Y10511D01*
X21364Y10511D01*
X21343Y10619D01*
X21282Y10711D01*
X21282Y10711D01*
X20623Y11370D01*
X20694Y11541D01*
X20725Y11776D01*
X20694Y12011D01*
X20603Y12230D01*
X20459Y12418D01*
X20271Y12562D01*
X20052Y12653D01*
X19817Y12684D01*
D02*
G37*
G36*
X24897D02*
X24662Y12653D01*
X24443Y12562D01*
X24255Y12418D01*
X24111Y12230D01*
X24020Y12011D01*
X23989Y11776D01*
X24020Y11541D01*
X24111Y11322D01*
X24255Y11134D01*
X24443Y10990D01*
X24662Y10899D01*
X24897Y10868D01*
X25132Y10899D01*
X25351Y10990D01*
X25539Y11134D01*
X25683Y11322D01*
X25774Y11541D01*
X25805Y11776D01*
X25774Y12011D01*
X25683Y12230D01*
X25539Y12418D01*
X25351Y12562D01*
X25132Y12653D01*
X24897Y12684D01*
D02*
G37*
G36*
X22357D02*
X22122Y12653D01*
X21903Y12562D01*
X21715Y12418D01*
X21571Y12230D01*
X21480Y12011D01*
X21449Y11776D01*
X21480Y11541D01*
X21571Y11322D01*
X21715Y11134D01*
X21903Y10990D01*
X22122Y10899D01*
X22357Y10868D01*
X22592Y10899D01*
X22811Y10990D01*
X22999Y11134D01*
X23143Y11322D01*
X23234Y11541D01*
X23265Y11776D01*
X23234Y12011D01*
X23143Y12230D01*
X22999Y12418D01*
X22811Y12562D01*
X22592Y12653D01*
X22357Y12684D01*
D02*
G37*
G36*
X2037D02*
X1802Y12653D01*
X1583Y12562D01*
X1395Y12418D01*
X1251Y12230D01*
X1160Y12011D01*
X1129Y11776D01*
X1160Y11541D01*
X1251Y11322D01*
X1395Y11134D01*
X1583Y10990D01*
X1802Y10899D01*
X2037Y10868D01*
X2272Y10899D01*
X2491Y10990D01*
X2679Y11134D01*
X2823Y11322D01*
X2914Y11541D01*
X2945Y11776D01*
X2914Y12011D01*
X2823Y12230D01*
X2679Y12418D01*
X2491Y12562D01*
X2272Y12653D01*
X2037Y12684D01*
D02*
G37*
G36*
X24897Y10144D02*
X24662Y10113D01*
X24443Y10022D01*
X24255Y9878D01*
X24111Y9690D01*
X24020Y9471D01*
X23989Y9236D01*
X24020Y9001D01*
X24111Y8782D01*
X24255Y8594D01*
X24443Y8450D01*
X24662Y8359D01*
X24897Y8328D01*
X25132Y8359D01*
X25351Y8450D01*
X25539Y8594D01*
X25683Y8782D01*
X25774Y9001D01*
X25805Y9236D01*
X25774Y9471D01*
X25683Y9690D01*
X25539Y9878D01*
X25351Y10022D01*
X25132Y10113D01*
X24897Y10144D01*
D02*
G37*
G36*
X10435Y3648D02*
X9035D01*
X8920Y3601D01*
X8873Y3486D01*
Y2486D01*
X8920Y2371D01*
X9035Y2324D01*
X10435D01*
X10550Y2371D01*
X10597Y2486D01*
Y3486D01*
X10550Y3601D01*
X10435Y3648D01*
D02*
G37*
G36*
X17785Y3598D02*
X16385D01*
X16270Y3551D01*
X16223Y3436D01*
Y2436D01*
X16270Y2321D01*
X16385Y2274D01*
X17785D01*
X17900Y2321D01*
X17947Y2436D01*
Y3436D01*
X17900Y3551D01*
X17785Y3598D01*
D02*
G37*
%LPD*%
G36*
X11411Y11322D02*
X11536Y11158D01*
X11498Y11031D01*
X10599D01*
X10491Y11010D01*
X10399Y10949D01*
X10399Y10949D01*
X10147Y10696D01*
X8983D01*
X8983Y10696D01*
X8875Y10675D01*
X8783Y10614D01*
X8783Y10614D01*
X8309Y10140D01*
X8248Y10048D01*
X8227Y9940D01*
X8227Y9940D01*
Y8763D01*
X8227Y8763D01*
X8248Y8655D01*
X8309Y8563D01*
X9257Y7616D01*
X9208Y7498D01*
X7802D01*
X7085Y8215D01*
X7147Y8332D01*
X7352Y8359D01*
X7571Y8450D01*
X7759Y8594D01*
X7903Y8782D01*
X7994Y9001D01*
X8025Y9236D01*
X7994Y9471D01*
X7903Y9690D01*
X7759Y9878D01*
X7571Y10022D01*
X7352Y10113D01*
X7117Y10144D01*
X6882Y10113D01*
X6663Y10022D01*
X6475Y9878D01*
X6331Y9690D01*
X6296Y9605D01*
X6169Y9631D01*
Y9778D01*
X6147Y9886D01*
X6086Y9978D01*
X5324Y10741D01*
X5232Y10802D01*
X5124Y10823D01*
X5124Y10823D01*
X4961D01*
X4936Y10950D01*
X5031Y10990D01*
X5219Y11134D01*
X5363Y11322D01*
X5434Y11494D01*
X6260D01*
X6331Y11322D01*
X6475Y11134D01*
X6663Y10990D01*
X6882Y10899D01*
X7117Y10868D01*
X7352Y10899D01*
X7571Y10990D01*
X7759Y11134D01*
X7903Y11322D01*
X7974Y11494D01*
X8800D01*
X8871Y11322D01*
X9015Y11134D01*
X9203Y10990D01*
X9422Y10899D01*
X9657Y10868D01*
X9892Y10899D01*
X10111Y10990D01*
X10299Y11134D01*
X10443Y11322D01*
X10514Y11494D01*
X11340D01*
X11411Y11322D01*
D02*
G37*
G36*
X19031D02*
X19175Y11134D01*
X19363Y10990D01*
X19582Y10899D01*
X19817Y10868D01*
X20052Y10899D01*
X20223Y10970D01*
X20800Y10394D01*
Y9548D01*
X20673Y9522D01*
X20603Y9690D01*
X20459Y9878D01*
X20271Y10022D01*
X20052Y10113D01*
X19817Y10144D01*
X19582Y10113D01*
X19411Y10042D01*
X18504Y10949D01*
X18412Y11010D01*
X18304Y11031D01*
X18304Y11031D01*
X17976D01*
X17938Y11158D01*
X18063Y11322D01*
X18134Y11494D01*
X18960D01*
X19031Y11322D01*
D02*
G37*
G36*
X19011Y9642D02*
X18940Y9471D01*
X18909Y9236D01*
X18940Y9001D01*
X19031Y8782D01*
X19175Y8594D01*
X19363Y8450D01*
X19582Y8359D01*
X19817Y8328D01*
X20052Y8359D01*
X20271Y8450D01*
X20459Y8594D01*
X20603Y8782D01*
X20673Y8950D01*
X20800Y8924D01*
Y6721D01*
X19187Y5108D01*
X15014D01*
Y5639D01*
X15014Y5639D01*
X14997Y5725D01*
Y6186D01*
X14950Y6301D01*
X14835Y6348D01*
X14535D01*
X14467Y6394D01*
Y7913D01*
X14467Y7913D01*
X14446Y8021D01*
X14385Y8113D01*
X14385Y8113D01*
X13744Y8753D01*
Y8949D01*
X13871Y8974D01*
X13951Y8782D01*
X14095Y8594D01*
X14283Y8450D01*
X14502Y8359D01*
X14737Y8328D01*
X14972Y8359D01*
X15191Y8450D01*
X15379Y8594D01*
X15523Y8782D01*
X15614Y9001D01*
X15645Y9236D01*
X15614Y9471D01*
X15523Y9690D01*
X15379Y9878D01*
X15191Y10022D01*
X14972Y10113D01*
X14737Y10144D01*
X14502Y10113D01*
X14283Y10022D01*
X14095Y9878D01*
X13951Y9690D01*
X13871Y9498D01*
X13744Y9523D01*
Y9652D01*
X13744Y9652D01*
X13723Y9760D01*
X13662Y9852D01*
X13662Y9852D01*
X13164Y10349D01*
X13213Y10467D01*
X18187D01*
X19011Y9642D01*
D02*
G37*
G36*
X11630Y9936D02*
X11555Y9878D01*
X11411Y9690D01*
X11320Y9471D01*
X11289Y9236D01*
X11320Y9001D01*
X11411Y8782D01*
X11555Y8594D01*
X11743Y8450D01*
X11962Y8359D01*
X12197Y8328D01*
X12432Y8359D01*
X12603Y8430D01*
X13403Y7631D01*
Y6824D01*
X13276Y6772D01*
X12228Y7820D01*
X12136Y7881D01*
X12028Y7902D01*
X12028Y7902D01*
X9769D01*
X9443Y8228D01*
X9502Y8349D01*
X9657Y8328D01*
X9892Y8359D01*
X10111Y8450D01*
X10299Y8594D01*
X10443Y8782D01*
X10534Y9001D01*
X10565Y9236D01*
X10534Y9471D01*
X10463Y9642D01*
X10883Y10063D01*
X11587D01*
X11630Y9936D01*
D02*
G37*
%LPC*%
G36*
X17277Y10144D02*
X17042Y10113D01*
X16823Y10022D01*
X16635Y9878D01*
X16491Y9690D01*
X16400Y9471D01*
X16369Y9236D01*
X16400Y9001D01*
X16491Y8782D01*
X16635Y8594D01*
X16823Y8450D01*
X17042Y8359D01*
X17277Y8328D01*
X17512Y8359D01*
X17731Y8450D01*
X17919Y8594D01*
X18063Y8782D01*
X18154Y9001D01*
X18185Y9236D01*
X18154Y9471D01*
X18063Y9690D01*
X17919Y9878D01*
X17731Y10022D01*
X17512Y10113D01*
X17277Y10144D01*
D02*
G37*
%LPD*%
D10*
Y11776D02*
X19817D01*
X14737D02*
X17277D01*
X12197D02*
X14737D01*
X9657D02*
X12197D01*
X7117D02*
X9657D01*
X4577D02*
X7117D01*
X14732Y4826D02*
Y5639D01*
Y4318D02*
Y4826D01*
X19817Y11776D02*
X21082Y10511D01*
Y6604D02*
Y10511D01*
X19304Y4826D02*
X21082Y6604D01*
X14732Y4826D02*
X19304D01*
X14685Y5686D02*
X14732Y5639D01*
X12192Y4318D02*
X14732D01*
X12185Y4325D02*
X12192Y4318D01*
X12185Y4325D02*
Y5686D01*
X5124Y10541D02*
X5886Y9778D01*
Y9014D02*
Y9778D01*
Y9014D02*
X7685Y7216D01*
X3810Y10541D02*
X5124D01*
X2505Y9236D02*
X3810Y10541D01*
X2037Y9236D02*
X2505D01*
X7685Y7216D02*
X11861D01*
X12685Y6392D01*
Y5686D02*
Y6392D01*
X8983Y10414D02*
X10264D01*
X8509Y9940D02*
X8983Y10414D01*
X8509Y8763D02*
Y9940D01*
X10264Y10414D02*
X10599Y10749D01*
X12028Y7620D02*
X13185Y6463D01*
X9652Y7620D02*
X12028D01*
X8509Y8763D02*
X9652Y7620D01*
X13185Y5686D02*
Y6463D01*
X9657Y9236D02*
X10766Y10345D01*
X18304Y10749D02*
X19817Y9236D01*
X10599Y10749D02*
X18304D01*
X12769Y10345D02*
X13462Y9652D01*
X10766Y10345D02*
X12769D01*
X14185Y5686D02*
Y7913D01*
X13462Y8636D02*
X14185Y7913D01*
X13462Y8636D02*
Y9652D01*
X13685Y5686D02*
Y7748D01*
X12197Y9236D02*
X13685Y7748D01*
D13*
X9735Y2986D02*
D03*
X17085Y2936D02*
D03*
D14*
X13685Y5686D02*
D03*
X13185D02*
D03*
X14185D02*
D03*
X12685D02*
D03*
X12185D02*
D03*
X14685D02*
D03*
D19*
X2037Y9236D02*
D03*
D20*
Y11776D02*
D03*
X4577Y9236D02*
D03*
Y11776D02*
D03*
X7117Y9236D02*
D03*
Y11776D02*
D03*
X9657Y9236D02*
D03*
Y11776D02*
D03*
X12197Y9236D02*
D03*
Y11776D02*
D03*
X14737Y9236D02*
D03*
Y11776D02*
D03*
X17277Y9236D02*
D03*
Y11776D02*
D03*
X19817Y9236D02*
D03*
Y11776D02*
D03*
X22357Y9236D02*
D03*
Y11776D02*
D03*
X24897Y9236D02*
D03*
Y11776D02*
D03*
M02*
