G04*
G04 #@! TF.GenerationSoftware,Altium Limited,Altium Designer,23.3.1 (30)*
G04*
G04 Layer_Physical_Order=2*
G04 Layer_Color=16711680*
%FSLAX43Y43*%
%MOMM*%
G71*
G04*
G04 #@! TF.SameCoordinates,EF6148DA-A470-40B2-B036-D2E06F8B8601*
G04*
G04*
G04 #@! TF.FilePolarity,Positive*
G04*
G01*
G75*
%ADD19R,1.500X1.500*%
%ADD20C,1.500*%
G36*
X26769Y282D02*
X282D01*
Y13688D01*
X26769D01*
Y282D01*
D02*
G37*
%LPC*%
G36*
X24897Y12684D02*
X24662Y12653D01*
X24443Y12562D01*
X24255Y12418D01*
X24111Y12230D01*
X24020Y12011D01*
X23989Y11776D01*
X24020Y11541D01*
X24111Y11322D01*
X24255Y11134D01*
X24443Y10990D01*
X24662Y10899D01*
X24897Y10868D01*
X25132Y10899D01*
X25351Y10990D01*
X25539Y11134D01*
X25683Y11322D01*
X25774Y11541D01*
X25805Y11776D01*
X25774Y12011D01*
X25683Y12230D01*
X25539Y12418D01*
X25351Y12562D01*
X25132Y12653D01*
X24897Y12684D01*
D02*
G37*
G36*
X22357D02*
X22122Y12653D01*
X21903Y12562D01*
X21715Y12418D01*
X21571Y12230D01*
X21480Y12011D01*
X21449Y11776D01*
X21480Y11541D01*
X21571Y11322D01*
X21715Y11134D01*
X21903Y10990D01*
X22122Y10899D01*
X22357Y10868D01*
X22592Y10899D01*
X22811Y10990D01*
X22999Y11134D01*
X23143Y11322D01*
X23234Y11541D01*
X23265Y11776D01*
X23234Y12011D01*
X23143Y12230D01*
X22999Y12418D01*
X22811Y12562D01*
X22592Y12653D01*
X22357Y12684D01*
D02*
G37*
G36*
X19817D02*
X19582Y12653D01*
X19363Y12562D01*
X19175Y12418D01*
X19031Y12230D01*
X18940Y12011D01*
X18909Y11776D01*
X18940Y11541D01*
X19031Y11322D01*
X19175Y11134D01*
X19363Y10990D01*
X19582Y10899D01*
X19817Y10868D01*
X20052Y10899D01*
X20271Y10990D01*
X20459Y11134D01*
X20603Y11322D01*
X20694Y11541D01*
X20725Y11776D01*
X20694Y12011D01*
X20603Y12230D01*
X20459Y12418D01*
X20271Y12562D01*
X20052Y12653D01*
X19817Y12684D01*
D02*
G37*
G36*
X17277D02*
X17042Y12653D01*
X16823Y12562D01*
X16635Y12418D01*
X16491Y12230D01*
X16400Y12011D01*
X16369Y11776D01*
X16400Y11541D01*
X16491Y11322D01*
X16635Y11134D01*
X16823Y10990D01*
X17042Y10899D01*
X17277Y10868D01*
X17512Y10899D01*
X17731Y10990D01*
X17919Y11134D01*
X18063Y11322D01*
X18154Y11541D01*
X18185Y11776D01*
X18154Y12011D01*
X18063Y12230D01*
X17919Y12418D01*
X17731Y12562D01*
X17512Y12653D01*
X17277Y12684D01*
D02*
G37*
G36*
X14737D02*
X14502Y12653D01*
X14283Y12562D01*
X14095Y12418D01*
X13951Y12230D01*
X13860Y12011D01*
X13829Y11776D01*
X13860Y11541D01*
X13951Y11322D01*
X14095Y11134D01*
X14283Y10990D01*
X14502Y10899D01*
X14737Y10868D01*
X14972Y10899D01*
X15191Y10990D01*
X15379Y11134D01*
X15523Y11322D01*
X15614Y11541D01*
X15645Y11776D01*
X15614Y12011D01*
X15523Y12230D01*
X15379Y12418D01*
X15191Y12562D01*
X14972Y12653D01*
X14737Y12684D01*
D02*
G37*
G36*
X12197D02*
X11962Y12653D01*
X11743Y12562D01*
X11555Y12418D01*
X11411Y12230D01*
X11320Y12011D01*
X11289Y11776D01*
X11320Y11541D01*
X11411Y11322D01*
X11555Y11134D01*
X11743Y10990D01*
X11962Y10899D01*
X12197Y10868D01*
X12432Y10899D01*
X12651Y10990D01*
X12839Y11134D01*
X12983Y11322D01*
X13074Y11541D01*
X13105Y11776D01*
X13074Y12011D01*
X12983Y12230D01*
X12839Y12418D01*
X12651Y12562D01*
X12432Y12653D01*
X12197Y12684D01*
D02*
G37*
G36*
X9657D02*
X9422Y12653D01*
X9203Y12562D01*
X9015Y12418D01*
X8871Y12230D01*
X8780Y12011D01*
X8749Y11776D01*
X8780Y11541D01*
X8871Y11322D01*
X9015Y11134D01*
X9203Y10990D01*
X9422Y10899D01*
X9657Y10868D01*
X9892Y10899D01*
X10111Y10990D01*
X10299Y11134D01*
X10443Y11322D01*
X10534Y11541D01*
X10565Y11776D01*
X10534Y12011D01*
X10443Y12230D01*
X10299Y12418D01*
X10111Y12562D01*
X9892Y12653D01*
X9657Y12684D01*
D02*
G37*
G36*
X7117D02*
X6882Y12653D01*
X6663Y12562D01*
X6475Y12418D01*
X6331Y12230D01*
X6240Y12011D01*
X6209Y11776D01*
X6240Y11541D01*
X6331Y11322D01*
X6475Y11134D01*
X6663Y10990D01*
X6882Y10899D01*
X7117Y10868D01*
X7352Y10899D01*
X7571Y10990D01*
X7759Y11134D01*
X7903Y11322D01*
X7994Y11541D01*
X8025Y11776D01*
X7994Y12011D01*
X7903Y12230D01*
X7759Y12418D01*
X7571Y12562D01*
X7352Y12653D01*
X7117Y12684D01*
D02*
G37*
G36*
X4577D02*
X4342Y12653D01*
X4123Y12562D01*
X3935Y12418D01*
X3791Y12230D01*
X3700Y12011D01*
X3669Y11776D01*
X3700Y11541D01*
X3791Y11322D01*
X3935Y11134D01*
X4123Y10990D01*
X4342Y10899D01*
X4577Y10868D01*
X4812Y10899D01*
X5031Y10990D01*
X5219Y11134D01*
X5363Y11322D01*
X5454Y11541D01*
X5485Y11776D01*
X5454Y12011D01*
X5363Y12230D01*
X5219Y12418D01*
X5031Y12562D01*
X4812Y12653D01*
X4577Y12684D01*
D02*
G37*
G36*
X2037D02*
X1802Y12653D01*
X1583Y12562D01*
X1395Y12418D01*
X1251Y12230D01*
X1160Y12011D01*
X1129Y11776D01*
X1160Y11541D01*
X1251Y11322D01*
X1395Y11134D01*
X1583Y10990D01*
X1802Y10899D01*
X2037Y10868D01*
X2272Y10899D01*
X2491Y10990D01*
X2679Y11134D01*
X2823Y11322D01*
X2914Y11541D01*
X2945Y11776D01*
X2914Y12011D01*
X2823Y12230D01*
X2679Y12418D01*
X2491Y12562D01*
X2272Y12653D01*
X2037Y12684D01*
D02*
G37*
G36*
X24897Y10144D02*
X24662Y10113D01*
X24443Y10022D01*
X24255Y9878D01*
X24111Y9690D01*
X24020Y9471D01*
X23989Y9236D01*
X24020Y9001D01*
X24111Y8782D01*
X24255Y8594D01*
X24443Y8450D01*
X24662Y8359D01*
X24897Y8328D01*
X25132Y8359D01*
X25351Y8450D01*
X25539Y8594D01*
X25683Y8782D01*
X25774Y9001D01*
X25805Y9236D01*
X25774Y9471D01*
X25683Y9690D01*
X25539Y9878D01*
X25351Y10022D01*
X25132Y10113D01*
X24897Y10144D01*
D02*
G37*
G36*
X22357D02*
X22122Y10113D01*
X21903Y10022D01*
X21715Y9878D01*
X21571Y9690D01*
X21480Y9471D01*
X21449Y9236D01*
X21480Y9001D01*
X21571Y8782D01*
X21715Y8594D01*
X21903Y8450D01*
X22122Y8359D01*
X22357Y8328D01*
X22592Y8359D01*
X22811Y8450D01*
X22999Y8594D01*
X23143Y8782D01*
X23234Y9001D01*
X23265Y9236D01*
X23234Y9471D01*
X23143Y9690D01*
X22999Y9878D01*
X22811Y10022D01*
X22592Y10113D01*
X22357Y10144D01*
D02*
G37*
G36*
X19817D02*
X19582Y10113D01*
X19363Y10022D01*
X19175Y9878D01*
X19031Y9690D01*
X18940Y9471D01*
X18909Y9236D01*
X18940Y9001D01*
X19031Y8782D01*
X19175Y8594D01*
X19363Y8450D01*
X19582Y8359D01*
X19817Y8328D01*
X20052Y8359D01*
X20271Y8450D01*
X20459Y8594D01*
X20603Y8782D01*
X20694Y9001D01*
X20725Y9236D01*
X20694Y9471D01*
X20603Y9690D01*
X20459Y9878D01*
X20271Y10022D01*
X20052Y10113D01*
X19817Y10144D01*
D02*
G37*
G36*
X17277D02*
X17042Y10113D01*
X16823Y10022D01*
X16635Y9878D01*
X16491Y9690D01*
X16400Y9471D01*
X16369Y9236D01*
X16400Y9001D01*
X16491Y8782D01*
X16635Y8594D01*
X16823Y8450D01*
X17042Y8359D01*
X17277Y8328D01*
X17512Y8359D01*
X17731Y8450D01*
X17919Y8594D01*
X18063Y8782D01*
X18154Y9001D01*
X18185Y9236D01*
X18154Y9471D01*
X18063Y9690D01*
X17919Y9878D01*
X17731Y10022D01*
X17512Y10113D01*
X17277Y10144D01*
D02*
G37*
G36*
X14737D02*
X14502Y10113D01*
X14283Y10022D01*
X14095Y9878D01*
X13951Y9690D01*
X13860Y9471D01*
X13829Y9236D01*
X13860Y9001D01*
X13951Y8782D01*
X14095Y8594D01*
X14283Y8450D01*
X14502Y8359D01*
X14737Y8328D01*
X14972Y8359D01*
X15191Y8450D01*
X15379Y8594D01*
X15523Y8782D01*
X15614Y9001D01*
X15645Y9236D01*
X15614Y9471D01*
X15523Y9690D01*
X15379Y9878D01*
X15191Y10022D01*
X14972Y10113D01*
X14737Y10144D01*
D02*
G37*
G36*
X12197D02*
X11962Y10113D01*
X11743Y10022D01*
X11555Y9878D01*
X11411Y9690D01*
X11320Y9471D01*
X11289Y9236D01*
X11320Y9001D01*
X11411Y8782D01*
X11555Y8594D01*
X11743Y8450D01*
X11962Y8359D01*
X12197Y8328D01*
X12432Y8359D01*
X12651Y8450D01*
X12839Y8594D01*
X12983Y8782D01*
X13074Y9001D01*
X13105Y9236D01*
X13074Y9471D01*
X12983Y9690D01*
X12839Y9878D01*
X12651Y10022D01*
X12432Y10113D01*
X12197Y10144D01*
D02*
G37*
G36*
X9657D02*
X9422Y10113D01*
X9203Y10022D01*
X9015Y9878D01*
X8871Y9690D01*
X8780Y9471D01*
X8749Y9236D01*
X8780Y9001D01*
X8871Y8782D01*
X9015Y8594D01*
X9203Y8450D01*
X9422Y8359D01*
X9657Y8328D01*
X9892Y8359D01*
X10111Y8450D01*
X10299Y8594D01*
X10443Y8782D01*
X10534Y9001D01*
X10565Y9236D01*
X10534Y9471D01*
X10443Y9690D01*
X10299Y9878D01*
X10111Y10022D01*
X9892Y10113D01*
X9657Y10144D01*
D02*
G37*
G36*
X7117D02*
X6882Y10113D01*
X6663Y10022D01*
X6475Y9878D01*
X6331Y9690D01*
X6240Y9471D01*
X6209Y9236D01*
X6240Y9001D01*
X6331Y8782D01*
X6475Y8594D01*
X6663Y8450D01*
X6882Y8359D01*
X7117Y8328D01*
X7352Y8359D01*
X7571Y8450D01*
X7759Y8594D01*
X7903Y8782D01*
X7994Y9001D01*
X8025Y9236D01*
X7994Y9471D01*
X7903Y9690D01*
X7759Y9878D01*
X7571Y10022D01*
X7352Y10113D01*
X7117Y10144D01*
D02*
G37*
G36*
X4577D02*
X4342Y10113D01*
X4123Y10022D01*
X3935Y9878D01*
X3791Y9690D01*
X3700Y9471D01*
X3669Y9236D01*
X3700Y9001D01*
X3791Y8782D01*
X3935Y8594D01*
X4123Y8450D01*
X4342Y8359D01*
X4577Y8328D01*
X4812Y8359D01*
X5031Y8450D01*
X5219Y8594D01*
X5363Y8782D01*
X5454Y9001D01*
X5485Y9236D01*
X5454Y9471D01*
X5363Y9690D01*
X5219Y9878D01*
X5031Y10022D01*
X4812Y10113D01*
X4577Y10144D01*
D02*
G37*
G36*
X2787Y10148D02*
X1287D01*
X1172Y10101D01*
X1125Y9986D01*
Y8486D01*
X1172Y8371D01*
X1287Y8324D01*
X2787D01*
X2902Y8371D01*
X2949Y8486D01*
Y9986D01*
X2902Y10101D01*
X2787Y10148D01*
D02*
G37*
%LPD*%
D19*
X2037Y9236D02*
D03*
D20*
Y11776D02*
D03*
X4577Y9236D02*
D03*
Y11776D02*
D03*
X7117Y9236D02*
D03*
Y11776D02*
D03*
X9657Y9236D02*
D03*
Y11776D02*
D03*
X12197Y9236D02*
D03*
Y11776D02*
D03*
X14737Y9236D02*
D03*
Y11776D02*
D03*
X17277Y9236D02*
D03*
Y11776D02*
D03*
X19817Y9236D02*
D03*
Y11776D02*
D03*
X22357Y9236D02*
D03*
Y11776D02*
D03*
X24897Y9236D02*
D03*
Y11776D02*
D03*
M02*
