G04*
G04 #@! TF.GenerationSoftware,Altium Limited,Altium Designer,23.3.1 (30)*
G04*
G04 Layer_Color=65535*
%FSLAX43Y43*%
%MOMM*%
G71*
G04*
G04 #@! TF.SameCoordinates,EF6148DA-A470-40B2-B036-D2E06F8B8601*
G04*
G04*
G04 #@! TF.FilePolarity,Positive*
G04*
G01*
G75*
%ADD10C,0.254*%
%ADD11C,0.200*%
%ADD12C,0.100*%
D10*
X9585Y3686D02*
Y4536D01*
Y436D02*
Y2286D01*
X8785D02*
X9585D01*
X8785D02*
Y3686D01*
X9585D01*
X17285Y3636D02*
Y4636D01*
X18035Y2236D02*
Y2986D01*
X17285Y2236D02*
X18035D01*
X17335Y3636D02*
X18035D01*
Y2986D02*
Y3636D01*
X17285Y636D02*
Y2236D01*
X17235Y436D02*
X17285Y486D01*
Y636D01*
X9585Y436D02*
X17235D01*
X9635Y5886D02*
X11235D01*
X11785D01*
Y6386D01*
X15085D01*
Y5836D02*
Y6386D01*
Y5836D02*
X17285D01*
Y4636D02*
Y5836D01*
X9585Y4536D02*
Y5886D01*
X889Y3429D02*
Y4953D01*
X1905Y3429D01*
Y4953D01*
X2413Y3429D02*
Y4953D01*
X3174D01*
X3428Y4699D01*
Y4191D01*
X3174Y3937D01*
X2413D01*
X2920D02*
X3428Y3429D01*
X4952Y4953D02*
X3936D01*
Y4191D01*
X4444D01*
X3936D01*
Y3429D01*
X1778Y2413D02*
X1524Y2667D01*
X1016D01*
X762Y2413D01*
Y2159D01*
X1016Y1905D01*
X1524D01*
X1778Y1651D01*
Y1397D01*
X1524Y1143D01*
X1016D01*
X762Y1397D01*
X2286Y2667D02*
Y1143D01*
X2793Y1651D01*
X3301Y1143D01*
Y2667D01*
X3809D02*
Y1143D01*
X4571D01*
X4825Y1397D01*
Y2413D01*
X4571Y2667D01*
X3809D01*
D11*
X26167Y7966D02*
Y13046D01*
X767Y7966D02*
X2672D01*
X767D02*
Y13046D01*
X2672D01*
X26167D01*
X2672Y7966D02*
X26167D01*
X1651Y6223D02*
X1984D01*
X1818D01*
Y7223D01*
X1651Y7056D01*
D12*
X18963Y4960D02*
X18880Y5043D01*
X18713D01*
X18630Y4960D01*
Y4626D01*
X18713Y4543D01*
X18880D01*
X18963Y4626D01*
X19380Y5043D02*
X19213D01*
X19130Y4960D01*
Y4626D01*
X19213Y4543D01*
X19380D01*
X19463Y4626D01*
Y4960D01*
X19380Y5043D01*
X19630Y4543D02*
Y5043D01*
X19963Y4543D01*
Y5043D01*
X20130Y4543D02*
Y5043D01*
X20463Y4543D01*
Y5043D01*
X20629Y4460D02*
X20963D01*
X21462Y4960D02*
X21379Y5043D01*
X21212D01*
X21129Y4960D01*
Y4876D01*
X21212Y4793D01*
X21379D01*
X21462Y4710D01*
Y4626D01*
X21379Y4543D01*
X21212D01*
X21129Y4626D01*
X21629Y5043D02*
Y4543D01*
X21796Y4710D01*
X21962Y4543D01*
Y5043D01*
X22129D02*
Y4543D01*
X22379D01*
X22462Y4626D01*
Y4960D01*
X22379Y5043D01*
X22129D01*
X22629Y4543D02*
Y5043D01*
X22962Y4543D01*
Y5043D01*
X23129Y4543D02*
X23295D01*
X23212D01*
Y5043D01*
X23129Y4960D01*
X23066Y7402D02*
X22983Y7485D01*
X22816D01*
X22733Y7402D01*
Y7318D01*
X22816Y7235D01*
X22983D01*
X23066Y7152D01*
Y7068D01*
X22983Y6985D01*
X22816D01*
X22733Y7068D01*
X23233Y6902D02*
X23566D01*
X23733Y6985D02*
Y7485D01*
X24066Y6985D01*
Y7485D01*
X24233Y6985D02*
Y7485D01*
X24482D01*
X24566Y7402D01*
Y7235D01*
X24482Y7152D01*
X24233D01*
X24399D02*
X24566Y6985D01*
X24732Y7485D02*
Y6985D01*
X24982D01*
X25066Y7068D01*
Y7402D01*
X24982Y7485D01*
X24732D01*
X25565Y7402D02*
X25482Y7485D01*
X25315D01*
X25232Y7402D01*
Y7068D01*
X25315Y6985D01*
X25482D01*
X25565Y7068D01*
X25732Y6985D02*
X25899D01*
X25815D01*
Y7485D01*
X25732Y7402D01*
M02*
