G04*
G04 #@! TF.GenerationSoftware,Altium Limited,Altium Designer,23.3.1 (30)*
G04*
G04 Layer_Color=2752767*
%FSLAX43Y43*%
%MOMM*%
G71*
G04*
G04 #@! TF.SameCoordinates,EF6148DA-A470-40B2-B036-D2E06F8B8601*
G04*
G04*
G04 #@! TF.FilePolarity,Positive*
G04*
G01*
G75*
%ADD21C,0.051*%
D21*
X1834Y9033D02*
Y9439D01*
X2240D01*
Y9033D01*
X1834D01*
Y11573D02*
Y11979D01*
X2240D01*
Y11573D01*
X1834D01*
X4374Y9033D02*
Y9439D01*
X4780D01*
Y9033D01*
X4374D01*
Y11573D02*
Y11979D01*
X4780D01*
Y11573D01*
X4374D01*
X6914Y9033D02*
Y9439D01*
X7320D01*
Y9033D01*
X6914D01*
Y11573D02*
Y11979D01*
X7320D01*
Y11573D01*
X6914D01*
X9454Y9033D02*
Y9439D01*
X9860D01*
Y9033D01*
X9454D01*
Y11573D02*
Y11979D01*
X9860D01*
Y11573D01*
X9454D01*
X11994Y9033D02*
Y9439D01*
X12400D01*
Y9033D01*
X11994D01*
Y11573D02*
Y11979D01*
X12400D01*
Y11573D01*
X11994D01*
X14534Y9033D02*
Y9439D01*
X14940D01*
Y9033D01*
X14534D01*
Y11573D02*
Y11979D01*
X14940D01*
Y11573D01*
X14534D01*
X17074Y9033D02*
Y9439D01*
X17480D01*
Y9033D01*
X17074D01*
Y11573D02*
Y11979D01*
X17480D01*
Y11573D01*
X17074D01*
X19614Y9033D02*
Y9439D01*
X20020D01*
Y9033D01*
X19614D01*
Y11573D02*
Y11979D01*
X20020D01*
Y11573D01*
X19614D01*
X22154Y9033D02*
Y9439D01*
X22560D01*
Y9033D01*
X22154D01*
Y11573D02*
Y11979D01*
X22560D01*
Y11573D01*
X22154D01*
X24694Y9033D02*
Y9439D01*
X25100D01*
Y9033D01*
X24694D01*
Y11573D02*
Y11979D01*
X25100D01*
Y11573D01*
X24694D01*
M02*
