G04*
G04 #@! TF.GenerationSoftware,Altium Limited,Altium Designer,23.3.1 (30)*
G04*
G04 Layer_Color=128*
%FSLAX43Y43*%
%MOMM*%
G71*
G04*
G04 #@! TF.SameCoordinates,EF6148DA-A470-40B2-B036-D2E06F8B8601*
G04*
G04*
G04 #@! TF.FilePolarity,Positive*
G04*
G01*
G75*
%ADD21C,0.051*%
D21*
X1587Y9236D02*
X2487D01*
X2037Y8786D02*
Y9686D01*
X1587Y11776D02*
X2487D01*
X2037Y11326D02*
Y12226D01*
X4127Y9236D02*
X5027D01*
X4577Y8786D02*
Y9686D01*
X4127Y11776D02*
X5027D01*
X4577Y11326D02*
Y12226D01*
X6667Y9236D02*
X7567D01*
X7117Y8786D02*
Y9686D01*
X6667Y11776D02*
X7567D01*
X7117Y11326D02*
Y12226D01*
X9207Y9236D02*
X10107D01*
X9657Y8786D02*
Y9686D01*
X9207Y11776D02*
X10107D01*
X9657Y11326D02*
Y12226D01*
X11747Y9236D02*
X12647D01*
X12197Y8786D02*
Y9686D01*
X11747Y11776D02*
X12647D01*
X12197Y11326D02*
Y12226D01*
X14287Y9236D02*
X15187D01*
X14737Y8786D02*
Y9686D01*
X14287Y11776D02*
X15187D01*
X14737Y11326D02*
Y12226D01*
X16827Y9236D02*
X17727D01*
X17277Y8786D02*
Y9686D01*
X16827Y11776D02*
X17727D01*
X17277Y11326D02*
Y12226D01*
X19367Y9236D02*
X20267D01*
X19817Y8786D02*
Y9686D01*
X19367Y11776D02*
X20267D01*
X19817Y11326D02*
Y12226D01*
X21907Y9236D02*
X22807D01*
X22357Y8786D02*
Y9686D01*
X21907Y11776D02*
X22807D01*
X22357Y11326D02*
Y12226D01*
X24447Y9236D02*
X25347D01*
X24897Y8786D02*
Y9686D01*
X24447Y11776D02*
X25347D01*
X24897Y11326D02*
Y12226D01*
M02*
