M48
;Layer_Color=9474304
;FILE_FORMAT=4:4
METRIC,LZ
;TYPE=PLATED
T1F00S00C0.3000
T2F00S00C2.4000
%
T01
X00027001Y00010001
X000551Y00027289
X0006825Y0002875
X0010825Y00017
X0012675Y00009
X0016575Y0000925
X00166501Y00055001
X00162001Y00064001
X0015025Y000635
X00136416Y00080317
X00128743Y00079676
X00117006Y00096005
X00103255Y00108005
X001035Y00122511
X00095675Y00120325
X00084755Y00126
X0008162Y00116
X00063056Y001269
X00050991Y00125442
X00050249Y0013835
X0005Y00151
X00057716Y00160254
X00065623Y00160714
X0006125Y0014215
X0008911Y00140801
X00089Y001485
X00102Y00145757
X00110755Y00146507
X00104586Y00135666
X00114609Y00166404
X001229Y00163943
X001241Y00182475
X00131417Y00179
X00132593Y0020265
X00132536Y00220795
X00140114Y00218911
X00147507Y00216751
X00147257Y00224447
X00152037Y00230547
X0016275Y00229299
X00159508Y00192759
X00156608Y00185627
Y0017525
X00166501Y00181001
Y00163001
X00156608Y001595
Y00145787
X0016525Y00119
X001611Y001104
X00162001Y00100001
X00161258Y00090004
X00119507Y00054177
X00055503Y00052753
X000555Y00045
X00037Y0004675
Y00056
X00035359Y00066151
X000395Y0007375
Y0008475
X00046063Y0008225
X00052422Y00074654
X000475Y000595
X0000875Y000565
X0000925Y00071
X0001136Y0008011
X00007228Y001025
X0001Y0012325
X000075Y001335
X00007164Y001445
X000261Y0013715
X0000875Y0016975
Y0018075
X00042502Y0018695
X000368Y0019315
X00037317Y002284
X00066567Y002199
X00060083Y00213417
X0007875Y0021
X00108356Y00219902
X00116169Y0021835
X00123239Y002214
X00055398Y001104
X00051252Y00103505
T02
X00145Y00032
M30
